<?xml version="1.0" encoding="utf-8"?>
<!-- Generator: Adobe Illustrator 17.0.0, SVG Export Plug-In . SVG Version: 6.00 Build 0)  -->
<!DOCTYPE svg PUBLIC "-//W3C//DTD SVG 1.1//EN" "http://www.w3.org/Graphics/SVG/1.1/DTD/svg11.dtd">
<svg version="1.1" id="图层_1" xmlns="http://www.w3.org/2000/svg" xmlns:xlink="http://www.w3.org/1999/xlink" x="0px" y="0px"
	 width="200px" height="200px" viewBox="0 0 200 200" enable-background="new 0 0 200 200" xml:space="preserve">
<g>
	<path fill="#FFFFFF" d="M123.769,70.487l0.003-0.003c-1.636-0.029-3.045-1.06-3.662-2.476l-0.001,0.002
		c-5.195-12.178-17.277-20.716-31.353-20.716c-18.819,0-34.074,15.255-34.074,34.074c0,18.818,15.255,34.074,34.074,34.074
		c5.352,0,10.413-1.237,14.92-3.436v-21.52c0-6.803,5.514-12.318,12.318-12.318s12.319,5.515,12.319,12.318
		s-5.515,12.318-12.319,12.318c-1.47,0-2.88-0.259-4.188-0.732v10.484c3.258,1.836,7.017,2.886,11.024,2.886
		c12.42,0,22.488-10.07,22.488-22.488C145.318,80.847,135.754,70.981,123.769,70.487 M92.821,109.078
		c0,2.245-1.82,4.066-4.065,4.066c-2.245,0-4.065-1.821-4.065-4.066v-16.56c0-2.245,1.821-4.065,4.065-4.065
		c2.245,0,4.065,1.82,4.065,4.065V109.078z M88.756,85.432c-2.245,0-4.065-1.819-4.065-4.064s1.821-4.066,4.065-4.066
		c2.245,0,4.065,1.82,4.065,4.066S91.001,85.432,88.756,85.432"/>
	<path fill="#FFFFFF" d="M120.059,90.485c0-2.245-1.819-4.065-4.065-4.065c-2.245,0-4.065,1.82-4.065,4.065
		c0,2.245,1.82,4.065,4.065,4.065C118.24,94.551,120.059,92.731,120.059,90.485"/>
	<rect x="55.177" y="127.789" fill="#FFFFFF" width="1.242" height="9.159"/>
	<polygon fill="#FFFFFF" points="58.773,127.789 60.404,127.789 65.449,135.318 65.474,135.318 65.474,127.789 66.716,127.789 
		66.716,136.948 65.138,136.948 60.042,129.419 60.015,129.419 60.015,136.948 58.773,136.948 	"/>
	<polygon fill="#FFFFFF" points="70.986,128.953 68.036,128.953 68.036,127.789 75.177,127.789 75.177,128.953 72.228,128.953 
		72.228,136.948 70.986,136.948 	"/>
	<polygon fill="#FFFFFF" points="76.496,127.789 82.409,127.789 82.409,128.953 77.739,128.953 77.739,131.683 82.085,131.683 
		82.085,132.847 77.739,132.847 77.739,135.783 82.642,135.783 82.642,136.948 76.496,136.948 	"/>
	<polygon fill="#FFFFFF" points="84.4,127.789 85.642,127.789 85.642,135.783 89.846,135.783 89.846,136.948 84.4,136.948 	"/>
	<polygon fill="#FFFFFF" points="91.115,127.789 92.356,127.789 92.356,135.783 96.561,135.783 96.561,136.948 91.115,136.948 	"/>
	<rect x="97.828" y="127.789" fill="#FFFFFF" width="1.242" height="9.159"/>
	<path fill="#FFFFFF" d="M109.226,131.825v4.515c-0.225,0.138-0.479,0.259-0.763,0.362c-0.285,0.103-0.58,0.192-0.886,0.266
		c-0.307,0.073-0.617,0.127-0.932,0.162c-0.315,0.035-0.611,0.052-0.886,0.052c-0.777,0-1.469-0.129-2.077-0.388
		s-1.121-0.608-1.539-1.047c-0.418-0.441-0.737-0.951-0.957-1.533c-0.22-0.583-0.33-1.196-0.33-1.844
		c0-0.681,0.118-1.314,0.355-1.901c0.237-0.587,0.565-1.095,0.983-1.527c0.418-0.431,0.92-0.769,1.507-1.016
		c0.586-0.246,1.229-0.369,1.927-0.369c0.845,0,1.535,0.105,2.069,0.317c0.535,0.212,0.983,0.503,1.345,0.873l-0.88,0.944
		c-0.379-0.362-0.78-0.614-1.203-0.756c-0.422-0.142-0.866-0.213-1.332-0.213c-0.526,0-1.001,0.096-1.423,0.29
		c-0.422,0.195-0.785,0.455-1.087,0.783c-0.302,0.327-0.534,0.713-0.698,1.157c-0.164,0.445-0.246,0.916-0.246,1.417
		c0,0.517,0.091,0.998,0.272,1.443c0.181,0.444,0.432,0.83,0.751,1.157c0.319,0.329,0.694,0.585,1.125,0.77
		c0.431,0.186,0.901,0.278,1.41,0.278c0.44,0,0.856-0.041,1.249-0.123c0.392-0.082,0.727-0.201,1.002-0.356v-2.548h-2.031v-1.164
		L109.226,131.825L109.226,131.825z"/>
	<polygon fill="#FFFFFF" points="111.49,127.789 117.402,127.789 117.402,128.953 112.731,128.953 112.731,131.683 117.078,131.683 
		117.078,132.847 112.731,132.847 112.731,135.783 117.635,135.783 117.635,136.948 111.49,136.948 	"/>
	<polygon fill="#FFFFFF" points="119.394,127.789 121.024,127.789 126.069,135.318 126.094,135.318 126.094,127.789 
		127.337,127.789 127.337,136.948 125.759,136.948 120.662,129.419 120.635,129.419 120.635,136.948 119.394,136.948 	"/>
	<path fill="#FFFFFF" d="M136.069,129.768c-0.259-0.336-0.586-0.595-0.984-0.776c-0.397-0.182-0.806-0.272-1.228-0.272
		c-0.518,0-0.985,0.097-1.404,0.291c-0.418,0.195-0.776,0.46-1.074,0.796c-0.297,0.336-0.528,0.731-0.692,1.183
		c-0.164,0.453-0.247,0.938-0.247,1.456c0,0.483,0.079,0.94,0.234,1.371c0.155,0.432,0.38,0.811,0.673,1.139
		s0.651,0.587,1.073,0.776c0.423,0.19,0.901,0.285,1.436,0.285c0.525,0,0.987-0.108,1.384-0.324
		c0.397-0.215,0.733-0.517,1.009-0.905l1.048,0.789c-0.069,0.095-0.189,0.23-0.362,0.408c-0.172,0.176-0.401,0.353-0.686,0.53
		c-0.284,0.177-0.628,0.332-1.029,0.466c-0.401,0.133-0.865,0.2-1.39,0.2c-0.725,0-1.379-0.138-1.96-0.414
		c-0.583-0.276-1.078-0.639-1.488-1.087c-0.41-0.449-0.723-0.955-0.938-1.52c-0.216-0.565-0.323-1.136-0.323-1.714
		c0-0.707,0.116-1.36,0.349-1.96c0.233-0.599,0.558-1.116,0.977-1.552c0.418-0.436,0.921-0.774,1.507-1.016
		c0.586-0.242,1.233-0.362,1.94-0.362c0.604,0,1.196,0.116,1.779,0.349c0.582,0.233,1.058,0.591,1.429,1.074L136.069,129.768z"/>
	<polygon fill="#FFFFFF" points="138.798,127.789 144.71,127.789 144.71,128.953 140.04,128.953 140.04,131.683 144.387,131.683 
		144.387,132.847 140.04,132.847 140.04,135.783 144.943,135.783 144.943,136.948 138.798,136.948 	"/>
	<path fill="#FFFFFF" d="M72.182,143.313h3.221c0.587,0,1.07,0.08,1.449,0.239s0.679,0.362,0.899,0.608s0.373,0.522,0.46,0.828
		c0.086,0.306,0.13,0.601,0.13,0.886s-0.043,0.58-0.13,0.886c-0.087,0.306-0.239,0.582-0.46,0.828
		c-0.22,0.246-0.519,0.448-0.899,0.608c-0.38,0.159-0.863,0.239-1.449,0.239h-1.979v4.036h-1.241L72.182,143.313L72.182,143.313
		L72.182,143.313z M73.424,147.349h1.63c0.242,0,0.481-0.019,0.718-0.058s0.449-0.11,0.634-0.213
		c0.186-0.104,0.334-0.252,0.447-0.446c0.112-0.194,0.168-0.446,0.168-0.757c0-0.31-0.056-0.562-0.168-0.757
		c-0.112-0.194-0.261-0.343-0.447-0.446c-0.185-0.103-0.397-0.174-0.634-0.213c-0.237-0.039-0.476-0.058-0.718-0.058h-1.63V147.349z
		"/>
	<path fill="#FFFFFF" d="M81.768,143.313h1.126l3.92,9.159h-1.449l-0.918-2.264h-4.36l-0.906,2.264h-1.449L81.768,143.313z
		 M83.993,149.121l-1.708-4.204h-0.026l-1.733,4.204H83.993z"/>
	<path fill="#FFFFFF" d="M88.004,143.313h3.221c0.587,0,1.07,0.08,1.449,0.239c0.379,0.159,0.679,0.362,0.899,0.608
		c0.22,0.246,0.373,0.522,0.46,0.828c0.087,0.306,0.13,0.601,0.13,0.886c0,0.293-0.053,0.576-0.155,0.848
		c-0.104,0.272-0.253,0.517-0.447,0.737s-0.431,0.406-0.712,0.557c-0.28,0.152-0.593,0.244-0.937,0.278l2.6,4.179H92.96
		l-2.329-4.036h-1.385v4.036h-1.241L88.004,143.313L88.004,143.313z M89.245,147.349h1.63c0.242,0,0.481-0.019,0.718-0.058
		s0.448-0.11,0.634-0.213c0.186-0.104,0.334-0.252,0.447-0.446c0.112-0.194,0.168-0.446,0.168-0.757c0-0.31-0.056-0.562-0.168-0.757
		c-0.112-0.194-0.261-0.343-0.447-0.446c-0.185-0.103-0.397-0.174-0.634-0.213c-0.237-0.039-0.476-0.058-0.718-0.058h-1.63V147.349z
		"/>
	<path fill="#FFFFFF" d="M98.779,143.313h1.126l3.92,9.159h-1.449l-0.918-2.264h-4.36l-0.906,2.264h-1.449L98.779,143.313z
		 M101.004,149.121l-1.707-4.204h-0.026l-1.733,4.204H101.004z"/>
	<path fill="#FFFFFF" d="M104.808,143.313h3.195c0.647,0,1.214,0.073,1.701,0.22s0.91,0.344,1.268,0.589
		c0.358,0.246,0.655,0.529,0.892,0.848s0.425,0.646,0.563,0.983c0.138,0.336,0.237,0.672,0.297,1.009
		c0.06,0.336,0.091,0.647,0.091,0.932c0,0.587-0.108,1.153-0.324,1.701c-0.216,0.547-0.535,1.035-0.957,1.462
		s-0.946,0.77-1.571,1.029c-0.626,0.258-1.348,0.388-2.167,0.388h-2.988V143.313z M106.05,151.308h1.566
		c0.526,0,1.024-0.071,1.494-0.213c0.47-0.142,0.882-0.356,1.236-0.641c0.353-0.284,0.634-0.64,0.84-1.067
		c0.207-0.427,0.311-0.925,0.311-1.494c0-0.293-0.048-0.637-0.142-1.029c-0.095-0.393-0.274-0.766-0.537-1.119
		c-0.264-0.353-0.628-0.653-1.094-0.899c-0.465-0.247-1.069-0.369-1.811-0.369h-1.863V151.308z"/>
	<rect x="114.6" y="143.313" fill="#FFFFFF" width="1.242" height="9.159"/>
	<path fill="#FFFFFF" d="M118.469,150.557c0.224,0.336,0.511,0.584,0.86,0.744c0.349,0.159,0.71,0.239,1.08,0.239
		c0.206,0,0.418-0.033,0.634-0.097c0.216-0.065,0.412-0.162,0.588-0.292c0.178-0.129,0.322-0.289,0.433-0.478
		c0.112-0.19,0.168-0.41,0.168-0.66c0-0.353-0.112-0.623-0.336-0.808c-0.224-0.186-0.502-0.34-0.834-0.465s-0.694-0.246-1.086-0.362
		c-0.393-0.117-0.754-0.279-1.087-0.486c-0.332-0.207-0.61-0.484-0.834-0.834c-0.225-0.349-0.336-0.821-0.336-1.416
		c0-0.267,0.058-0.552,0.175-0.854c0.116-0.302,0.299-0.578,0.55-0.828c0.25-0.25,0.571-0.46,0.963-0.627
		c0.393-0.168,0.865-0.252,1.417-0.252c0.5,0,0.979,0.069,1.435,0.207c0.457,0.137,0.859,0.418,1.203,0.841l-1.009,0.918
		c-0.155-0.241-0.374-0.435-0.66-0.581c-0.284-0.147-0.608-0.22-0.969-0.22c-0.346,0-0.632,0.045-0.861,0.136
		c-0.229,0.09-0.412,0.207-0.55,0.349s-0.235,0.296-0.29,0.459c-0.057,0.165-0.085,0.315-0.085,0.453
		c0,0.388,0.112,0.685,0.336,0.892s0.503,0.375,0.835,0.505c0.331,0.129,0.694,0.246,1.086,0.349
		c0.393,0.104,0.756,0.248,1.087,0.433c0.332,0.186,0.61,0.436,0.834,0.751s0.336,0.748,0.336,1.3c0,0.44-0.085,0.836-0.252,1.19
		c-0.168,0.353-0.394,0.651-0.679,0.892c-0.285,0.242-0.621,0.427-1.009,0.556s-0.802,0.195-1.242,0.195
		c-0.586,0-1.143-0.104-1.668-0.311c-0.527-0.207-0.945-0.526-1.255-0.957L118.469,150.557z"/>
	<polygon fill="#FFFFFF" points="125.39,143.313 131.302,143.313 131.302,144.477 126.632,144.477 126.632,147.207 130.978,147.207 
		130.978,148.371 126.632,148.371 126.632,151.307 131.535,151.307 131.535,152.472 125.39,152.472 	"/>
</g>
</svg>
