<?xml version="1.0" standalone="no"?>
<!DOCTYPE svg PUBLIC "-//W3C//DTD SVG 1.1//EN" "http://www.w3.org/Graphics/SVG/1.1/DTD/svg11.dtd" >
<svg xmlns="http://www.w3.org/2000/svg">
<metadata></metadata>
<defs>
<font id="ta_have_a_nice_daybasic" horiz-adv-x="829" >
<font-face units-per-em="2048" ascent="1944" descent="-104" />
<missing-glyph horiz-adv-x="452" />
<glyph horiz-adv-x="0" />
<glyph unicode="&#xd;" horiz-adv-x="0" />
<glyph horiz-adv-x="0" />
<glyph horiz-adv-x="0" />
<glyph unicode=" "  horiz-adv-x="452" />
<glyph unicode="&#x09;" horiz-adv-x="452" />
<glyph unicode="&#xa0;" horiz-adv-x="452" />
<glyph unicode="!" horiz-adv-x="243" d="M53 592v289.5t2 289.5q2 51 3 104.5t1 104.5q0 53 -1 106.5t-1 106.5l6 13q16 8 25 8q18 0 24.5 -10.5t6.5 -26.5q0 -35 -2 -74t-2 -73q0 -98 -2 -193.5t-2 -194.5q0 -119 -1 -236.5t-1 -236.5q0 -53 7 -105t7 -106q0 -12 -6 -25.5t-23 -13.5q-14 0 -23.5 11.5t-9.5 25.5 q0 59 -4 118t-4 118zM59 77.5v26.5t1 20.5t6 18.5l18 13q16 2 25.5 -11.5t13.5 -34t4 -41v-30.5q0 -31 -27 -43h-16q-10 4 -15.5 17.5t-7.5 30.5t-2 33.5z" />
<glyph unicode="&#x22;" horiz-adv-x="323" d="M4 1599v25l6 14q15 11 25 11q16 0 21 -14.5t5 -28.5q0 -41 2.5 -81t2.5 -81v-62v-36l-21 -21h-14l-21 23q2 63 -2 125.5t-4 125.5zM139 1599v25l6 14q15 11 25 11q16 0 21.5 -14.5t5.5 -28.5q0 -41 2 -81t2 -81v-62v-36l-21 -21h-14l-21 23q2 63 -2 125.5t-4 125.5z" />
<glyph unicode="#" horiz-adv-x="1277" d="M53 37q0 4 9.5 38t43.5 138q14 43 30 87t28 81q6 16 12 31.5t10 27.5l31 60h-57h-31q-18 0 -32.5 4t-24.5 8q-18 10 -19 33q2 16 30 21t50 5q10 0 19.5 -1t17.5 -1h8h21h26l17 39q39 100 71.5 196.5t65.5 178.5l27 61l-50 -2q-29 0 -52 -1t-46 -1l-2 -2q-12 0 -26.5 6.5 t-14.5 22.5q0 12 7 19.5t17.5 11.5t19.5 5t11 1h29t107 2h20l16 39q25 59 46.5 117.5t41.5 117.5q20 53 39 105.5t41 105.5q12 31 19.5 38t9.5 9l4 2h2q0 2 4 2q25 0 30 -8t5 -16q-2 -10 -14.5 -45t-29.5 -82t-37.5 -101.5t-39 -103.5t-33 -86t-20.5 -51l-16 -43h79h203h111 h49l8 18q27 63 50.5 128t45.5 128q18 53 38 105.5t42 105.5q10 31 17.5 38t9.5 9l6 2q2 2 6 2q23 0 29 -8t6 -16q-2 -10 -14.5 -45t-29.5 -82t-37.5 -101.5t-39 -103.5t-33 -86t-20.5 -51l-19 -47l52 4q16 0 24 2q14 2 27.5 3t25.5 1q2 0 11.5 -1t21 -4t19.5 -10t8 -20 q0 -16 -15.5 -22t-27.5 -6q-39 0 -76 -1t-72 -4l-18 -2l-8 -18q-45 -111 -83 -212t-71 -198l-14 -43h43h33q14 0 26.5 -1t28.5 1h29q82 0 82 -26q0 -4 -1.5 -11.5t-9.5 -15.5t-24.5 -13t-46.5 -5q-20 0 -39 1t-39 3t-41 2h-41h-23l-6 -21q-18 -47 -39.5 -107.5t-42 -120.5 t-36 -114.5t-21.5 -85.5q-4 -23 -15.5 -40t-27.5 -17q-14 0 -22.5 11.5t-8.5 25.5q0 12 12.5 54t31 94.5t37 106.5t30.5 89q10 29 18 50.5t13 33.5l12 41h-43q-10 0 -22.5 1t-22.5 1q-12 0 -24.5 1t-24.5 1q-104 0 -209 -6l-99 -4l-12 -35q-14 -39 -34.5 -96.5t-40 -115.5 t-36 -111.5t-22.5 -84.5q-4 -23 -15.5 -40t-27.5 -17q-14 0 -22.5 11.5t-8.5 25.5zM295 563l113 4q31 2 62.5 2h61.5q49 0 93.5 -1t87.5 -3h22l8 23q37 111 76 213t78 200l16 43h-47h-54.5t-53.5 3q-29 0 -55.5 1t-53.5 1l-178 -7l-8 -18q-37 -92 -75 -194.5t-79 -223.5z " />
<glyph unicode="$" horiz-adv-x="815" d="M6 334q0 14 7 25.5t24 11.5q6 0 14 -4l15 -21v-43q0 -45 20 -88t54 -79t75 -59.5t84 -31.5q2 45 2 89v91q0 137 -3 273.5t-3 273.5v94q-33 33 -73 53.5t-75 51.5q-63 55 -95 137t-32 168q0 68 24 125t63.5 101t94 75t117.5 47v30.5t3.5 36t11.5 30t26 12.5 q14 0 21.5 -9.5t7.5 -21.5q0 -16 -2 -33.5t-4 -34.5q37 2 81 -9t82 -35.5t63.5 -58.5t25.5 -75q0 -10 -3 -29.5t-18 -19.5q-12 0 -20 10t-13.5 24.5t-9.5 30t-10 23.5q-29 35 -72 58.5t-88 19.5l-20 -2q-14 -166 -14 -333t-7 -335q68 -55 124.5 -110.5t96.5 -119t62.5 -138 t22.5 -166.5q0 -72 -20.5 -136.5t-58.5 -117t-94.5 -88t-130.5 -47.5v-19q0 -10 2.5 -33.5t0 -47t-8.5 -42t-22 -18.5q-20 0 -27.5 14t-7.5 31v56.5t2 55.5q-68 8 -122 41t-92 81t-59.5 108.5t-21.5 126.5zM86 1280q0 -23 4 -52.5t12.5 -60t19.5 -58.5t25 -46 q29 -39 71 -63.5t81 -49.5q4 154 6 305.5t10 305.5q-102 -27 -165.5 -99.5t-63.5 -181.5zM358 670q0 -129 3.5 -257t3.5 -257v-99v-10q61 8 106 38t74.5 74t44 98.5t14.5 111.5q0 147 -68.5 252.5t-177.5 195.5v-53v-94z" />
<glyph unicode="%" horiz-adv-x="741" d="M0 1208q0 78 33 151t104 109q14 8 31.5 15.5t34.5 7.5q45 0 75.5 -24.5t49 -60.5t26.5 -78t8 -79q0 -43 -9 -91t-31.5 -88t-58.5 -66.5t-87 -26.5q-47 0 -81 20.5t-55.5 54t-30.5 74.5t-9 82zM57 1206q0 -27 5.5 -57.5t18.5 -56t34.5 -42t54.5 -16.5q43 0 68.5 22.5 t40 56.5t19.5 72t5 70q0 18 -4 48t-15.5 60t-27.5 50.5t-41 20.5q-14 0 -28.5 -5.5t-24.5 -11.5q-61 -31 -83 -88t-22 -123zM98 29q0 10 4 17t9 17q29 86 49 176.5t43 178.5q53 213 115.5 421t127.5 418q29 90 51.5 184.5t63.5 180.5q4 14 17 14q12 0 22 -11t10 -21 q0 -8 -11 -51.5t-29.5 -103.5t-40 -130t-42 -132.5t-36 -109.5t-21.5 -63q-33 -86 -55.5 -173t-44.5 -177q-33 -129 -67 -255t-68 -255q-4 -14 -8.5 -38t-11.5 -48.5t-18.5 -44t-25.5 -25.5l-20 6q-13 9 -13 25zM289 231q0 39 8 80t26.5 78t47 66.5t67.5 46.5q12 4 28 9 t30 5q45 0 75.5 -24.5t48 -60.5t24.5 -78t7 -79q0 -43 -9 -91t-30.5 -89t-57.5 -67.5t-87 -26.5q-47 0 -80 21.5t-55.5 54.5t-32.5 73.5t-10 81.5zM346 236q0 -29 5 -60t17.5 -56.5t35 -43t57.5 -17.5q41 0 66.5 21.5t40 54.5t19.5 71t5 68q0 18 -4 50t-14.5 62t-28 51.5 t-43.5 21.5q-10 0 -21.5 -5t-21.5 -10q-63 -31 -88 -87t-25 -121z" />
<glyph unicode="&#x26;" horiz-adv-x="952" d="M4 494q0 266 258 499l17 17l-9 20q-10 23 -19 44.5t-20 39.5q-18 37 -32.5 68.5t-24.5 64.5t-15 71t-5 85q0 125 55 182t172 57q45 0 91 -15t82 -43t58.5 -67.5t22.5 -89.5q0 -170 -262 -415l-17 -17l340 -784l19 94q10 45 17 52.5t13 7.5h5q16 -2 24 -9.5t8 -36.5 q-2 -8 -10 -58t-31 -103l-10 -23l8 -12q23 -49 28 -67.5t5 -22.5q-2 -12 -12 -20.5t-23 -6.5q-10 0 -16 6t-16 27l-15 37l-41 -31q-33 -23 -72.5 -34t-82.5 -11q-80 0 -185 27q-47 12 -94 48t-86 84t-67.5 101t-41.5 102q-16 72 -16 132zM68 492q0 -51 15 -109.5t43 -113 t66.5 -98.5t88.5 -69q35 -16 91 -28.5t101 -12.5t78 9.5t54.5 21.5t32.5 22l11 11l15 16l-355 805l-30 -26q-47 -41 -86 -92.5t-67 -107.5t-43 -114.5t-15 -113.5zM217 1407q0 -86 26.5 -159.5t65.5 -153.5l17 -37l30 26q8 6 43 40t73 82t67.5 105.5t29.5 110.5q0 37 -16 69 t-43 53.5t-60.5 33.5t-66.5 12q-55 0 -88 -16.5t-50.5 -43t-22.5 -59t-5 -63.5z" />
<glyph unicode="'" horiz-adv-x="198" d="M4 1599v25l6 14q15 11 25 11q16 0 21 -14.5t5 -28.5q0 -41 2.5 -81t2.5 -81v-62v-36l-35 -21l-21 23q2 63 -2 125.5t-4 125.5z" />
<glyph unicode="(" horiz-adv-x="528" d="M25 879q0 143 47 280q8 20 14 47q14 57 33.5 108.5t42.5 104.5q12 27 32.5 60.5t46 64.5t53.5 56.5t56 37.5q2 0 6 1t6 1q12 0 21.5 -5t9.5 -19q0 -6 -4 -14q-43 -33 -82 -71t-67 -83q-35 -57 -64 -133t-48 -158t-30.5 -162t-11.5 -145q0 -98 15.5 -206.5t48 -216.5 t79.5 -205t113 -173l4 -22l-6 -13l-29 -12q-25 12 -38 33.5t-27 44.5q-57 84 -98.5 181t-69 200.5t-40.5 210.5t-13 207z" />
<glyph unicode=")" horiz-adv-x="520" d="M27 1616q0 14 9 19t21 5q2 0 6.5 -1t6.5 -1q27 -12 55.5 -37.5t54 -56.5t46 -64.5t32.5 -60.5q23 -53 41 -104t35 -109q6 -27 14 -47q45 -133 45 -280q0 -100 -13 -207t-40 -210.5t-68 -200.5t-98 -181q-14 -23 -28.5 -44.5t-36.5 -33.5l-29 12l-6 13l4 22 q63 76 111.5 173t81 205t48 216.5t15.5 206.5q0 66 -11.5 145.5t-31 161.5t-48 158t-63.5 133q-29 45 -67.5 83t-81.5 71q-4 8 -4 14z" />
<glyph unicode="*" horiz-adv-x="710" d="M0 1364q0 12 31.5 18.5t71.5 7.5t78 0t50 -1q-4 12 -18 48t-29.5 76.5t-27 76.5t-11.5 50q0 10 4.5 18.5t14.5 8.5t18 -4q6 -4 19.5 -35t28 -68.5t26.5 -73.5l16 -48q6 14 18.5 52t28 77t34 68.5t34.5 29.5q23 0 23 -27q0 -16 -12.5 -49t-29 -71.5t-33 -74.5t-22.5 -54 h129q20 0 39 3t37 3q16 0 39 -6.5t23 -28.5q0 -10 -12.5 -15.5t-28 -8.5t-29.5 -3h-21q-23 0 -44 2t-44 2t-46 -2t-46 0q6 -16 21.5 -53t33 -77t31 -72.5t13.5 -38.5q0 -27 -16.5 -27t-33.5 -6q-4 6 -18 37.5t-29.5 68.5t-28 68t-12.5 35l2 6q-6 -16 -20 -55t-29.5 -79 t-33 -70t-29.5 -30q-10 0 -15.5 12.5t-5.5 20.5t12.5 45t30 79t32.5 81t22 55q-41 -4 -80 -6t-80 -2q-18 0 -47 5t-29 32z" />
<glyph unicode="+" horiz-adv-x="1015" d="M2 692q0 12 9 18.5t21.5 9.5t26 3h21.5l336 -2l2 117q0 14 -1 56t-2 87t-1 83t4 46q4 6 10 8t12 2q23 0 27 -14t4 -33v-352h125q14 0 55 1t86 2t83 0t46 -5q12 -6 13 -21q0 -23 -14.5 -27.5t-33.5 -4.5l-360 2v-31q0 -90 2 -178t2 -178q0 -14 -7 -24.5t-24 -10.5 q-12 0 -17 9t-8 21.5t-3 25.5v22v344h-19q-92 0 -180 -3t-180 -3q-12 0 -23.5 8t-11.5 22z" />
<glyph unicode="," horiz-adv-x="202" d="M18 197q0 20 19 20q25 0 39 -22.5t21 -52t9.5 -61.5t2.5 -50q0 -12 -2.5 -46t-6.5 -70t-13 -64.5t-21 -30.5l-9 -2q-10 0 -20 8t-10 20q0 41 11 90.5t11 96.5q0 51 -15.5 94t-15.5 70z" />
<glyph unicode="-" horiz-adv-x="782" d="M25 696q0 25 28.5 31t46.5 6q53 0 105.5 -3t105.5 -3q43 0 86 2t84 2q12 0 37 1t49.5 -2t43 -10t18.5 -24q0 -10 -10.5 -16t-23.5 -8t-26.5 -2h-19.5q-29 0 -58.5 2t-58.5 2h-113q-61 0 -121.5 -3t-121.5 -3q-14 0 -32.5 4t-18.5 24z" />
<glyph unicode="." horiz-adv-x="155" d="M-16 45l4 2h-2h2l4 6h-4q4 18 15 32.5t32 14.5q16 0 33 -12l8 -16l2 -17q4 -20 -10 -38.5t-37 -18.5q-18 0 -30.5 14.5t-16.5 32.5z" />
<glyph unicode="/" horiz-adv-x="610" d="M37 33q0 29 12 71.5t19 73.5q25 125 57.5 249t67.5 247q43 160 83.5 317.5t88.5 315.5q23 78 38 156.5t35 156.5l13 14q8 4 16 4q14 0 21.5 -9t7.5 -21t-4.5 -23.5t-6.5 -23.5q-25 -102 -50 -200.5t-54 -201.5q-27 -92 -52.5 -182t-45.5 -184q-16 -80 -40 -160t-46 -160 l-43 -156q-8 -29 -14.5 -70.5t-14.5 -85.5t-16.5 -83t-20.5 -60l-33 -18q-18 8 -18 33z" />
<glyph unicode="0" horiz-adv-x="774" d="M16 692v10v279q0 51 3.5 122t14.5 145.5t31.5 148t55.5 132t85 94.5t122 36q70 0 119 -35t83.5 -91t55 -128t32 -144.5t15.5 -141t4 -120.5v-301q0 -51 -3 -120.5t-14.5 -145.5t-32 -149.5t-54 -132t-85 -94.5t-120.5 -36q-72 0 -122 36t-85 93.5t-55.5 130t-31.5 147.5 t-14.5 144.5t-3.5 120.5zM76 686q0 -39 3 -98.5t11 -127t25.5 -135t44 -121.5t66.5 -88t96 -34q68 0 112.5 42t73.5 108.5t43 149.5t20.5 165t7.5 154.5t3 117.5q2 27 2 51.5v51.5q0 61 -5.5 146t-19.5 173t-37.5 167t-62.5 126q-29 37 -66 50t-82 13q-53 0 -90 -34.5 t-63.5 -90t-43 -124t-24.5 -135t-11 -126t-3 -94.5v-43v-264z" />
<glyph unicode="1" horiz-adv-x="389" d="M12 1458q0 14 10.5 19.5t20.5 9.5q53 25 91 60.5t77 78.5q12 12 22 12q31 1 31 -32q0 -10 -2 -21.5t-4 -21.5q-8 -78 -14 -158t-6 -158q0 -143 2 -284.5t2 -282.5t-5.5 -283.5t-5.5 -283.5v-86h-4q0 -10 -6 -18.5t-16 -8.5q-16 0 -25.5 13.5t-9.5 27.5v295q0 88 3 174 t3 174v252t6 254q4 84 2 165t6 165q-8 -8 -28.5 -22.5t-44 -30t-45 -26.5t-31.5 -11t-19.5 8t-9.5 20z" />
<glyph unicode="2" horiz-adv-x="806" d="M4 66q0 37 12.5 72.5t22.5 72.5q31 102 77 177t100 139.5t111.5 125t110.5 135.5q45 68 77 125.5t51.5 115.5t27.5 123t8 146q0 94 -22.5 156t-102.5 115q-8 4 -19.5 10t-21.5 6q-61 0 -102 -21.5t-67.5 -54t-42 -70.5t-28 -71t-23.5 -54.5t-28 -21.5q-12 0 -19 11.5 t-7 21.5t8 31.5t12 34.5q41 115 113 185.5t184 65.5q10 -2 17.5 -2t15.5 -2q45 -14 78 -44.5t61 -65.5q35 -47 45.5 -114.5t10.5 -125.5q0 -174 -66 -332.5t-176 -293.5q-25 -31 -61.5 -72t-74.5 -84t-71 -84t-49 -72q-35 -66 -66.5 -139.5t-33.5 -149.5q119 6 238.5 5.5 t242.5 -0.5q8 0 27.5 1t39 0t35 -8.5t15.5 -21.5q0 -16 -16.5 -23.5t-29.5 -7.5h-167q-104 0 -209 2t-209 -8l-23 14q-6 25 -6 52z" />
<glyph unicode="3" horiz-adv-x="737" d="M12 295q0 16 6.5 28.5t24.5 12.5q25 0 29 -23.5t4 -40.5q2 -45 17.5 -85t42 -69.5t63.5 -47t84 -17.5q53 0 104 31t86 70q43 49 56.5 113.5t13.5 129.5q0 37 -2 83t-11.5 90t-28 83t-50.5 64q-25 16 -53.5 22t-57.5 6q-6 0 -28.5 -2t-46 -2t-42 5.5t-18.5 19.5 q0 20 13 24.5t30 4.5q35 0 84 14t78 37q33 25 58.5 90t41.5 141t25.5 148.5t9.5 115.5q0 45 -8.5 89.5t-30 79t-57 57t-89.5 22.5q-47 0 -92 -13t-80.5 -40t-58.5 -65.5t-23 -90.5q0 -10 1.5 -23.5t-1 -25.5t-9.5 -20t-23 -8t-20.5 14t-4.5 26q0 141 81 220t222 79 q70 0 118 -23.5t78 -64.5t43 -95t13 -116q0 -53 -9 -135t-30.5 -164.5t-54.5 -153.5t-80 -99q63 -25 98 -68t51.5 -96.5t20.5 -114t4 -117.5q0 -66 -10 -119t-32.5 -96t-62.5 -78.5t-98 -68.5q-57 -33 -127 -33q-20 0 -60 6t-54 21q-35 12 -62.5 42.5t-46 68.5t-29 80 t-10.5 77z" />
<glyph unicode="4" horiz-adv-x="698" d="M16 786q0 25 14.5 50.5t24.5 48.5q27 49 47.5 101t42.5 106q25 55 62 135t74.5 160.5t73.5 149.5t57 101l32 4q18 -18 19 -47q0 -127 5 -254t5 -254q0 -33 -2 -65.5t-2 -67.5v-155h8q23 0 37 -2t14 -31q0 -23 -19.5 -25t-33.5 -2l-2 -274q-2 -78 0 -155t6 -154 q0 -27 5 -51.5t5 -51.5q0 -12 -5 -32.5t-21 -20.5q-20 0 -28.5 14.5t-8.5 30.5q0 63 -2 155.5t-4 192t-4 191.5t-2 155h-70h-88t-83 -1t-52 -1q-12 0 -30.5 1t-35 6.5t-28 14.5t-11.5 27zM84 801q74 -4 128 -4t126 2l72 2v65.5t1 30.5t2 30.5t1 65.5q0 125 -2 260.5 t-6 262.5q-49 -109 -88 -193t-75 -164t-74 -165t-85 -193z" />
<glyph unicode="5" horiz-adv-x="743" d="M16 307q0 12 4.5 27.5t20.5 15.5q20 0 28.5 -25.5t8.5 -41.5q2 -43 13 -84t33.5 -72t57.5 -49.5t84 -18.5q35 0 68 9.5t57 31.5q39 33 61.5 86.5t35 112.5t16.5 120.5t4 110.5q0 39 -3 87.5t-13.5 96.5t-30 89t-51.5 69q-23 18 -47.5 34t-53.5 16q-47 0 -81.5 -27 t-60.5 -58.5t-44.5 -58t-32.5 -26.5q-23 0 -28 18t-5 35q0 84 -1 186.5t-2 209t-2 208.5t-1 186q0 16 5 28.5t28 12.5q27 0 52.5 -2t53.5 -2q72 0 146 1t147 3q16 0 30.5 3t31.5 3q14 0 28.5 -5t14.5 -23q0 -23 -15.5 -28t-33.5 -5q-106 0 -213 -5t-213 -3q-2 -29 -2 -58.5 v-58.5q0 -57 2 -134t3 -158t3 -158.5t2 -135.5q37 45 86 78t108 33q16 0 31.5 -4t32.5 -10q63 -29 99 -79t53.5 -111.5t21.5 -127t4 -127.5q0 -25 1 -34t1 -15t-1 -16.5t-3 -34.5q-6 -68 -18.5 -142.5t-43 -136t-84 -102.5t-141.5 -41q-66 0 -112.5 25.5t-77.5 68.5 t-46.5 98.5t-15.5 114.5z" />
<glyph unicode="6" horiz-adv-x="849" d="M25 707q0 84 9 208.5t33.5 252.5t64.5 243t101 178q33 35 72 44t84 9q37 0 73 -18t65.5 -47t47 -64.5t17.5 -72.5q0 -8 -3 -17.5t-14 -9.5q-18 0 -32.5 27.5t-34 60.5t-49 60.5t-78.5 27.5q-25 0 -56.5 -11t-50.5 -30q-49 -51 -84.5 -147t-58 -206t-33 -217.5 t-12.5 -178.5q14 47 46 90t74 76.5t91 53t102 19.5q104 0 165 -65.5t92.5 -160.5t41 -199.5t9.5 -182.5q0 -70 -15.5 -145.5t-51.5 -139t-96.5 -104.5t-152.5 -41q-80 0 -138 36t-99 95t-66 134t-39 154t-19 153.5t-5 134.5zM94.5 669.5q-16.5 -98.5 3.5 -218.5 q20 -117 59.5 -200t112.5 -149q25 -18 60 -30.5t63 -12.5q76 0 125 37t78 92.5t40 120t11 119.5q0 63 -6 156.5t-30.5 181.5t-74 150.5t-135.5 62.5q-76 0 -140 -37t-107 -105.5t-59.5 -167z" />
<glyph unicode="7" horiz-adv-x="815" d="M27 1608q0 14 10 19t22 5q129 0 259.5 3t259.5 3q25 0 68.5 -2t66.5 -12l8 -29q-12 -23 -31.5 -38t-38.5 -33q-41 -39 -76.5 -82t-68.5 -90q-37 -51 -66.5 -104.5t-62.5 -106.5q-18 -29 -31.5 -70t-23.5 -74q-57 -184 -93 -373.5t-36 -381.5q0 -51 4 -102.5t4 -102.5 q0 -12 -8.5 -22.5t-18.5 -14.5l-27 6q-6 10 -10 31.5t-6 47.5t-2 49.5v35.5q0 35 2 67.5t4 67.5q12 184 40 356.5t83 332t144.5 306t224.5 281.5q-18 2 -37 3t-39 1q-121 0 -241 -4t-242 -4q-12 0 -26.5 8t-14.5 23z" />
<glyph unicode="8" horiz-adv-x="765" d="M25 541q0 63 8 116.5t29.5 98.5t58.5 85t92 79q-43 20 -70.5 66t-44 101.5t-22.5 112.5t-6 100q0 37 5 75t15 75q10 39 36 75t59.5 61.5t73.5 40.5t83 15t83 -15t73.5 -41.5t59.5 -61.5t38 -74q20 -68 20 -145q0 -43 -7 -100.5t-23.5 -115t-44 -103.5t-68.5 -66 q111 -78 148.5 -166t37.5 -215q0 -74 -13 -168.5t-48 -176t-96.5 -138t-157.5 -56.5q-98 0 -160.5 55.5t-97.5 138t-48 176t-13 171.5zM82 553q0 -61 9 -146t37 -162t78 -131.5t132 -54.5q86 0 138 54.5t81 131.5t38 163t9 149q0 39 -3 65.5t-12 49t-23.5 47t-35.5 57.5 q-23 31 -62.5 70t-72.5 55q-8 -4 -16 -5t-19 -1l-2 -2h-26l-2 2q-10 -2 -21.5 0t-21.5 4q-18 -10 -34.5 -22.5t-33.5 -24.5l-2 2l-2 -6q-39 -25 -64.5 -58.5t-41 -72.5t-21.5 -81t-6 -83zM129 1307q0 -55 9 -118t32 -116t63.5 -88t106.5 -35t107.5 35t66.5 88t34 117t9 119 q0 47 -12.5 96t-38 89t-65.5 65.5t-95 25.5q-57 0 -98 -24.5t-67.5 -64.5t-39 -89t-12.5 -100z" />
<glyph unicode="9" horiz-adv-x="747" d="M4 1124q0 94 18.5 187.5t62.5 167t117.5 118.5t182.5 45q72 0 117 -48t70.5 -116.5t34.5 -143.5t9 -128q0 -25 -1 -67.5t-2 -87.5t-2 -85t-1 -59q0 -63 -3 -136t-8 -148.5t-13 -149.5t-17 -137q-10 -63 -27.5 -123.5t-50 -108t-83 -76t-125.5 -28.5q-59 0 -100.5 22.5 t-69 59.5t-44 85t-26.5 101q-6 20 -6 43q0 10 6 19.5t18 9.5q16 0 25.5 -20.5t17 -52t17.5 -67.5t29.5 -68t51 -52.5t83.5 -20.5q39 0 77.5 15.5t63.5 44.5t44 86t33.5 129t24 152.5t14.5 156.5t8 140.5t3 105.5q-41 -80 -98.5 -119t-149.5 -39q-86 0 -144.5 35t-93 91 t-49 126t-14.5 141zM61 1133q0 -61 9.5 -122t37 -109t74.5 -77.5t125 -29.5q86 0 136.5 34.5t75 90t31.5 123t7 133.5q0 49 -5 119.5t-24.5 135t-59.5 110.5t-108 46q-84 0 -141 -45t-92 -113.5t-50.5 -148.5t-15.5 -147z" />
<glyph unicode=":" horiz-adv-x="217" d="M18 98.5v26.5t1 20.5t6 18.5l18 12q16 2 25.5 -11t13.5 -33.5t4 -41v-31.5q0 -31 -27 -43h-16q-10 4 -15 17.5t-7.5 31t-2.5 34zM18 1040.5v26.5t1 19.5t6 19.5l18 12q23 4 31 -18.5t8 -38.5t2 -29.5t2 -30.5q0 -33 -27 -45h-16q-10 4 -15 18.5t-7.5 32t-2.5 34z" />
<glyph unicode=";" horiz-adv-x="253" d="M18 1040.5v26.5t1 19.5t6 19.5l18 12q23 4 31 -18.5t8 -38.5t2 -29.5t2 -30.5q0 -33 -27 -45h-16q-10 4 -15 18.5t-7.5 32t-2.5 34zM31 104q0 25 24 25q23 0 36 -21.5t19.5 -51t8.5 -59.5t2 -46q0 -49 -9.5 -97.5t-13.5 -97.5q-10 -24 -35 -24q-12 0 -18 9t-6 21 q0 43 11 92.5t11 98.5q0 25 -5 49.5t-10 46t-10 36.5t-5 19z" />
<glyph unicode="&#x3c;" horiz-adv-x="792" d="M12 592q0 23 23.5 39t40.5 28q12 10 55 42t99.5 75t119 90t117.5 86t94 64.5t47 25.5q10 0 19.5 -6t9.5 -16q0 -12 -14.5 -26.5t-33 -28t-36.5 -24.5t-27 -17q-115 -78 -224 -164t-220 -172q123 -78 237.5 -163t235.5 -163q16 -10 42 -24.5t34 -34.5q4 -8 4 -17 q-1 -16 -17 -16q-18 0 -42.5 12.5t-40.5 22.5q-14 10 -57.5 38.5t-98.5 65.5t-116.5 79t-114 79t-88 63.5t-40.5 34.5q-8 16 -8 27z" />
<glyph unicode="=" horiz-adv-x="770" d="M39 588q0 10 12 18q4 2 31 3t66.5 2t87 1t89.5 1t74.5 1h42.5q12 0 39 1t54.5 -1t49 -9t21.5 -23t-24.5 -20.5t-36.5 -4.5q-113 0 -225.5 -3t-227.5 -3q-16 0 -34.5 8.5t-18.5 28.5zM39 788q0 10 12 19q4 2 31 3t66.5 2t87 1t89.5 1t74.5 1h42.5q12 0 39 1t54.5 -1t49 -9 t21.5 -24q0 -16 -24.5 -20t-36.5 -4q-113 0 -225.5 -3t-227.5 -3q-16 0 -34.5 8t-18.5 28z" />
<glyph unicode="&#x3e;" horiz-adv-x="755" d="M-4 1020q0 10 8 16t19 6q8 0 47 -25.5t94 -64.5t117.5 -86t119 -90t98.5 -74.5t56 -42.5q16 -12 39.5 -28.5t23.5 -38.5q0 -10 -8 -27q-4 -8 -39.5 -34.5t-88 -63.5t-113 -79t-116.5 -79t-99 -65.5t-58 -38.5q-16 -10 -41 -22.5t-41 -12.5t-16 16q0 4 1 8.5t1 8.5 q8 20 33.5 34.5t42.5 24.5q121 78 236.5 163t236.5 163q-111 86 -219.5 172t-223.5 164q-10 6 -28.5 17t-36.5 24.5t-31.5 28t-13.5 26.5z" />
<glyph unicode="?" horiz-adv-x="743" d="M23 1315q0 145 74.5 232t221.5 87q61 0 118 -19.5t100 -55t68.5 -87t25.5 -116.5q0 -72 -36 -145.5t-89 -140t-116.5 -123t-121.5 -93.5q-10 -6 -29.5 -20.5t-40 -32t-38 -32.5t-23.5 -24q-18 -23 -23 -68.5t-5 -74.5q0 -43 2 -88t6 -90q2 -16 5 -32.5t3 -33.5 q0 -14 -6 -26.5t-23 -12.5q-29 0 -35 23t-6 45q0 57 -3 113.5t-3 113.5v35t2 35q6 68 49 111t97 77q57 39 122.5 91.5t121 116t92 134t36.5 146.5q0 72 -44 124t-107 81q-4 2 -18.5 3t-31 3t-33 3t-22.5 1q-72 0 -133 -34t-84 -107q-4 -12 -5 -37t-5 -49.5t-12 -43 t-27 -18.5q-12 0 -18 9.5t-6 19.5zM70 55.5v49v50v33.5q0 16 7 30.5t25 14.5q12 0 18.5 -19t7.5 -45t1 -51.5v-35.5v-19.5t-3 -28t-8.5 -24.5t-15.5 -10t-18 8t-12 19q-2 6 -2 28.5z" />
<glyph unicode="@" horiz-adv-x="1314" d="M14 633q0 63 7.5 123.5t21.5 120.5q25 117 55.5 214t74.5 183t109.5 164t161.5 153q25 18 60 29.5t72.5 18t74.5 7.5t68 1q229 0 328.5 -107.5t99.5 -331.5q0 -115 -30 -220t-64 -212q-16 -49 -39 -115.5t-56.5 -127t-80 -102.5t-109.5 -42q-29 0 -49.5 12.5t-32.5 33 t-18 45t-6 48.5q0 29 2 54.5t6 52.5q-18 -35 -48 -72t-67 -66.5t-78 -49t-84 -19.5q-55 0 -92 28.5t-58.5 72.5t-30.5 96.5t-9 97.5q0 78 24.5 170t72.5 172t120 133t164 53q49 0 102 -22.5t82 -63.5l2 9l27 14l16 -6l12 -25q-12 -57 -29.5 -141t-35 -173t-28.5 -172 t-11 -139q0 -10 2 -24t8 -27.5t14.5 -24t20.5 -10.5q51 0 93 51.5t75 120t54.5 139t31.5 109.5q16 59 33.5 117.5t25.5 118.5q6 63 6 127q0 98 -29.5 185t-119.5 140q-25 14 -63.5 22.5t-79.5 11.5t-81 3h-71q-41 0 -73.5 -7t-60.5 -21.5t-53.5 -36t-54.5 -49.5 q-57 -55 -105 -118t-85 -134q-33 -63 -58.5 -143.5t-44 -166.5t-27.5 -171t-9 -154q0 -31 3 -61.5t7 -59.5q14 -78 57 -150.5t104.5 -129t137.5 -91.5t156 -35q135 0 255.5 65t194.5 175q8 12 16.5 29.5t18.5 35t20.5 32t20.5 20.5l26 -6q8 -10 9 -25q0 -8 -6.5 -21.5 t-14.5 -27.5t-17 -27.5t-14 -21.5q-86 -139 -223 -211t-299 -72q-121 0 -205 49t-161 140q-23 23 -43.5 49t-34.5 55q-41 80 -52.5 162t-11.5 170zM258 725q0 -33 6 -74t22.5 -77.5t44 -61.5t68.5 -25q39 0 77 25t67 51q20 20 35.5 39t27.5 37t22.5 38.5t20.5 49.5 q10 23 22.5 43.5t18.5 42.5q16 70 30.5 137.5t27.5 139.5q-53 104 -175 104q-76 0 -134 -50t-98 -122t-61.5 -154t-21.5 -143z" />
<glyph unicode="A" d="M-51 41q0 27 12 75t25 93q4 20 9 38.5t9 35.5q20 94 44 189t46 187q10 45 22.5 90.5t22.5 90.5t23.5 90t27.5 90q16 51 32 102.5t28 104.5q12 55 30.5 120.5t35 125t31.5 102.5t22 53h2v2q8 8 20 12q18 0 28.5 -18t14.5 -29q10 -29 16.5 -57.5t12.5 -60.5q6 -47 18 -91 q45 -160 78 -317.5t59 -298.5q18 -92 40 -185t42 -186q12 -51 24.5 -102t23.5 -104q6 -25 16 -58q8 -25 14 -48t6 -46q0 -8 -5 -23.5t-21 -15.5t-28.5 21.5t-16.5 37.5q-10 35 -17.5 72t-15.5 76q-6 37 -14.5 75t-18.5 76q-10 33 -19.5 76t-19.5 89t-20 92.5t-21 87.5l-2 8 l-6 24h-24h-5h-68.5t-68.5 2q-35 0 -70.5 1t-70.5 1h-45h-25l-4 -24l-4 -15q-18 -78 -41.5 -175t-46.5 -183l-20 -86q-4 -18 -9.5 -35.5t-9.5 -38.5q-10 -35 -19.5 -71.5t-15.5 -73.5q-4 -29 -13 -34t-17 -5q-20 0 -26.5 15.5t-6.5 25.5zM193 797l40 2h46h46t48 -2h92h49h35 l-6 34l-2 25h-2q-18 96 -40 190.5t-44 188.5q-10 39 -18.5 78t-18.5 78l-31 129l-29 -129q-23 -88 -46 -174.5t-48 -172.5q-14 -47 -28.5 -94t-26.5 -94l-6 -18z" />
<glyph unicode="B" horiz-adv-x="802" d="M41 451v34v9q0 61 1 115.5t3 115.5q0 63 1 126.5t1 127.5q0 78 -3 153.5t-3 151.5q0 78 3 154q1 32 1 65q0 44 -2 88l12 23q68 28 143 28h5q86 0 162.5 -30.5t136 -87t94.5 -136t35 -180.5q0 -160 -69.5 -254t-196.5 -153q66 -14 123 -38t100 -57.5t69.5 -79.5t30.5 -108 v-10q0 -4 1 -8t1 -8v-19q0 -119 -53 -205t-152 -164q-47 -39 -120.5 -61.5t-145.5 -32.5q-31 -4 -59.5 -7t-55.5 -3q-18 0 -28 10q-12 10 -15.5 26.5t-3.5 33.5q0 96 -8 190t-8 191zM98 563q0 -125 5.5 -250t15.5 -250h18q94 0 181.5 30t155 83t110.5 130t49 173 q-4 49 -23.5 96.5t-62.5 81.5q-23 18 -58.5 34t-75.5 27t-79 17t-70 6h-56.5t-57.5 -4l-48 -12q-2 -41 -3 -81t-1 -81zM98 1561q3 -64 3 -128v-32q-1 -80 -1 -162q0 -86 3 -171q2 -51 2 -102q0 -34 -1 -69l-2 -96h39q82 0 162 37q63 29 112.5 58.5t83 70.5t52 99t18.5 142 q0 86 -28.5 154t-77.5 115t-115.5 72.5t-142.5 25.5q-57 0 -107 -14z" />
<glyph unicode="C" horiz-adv-x="843" d="M33 872q0 68 3 143t13 149.5t29.5 146t52.5 133.5q105 198 255 198h1q113 0 191.5 -52t107.5 -144l4 -16t4 -18.5t4 -20.5v-13v-26.5t-2 -28.5q-6 -37 -16 -43t-14 -6q-16 0 -23.5 11t-7.5 26v30q2 10 2 20.5v20.5v2q0 4 -2 21.5t-10 32.5q-66 141 -232 141 q-74 0 -124 -46t-83.5 -116.5t-52 -155.5t-28 -162t-11.5 -134.5t-2 -75.5q0 -59 2 -159.5t11.5 -210t30 -210t57.5 -162.5q51 -84 176 -84q111 0 182.5 63.5t81.5 174.5v2v2q2 16 3 31.5t3 21.5q4 4 6 5.5t12 1.5q4 0 6.5 1t6.5 1h2q8 0 12 -5q8 -10 9 -36.5t-3 -44.5 q-8 -41 -25.5 -82t-43 -77t-58.5 -62.5t-69 -39.5q-59 -20 -160 -20q-94 0 -150.5 56.5t-87 148.5t-42 206.5t-15.5 231.5q0 18 -1 34.5t-1 33.5q-2 45 -3 84t-1 77z" />
<glyph unicode="D" horiz-adv-x="933" d="M35 86q0 29 3 58.5t3 60.5q1 67 1 134v67q-1 100 -1 200v631q0 45 3 88t3 88q0 31 -3 60.5t-3 60.5v31.5t3 33t12.5 26.5t27.5 11q59 0 118.5 1t119.5 1q127 0 218 -51t151.5 -135t89 -192.5t30.5 -223.5q2 -53 2 -108.5v-110.5v-108.5t-2 -108.5q-2 -111 -30.5 -218.5 t-87 -192.5t-148.5 -137t-215 -52h-236q-41 0 -50 25.5t-9 60.5zM96 817q0 -141 5 -279.5t5 -279.5q0 -49 -1 -98t-5 -99q49 0 98.5 -2t98.5 -2q41 0 96.5 5.5t91.5 21.5q94 45 148.5 125t81 174t33 195.5t6.5 191.5q0 98 -2 214t-27 225.5t-80 201.5t-162 143 q-33 16 -82 20.5t-84 4.5q-53 0 -105 -2q-26 -1 -52.5 -1t-53.5 1q1 -70 1 -140q0 -121 -4 -240q-7 -187 -7 -380z" />
<glyph unicode="E" horiz-adv-x="724" d="M41 846v174q0 72 1 142.5t1 140.5q2 72 2 142.5v141.5q0 6 2 13.5t11.5 14.5t30 12t58.5 5h24.5t23.5 -2h32q66 0 127 6q31 2 61.5 4t61.5 2q23 0 43.5 -5t28.5 -15q6 -6 6 -14l-2 -11v-2q-2 -8 -10 -13t-47 -5h-7h-6q-27 0 -53.5 -2t-52.5 -4q-27 -2 -53.5 -3t-51.5 -3 q-10 0 -19 1t-20 1h-38q-18 0 -33 -1t-29 -3l-27 -4v-27v-113.5t-2 -111.5t-3 -111.5t-1 -114.5q0 -66 1 -129t3 -123l2 -30h31l39 2h148q53 0 65 -10.5t12 -24.5q0 -8 -4 -15.5t-32 -7.5q-45 0 -70 -1t-47 -3q-23 0 -45.5 -1t-67.5 -1h-31v-30v-66q0 -16 -1 -32.5t-1 -33.5 q0 -59 1 -119.5t3 -119.5t2.5 -119.5t0.5 -120.5v-30h30h129q31 0 62.5 -1.5t62.5 -1.5q16 0 31.5 1.5t32.5 3.5q14 2 27.5 2h25.5q16 0 30.5 -6.5t14.5 -28.5q0 -8 -10 -19.5t-70 -11.5h-31h-22h-193l-47 2h-2q-12 0 -24.5 -1t-22.5 -3q-10 0 -21.5 -1t-21.5 -1 q-29 0 -35 6t-6 35v184q-2 45 -2 91v92q0 55 -1 111t-1 110q-2 53 -3 108.5t-1 108.5z" />
<glyph unicode="F" horiz-adv-x="690" d="M41 1602q0 23 22 30q10 4 25 4q39 0 77 1t75 1q37 2 74.5 3t76.5 1q14 0 27.5 -1t30.5 -1q16 -2 30.5 -2h30.5h14h15q39 0 45 -8t6 -18t-8.5 -23.5t-57.5 -13.5h-54.5t-51.5 2q-29 0 -55.5 1t-53.5 1q-29 0 -57.5 -1t-56.5 -3q-14 -2 -27.5 -2t-28.5 -2h-30v-31 q4 -84 4 -167t-2 -165q0 -41 -1 -83t-1 -83q0 -47 2 -94t2 -94v-20v-5v-30h32q53 0 110.5 1t119.5 1q12 0 32.5 -7.5t20.5 -25.5q0 -12 -7 -22.5t-50 -10.5h-18.5t-18.5 2h-31h-8q-25 -2 -48.5 -3t-45.5 -1q-14 0 -27.5 1t-26.5 1h-32v-33l2 -14v-145v-118.5t2 -119.5 q0 -59 1 -119.5t1 -119.5q0 -23 -6 -44.5t-25 -21.5q-43 0 -43 72q0 45 1 89t1 87q2 45 2 89v91q0 86 -1 173t-1 173q-2 86 -3 172t-1 174q0 35 1 68t1 67q2 35 2 70v70q0 27 -1 53.5t-3 52.5q-2 27 -3 51.5t-1 49.5z" />
<glyph unicode="G" horiz-adv-x="907" d="M16 913q0 72 6.5 146t18.5 143q8 41 26.5 93.5t45 104.5t58.5 99t67 78q41 37 100 51t106 14q51 0 91 -8t71 -37q47 -43 75 -117.5t28 -152.5q0 -10 -5.5 -31.5t-31.5 -21.5q-16 0 -21.5 15.5t-5.5 25.5q0 18 -1 52t-10 72t-28.5 72.5t-56.5 55.5q-18 10 -48 13t-40 3 q-31 0 -82 -9t-88 -32q-20 -14 -34.5 -32.5t-29.5 -36.5q-4 -6 -16 -23q-43 -61 -69.5 -131t-41 -142.5t-18.5 -145.5t-4 -142q0 -147 17.5 -291.5t47.5 -267.5q12 -49 40 -97.5t69 -85t93 -60.5t114 -24q57 0 92 17.5t55.5 46.5t30.5 65.5t20 77.5l2 9q12 57 13 108v94 t-2 94l-2 43l-2 35v49v31h-31q-10 0 -20.5 1t-20.5 1h-43q-76 0 -150 -6q-4 0 -10 -1t-10 -1q-10 -2 -16.5 -3t-12.5 -1q-14 0 -25.5 8t-11.5 21q0 16 43 31.5t154 15.5h25h14h31h41q33 0 53 -4t31.5 -10.5t15.5 -15.5t6 -17v-2v-43v-89.5t2 -89.5l6 -163 q-6 -84 -23.5 -140.5t-33.5 -90.5t-30 -48l-13 -14h-2l-2 -2q-35 -35 -83 -52.5t-101 -17.5h-9q-109 0 -201 65.5t-133 170.5q-35 88 -48 183t-23 181q-6 70 -12.5 149.5t-6.5 163.5z" />
<glyph unicode="H" horiz-adv-x="882" d="M33 59v49.5t2 51.5t2 52.5v53.5v154q-2 37 -2 74.5v74.5q0 174 6 344q2 86 3 171t1 171q0 45 -1 89.5t-3 89.5q-6 86 -6 174q0 12 7 19t17 11l17 -2q16 -10 20 -30.5t6 -53.5v-6q2 -23 2 -45t2 -45q2 -45 3.5 -88t1.5 -84t-1 -79t-4 -77q-2 -47 -3 -96t-1 -96v-14v-97 v-32l33 2q23 0 45.5 1t44.5 1q68 6 137 6q55 0 110.5 -1t107.5 -3l32 -2v32v97v244.5t4 242.5q2 47 3.5 91t1.5 91q0 27 10 37t22 10q23 0 26 -16t3 -20v-120t-2 -120t-3 -119.5t-1 -120.5v-67.5t2 -67.5v-131q0 -16 -2 -26q0 -10 -1 -17.5t-1 -17.5q0 -14 1 -26.5t1 -24.5 q2 -12 2 -24.5v-27.5q4 -122 5 -244v-81q0 -81 -1 -162v-123q0 -33 -4 -50.5t-9 -25.5t-10.5 -9t-9.5 -1q-16 0 -26 10q-8 8 -9 31v623v38v31h-30q-18 2 -38 2t-38 2q-29 2 -59.5 4t-59.5 2q-20 0 -40.5 -2t-41.5 -4q-23 -2 -41 -3t-39 -1q-20 0 -30 2h-33h-18.5t-16.5 -2 l-27 -2l-2 -26l-2 -41v-2v-594q0 -12 -1 -26.5t-9 -23.5q-10 -10 -22 -10q-23 0 -28 20.5t-5 30.5z" />
<glyph unicode="I" horiz-adv-x="286" d="M49 616q0 225 6 448.5t6 448.5q0 10 -2 32t0 43.5t7.5 37.5t21.5 16q23 0 28 -24.5t5 -40.5q0 -270 -7.5 -537.5t-7.5 -535.5q0 -113 2.5 -223.5t2.5 -221.5q0 -12 -5.5 -33.5t-21.5 -21.5q-20 0 -24.5 21.5t-4.5 37.5q0 139 -3 276.5t-3 276.5z" />
<glyph unicode="J" horiz-adv-x="749" d="M57 302v20q0 14 8.5 29.5t22.5 15.5q8 0 17.5 -13.5t17.5 -70.5v-2l4 -15q45 -200 231 -200h2q70 0 117 40.5t62 112.5q4 31 5 61.5t1 61.5q0 115 6 229q2 57 3 114.5t1 117.5q0 100 -1 200.5t-3 198.5t-3 197.5t-1 199.5q0 12 5 27.5t28 15.5q34 0 34 -89v-5 q0 -104 1 -205.5t1 -201.5v-404q0 -88 -1 -177t-5 -175q0 -16 -1 -33.5t-1 -34.5q0 -33 -2 -62.5t-8 -59.5q-16 -88 -85 -141.5t-161 -53.5q-115 0 -183.5 55.5t-96.5 177.5l-13 50q-2 10 -2 19z" />
<glyph unicode="K" horiz-adv-x="921" d="M53 57q0 47 2 95.5t2 95.5v100v20v42.5v45v27.5q0 53 -1 106.5t-1 106.5q0 96 4 190.5t4 188.5q0 127 1.5 251t1.5 251q0 16 3 29.5t19 23.5l25 -4q10 -8 12 -20.5t2 -22.5q0 -53 -4 -104.5t-4 -102.5q0 -68 2 -134t2 -132q0 -27 -2 -52.5t-2 -51.5v-138.5t-4 -136.5 q78 84 146.5 174t133.5 185q84 121 168 239.5t162 241.5q4 6 11 17t15.5 22.5t17.5 19.5t17 8l17 -8q6 -6 6 -20q0 -8 -35 -63.5t-86 -132.5t-113.5 -167t-115.5 -166.5t-92 -132t-45 -63.5q59 -147 119.5 -293t125.5 -291q4 -10 23.5 -51t41 -85t38 -81t16.5 -39 q0 -14 -10 -21.5t-23 -7.5q-14 0 -22 7q-6 4 -29.5 55t-56.5 126t-71 163t-70.5 164.5t-55 132t-26.5 67.5q-8 25 -18.5 49.5t-20.5 48.5q-8 -12 -31 -37.5t-49.5 -53t-51 -53.5t-36.5 -40v-143q0 -111 1 -222.5t1 -222.5q0 -16 -4 -36.5t-25 -20.5q-23 0 -29 20.5t-6 36.5z " />
<glyph unicode="L" horiz-adv-x="659" d="M41 600q0 225 6 449.5t6 449.5q0 10 -1 32.5t0 46.5t8.5 41t25.5 17q16 0 20.5 -25.5t4.5 -37.5q-1 -28 -1 -55.5t1 -55.5q2 -56 2 -112q0 -199 -6.5 -397.5t-6.5 -399.5q0 -125 1 -249t1 -249q86 4 170 4h168q12 0 28.5 1t33 -2t28 -11.5t11.5 -26.5q0 -14 -14.5 -16 t-24.5 -2q-53 0 -104.5 -1t-104.5 -1h-74q-31 0 -60.5 -1t-58.5 -1q-16 0 -33.5 3t-19.5 26q-3 28 -3 56v13q1 34 1 70q-2 111 -3 218.5t-1 215.5z" />
<glyph unicode="M" horiz-adv-x="1204" d="M30 57q1 6 3 15q0 4 1 7t1 7v2v2l6 191q2 57 5 115.5t5 115.5v2q2 53 4 108.5t6 108.5q4 72 8.5 146.5t4.5 148.5q0 41 1 82t3 82t3 83t1 83v15t-2 22q0 20 -1 55v23q0 23 1 47q2 36 8 67t18 43q6 6 11 6q14 0 24.5 -16t16.5 -29l35 -86q33 -109 63.5 -228.5t54.5 -223.5 q4 -20 11.5 -41t13.5 -41q10 -29 16 -51q18 -72 42 -144t46 -143q10 -29 19.5 -57.5t19.5 -57.5q10 -31 19.5 -56.5t19.5 -53.5l31 -78l26 80l23 61q41 115 79 224.5t66 226.5l13 41q12 47 30.5 121.5t40 158.5t45 166t43.5 145l33 72q4 6 11.5 12t15.5 6q14 0 22.5 -24.5 t8.5 -52.5q6 -104 6 -209q0 -35 1 -71t3 -71t3 -68.5t1 -68.5q0 -174 6 -366.5t23 -427.5q4 -61 7 -123t3 -115q0 -8 -3 -26.5t-24 -18.5q-4 0 -10 1t-12 10t-10.5 29.5t-4.5 57.5q0 125 -7 250t-15 248q-4 59 -8 121.5t-9 122.5q-2 43 -2 88v88t-2 88t-2 88v68v239 l-59 -231q-12 -43 -21.5 -87t-17.5 -87q-10 -53 -21.5 -102.5t-25.5 -100.5q-4 -10 -7 -20.5t-7 -20.5q-6 -16 -11.5 -31.5t-7.5 -32.5q-6 -29 -14 -56.5t-21 -57.5q-2 -14 -10 -29q-10 -25 -18.5 -50.5t-14.5 -51.5q-10 -31 -21 -61.5t-26 -61.5q-14 -37 -28.5 -75 t-22.5 -75q-10 -45 -22.5 -57t-22.5 -12l-10 2q-8 2 -21.5 21.5t-17.5 41.5q-8 33 -20.5 67t-28.5 68q-16 35 -28.5 71t-23.5 73q-12 47 -28.5 95t-32.5 95q-29 78 -53 160q-14 51 -25.5 102.5t-21.5 102.5q-10 43 -20.5 87t-20.5 89l-66 256l6 -264v-68q1 -20 1 -39t-1 -38 q-2 -38 -2 -77q-2 -51 -2 -102t-4 -102l-2 -27q-8 -145 -15.5 -292.5t-17.5 -295.5q-2 -31 -3 -61.5t-1 -63.5v-6q0 -18 -1 -43.5t-11 -36.5q-2 -2 -5 -4t-14 -2q-32 0 -32 33q0 10 1 16z" />
<glyph unicode="N" horiz-adv-x="899" d="M45 1083v469v22.5t3 30t9 26.5t19 11q14 0 36.5 -46t45 -105t41 -114.5t24.5 -71.5q43 -119 88 -235t90 -234q14 -39 33 -76t33 -76q29 -78 64.5 -151.5t68.5 -147.5q23 -53 43 -109.5t45 -109.5q-1 33 -1 65q0 65 3 131q4 98 4 195q0 160 -3 320.5t-3 320.5 q0 55 1 110.5t1 110.5q0 39 -2 77t-2 77q0 10 5 31.5t22 21.5q25 0 30 -20.5t5 -40.5q0 -98 -2.5 -196.5t-2.5 -197.5q0 -111 4.5 -218t4.5 -218q0 -170 1 -339t1 -339q0 -14 -3 -35.5t-24 -21.5q-14 0 -25.5 11.5t-20.5 26.5t-15.5 32.5t-10.5 27.5q-10 29 -22 54.5 t-25 52.5q-18 41 -34.5 83t-34.5 83q-20 49 -42 96t-42 96q-16 39 -32.5 78t-35.5 76q-41 90 -74.5 184t-68.5 186t-70 184.5t-68 184.5q-2 -68 -2 -135.5v-134.5q0 -57 3.5 -112.5t3.5 -112.5q3 -146 3 -290v-71.5v-71.5q0 -144 3 -290q0 -47 3 -95.5t3 -95.5 q0 -14 -5 -28.5t-24 -14.5q-25 0 -30 16.5t-5 38.5q0 141 -4 281.5t-4 282.5q0 39 2 77.5t2 79.5q-2 76 -6 151t-4 152z" />
<glyph unicode="O" horiz-adv-x="884" d="M12 879v28.5t2 28.5q6 86 14.5 178t33 178t69.5 161t125 128q31 20 75 40.5t83 20.5q80 0 134 -48t91 -123.5t56.5 -171t29.5 -189.5t12 -178t2 -137q0 -59 -6 -119t-12 -119q-10 -80 -28.5 -177t-58.5 -180t-107.5 -139.5t-174.5 -56.5q-72 0 -125 39q-55 39 -95 104.5 t-64.5 141.5t-36 153.5t-11.5 143.5q0 74 -4 146.5t-4 146.5zM72 874q0 -72 1 -155.5t7 -168.5t21.5 -165t43.5 -143q12 -25 30 -53.5t41.5 -54t50 -44t55.5 -24.5q8 -2 22 -3q14 0 36.5 4.5t45.5 10.5t42 15t32 20q10 10 19 23.5t18 25.5q45 66 72.5 143.5t43 160.5 t20.5 167t5 162q0 66 -3 153.5t-12.5 178t-27 174t-47.5 143.5q-8 16 -18.5 28.5t-20.5 26.5q-29 39 -56.5 60.5t-78.5 21.5q-35 0 -68 -15.5t-61 -37.5q-37 -25 -68 -55q-43 -43 -71.5 -120t-45 -163t-22.5 -171t-6 -145z" />
<glyph unicode="P" horiz-adv-x="768" d="M29 57q0 70 1 139.5t3 137.5q2 70 3 139.5t1 138.5v197v391q0 37 2 74t6 74q6 74 6 151v19.5t-2 19.5q-4 20 -4 31q0 63 59 63h5l16 -2h2h47q16 -2 33.5 -2h36.5h2l61 6q31 4 61.5 6t61.5 2q86 0 141.5 -35.5t86 -91t42 -124t11.5 -134.5q0 -53 -8.5 -120.5t-26 -133 t-43 -121t-60.5 -83.5q-25 -18 -56.5 -30.5t-68 -19t-75.5 -9.5t-74 -5q-14 0 -26.5 -1t-24.5 -1h-2h-2q-2 -2 -37 -2h-51q-12 0 -27 2l-33 2v-30v-27q-3 -113 -3 -235v-61v-63q0 -127 -3 -266q0 -35 -10 -43v-2h-2q-6 -8 -19 -8q-16 0 -23 7t-7 50zM96 797h31q31 0 90 1 t121.5 5t116 12t73.5 21q37 25 60.5 87t37 131.5t18.5 131.5t5 82q0 25 -4 59.5t-13 71.5t-24.5 72.5t-36.5 60.5q-41 49 -151 49q-35 0 -71 -2t-70 -6q-35 -4 -69 -6t-69 -2h-32l2 -33q0 -72 -2.5 -144.5t-4.5 -144.5q-4 -63 -6 -127.5t-2 -130.5v-82v-76v-30z" />
<glyph unicode="Q" horiz-adv-x="868" d="M8 870v29.5t2 30.5q6 92 16.5 190.5t38 189.5t82 166.5t148.5 122.5q27 12 55.5 22.5t57.5 10.5q72 0 123 -39t85.5 -102.5t55 -142t32 -158.5t15.5 -152.5t6 -122.5q2 -35 4 -66.5t2 -66.5q0 -66 -7 -155.5t-24.5 -181t-43 -174.5t-62.5 -134q-8 -12 -16.5 -23.5 t-18.5 -23.5q4 -8 14.5 -30.5t21.5 -48t20.5 -46t9.5 -24.5q0 -10 -7.5 -19.5t-17.5 -9.5q-12 0 -25.5 16.5t-25.5 39t-21.5 44t-15.5 31.5q-33 -23 -76 -36t-84 -13q-86 0 -141 48t-96 118q-25 43 -43.5 94t-30.5 106.5t-18.5 110.5t-6.5 104q0 74 -4 148t-4 147zM68 866 q0 -68 1 -152.5t7 -171.5t21.5 -169t43.5 -142q12 -25 29.5 -53t40 -53t49.5 -43.5t55 -24.5q8 -2 23 -2q33 0 79 13.5t72 31.5q-4 14 -20 50t-32.5 74t-30 70t-13.5 36q0 8 11.5 17t21.5 9q12 0 28.5 -26.5t32 -61.5t27.5 -67.5t18 -44.5q43 59 70 138t42 164t20.5 169.5 t5.5 156.5q0 66 -3 155t-12.5 180t-27 175t-47.5 142q-8 14 -18.5 27.5t-20.5 27.5q-27 37 -55.5 58.5t-77.5 21.5q-39 0 -70 -14.5t-62 -36.5q-37 -27 -65 -56q-43 -43 -70.5 -119.5t-44 -162.5t-22.5 -171t-6 -145z" />
<glyph unicode="R" horiz-adv-x="798" d="M29 618.5v165.5v49.5t2 51.5t2 52.5v51.5v39t-2 59q0 51 -1 135.5t-1 168.5t2 150.5t6 82.5q4 10 17.5 13t23.5 3l121 -4q16 -2 36.5 -1t43.5 3q29 2 60.5 3t59.5 1q55 0 80 -6l6 -2q55 -23 95.5 -68.5t66 -106t38.5 -127.5t13 -130q0 -51 -10 -108.5t-31.5 -113.5 t-55.5 -107.5t-79 -88.5l-22 -16q35 -63 63 -141q25 -66 45.5 -155t20.5 -191q0 -35 1 -67t3 -60v-2l4 -37q2 -16 2.5 -36t0.5 -40q0 -12 -7.5 -25.5t-24.5 -13.5q-10 0 -22 6q-2 4 -6.5 16.5t-6.5 45.5l-8 174q-4 82 -14 160.5t-28.5 143t-43 113t-55.5 70.5l-6 6h-10 q-29 0 -56.5 1t-54.5 3q-74 6 -150 6h-13t-17 -2l-23 -6l-2 -22q-2 -45 -2 -88v-86l8 -482q0 -20 -3 -30.5t-8 -15.5t-11 -6t-10 -1q-10 0 -17 6q-14 14 -16 47t-2 56v12v328q-2 82 -2 163.5zM94 803h33h23q31 0 62.5 -1t61.5 -3q31 -2 63 -3t62 -1q20 0 31 4q4 0 6 2h2h2 q8 4 26.5 24.5t37 45t33 45t18.5 26.5q45 66 58.5 142t13.5 135q0 23 -4.5 69.5t-21.5 100t-51 102.5t-91 78l-6 2h-9q-8 0 -14 1t-14 1h-33h-98q-23 -2 -47.5 -2h-49.5h-61l-33 2v-33v-53v-107.5t2 -107.5q2 -39 2 -79v-79v-72v-45.5t-1 -58.5t-2 -58.5t-1 -43.5v-33z" />
<glyph unicode="S" horiz-adv-x="718" d="M25 315q0 16 9 34t25 18q10 0 15.5 -12.5t9.5 -59.5v-2l2 -2l6 -31q6 -33 21.5 -76t54.5 -82q29 -27 71 -33t83 -6h10h8q104 0 164.5 76t60.5 207q0 70 -18.5 121t-48.5 106q-49 94 -114 154.5t-124 110.5q-45 37 -85 72.5t-70.5 81.5t-49 105.5t-18.5 143.5 q0 176 78 283q83 118 242 118h3q122 0 186 -70q55 -60 55 -173q0 -18 -1 -37l-2 -35q-4 -41 -16.5 -48t-18.5 -7q-20 0 -25.5 13t-5.5 24v22l5 41v2q0 63 -16.5 104.5t-42 65t-56.5 31.5t-62 8q-123 0 -190.5 -93t-67.5 -259q0 -106 41 -182t140 -144q94 -68 160.5 -142.5 t107.5 -148t59.5 -142.5t18.5 -126q0 -346 -332 -346q-74 0 -123 27.5t-81 67.5t-47 86t-17 83z" />
<glyph unicode="T" horiz-adv-x="864" d="M-25 1616q0 10 5.5 16t11.5 13q72 0 142.5 1t141.5 1h21h86h350q14 0 28.5 -9.5t14.5 -23.5q0 -23 -21.5 -28t-37.5 -5q-41 0 -83 4t-83 4q-45 0 -88 -2q-22 -1 -43 -1l-43 1l-2 -20q0 -41 3 -82q2 -25 1 -49v-33q-8 -166 -14.5 -330t-6.5 -330q0 -159 -1 -319v-64 q0 -128 3 -256q0 -16 2.5 -29.5t2.5 -29.5q0 -12 -2.5 -24.5t-18.5 -12.5q-10 0 -18.5 1t-18.5 1q-9 63 -9 125q0 21 1 42q4 83 4 169q0 41 -2 82t-2 82v303q1 185 15 365q9 111 8 224q0 70 -3 140l-2 45q-68 0 -136 -1t-138 -1q-14 0 -41 5t-27 26z" />
<glyph unicode="U" horiz-adv-x="839" d="M17 1489q0 16 -0.5 32.5t0.5 32.5q1 32 8.5 58t25.5 26q23 0 29 -19.5t6 -35.5q0 -31 -4 -62.5t-4 -64.5q0 -160 7 -320.5t7 -320.5q0 -66 3 -130t5 -130q2 -68 6.5 -153t28 -158.5t74.5 -124.5t147 -51q68 0 113 28.5t82 85.5q20 35 32.5 75t17.5 82t6 84t1 81 q6 260 15.5 516t9.5 516q0 12 -2 29.5t-1 35t7 29.5t22 12q10 0 16.5 -8t9.5 -19t4 -23.5t1 -20.5q0 -272 -5 -541.5t-13 -542.5q0 -41 -4 -88t-12.5 -95t-24 -93t-37.5 -78q-49 -70 -105.5 -99.5t-142.5 -29.5q-76 0 -130 35t-97 94q-25 33 -39 77t-23.5 93t-13.5 97.5 t-4 86.5q-4 188 -5 375t-9 373q-2 53 -4.5 103.5t-2.5 103.5q0 14 -1 47z" />
<glyph unicode="V" horiz-adv-x="837" d="M-55 1610q0 12 7 21t21 9q23 0 28 -15t7 -32q29 -213 81 -440t99 -438q35 -147 73 -294t85 -288q23 78 46.5 156t43.5 155q51 199 93 395.5t92 395.5q2 14 15 75.5t28.5 131t28 125t12.5 57.5q6 10 20 10q29 1 29 -26q0 -37 -10.5 -95.5t-26 -123t-30.5 -126t-25 -100.5 t-32 -135t-50.5 -220t-60.5 -259t-61.5 -251t-54 -197t-36.5 -93l-17 -6q-12 0 -27.5 32t-28.5 70.5t-23.5 74.5t-12.5 46q-78 256 -136.5 514t-115.5 521q-6 33 -17.5 79.5t-20.5 96t-16 96.5t-7 78z" />
<glyph unicode="W" horiz-adv-x="1212" d="M-39 1606q0 10 4 20t17 10q16 0 28 -12q25 -96 41.5 -192.5t34.5 -194.5q51 -262 103.5 -523t111.5 -524q29 205 64.5 405t70.5 402q10 59 19.5 116.5t19.5 117.5q16 86 26.5 171t20.5 171q2 14 8.5 32.5t24.5 18.5q12 0 15 -12.5t8 -20.5q0 -4 1 -9t1 -9q10 -86 20 -171 t27 -171q45 -262 91 -520t85 -521q59 262 111.5 523.5t101.5 523.5q18 98 35.5 194.5t40.5 192.5l20 16h8q4 -4 12.5 -12t8.5 -12l2 -10v-9q1 -32 -11 -75q-14 -49 -20 -86q-18 -109 -43 -230q-47 -225 -90 -449.5t-90 -449.5q-12 -57 -25.5 -113.5t-25.5 -113.5 q-4 -18 -13.5 -47t-31.5 -29q-12 0 -19.5 16.5t-12.5 38t-7 43t-2 29.5q-8 55 -15.5 109.5t-15.5 109.5q-4 35 -12.5 71t-14.5 71q-37 217 -73.5 432t-69.5 432q-33 -217 -70 -432t-71 -432q-6 -35 -14.5 -71t-14.5 -73q-8 -53 -16.5 -108.5t-14.5 -108.5q0 -10 -2 -30.5 t-6 -43t-11 -39t-20 -16.5q-14 0 -22 8t-12.5 20.5t-7.5 26t-5 23.5l-49 227q-37 174 -74 347t-67 350q-18 102 -41 201.5t-39 201.5q-2 6 -5 31.5t-8.5 53.5t-8.5 51.5t-5 25.5q-6 19 -6 37z" />
<glyph unicode="X" horiz-adv-x="841" d="M-4 31q0 14 4 26.5t10 28.5q23 51 42.5 102.5t37.5 102.5q14 39 28.5 77t31.5 78q14 35 26 68t25 61q18 47 36.5 94.5t41.5 104.5l4 12l-2 11q-6 16 -12.5 34.5t-12.5 34.5q-29 86 -59 172q-47 123 -93.5 268.5t-91.5 292.5v7v2q0 10 2 13t2 5q10 10 29 10q12 0 18.5 -8 t8.5 -12q27 -66 49 -139.5t47 -153.5q29 -98 60.5 -194.5t70.5 -182.5l33 -69l24 73q47 137 95.5 272.5t95.5 243.5q10 23 20 58q10 29 21.5 55.5t25.5 44.5q4 6 11.5 12t19.5 6q10 0 19.5 -9t9.5 -19q0 -12 -16.5 -58.5t-39 -102.5t-46 -114.5t-37.5 -97.5 q-10 -29 -19.5 -50.5t-13.5 -35.5h-2l-2 -6q-8 -27 -16.5 -51.5t-16.5 -48.5q-20 -61 -42 -124t-48 -128l-6 -13l6 -12q49 -125 98 -234.5t102 -226.5q53 -115 113 -250l2 -2q4 -10 8 -19.5t4 -19.5q0 -16 -12 -18t-16 -2q-16 0 -29.5 13.5t-30.5 47.5q-18 41 -37.5 80 t-37.5 76q-49 98 -94.5 194.5t-88.5 209.5l-28 75l-29 -75q-23 -57 -44.5 -109.5t-43.5 -103.5q-35 -80 -67.5 -159t-61.5 -171q-10 -35 -22 -56.5t-31 -21.5q-33 0 -33 31z" />
<glyph unicode="Y" horiz-adv-x="731" d="M-57 1614q0 10 6 18t20 8q23 0 39 -18q6 -10 27.5 -59.5t48.5 -120t58.5 -153.5t58 -159.5t48 -138t27.5 -90.5l27 -104l33 102q27 86 57.5 173t61.5 175q23 61 44 120.5t40 117.5q6 14 10 28.5t8 28.5q4 18 9 35.5t12 34.5q4 8 11 19t23 11t23.5 -11t7.5 -23t-6 -27.5 t-12 -32.5q-8 -20 -13 -28q-12 -39 -25.5 -77t-27.5 -77q-20 -59 -39.5 -119.5t-42.5 -120.5q-10 -31 -22.5 -61.5t-24.5 -58.5q-14 -35 -27.5 -71t-25.5 -73q-10 -25 -19.5 -57.5t-19.5 -87.5l-2 -4l2 -4v-19q0 -16 1 -30.5t1 -30.5q2 -31 3 -60.5t1 -60.5q0 -20 -1 -41 t-1 -41q-2 -20 -2 -40.5v-43.5v-57q2 -25 3 -67t1 -86t-3 -80t-11 -46q-4 -6 -13 -6q-14 0 -19 3t-7 5q-10 10 -11 29.5t-1 40.5v4v240v223v117l-3 51v6l-2 4q-18 53 -32.5 96t-26.5 78q-10 35 -19.5 63.5t-21.5 57.5q-23 55 -43 111.5t-41 111.5q-23 63 -45 128t-51 126 q-4 8 -8 15.5t-9 17.5q-8 18 -21 47t-13 39z" />
<glyph unicode="Z" horiz-adv-x="888" d="M8 1593v11q0 14 18.5 21t43 9t49 2h37.5q115 0 228.5 1t227.5 1h26.5t33 -3t29 -10t12.5 -21q0 -10 -11.5 -36t-27 -56.5t-29.5 -59.5t-20 -43q-141 -334 -264 -671t-261 -675q16 0 31.5 -1t32.5 -1q74 0 147.5 6.5t147.5 6.5q53 0 103 2t104 2h20t21 -2l14 -8 q10 -11 10 -21q0 -12 -9 -19.5t-20 -11.5l-2 4v-4q-55 0 -109 -2t-108 -2q-86 0 -172 -6t-172 -6q-25 0 -49 2t-47 6l-16 19v6q0 6 13 41t29.5 75.5t33 78.5t20.5 51q47 123 95 244.5t93 246.5q39 104 76 206.5t78 207.5q39 100 82 199.5t92 195.5q-23 2 -46.5 3t-45.5 1 l-371 -2q-33 0 -64.5 -3t-64.5 -3q-8 0 -24 4z" />
<glyph unicode="[" horiz-adv-x="489" d="M37 891q0 20 2 79.5t4 138.5t6 167t8 162.5t8.5 126t8.5 59.5q10 16 20 18.5t27 2.5q23 0 46 -2.5t46 -2.5q8 0 28.5 1t42 0t37 -7t15.5 -20q0 -16 -15.5 -20.5t-27.5 -4.5h-168q-14 -92 -13 -185t-3 -185q-4 -63 -9.5 -126t-3.5 -128l2 -142q2 -133 1 -264t3 -264 q2 -55 3 -111.5t6 -111.5q0 -2 7 -2h9q12 -2 24.5 -2h24.5h51h26.5t38 -1t34 -7.5t14.5 -18.5q0 -16 -13.5 -25.5t-29.5 -9.5h-114.5t-112.5 12l-15 19q-10 154 -10 305.5t-2 304.5q0 61 -3 121.5t-3 122.5z" />
<glyph unicode="\" horiz-adv-x="595" d="M12 1614q0 29 27 28q12 0 16 -2l13 -14q20 -78 35.5 -155.5t37.5 -155.5q47 -158 88 -314.5t84 -316.5q37 -135 72 -268t64 -269q6 -29 14 -54t8 -54q0 -10 -3 -22.5t-17 -12.5q-4 0 -6.5 1t-4.5 1q-16 6 -29.5 51t-23.5 99.5t-18.5 104.5t-14.5 71q-29 119 -66.5 235.5 t-64.5 235.5q-20 96 -45.5 188t-54.5 185q-10 31 -28.5 93t-37 129.5t-32 127t-13.5 88.5z" />
<glyph unicode="]" horiz-adv-x="483" d="M27 41q0 12 14 18.5t32.5 7.5t37 1h26.5h51h24.5t25.5 2h10t8 2q4 55 4 111.5t2 111.5q4 133 4 264t2 264l2 142q2 66 -4 128t-10 126q-4 92 -3 185t-13 185h-166q-12 0 -27.5 4t-15.5 21q0 14 15 20t35.5 7t41 0t31.5 -1q23 0 45 2.5t45 2.5q16 0 27.5 -2.5t19.5 -18.5 q4 -8 8 -59.5t8 -126t8 -162.5t6.5 -167t4.5 -138.5t2 -79.5q0 -61 -2 -121.5t-2 -122.5q-2 -154 -2 -305.5t-11 -304.5l-16 -19q-49 -12 -112.5 -12h-114.5q-14 0 -27.5 9.5t-13.5 25.5z" />
<glyph unicode="^" horiz-adv-x="798" d="M8 836q0 10 18.5 61t46 123t60.5 154.5t63.5 158.5t55 136.5t33.5 84.5q6 18 18 29q13 6 25 6q29 0 41 -26.5t20 -49.5q8 -27 19.5 -51t21.5 -49q53 -127 100.5 -254t94.5 -256q4 -14 13 -28.5t9 -30.5q0 -12 -11 -22.5t-24 -10.5q-10 0 -21 24.5t-22.5 56.5t-20.5 62.5 t-13 40.5q-14 37 -27.5 72t-26.5 72q-12 35 -28.5 66.5t-28.5 66.5t-24.5 70.5t-28.5 70.5q-10 27 -20.5 50.5t-20.5 49.5q-35 -96 -77 -187t-77 -187q-29 -78 -56.5 -157t-58.5 -157q-6 -4 -13 -11t-15 -7q-10 0 -17.5 9t-7.5 20z" />
<glyph unicode="_" horiz-adv-x="763" d="M-27 -82q0 10 5.5 15.5t13.5 11.5q86 0 168 1t168 1h170h75.5h63.5t63.5 -1t75.5 -1l12 -13q4 -8 5 -12q0 -8 -4.5 -16t-12.5 -10h-26h-55.5t-44 -1.5t-45 -1.5h-56.5h-553q-10 0 -16.5 9.5t-6.5 17.5z" />
<glyph unicode="`" horiz-adv-x="296" d="M18 1833q0 22 23 22q6 0 26.5 -16t44 -37.5t44 -41t28.5 -27.5l4 -15q-4 -14 -10 -18h-22q-6 6 -29 24.5t-47.5 40t-43 42t-18.5 26.5z" />
<glyph unicode="a" d="M-51 41q0 27 12 75t25 93q4 20 9 38.5t9 35.5q20 94 44 189t46 187q10 45 22.5 90.5t22.5 90.5t23.5 90t27.5 90q16 51 32 102.5t28 104.5q12 55 30.5 120.5t35 125t31.5 102.5t22 53h2v2q8 8 20 12q18 0 28.5 -18t14.5 -29q10 -29 16.5 -57.5t12.5 -60.5q6 -47 18 -91 q45 -160 78 -317.5t59 -298.5q18 -92 40 -185t42 -186q12 -51 24.5 -102t23.5 -104q6 -25 16 -58q8 -25 14 -48t6 -46q0 -8 -5 -23.5t-21 -15.5t-28.5 21.5t-16.5 37.5q-10 35 -17.5 72t-15.5 76q-6 37 -14.5 75t-18.5 76q-10 33 -19.5 76t-19.5 89t-20 92.5t-21 87.5l-2 8 l-6 24h-24h-5h-68.5t-68.5 2q-35 0 -70.5 1t-70.5 1h-45h-25l-4 -24l-4 -15q-18 -78 -41.5 -175t-46.5 -183l-20 -86q-4 -18 -9.5 -35.5t-9.5 -38.5q-10 -35 -19.5 -71.5t-15.5 -73.5q-4 -29 -13 -34t-17 -5q-20 0 -26.5 15.5t-6.5 25.5zM193 797l40 2h46h46t48 -2h92h49h35 l-6 34l-2 25h-2q-18 96 -40 190.5t-44 188.5q-10 39 -18.5 78t-18.5 78l-31 129l-29 -129q-23 -88 -46 -174.5t-48 -172.5q-14 -47 -28.5 -94t-26.5 -94l-6 -18z" />
<glyph unicode="b" horiz-adv-x="802" d="M41 451v34v9q0 61 1 115.5t3 115.5q0 63 1 126.5t1 127.5q0 78 -3 153.5t-3 151.5q0 78 3 154q1 32 1 65q0 44 -2 88l12 23q68 28 143 28h5q86 0 162.5 -30.5t136 -87t94.5 -136t35 -180.5q0 -160 -69.5 -254t-196.5 -153q66 -14 123 -38t100 -57.5t69.5 -79.5t30.5 -108 v-10q0 -4 1 -8t1 -8v-19q0 -119 -53 -205t-152 -164q-47 -39 -120.5 -61.5t-145.5 -32.5q-31 -4 -59.5 -7t-55.5 -3q-18 0 -28 10q-12 10 -15.5 26.5t-3.5 33.5q0 96 -8 190t-8 191zM98 563q0 -125 5.5 -250t15.5 -250h18q94 0 181.5 30t155 83t110.5 130t49 173 q-4 49 -23.5 96.5t-62.5 81.5q-23 18 -58.5 34t-75.5 27t-79 17t-70 6h-56.5t-57.5 -4l-48 -12q-2 -41 -3 -81t-1 -81zM98 1561q3 -64 3 -128v-32q-1 -80 -1 -162q0 -86 3 -171q2 -51 2 -102q0 -34 -1 -69l-2 -96h39q82 0 162 37q63 29 112.5 58.5t83 70.5t52 99t18.5 142 q0 86 -28.5 154t-77.5 115t-115.5 72.5t-142.5 25.5q-57 0 -107 -14z" />
<glyph unicode="c" horiz-adv-x="843" d="M33 872q0 68 3 143t13 149.5t29.5 146t52.5 133.5q105 198 255 198h1q113 0 191.5 -52t107.5 -144l4 -16t4 -18.5t4 -20.5v-13v-26.5t-2 -28.5q-6 -37 -16 -43t-14 -6q-16 0 -23.5 11t-7.5 26v30q2 10 2 20.5v20.5v2q0 4 -2 21.5t-10 32.5q-66 141 -232 141 q-74 0 -124 -46t-83.5 -116.5t-52 -155.5t-28 -162t-11.5 -134.5t-2 -75.5q0 -59 2 -159.5t11.5 -210t30 -210t57.5 -162.5q51 -84 176 -84q111 0 182.5 63.5t81.5 174.5v2v2q2 16 3 31.5t3 21.5q4 4 6 5.5t12 1.5q4 0 6.5 1t6.5 1h2q8 0 12 -5q8 -10 9 -36.5t-3 -44.5 q-8 -41 -25.5 -82t-43 -77t-58.5 -62.5t-69 -39.5q-59 -20 -160 -20q-94 0 -150.5 56.5t-87 148.5t-42 206.5t-15.5 231.5q0 18 -1 34.5t-1 33.5q-2 45 -3 84t-1 77z" />
<glyph unicode="d" horiz-adv-x="933" d="M35 86q0 29 3 58.5t3 60.5q1 67 1 134v67q-1 100 -1 200v631q0 45 3 88t3 88q0 31 -3 60.5t-3 60.5v31.5t3 33t12.5 26.5t27.5 11q59 0 118.5 1t119.5 1q127 0 218 -51t151.5 -135t89 -192.5t30.5 -223.5q2 -53 2 -108.5v-110.5v-108.5t-2 -108.5q-2 -111 -30.5 -218.5 t-87 -192.5t-148.5 -137t-215 -52h-236q-41 0 -50 25.5t-9 60.5zM96 817q0 -141 5 -279.5t5 -279.5q0 -49 -1 -98t-5 -99q49 0 98.5 -2t98.5 -2q41 0 96.5 5.5t91.5 21.5q94 45 148.5 125t81 174t33 195.5t6.5 191.5q0 98 -2 214t-27 225.5t-80 201.5t-162 143 q-33 16 -82 20.5t-84 4.5q-53 0 -105 -2q-26 -1 -52.5 -1t-53.5 1q1 -70 1 -140q0 -121 -4 -240q-7 -187 -7 -380z" />
<glyph unicode="e" horiz-adv-x="724" d="M41 846v174q0 72 1 142.5t1 140.5q2 72 2 142.5v141.5q0 6 2 13.5t11.5 14.5t30 12t58.5 5h24.5t23.5 -2h32q66 0 127 6q31 2 61.5 4t61.5 2q23 0 43.5 -5t28.5 -15q6 -6 6 -14l-2 -11v-2q-2 -8 -10 -13t-47 -5h-7h-6q-27 0 -53.5 -2t-52.5 -4q-27 -2 -53.5 -3t-51.5 -3 q-10 0 -19 1t-20 1h-38q-18 0 -33 -1t-29 -3l-27 -4v-27v-113.5t-2 -111.5t-3 -111.5t-1 -114.5q0 -66 1 -129t3 -123l2 -30h31l39 2h148q53 0 65 -10.5t12 -24.5q0 -8 -4 -15.5t-32 -7.5q-45 0 -70 -1t-47 -3q-23 0 -45.5 -1t-67.5 -1h-31v-30v-66q0 -16 -1 -32.5t-1 -33.5 q0 -59 1 -119.5t3 -119.5t2.5 -119.5t0.5 -120.5v-30h30h129q31 0 62.5 -1.5t62.5 -1.5q16 0 31.5 1.5t32.5 3.5q14 2 27.5 2h25.5q16 0 30.5 -6.5t14.5 -28.5q0 -8 -10 -19.5t-70 -11.5h-31h-22h-193l-47 2h-2q-12 0 -24.5 -1t-22.5 -3q-10 0 -21.5 -1t-21.5 -1 q-29 0 -35 6t-6 35v184q-2 45 -2 91v92q0 55 -1 111t-1 110q-2 53 -3 108.5t-1 108.5z" />
<glyph unicode="f" horiz-adv-x="690" d="M41 1602q0 23 22 30q10 4 25 4q39 0 77 1t75 1q37 2 74.5 3t76.5 1q14 0 27.5 -1t30.5 -1q16 -2 30.5 -2h30.5h14h15q39 0 45 -8t6 -18t-8.5 -23.5t-57.5 -13.5h-54.5t-51.5 2q-29 0 -55.5 1t-53.5 1q-29 0 -57.5 -1t-56.5 -3q-14 -2 -27.5 -2t-28.5 -2h-30v-31 q4 -84 4 -167t-2 -165q0 -41 -1 -83t-1 -83q0 -47 2 -94t2 -94v-20v-5v-30h32q53 0 110.5 1t119.5 1q12 0 32.5 -7.5t20.5 -25.5q0 -12 -7 -22.5t-50 -10.5h-18.5t-18.5 2h-31h-8q-25 -2 -48.5 -3t-45.5 -1q-14 0 -27.5 1t-26.5 1h-32v-33l2 -14v-145v-118.5t2 -119.5 q0 -59 1 -119.5t1 -119.5q0 -23 -6 -44.5t-25 -21.5q-43 0 -43 72q0 45 1 89t1 87q2 45 2 89v91q0 86 -1 173t-1 173q-2 86 -3 172t-1 174q0 35 1 68t1 67q2 35 2 70v70q0 27 -1 53.5t-3 52.5q-2 27 -3 51.5t-1 49.5z" />
<glyph unicode="g" horiz-adv-x="907" d="M16 913q0 72 6.5 146t18.5 143q8 41 26.5 93.5t45 104.5t58.5 99t67 78q41 37 100 51t106 14q51 0 91 -8t71 -37q47 -43 75 -117.5t28 -152.5q0 -10 -5.5 -31.5t-31.5 -21.5q-16 0 -21.5 15.5t-5.5 25.5q0 18 -1 52t-10 72t-28.5 72.5t-56.5 55.5q-18 10 -48 13t-40 3 q-31 0 -82 -9t-88 -32q-20 -14 -34.5 -32.5t-29.5 -36.5q-4 -6 -16 -23q-43 -61 -69.5 -131t-41 -142.5t-18.5 -145.5t-4 -142q0 -147 17.5 -291.5t47.5 -267.5q12 -49 40 -97.5t69 -85t93 -60.5t114 -24q57 0 92 17.5t55.5 46.5t30.5 65.5t20 77.5l2 9q12 57 13 108v94 t-2 94l-2 43l-2 35v49v31h-31q-10 0 -20.5 1t-20.5 1h-43q-76 0 -150 -6q-4 0 -10 -1t-10 -1q-10 -2 -16.5 -3t-12.5 -1q-14 0 -25.5 8t-11.5 21q0 16 43 31.5t154 15.5h25h14h31h41q33 0 53 -4t31.5 -10.5t15.5 -15.5t6 -17v-2v-43v-89.5t2 -89.5l6 -163 q-6 -84 -23.5 -140.5t-33.5 -90.5t-30 -48l-13 -14h-2l-2 -2q-35 -35 -83 -52.5t-101 -17.5h-9q-109 0 -201 65.5t-133 170.5q-35 88 -48 183t-23 181q-6 70 -12.5 149.5t-6.5 163.5z" />
<glyph unicode="h" horiz-adv-x="882" d="M33 59v49.5t2 51.5t2 52.5v53.5v154q-2 37 -2 74.5v74.5q0 174 6 344q2 86 3 171t1 171q0 45 -1 89.5t-3 89.5q-6 86 -6 174q0 12 7 19t17 11l17 -2q16 -10 20 -30.5t6 -53.5v-6q2 -23 2 -45t2 -45q2 -45 3.5 -88t1.5 -84t-1 -79t-4 -77q-2 -47 -3 -96t-1 -96v-14v-97 v-32l33 2q23 0 45.5 1t44.5 1q68 6 137 6q55 0 110.5 -1t107.5 -3l32 -2v32v97v244.5t4 242.5q2 47 3.5 91t1.5 91q0 27 10 37t22 10q23 0 26 -16t3 -20v-120t-2 -120t-3 -119.5t-1 -120.5v-67.5t2 -67.5v-131q0 -16 -2 -26q0 -10 -1 -17.5t-1 -17.5q0 -14 1 -26.5t1 -24.5 q2 -12 2 -24.5v-27.5q4 -122 5 -244v-81q0 -81 -1 -162v-123q0 -33 -4 -50.5t-9 -25.5t-10.5 -9t-9.5 -1q-16 0 -26 10q-8 8 -9 31v623v38v31h-30q-18 2 -38 2t-38 2q-29 2 -59.5 4t-59.5 2q-20 0 -40.5 -2t-41.5 -4q-23 -2 -41 -3t-39 -1q-20 0 -30 2h-33h-18.5t-16.5 -2 l-27 -2l-2 -26l-2 -41v-2v-594q0 -12 -1 -26.5t-9 -23.5q-10 -10 -22 -10q-23 0 -28 20.5t-5 30.5z" />
<glyph unicode="i" horiz-adv-x="286" d="M49 616q0 225 6 448.5t6 448.5q0 10 -2 32t0 43.5t7.5 37.5t21.5 16q23 0 28 -24.5t5 -40.5q0 -270 -7.5 -537.5t-7.5 -535.5q0 -113 2.5 -223.5t2.5 -221.5q0 -12 -5.5 -33.5t-21.5 -21.5q-20 0 -24.5 21.5t-4.5 37.5q0 139 -3 276.5t-3 276.5z" />
<glyph unicode="j" horiz-adv-x="749" d="M57 302v20q0 14 8.5 29.5t22.5 15.5q8 0 17.5 -13.5t17.5 -70.5v-2l4 -15q45 -200 231 -200h2q70 0 117 40.5t62 112.5q4 31 5 61.5t1 61.5q0 115 6 229q2 57 3 114.5t1 117.5q0 100 -1 200.5t-3 198.5t-3 197.5t-1 199.5q0 12 5 27.5t28 15.5q34 0 34 -89v-5 q0 -104 1 -205.5t1 -201.5v-404q0 -88 -1 -177t-5 -175q0 -16 -1 -33.5t-1 -34.5q0 -33 -2 -62.5t-8 -59.5q-16 -88 -85 -141.5t-161 -53.5q-115 0 -183.5 55.5t-96.5 177.5l-13 50q-2 10 -2 19z" />
<glyph unicode="k" horiz-adv-x="921" d="M53 57q0 47 2 95.5t2 95.5v100v20v42.5v45v27.5q0 53 -1 106.5t-1 106.5q0 96 4 190.5t4 188.5q0 127 1.5 251t1.5 251q0 16 3 29.5t19 23.5l25 -4q10 -8 12 -20.5t2 -22.5q0 -53 -4 -104.5t-4 -102.5q0 -68 2 -134t2 -132q0 -27 -2 -52.5t-2 -51.5v-138.5t-4 -136.5 q78 84 146.5 174t133.5 185q84 121 168 239.5t162 241.5q4 6 11 17t15.5 22.5t17.5 19.5t17 8l17 -8q6 -6 6 -20q0 -8 -35 -63.5t-86 -132.5t-113.5 -167t-115.5 -166.5t-92 -132t-45 -63.5q59 -147 119.5 -293t125.5 -291q4 -10 23.5 -51t41 -85t38 -81t16.5 -39 q0 -14 -10 -21.5t-23 -7.5q-14 0 -22 7q-6 4 -29.5 55t-56.5 126t-71 163t-70.5 164.5t-55 132t-26.5 67.5q-8 25 -18.5 49.5t-20.5 48.5q-8 -12 -31 -37.5t-49.5 -53t-51 -53.5t-36.5 -40v-143q0 -111 1 -222.5t1 -222.5q0 -16 -4 -36.5t-25 -20.5q-23 0 -29 20.5t-6 36.5z " />
<glyph unicode="l" horiz-adv-x="659" d="M41 600q0 225 6 449.5t6 449.5q0 10 -1 32.5t0 46.5t8.5 41t25.5 17q16 0 20.5 -25.5t4.5 -37.5q-1 -28 -1 -55.5t1 -55.5q2 -56 2 -112q0 -199 -6.5 -397.5t-6.5 -399.5q0 -125 1 -249t1 -249q86 4 170 4h168q12 0 28.5 1t33 -2t28 -11.5t11.5 -26.5q0 -14 -14.5 -16 t-24.5 -2q-53 0 -104.5 -1t-104.5 -1h-74q-31 0 -60.5 -1t-58.5 -1q-16 0 -33.5 3t-19.5 26q-3 28 -3 56v13q1 34 1 70q-2 111 -3 218.5t-1 215.5z" />
<glyph unicode="m" horiz-adv-x="1204" d="M30 57q1 6 3 15q0 4 1 7t1 7v2v2l6 191q2 57 5 115.5t5 115.5v2q2 53 4 108.5t6 108.5q4 72 8.5 146.5t4.5 148.5q0 41 1 82t3 82t3 83t1 83v15t-2 22q0 20 -1 55v23q0 23 1 47q2 36 8 67t18 43q6 6 11 6q14 0 24.5 -16t16.5 -29l35 -86q33 -109 63.5 -228.5t54.5 -223.5 q4 -20 11.5 -41t13.5 -41q10 -29 16 -51q18 -72 42 -144t46 -143q10 -29 19.5 -57.5t19.5 -57.5q10 -31 19.5 -56.5t19.5 -53.5l31 -78l26 80l23 61q41 115 79 224.5t66 226.5l13 41q12 47 30.5 121.5t40 158.5t45 166t43.5 145l33 72q4 6 11.5 12t15.5 6q14 0 22.5 -24.5 t8.5 -52.5q6 -104 6 -209q0 -35 1 -71t3 -71t3 -68.5t1 -68.5q0 -174 6 -366.5t23 -427.5q4 -61 7 -123t3 -115q0 -8 -3 -26.5t-24 -18.5q-4 0 -10 1t-12 10t-10.5 29.5t-4.5 57.5q0 125 -7 250t-15 248q-4 59 -8 121.5t-9 122.5q-2 43 -2 88v88t-2 88t-2 88v68v239 l-59 -231q-12 -43 -21.5 -87t-17.5 -87q-10 -53 -21.5 -102.5t-25.5 -100.5q-4 -10 -7 -20.5t-7 -20.5q-6 -16 -11.5 -31.5t-7.5 -32.5q-6 -29 -14 -56.5t-21 -57.5q-2 -14 -10 -29q-10 -25 -18.5 -50.5t-14.5 -51.5q-10 -31 -21 -61.5t-26 -61.5q-14 -37 -28.5 -75 t-22.5 -75q-10 -45 -22.5 -57t-22.5 -12l-10 2q-8 2 -21.5 21.5t-17.5 41.5q-8 33 -20.5 67t-28.5 68q-16 35 -28.5 71t-23.5 73q-12 47 -28.5 95t-32.5 95q-29 78 -53 160q-14 51 -25.5 102.5t-21.5 102.5q-10 43 -20.5 87t-20.5 89l-66 256l6 -264v-68q1 -20 1 -39t-1 -38 q-2 -38 -2 -77q-2 -51 -2 -102t-4 -102l-2 -27q-8 -145 -15.5 -292.5t-17.5 -295.5q-2 -31 -3 -61.5t-1 -63.5v-6q0 -18 -1 -43.5t-11 -36.5q-2 -2 -5 -4t-14 -2q-32 0 -32 33q0 10 1 16z" />
<glyph unicode="n" horiz-adv-x="899" d="M45 1083v469v22.5t3 30t9 26.5t19 11q14 0 36.5 -46t45 -105t41 -114.5t24.5 -71.5q43 -119 88 -235t90 -234q14 -39 33 -76t33 -76q29 -78 64.5 -151.5t68.5 -147.5q23 -53 43 -109.5t45 -109.5q-1 33 -1 65q0 65 3 131q4 98 4 195q0 160 -3 320.5t-3 320.5 q0 55 1 110.5t1 110.5q0 39 -2 77t-2 77q0 10 5 31.5t22 21.5q25 0 30 -20.5t5 -40.5q0 -98 -2.5 -196.5t-2.5 -197.5q0 -111 4.5 -218t4.5 -218q0 -170 1 -339t1 -339q0 -14 -3 -35.5t-24 -21.5q-14 0 -25.5 11.5t-20.5 26.5t-15.5 32.5t-10.5 27.5q-10 29 -22 54.5 t-25 52.5q-18 41 -34.5 83t-34.5 83q-20 49 -42 96t-42 96q-16 39 -32.5 78t-35.5 76q-41 90 -74.5 184t-68.5 186t-70 184.5t-68 184.5q-2 -68 -2 -135.5v-134.5q0 -57 3.5 -112.5t3.5 -112.5q3 -146 3 -290v-71.5v-71.5q0 -144 3 -290q0 -47 3 -95.5t3 -95.5 q0 -14 -5 -28.5t-24 -14.5q-25 0 -30 16.5t-5 38.5q0 141 -4 281.5t-4 282.5q0 39 2 77.5t2 79.5q-2 76 -6 151t-4 152z" />
<glyph unicode="o" horiz-adv-x="884" d="M12 879v28.5t2 28.5q6 86 14.5 178t33 178t69.5 161t125 128q31 20 75 40.5t83 20.5q80 0 134 -48t91 -123.5t56.5 -171t29.5 -189.5t12 -178t2 -137q0 -59 -6 -119t-12 -119q-10 -80 -28.5 -177t-58.5 -180t-107.5 -139.5t-174.5 -56.5q-72 0 -125 39q-55 39 -95 104.5 t-64.5 141.5t-36 153.5t-11.5 143.5q0 74 -4 146.5t-4 146.5zM72 874q0 -72 1 -155.5t7 -168.5t21.5 -165t43.5 -143q12 -25 30 -53.5t41.5 -54t50 -44t55.5 -24.5q8 -2 22 -3q14 0 36.5 4.5t45.5 10.5t42 15t32 20q10 10 19 23.5t18 25.5q45 66 72.5 143.5t43 160.5 t20.5 167t5 162q0 66 -3 153.5t-12.5 178t-27 174t-47.5 143.5q-8 16 -18.5 28.5t-20.5 26.5q-29 39 -56.5 60.5t-78.5 21.5q-35 0 -68 -15.5t-61 -37.5q-37 -25 -68 -55q-43 -43 -71.5 -120t-45 -163t-22.5 -171t-6 -145z" />
<glyph unicode="p" horiz-adv-x="768" d="M29 57q0 70 1 139.5t3 137.5q2 70 3 139.5t1 138.5v197v391q0 37 2 74t6 74q6 74 6 151v19.5t-2 19.5q-4 20 -4 31q0 63 59 63h5l16 -2h2h47q16 -2 33.5 -2h36.5h2l61 6q31 4 61.5 6t61.5 2q86 0 141.5 -35.5t86 -91t42 -124t11.5 -134.5q0 -53 -8.5 -120.5t-26 -133 t-43 -121t-60.5 -83.5q-25 -18 -56.5 -30.5t-68 -19t-75.5 -9.5t-74 -5q-14 0 -26.5 -1t-24.5 -1h-2h-2q-2 -2 -37 -2h-51q-12 0 -27 2l-33 2v-30v-27q-3 -113 -3 -235v-61v-63q0 -127 -3 -266q0 -35 -10 -43v-2h-2q-6 -8 -19 -8q-16 0 -23 7t-7 50zM96 797h31q31 0 90 1 t121.5 5t116 12t73.5 21q37 25 60.5 87t37 131.5t18.5 131.5t5 82q0 25 -4 59.5t-13 71.5t-24.5 72.5t-36.5 60.5q-41 49 -151 49q-35 0 -71 -2t-70 -6q-35 -4 -69 -6t-69 -2h-32l2 -33q0 -72 -2.5 -144.5t-4.5 -144.5q-4 -63 -6 -127.5t-2 -130.5v-82v-76v-30z" />
<glyph unicode="q" horiz-adv-x="868" d="M8 870v29.5t2 30.5q6 92 16.5 190.5t38 189.5t82 166.5t148.5 122.5q27 12 55.5 22.5t57.5 10.5q72 0 123 -39t85.5 -102.5t55 -142t32 -158.5t15.5 -152.5t6 -122.5q2 -35 4 -66.5t2 -66.5q0 -66 -7 -155.5t-24.5 -181t-43 -174.5t-62.5 -134q-8 -12 -16.5 -23.5 t-18.5 -23.5q4 -8 14.5 -30.5t21.5 -48t20.5 -46t9.5 -24.5q0 -10 -7.5 -19.5t-17.5 -9.5q-12 0 -25.5 16.5t-25.5 39t-21.5 44t-15.5 31.5q-33 -23 -76 -36t-84 -13q-86 0 -141 48t-96 118q-25 43 -43.5 94t-30.5 106.5t-18.5 110.5t-6.5 104q0 74 -4 148t-4 147zM68 866 q0 -68 1 -152.5t7 -171.5t21.5 -169t43.5 -142q12 -25 29.5 -53t40 -53t49.5 -43.5t55 -24.5q8 -2 23 -2q33 0 79 13.5t72 31.5q-4 14 -20 50t-32.5 74t-30 70t-13.5 36q0 8 11.5 17t21.5 9q12 0 28.5 -26.5t32 -61.5t27.5 -67.5t18 -44.5q43 59 70 138t42 164t20.5 169.5 t5.5 156.5q0 66 -3 155t-12.5 180t-27 175t-47.5 142q-8 14 -18.5 27.5t-20.5 27.5q-27 37 -55.5 58.5t-77.5 21.5q-39 0 -70 -14.5t-62 -36.5q-37 -27 -65 -56q-43 -43 -70.5 -119.5t-44 -162.5t-22.5 -171t-6 -145z" />
<glyph unicode="r" horiz-adv-x="798" d="M29 618.5v165.5v49.5t2 51.5t2 52.5v51.5v39t-2 59q0 51 -1 135.5t-1 168.5t2 150.5t6 82.5q4 10 17.5 13t23.5 3l121 -4q16 -2 36.5 -1t43.5 3q29 2 60.5 3t59.5 1q55 0 80 -6l6 -2q55 -23 95.5 -68.5t66 -106t38.5 -127.5t13 -130q0 -51 -10 -108.5t-31.5 -113.5 t-55.5 -107.5t-79 -88.5l-22 -16q35 -63 63 -141q25 -66 45.5 -155t20.5 -191q0 -35 1 -67t3 -60v-2l4 -37q2 -16 2.5 -36t0.5 -40q0 -12 -7.5 -25.5t-24.5 -13.5q-10 0 -22 6q-2 4 -6.5 16.5t-6.5 45.5l-8 174q-4 82 -14 160.5t-28.5 143t-43 113t-55.5 70.5l-6 6h-10 q-29 0 -56.5 1t-54.5 3q-74 6 -150 6h-13t-17 -2l-23 -6l-2 -22q-2 -45 -2 -88v-86l8 -482q0 -20 -3 -30.5t-8 -15.5t-11 -6t-10 -1q-10 0 -17 6q-14 14 -16 47t-2 56v12v328q-2 82 -2 163.5zM94 803h33h23q31 0 62.5 -1t61.5 -3q31 -2 63 -3t62 -1q20 0 31 4q4 0 6 2h2h2 q8 4 26.5 24.5t37 45t33 45t18.5 26.5q45 66 58.5 142t13.5 135q0 23 -4.5 69.5t-21.5 100t-51 102.5t-91 78l-6 2h-9q-8 0 -14 1t-14 1h-33h-98q-23 -2 -47.5 -2h-49.5h-61l-33 2v-33v-53v-107.5t2 -107.5q2 -39 2 -79v-79v-72v-45.5t-1 -58.5t-2 -58.5t-1 -43.5v-33z" />
<glyph unicode="s" horiz-adv-x="718" d="M25 315q0 16 9 34t25 18q10 0 15.5 -12.5t9.5 -59.5v-2l2 -2l6 -31q6 -33 21.5 -76t54.5 -82q29 -27 71 -33t83 -6h10h8q104 0 164.5 76t60.5 207q0 70 -18.5 121t-48.5 106q-49 94 -114 154.5t-124 110.5q-45 37 -85 72.5t-70.5 81.5t-49 105.5t-18.5 143.5 q0 176 78 283q83 118 242 118h3q122 0 186 -70q55 -60 55 -173q0 -18 -1 -37l-2 -35q-4 -41 -16.5 -48t-18.5 -7q-20 0 -25.5 13t-5.5 24v22l5 41v2q0 63 -16.5 104.5t-42 65t-56.5 31.5t-62 8q-123 0 -190.5 -93t-67.5 -259q0 -106 41 -182t140 -144q94 -68 160.5 -142.5 t107.5 -148t59.5 -142.5t18.5 -126q0 -346 -332 -346q-74 0 -123 27.5t-81 67.5t-47 86t-17 83z" />
<glyph unicode="t" horiz-adv-x="864" d="M-25 1616q0 10 5.5 16t11.5 13q72 0 142.5 1t141.5 1h21h86h350q14 0 28.5 -9.5t14.5 -23.5q0 -23 -21.5 -28t-37.5 -5q-41 0 -83 4t-83 4q-45 0 -88 -2q-22 -1 -43 -1l-43 1l-2 -20q0 -41 3 -82q2 -25 1 -49v-33q-8 -166 -14.5 -330t-6.5 -330q0 -159 -1 -319v-64 q0 -128 3 -256q0 -16 2.5 -29.5t2.5 -29.5q0 -12 -2.5 -24.5t-18.5 -12.5q-10 0 -18.5 1t-18.5 1q-9 63 -9 125q0 21 1 42q4 83 4 169q0 41 -2 82t-2 82v303q1 185 15 365q9 111 8 224q0 70 -3 140l-2 45q-68 0 -136 -1t-138 -1q-14 0 -41 5t-27 26z" />
<glyph unicode="u" horiz-adv-x="839" d="M17 1489q0 16 -0.5 32.5t0.5 32.5q1 32 8.5 58t25.5 26q23 0 29 -19.5t6 -35.5q0 -31 -4 -62.5t-4 -64.5q0 -160 7 -320.5t7 -320.5q0 -66 3 -130t5 -130q2 -68 6.5 -153t28 -158.5t74.5 -124.5t147 -51q68 0 113 28.5t82 85.5q20 35 32.5 75t17.5 82t6 84t1 81 q6 260 15.5 516t9.5 516q0 12 -2 29.5t-1 35t7 29.5t22 12q10 0 16.5 -8t9.5 -19t4 -23.5t1 -20.5q0 -272 -5 -541.5t-13 -542.5q0 -41 -4 -88t-12.5 -95t-24 -93t-37.5 -78q-49 -70 -105.5 -99.5t-142.5 -29.5q-76 0 -130 35t-97 94q-25 33 -39 77t-23.5 93t-13.5 97.5 t-4 86.5q-4 188 -5 375t-9 373q-2 53 -4.5 103.5t-2.5 103.5q0 14 -1 47z" />
<glyph unicode="v" horiz-adv-x="837" d="M-55 1610q0 12 7 21t21 9q23 0 28 -15t7 -32q29 -213 81 -440t99 -438q35 -147 73 -294t85 -288q23 78 46.5 156t43.5 155q51 199 93 395.5t92 395.5q2 14 15 75.5t28.5 131t28 125t12.5 57.5q6 10 20 10q29 1 29 -26q0 -37 -10.5 -95.5t-26 -123t-30.5 -126t-25 -100.5 t-32 -135t-50.5 -220t-60.5 -259t-61.5 -251t-54 -197t-36.5 -93l-17 -6q-12 0 -27.5 32t-28.5 70.5t-23.5 74.5t-12.5 46q-78 256 -136.5 514t-115.5 521q-6 33 -17.5 79.5t-20.5 96t-16 96.5t-7 78z" />
<glyph unicode="w" horiz-adv-x="1212" d="M-39 1606q0 10 4 20t17 10q16 0 28 -12q25 -96 41.5 -192.5t34.5 -194.5q51 -262 103.5 -523t111.5 -524q29 205 64.5 405t70.5 402q10 59 19.5 116.5t19.5 117.5q16 86 26.5 171t20.5 171q2 14 8.5 32.5t24.5 18.5q12 0 15 -12.5t8 -20.5q0 -4 1 -9t1 -9q10 -86 20 -171 t27 -171q45 -262 91 -520t85 -521q59 262 111.5 523.5t101.5 523.5q18 98 35.5 194.5t40.5 192.5l20 16h8q4 -4 12.5 -12t8.5 -12l2 -10v-9q1 -32 -11 -75q-14 -49 -20 -86q-18 -109 -43 -230q-47 -225 -90 -449.5t-90 -449.5q-12 -57 -25.5 -113.5t-25.5 -113.5 q-4 -18 -13.5 -47t-31.5 -29q-12 0 -19.5 16.5t-12.5 38t-7 43t-2 29.5q-8 55 -15.5 109.5t-15.5 109.5q-4 35 -12.5 71t-14.5 71q-37 217 -73.5 432t-69.5 432q-33 -217 -70 -432t-71 -432q-6 -35 -14.5 -71t-14.5 -73q-8 -53 -16.5 -108.5t-14.5 -108.5q0 -10 -2 -30.5 t-6 -43t-11 -39t-20 -16.5q-14 0 -22 8t-12.5 20.5t-7.5 26t-5 23.5l-49 227q-37 174 -74 347t-67 350q-18 102 -41 201.5t-39 201.5q-2 6 -5 31.5t-8.5 53.5t-8.5 51.5t-5 25.5q-6 19 -6 37z" />
<glyph unicode="x" horiz-adv-x="841" d="M-4 31q0 14 4 26.5t10 28.5q23 51 42.5 102.5t37.5 102.5q14 39 28.5 77t31.5 78q14 35 26 68t25 61q18 47 36.5 94.5t41.5 104.5l4 12l-2 11q-6 16 -12.5 34.5t-12.5 34.5q-29 86 -59 172q-47 123 -93.5 268.5t-91.5 292.5v7v2q0 10 2 13t2 5q10 10 29 10q12 0 18.5 -8 t8.5 -12q27 -66 49 -139.5t47 -153.5q29 -98 60.5 -194.5t70.5 -182.5l33 -69l24 73q47 137 95.5 272.5t95.5 243.5q10 23 20 58q10 29 21.5 55.5t25.5 44.5q4 6 11.5 12t19.5 6q10 0 19.5 -9t9.5 -19q0 -12 -16.5 -58.5t-39 -102.5t-46 -114.5t-37.5 -97.5 q-10 -29 -19.5 -50.5t-13.5 -35.5h-2l-2 -6q-8 -27 -16.5 -51.5t-16.5 -48.5q-20 -61 -42 -124t-48 -128l-6 -13l6 -12q49 -125 98 -234.5t102 -226.5q53 -115 113 -250l2 -2q4 -10 8 -19.5t4 -19.5q0 -16 -12 -18t-16 -2q-16 0 -29.5 13.5t-30.5 47.5q-18 41 -37.5 80 t-37.5 76q-49 98 -94.5 194.5t-88.5 209.5l-28 75l-29 -75q-23 -57 -44.5 -109.5t-43.5 -103.5q-35 -80 -67.5 -159t-61.5 -171q-10 -35 -22 -56.5t-31 -21.5q-33 0 -33 31z" />
<glyph unicode="y" horiz-adv-x="731" d="M-57 1614q0 10 6 18t20 8q23 0 39 -18q6 -10 27.5 -59.5t48.5 -120t58.5 -153.5t58 -159.5t48 -138t27.5 -90.5l27 -104l33 102q27 86 57.5 173t61.5 175q23 61 44 120.5t40 117.5q6 14 10 28.5t8 28.5q4 18 9 35.5t12 34.5q4 8 11 19t23 11t23.5 -11t7.5 -23t-6 -27.5 t-12 -32.5q-8 -20 -13 -28q-12 -39 -25.5 -77t-27.5 -77q-20 -59 -39.5 -119.5t-42.5 -120.5q-10 -31 -22.5 -61.5t-24.5 -58.5q-14 -35 -27.5 -71t-25.5 -73q-10 -25 -19.5 -57.5t-19.5 -87.5l-2 -4l2 -4v-19q0 -16 1 -30.5t1 -30.5q2 -31 3 -60.5t1 -60.5q0 -20 -1 -41 t-1 -41q-2 -20 -2 -40.5v-43.5v-57q2 -25 3 -67t1 -86t-3 -80t-11 -46q-4 -6 -13 -6q-14 0 -19 3t-7 5q-10 10 -11 29.5t-1 40.5v4v240v223v117l-3 51v6l-2 4q-18 53 -32.5 96t-26.5 78q-10 35 -19.5 63.5t-21.5 57.5q-23 55 -43 111.5t-41 111.5q-23 63 -45 128t-51 126 q-4 8 -8 15.5t-9 17.5q-8 18 -21 47t-13 39z" />
<glyph unicode="z" horiz-adv-x="888" d="M8 1593v11q0 14 18.5 21t43 9t49 2h37.5q115 0 228.5 1t227.5 1h26.5t33 -3t29 -10t12.5 -21q0 -10 -11.5 -36t-27 -56.5t-29.5 -59.5t-20 -43q-141 -334 -264 -671t-261 -675q16 0 31.5 -1t32.5 -1q74 0 147.5 6.5t147.5 6.5q53 0 103 2t104 2h20t21 -2l14 -8 q10 -11 10 -21q0 -12 -9 -19.5t-20 -11.5l-2 4v-4q-55 0 -109 -2t-108 -2q-86 0 -172 -6t-172 -6q-25 0 -49 2t-47 6l-16 19v6q0 6 13 41t29.5 75.5t33 78.5t20.5 51q47 123 95 244.5t93 246.5q39 104 76 206.5t78 207.5q39 100 82 199.5t92 195.5q-23 2 -46.5 3t-45.5 1 l-371 -2q-33 0 -64.5 -3t-64.5 -3q-8 0 -24 4z" />
<glyph unicode="{" horiz-adv-x="528" d="M27 848q2 10 22.5 23.5t44 36t43 56t19.5 83.5q0 37 -7.5 72.5t-16.5 71.5t-16 71.5t-7 72.5q0 63 16 118.5t48 97.5t82 65.5t118 23.5q10 0 20 -4t10 -16q0 -18 -18 -25.5t-44 -11.5t-51.5 -9t-39.5 -18q-47 -41 -65.5 -103t-18.5 -122q0 -37 7 -71.5t16.5 -69.5 t17.5 -70t8 -71q0 -57 -28.5 -107.5t-69.5 -89.5q45 -20 70.5 -50t25.5 -83q0 -41 -17.5 -88t-37 -98.5t-37 -102.5t-17.5 -98q0 -92 48.5 -159t126.5 -105q23 -14 22 -37q0 -8 -2 -15l-10 -10q-12 -4 -17 -4q-12 0 -21 5t-20 11q-82 45 -132 133.5t-50 182.5 q0 55 16.5 106.5t35 98.5t35 94t16.5 96q0 31 -14.5 44t-35 19.5t-41 12.5t-32.5 26z" />
<glyph unicode="|" horiz-adv-x="243" d="M70 352v369.5t2 370.5q2 66 6 129t4 129q0 68 -5 134t-5 134l8 16q12 8 24 8q10 0 17 -8q6 -6 9 -35.5t5 -65.5t2 -68.5v-43.5q0 -125 -5 -247.5t-5 -245.5q0 -152 -2 -302.5t-2 -301.5q0 -68 7 -135.5t7 -133.5q0 -14 -5 -32.5t-21 -18.5t-24.5 16.5t-8.5 30.5 q0 76 -4 150.5t-4 150.5z" />
<glyph unicode="}" horiz-adv-x="559" d="M25 1620q0 12 9 16t19 4q68 0 118 -23.5t83 -65.5t48 -97.5t15 -118.5q0 -74 -22.5 -144.5t-22.5 -143.5q0 -49 19.5 -83t42 -56.5t43 -36t24.5 -23.5l-4 -17q-12 -20 -32.5 -26t-40 -12.5t-34 -19.5t-14.5 -44q0 -49 16.5 -96t35 -94t35 -98.5t16.5 -106.5 q0 -94 -50 -182.5t-134 -133.5q-10 -6 -18.5 -11t-20.5 -5q-8 0 -17 4l-12 10q-2 6 -2 15q0 23 25 37q78 39 125 105.5t47 158.5q0 47 -17.5 98t-37 102.5t-37 98.5t-17.5 88q0 53 25.5 82.5t72.5 50.5q-43 39 -70.5 89t-27.5 108q0 37 7 71.5t16.5 69.5t17.5 69.5t8 71.5 q0 59 -18.5 122t-65.5 103q-14 12 -39.5 17.5t-51.5 9.5t-44 11.5t-18 25.5z" />
<glyph unicode="~" horiz-adv-x="1185" d="M23 690q0 10 8 31q37 82 112.5 137t167.5 55q78 0 126 -36.5t91 -80.5t91.5 -81t125.5 -37q29 0 63 15.5t65.5 38t56 51t33.5 55.5q4 12 9 33.5t23 21.5q12 0 21.5 -10.5t9.5 -22.5q0 -45 -29.5 -88t-74.5 -78t-95.5 -56.5t-91.5 -21.5q-82 0 -136 38t-97 82t-85 82 t-102 38q-59 0 -104 -29.5t-79 -65.5t-55.5 -65.5t-31.5 -29.5t-16 7t-6 17z" />
<glyph unicode="&#xa1;" horiz-adv-x="243" d="M53 1529.5v31.5q0 33 27 43h14q10 -4 15.5 -18.5t7.5 -31t2 -34v-27.5t-1 -19.5t-5 -19.5l-19 -10q-16 -4 -25.5 10t-12.5 34.5t-3 41zM55 1241q0 12 6.5 25.5t22.5 13.5t24.5 -11.5t8.5 -25.5q0 -59 5 -117.5t5 -117.5q0 -145 -1 -290t-3 -290q-2 -51 -5 -101.5 t-3 -101.5q0 -53 4 -105t4 -106l-8 -12q-10 -6 -25 -6q-29 0 -29 35t-2 69.5t-2 69.5q0 98 5.5 192.5t5.5 192.5q0 119 2 236.5t2 236.5q0 53 -8.5 106.5t-8.5 106.5z" />
<glyph unicode="&#xa2;" horiz-adv-x="759" d="M14 899q0 74 7.5 154t29 156.5t60.5 144t102 114.5q33 23 68.5 39.5t76.5 16.5q35 0 64 -11.5t57 -29.5q4 12 9.5 38.5t13.5 52t19 46t26 20.5q12 0 18 -10t6 -20q0 -6 -6 -32t-13 -55.5t-14.5 -56t-9.5 -34.5q43 -57 61.5 -132t18.5 -147v-25.5t-3 -36t-9 -33t-16 -14.5 q-23 0 -30 12.5t-7 30.5q0 16 4 35t4 35q0 53 -11.5 105.5t-33.5 99.5q-10 -23 -16.5 -44.5t-12.5 -43.5q-18 -68 -37.5 -134.5t-42.5 -131.5q-51 -162 -98 -325t-92 -329q29 -41 76 -65.5t96 -24.5q23 0 41 11.5t35 23.5q25 18 39 48t21 63.5t10 67.5t3 63q0 16 2 36.5 t25 20.5q27 0 30 -25.5t3 -44.5q0 -51 -9.5 -108.5t-33 -105.5t-64.5 -79.5t-106 -31.5q-51 0 -100.5 21.5t-86.5 54.5q-18 -61 -37.5 -122t-35.5 -122q-4 -10 -13.5 -21.5t-21.5 -11.5q-10 0 -18.5 7t-8.5 18q0 10 12.5 53t29 93t30.5 98t20 67q-78 141 -104.5 272 t-26.5 289zM74 934q0 -59 5 -126t15 -134.5t28.5 -131t45.5 -116.5q35 123 66.5 244t66.5 243q20 66 44 129.5t42 128.5q14 51 26.5 102.5t30.5 98.5q4 12 11.5 27.5t7.5 27.5q0 6 -13.5 13.5t-30 12.5t-32.5 8t-22 3q-41 0 -77 -20.5t-67 -46.5q-41 -33 -68.5 -91.5 t-45 -124t-25.5 -132t-8 -115.5z" />
<glyph unicode="&#xa3;" horiz-adv-x="858" d="M27 20v11q-2 14 17 42.5t44 61.5t48.5 63.5t33.5 49.5q10 23 17.5 46t15.5 46q35 100 50 197.5t17 203.5q-41 -4 -79.5 -8t-79.5 -4q-23 0 -35 19l-2 18q12 27 45 27q39 0 75.5 1t73.5 3v12q0 92 -6 182t-6 183q0 72 9 153.5t38 151t82 115.5t141 46h9q55 0 93 -31.5 t59.5 -78.5t30.5 -101.5t9 -99.5q0 -14 -6.5 -26.5t-22.5 -12.5q-25 0 -32 45t-16 99.5t-31.5 99.5t-79.5 45q-63 0 -111 -43q-6 -6 -13 -11t-14 -12q-31 -31 -47 -73.5t-25.5 -91t-11.5 -96.5t-2 -89q0 -74 7.5 -147.5t7.5 -149.5q0 -16 -1 -34.5t-1 -34.5q33 -4 66.5 -7.5 t66.5 -3.5q8 0 27.5 2.5t38 0t32.5 -8.5t14 -20q0 -23 -23.5 -27t-39.5 -4q-47 0 -91 2t-89 6q-6 -92 -14.5 -173t-27 -157.5t-52 -149.5t-91.5 -148q53 25 107.5 46t114.5 21q25 0 61.5 -9t71.5 -26.5t59.5 -42t24.5 -53.5q0 -10 -5.5 -19.5t-15.5 -9.5q-8 0 -23.5 15.5 t-40 35t-58 35t-76.5 15.5q-47 0 -96.5 -18.5t-92.5 -40t-75.5 -39t-47.5 -17.5l-10 2z" />
<glyph unicode="&#xa4;" horiz-adv-x="888" d="M23 1303q0 16 18 24h20q12 -8 32 -26.5t39.5 -41t37.5 -45t31 -34.5q45 35 100 49t113 14q45 0 70.5 -8t66.5 -23q10 8 33.5 37t49 59.5t46 55.5t22.5 27l-4 -5q16 6 27.5 -2t11.5 -26q0 -12 -18.5 -38t-42 -52.5t-46 -52t-32.5 -37.5q55 -47 77.5 -110.5t22.5 -135.5 q0 -49 -9 -105.5t-28.5 -110.5t-50 -100.5t-73.5 -74.5q10 -14 31.5 -43t44 -59.5t40 -58.5t17.5 -42q0 -23 -29 -29l-20 10q-35 51 -70 101.5t-74 97.5q-20 -4 -40.5 -6t-41.5 -2q-29 0 -57.5 4t-54.5 16q-33 -39 -64 -81.5t-55 -86.5q-8 -14 -19.5 -38.5t-29.5 -24.5 q-12 0 -20.5 9t-8.5 22q0 10 17.5 40.5t41 65.5t47 69t35.5 50q-92 47 -137 132t-45 185q0 31 9 68t23.5 74t34 68.5t42.5 54.5q-29 33 -54.5 69.5t-60.5 65.5q-16 12 -16 31zM104 879q0 -63 20.5 -120t59.5 -100t93.5 -68.5t119.5 -25.5q18 0 50 5t49 14q37 18 64.5 62 t46 97.5t26.5 106.5t8 90q0 47 -15.5 92t-44 80t-68.5 56.5t-91 21.5q-49 0 -100.5 -13.5t-90.5 -46.5q-49 -43 -88 -112.5t-39 -138.5z" />
<glyph unicode="&#xa5;" horiz-adv-x="790" d="M-33 1622q0 10 7.5 20.5t19.5 10.5q16 0 23.5 -11.5t13.5 -23.5q35 -74 63.5 -151.5t57.5 -155.5q43 -115 87 -226.5t89 -226.5q23 53 40 109.5t38 109.5q35 88 71.5 174t65.5 176q14 47 26.5 94.5t28.5 92.5q6 14 14.5 25.5t26.5 11.5h4q8 -4 14.5 -10.5t6.5 -16.5 q0 -16 -10.5 -53t-26 -83t-35 -99.5t-37.5 -101.5t-33.5 -88t-21.5 -60q-14 -41 -35 -82t-33 -84q10 0 27.5 2t35 0t31 -8t13.5 -21q0 -10 -5.5 -16t-11.5 -12q-29 -2 -55.5 -4.5t-54.5 -2.5q-10 -29 -22.5 -56.5t-24.5 -55.5h69q10 0 29.5 2t39 2t34 -5t14.5 -22 q0 -27 -16.5 -32t-38.5 -5q-35 0 -71 -1t-71 -1q4 -78 10.5 -168t-4.5 -166v15q2 -94 3.5 -188.5t1.5 -188.5q0 -16 -9.5 -21.5t-25.5 -5.5q-29 0 -29 31v266q0 109 1 214.5t-3 211.5l-70 2q-10 0 -26.5 -2t-32.5 -1t-28.5 7.5t-12.5 22.5q0 10 5 19.5t18 9.5q33 4 65.5 4 h65.5q-10 29 -20.5 56.5t-20.5 55.5l-62 2q-20 0 -39.5 -1t-19.5 28q0 14 11 21.5t26.5 9.5t33 1t27.5 -1q-4 12 -24.5 64t-49 125t-59.5 154t-57.5 148.5t-44 112.5t-17.5 47z" />
<glyph unicode="&#xa6;" horiz-adv-x="247" d="M68 936q-2 25 0 50.5t2 37.5v117q0 121 3 238.5t3 236.5v4l10 16q9 4 25 4q20 0 20 -20q0 -74 -2 -146.5t-2 -146.5v-428q0 -27 -27 -27q-16 0 -23 19.5t-9 44.5zM70 33v141v113q0 229 6 456q0 14 3 24.5t21 10.5q33 0 33 -33q0 -63 -3 -126.5t-3 -129.5v-90 q0 -92 2 -181t2 -181q0 -10 -4 -22.5t-18 -12.5t-26.5 7t-12.5 24z" />
<glyph unicode="&#xa7;" horiz-adv-x="784" d="M35 229q0 10 7 21.5t21 11.5q10 0 16.5 -11t11.5 -25.5t9 -30t9 -21.5q12 -20 36.5 -36.5t54 -29t60.5 -18.5t53 -6q41 0 85 9t81 30.5t60.5 55.5t23.5 83q0 68 -25.5 109t-65.5 68.5t-89 47t-96 43.5q-20 10 -38 23.5t-36 28.5q-14 10 -27.5 17t-23.5 17 q-47 41 -70.5 99.5t-23.5 120.5q0 86 43 142t118 93q-66 37 -113.5 96.5t-47.5 137.5q0 170 95 263t267 93q104 0 158.5 -62.5t54.5 -162.5q0 -12 -1 -32t-6 -37t-14.5 -30.5t-25.5 -13.5q-12 0 -18.5 10.5t-6.5 20.5q0 18 6.5 36.5t6.5 39.5q0 78 -36 128t-122 50 q-135 0 -216 -77t-81 -212q0 -86 51 -132t120 -78t141.5 -62.5t115.5 -85.5q18 -23 30.5 -50.5t24.5 -54.5q16 -37 24.5 -74t8.5 -77q0 -66 -17.5 -139.5t-64.5 -123.5q12 -10 23.5 -31.5t19.5 -48t13.5 -52t5.5 -40.5q0 -61 -28 -107t-72 -77t-98 -47t-108 -16 q-47 0 -98 11t-92 35.5t-67.5 63.5t-26.5 96zM127 829q0 -80 42 -130t102.5 -87t128 -65.5t120.5 -63.5q33 41 49.5 101.5t16.5 113.5q0 12 -1 23.5t-3 23.5q-10 72 -34 117t-59.5 77t-83 54t-106.5 47q-35 -18 -65.5 -36.5t-54 -43t-38 -56.5t-14.5 -75z" />
<glyph unicode="&#xa8;" horiz-adv-x="395" d="M23 1753q0 16 9 28.5t25 12.5t24.5 -10t8.5 -25q0 -16 -9.5 -29.5t-25.5 -13.5t-24 10.5t-8 26.5zM213 1753q0 16 9 28.5t26 12.5q16 0 24.5 -10t8.5 -25q0 -16 -9.5 -29.5t-25.5 -13.5t-24.5 10.5t-8.5 26.5z" />
<glyph unicode="&#xa9;" horiz-adv-x="1032" d="M14 1010q0 55 13.5 121.5t36 134t52 130t64.5 105.5q31 41 72 68.5t88 48.5q33 14 65.5 24.5t67.5 10.5q10 0 19.5 -1t19.5 -3q66 -10 132.5 -46t105.5 -90q37 -51 62.5 -114.5t40.5 -132t22.5 -137t7.5 -130.5q0 -78 -16.5 -160.5t-50.5 -158.5t-86 -138.5t-124 -99.5 l-24 -12q-35 -18 -64 -27.5t-69 -9.5q-111 0 -193 61.5t-136 153.5t-80 199.5t-26 202.5zM71 1054.5q1 -14.5 1 -28.5q0 -82 22.5 -182.5t68.5 -187.5t119 -146t173 -59q45 0 65.5 11t57.5 30q66 33 111.5 90t75.5 126.5t44 145.5t14 143q0 55 -8 130t-26.5 150t-49 140.5 t-75.5 100.5q-39 29 -84 52t-95 23q-96 0 -167.5 -50t-121 -126t-79 -165t-43.5 -169q-4 -14 -3 -28.5zM238 999q0 35 4 68t14 63q10 31 30.5 67t49.5 65.5t62.5 49t70.5 19.5q18 0 39.5 -7t41 -20.5t33 -32t13.5 -38.5q0 -10 -7 -15.5t-18 -5.5q-12 0 -21 10.5t-20.5 21.5 t-26 21.5t-34.5 10.5q-45 0 -77 -32t-53.5 -76t-31.5 -93t-10 -84q0 -31 6 -66.5t21.5 -66.5t42 -51.5t65.5 -20.5t66.5 16.5t46 35t31 35t24.5 16.5q10 0 16.5 -8.5t6.5 -18.5q0 -27 -19.5 -51.5t-48.5 -42.5t-60.5 -28.5t-54.5 -10.5q-57 0 -96 24.5t-62.5 63.5t-33.5 87 t-10 95z" />
<glyph unicode="&#xaa;" horiz-adv-x="532" d="M0 1286q0 51 15.5 110.5t46 109.5t76.5 84t106 34q18 0 43.5 -5t50 -16.5t41 -27.5t16.5 -39q0 -16 -4 -35.5t-8 -36.5q-10 -47 -19.5 -111.5t-9.5 -113.5q0 -10 2 -29.5t0 -40t-8 -35t-24 -14.5q-16 0 -25.5 15.5t-9.5 27.5q0 8 6 19q-59 -78 -150 -78q-35 0 -62.5 16.5 t-46 43t-27.5 59t-9 63.5zM55 1300q0 -25 5.5 -48t17.5 -42.5t30.5 -32t47.5 -12.5q23 0 44 8.5t38 24.5q16 18 33.5 62.5t32.5 94.5t24.5 97t9.5 72q0 12 -9.5 20t-23.5 13.5t-28.5 8.5t-22.5 3q-47 0 -83 -28t-62.5 -69.5t-40 -88t-13.5 -83.5z" />
<glyph unicode="&#xab;" horiz-adv-x="1140" d="M10 618q0 25 22.5 46.5t39.5 37.5q133 127 267 253t263 259l14 7h9l20 -23q-2 -16 -11 -28.5t-20 -22.5q-133 -133 -271 -257t-265 -259q20 -18 43.5 -31.5t46.5 -26.5q59 -31 118.5 -67.5t119.5 -61.5q53 -23 101 -49t97 -55l37 -18.5t21 -30.5q0 -27 -23 -27 q-16 0 -38.5 9.5t-46.5 22.5t-46.5 26.5t-36.5 21.5q-61 39 -125.5 70.5t-130.5 64.5q-29 14 -58.5 35t-58.5 31q-10 6 -25.5 12t-29.5 15.5t-23.5 20.5t-9.5 25zM307 643q0 25 22.5 46.5t39.5 37.5q135 127 269 253t261 259l16 6h7l20 -22q-2 -16 -10 -28.5t-19 -23.5 q-133 -131 -271 -254.5t-267 -261.5q20 -16 43.5 -29.5t48.5 -27.5q59 -31 117.5 -66.5t120.5 -60.5q53 -23 100 -50.5t98 -55.5q14 -8 34.5 -17.5t20.5 -32.5q1 -26 -22 -26q-16 0 -39 9t-46.5 22.5t-45 26.5t-35.5 24q-61 37 -126.5 69.5t-131.5 63.5q-29 14 -58.5 34.5 t-58.5 30.5q-10 6 -25.5 13.5t-29.5 16.5t-23.5 19.5t-9.5 24.5z" />
<glyph unicode="&#xac;" horiz-adv-x="866" d="M4 752q8 18 25 18q47 0 96 1t96 1q29 0 59.5 -2t59.5 -2q80 0 161 -2t161 -2h45l20 -23q-8 -84 -6 -169t2 -169q0 -16 -1 -42.5t-22 -26.5q-20 0 -29 12t-9 31q0 82 -1.5 165t5.5 165q-53 2 -108.5 2h-108.5h-173h-204q-10 0 -21.5 1t-19.5 4t-13.5 10t-3.5 21v17z" />
<glyph unicode="&#xad;" horiz-adv-x="782" d="M25 696q0 25 28.5 31t46.5 6q53 0 105.5 -3t105.5 -3q43 0 86 2t84 2q12 0 37 1t49.5 -2t43 -10t18.5 -24q0 -10 -10.5 -16t-23.5 -8t-26.5 -2h-19.5q-29 0 -58.5 2t-58.5 2h-113q-61 0 -121.5 -3t-121.5 -3q-14 0 -32.5 4t-18.5 24z" />
<glyph unicode="&#xae;" horiz-adv-x="987" d="M4 997q0 55 13.5 122t36 133.5t52 128t62.5 104.5q31 41 72 69.5t86 47.5q33 14 65.5 24t67.5 10q10 0 19 -1t20 -3q66 -12 130 -47t103 -88q37 -51 61.5 -113.5t41 -130t23.5 -135t7 -129.5q0 -76 -16.5 -158.5t-50 -157.5t-84.5 -137.5t-123 -97.5l-25 -12 q-35 -18 -62.5 -28.5t-68.5 -10.5q-111 0 -191.5 60.5t-134 152.5t-79 198.5t-25.5 198.5zM59 1016q0 -82 22.5 -181.5t69 -186.5t118 -145.5t171.5 -58.5q43 0 63.5 11.5t57.5 29.5q63 33 110.5 89.5t76 126t43 143t14.5 141.5q0 55 -7 130t-25.5 149.5t-49.5 139t-76 99.5 q-39 29 -84 51.5t-92 22.5q-96 0 -167 -49t-120 -125t-78.5 -164t-44.5 -168q-2 -12 -2 -26.5v-28.5zM291 903q0 63 4 125t4 123q0 23 -3 60.5t9 56.5l14 8q23 2 42.5 3t39.5 1q12 0 32 -1t40.5 -3t38.5 -7t27 -14q14 -12 22 -40.5t12.5 -60.5t6.5 -62.5t2 -49.5 q0 -49 -30 -69.5t-75 -24.5q6 -16 18.5 -41.5t23.5 -53.5t19.5 -52.5t8.5 -40.5q0 -12 -7.5 -23.5t-19.5 -11.5q-6 0 -11 3t-9 7q-10 12 -15.5 27.5t-9.5 32.5q-10 41 -28.5 75.5t-32.5 73.5q-16 -2 -31.5 1t-32.5 3q-2 -8 -2 -16v-17q0 -35 3 -66.5t3 -66.5q0 -14 -2 -28.5 t-8 -26.5l-20 -12q-16 2 -23.5 12t-7.5 27q0 39 -1 75.5t-1 73.5zM348 1006h25q16 -2 34.5 -1t34.5 1h36t26 5t14 17t4 39q0 37 -6 74t-22 71q-23 4 -47.5 6.5t-47.5 2.5q-10 0 -22 -1t-23 -3q0 -106 -6 -211z" />
<glyph unicode="&#xaf;" horiz-adv-x="557" d="M2 1751q0 10 9 14t18 7q88 8 179 6t179 -2h13.5t11.5 -4l4 -13q0 -10 -7.5 -18t-17.5 -10q-84 -10 -181 -7.5t-183 2.5q-25 0 -25 25z" />
<glyph unicode="&#xb0;" horiz-adv-x="389" d="M12 1346q0 35 8.5 82t28 90t50 73.5t75.5 30.5q37 0 58.5 -19.5t32.5 -47t14.5 -59.5t3.5 -58q0 -31 -5.5 -82t-20.5 -100.5t-42 -86t-68 -36.5q-45 0 -71.5 20.5t-41 51t-18.5 68.5t-4 73zM70 1348q0 -18 2 -45t9 -51.5t21.5 -42t38.5 -17.5q25 0 41.5 34t26.5 79t14 88 t4 61q0 12 -1 31.5t-6 36t-15 29t-27 12.5q-33 0 -53.5 -25t-32.5 -59.5t-17 -70t-5 -60.5z" />
<glyph unicode="&#xb1;" horiz-adv-x="1071" d="M14 43q0 14 15.5 20.5t37 8.5t41 0t29.5 -2q152 2 300.5 3t297.5 1h30.5h46.5t44.5 -1t24.5 -3q10 -7 10 -23q0 -23 -14.5 -27t-32.5 -4q-199 0 -396.5 -2t-396.5 -2q-14 0 -25.5 7.5t-11.5 23.5zM14 625q0 12 9.5 18t21.5 9t25.5 3h21.5h336l2 115q0 14 -1 56t-2 87 t0 83t5 46q2 6 8 9.5t13 3.5q23 0 26.5 -15.5t3.5 -31.5v-353l125 -2q14 0 55.5 1t87.5 2t83.5 0t46.5 -5q10 -6 10 -20q0 -23 -14.5 -28t-32.5 -5l-361 2v-29q0 -90 2 -179t2 -179q0 -12 -7 -23.5t-23 -11.5q-12 0 -17.5 9.5t-8.5 21.5t-3 25.5v21.5v344h-18 q-92 0 -180.5 -3t-178.5 -3q-14 0 -25.5 8t-11.5 23z" />
<glyph unicode="&#xb2;" horiz-adv-x="507" d="M-2 827v7q0 45 43 118.5t95 162.5t95 189.5t43 202.5q0 37 -19 52.5t-54 15.5q-55 0 -79 -33t-34 -72.5t-18.5 -72.5t-32.5 -33q-12 0 -16.5 9t-4.5 20q0 25 6.5 49t14.5 47q23 68 57.5 103.5t110.5 35.5q123 0 123 -119q0 -49 -14.5 -109.5t-37 -120.5t-49 -116.5 t-53.5 -97.5q-10 -14 -26.5 -43t-35 -59.5t-34 -58t-19.5 -42.5q61 2 122 0t122 -2q16 0 30.5 3t31.5 3q25 0 24 -26q0 -23 -9 -30t-32 -7q-49 0 -99 4t-102 4q-35 0 -65.5 -2t-65.5 0z" />
<glyph unicode="&#xb3;" horiz-adv-x="438" d="M25 893q0 8 4 16.5t14 8.5q12 0 21.5 -7.5t18.5 -14.5t19.5 -14.5t24.5 -7.5q37 0 62.5 14.5t40 39t20.5 55.5t6 61q0 20 -4 46t-14.5 49.5t-25.5 42t-40 22.5q-16 2 -39.5 4t-23.5 25q0 14 19 29.5t44 41t44.5 69.5t19.5 116q0 35 -20.5 56.5t-55.5 21.5 q-23 0 -38.5 -12.5t-25.5 -27t-18 -26.5t-19 -12l-14 6q-14 10 -14 27q0 20 14 38.5t34.5 33t44 21.5t42.5 7q63 0 96 -42t33 -101q0 -74 -20.5 -122t-71.5 -102q59 -27 84.5 -83t25.5 -115q0 -43 -9 -87t-29.5 -79t-55.5 -57.5t-86 -22.5q-35 0 -71.5 21.5t-36.5 60.5z" />
<glyph unicode="&#xb4;" horiz-adv-x="290" d="M16 1718l4 15q8 8 29 27.5t44.5 41t44 37.5t26.5 16q23 0 22 -22q0 -6 -18 -26.5t-43 -42t-47.5 -40t-28.5 -24.5h-22q-6 4 -11 18z" />
<glyph unicode="&#xb5;" horiz-adv-x="694" d="M43 -590q4 94 10 187.5t10 187.5q4 84 3.5 165t-0.5 165q0 113 -7.5 223.5t-7.5 222.5q0 125 4 249t4 249q0 10 -2 30.5t0 40t9.5 35t25.5 15.5q8 0 13.5 -9.5t7.5 -20.5t2 -22.5v-17.5q0 -35 -4.5 -67.5t-4.5 -67.5q-2 -57 -1 -113.5t1 -113.5q0 -63 -1 -138t0 -151 t8.5 -148.5t25.5 -134.5q18 -63 56 -97t106 -34q59 0 95 28.5t56.5 72.5t26.5 97.5t6 100.5q0 193 4.5 384.5t4.5 383.5q0 16 2 41t28 25q16 0 19.5 -21.5t3.5 -32.5q0 -147 -2 -293.5t-2 -293.5q0 -80 -5.5 -161t-5.5 -161q0 -41 5.5 -81t5.5 -81q0 -27 -13 -41h-28 q-10 10 -13.5 24.5t-3.5 29.5v22q-33 -59 -81 -80.5t-113 -21.5q-59 0 -100 27.5t-74 74.5q0 -106 -5.5 -211.5t-5.5 -212.5v-26q0 -35 -5 -72t-3 -72v-31v-2q0 -20 1 -47.5t-21 -40.5l-19 2q-18 15 -16 35z" />
<glyph unicode="&#xb6;" horiz-adv-x="716" d="M14 1171q0 104 34 207t114 170q37 31 79 56.5t91 31.5q47 4 100 4h103q31 0 42 -13t11 -44q0 -88 -4 -176t-9 -176q-4 -117 -5 -232.5t-1 -232.5q0 -162 3 -323.5t3 -325.5q0 -20 4.5 -40t4.5 -40q0 -27 -21 -35h-18q-23 10 -23 43q0 199 -4 392.5t-4 391.5v181 q0 129 7 254t7 254v59q-16 2 -31.5 3t-31.5 1q-23 0 -47.5 -1t-46.5 -1q2 -29 3 -56.5t1 -56.5q0 -82 -6.5 -162.5t-6.5 -162.5q0 -135 -1 -267.5t-1 -267.5q0 -121 3.5 -240.5t3.5 -240.5q0 -20 3 -39.5t3 -40.5q0 -23 -15 -37l-20 -6q-27 8 -27 41q0 141 -4 283.5 t-4 285.5v95.5t4 97.5q-74 -2 -129 31.5t-92 87t-54.5 119t-17.5 128.5z" />
<glyph unicode="&#xb7;" horiz-adv-x="258" d="M16 756l4 2h-2h2l5 6h-5q4 18 15.5 32.5t32.5 14.5q16 0 32 -12l9 -17l2 -16q4 -20 -10.5 -38.5t-37.5 -18.5q-18 0 -30.5 14t-16.5 33z" />
<glyph unicode="&#xb8;" horiz-adv-x="382" d="M10 -297q0 14 14.5 21.5t26.5 7.5q16 0 34.5 2t34 9t25 20.5t9.5 35.5q0 45 -37 59.5t-74 18.5q-14 8 -14 29q0 8 5 28.5t14 40t20.5 35t21.5 15.5t19.5 -6.5t9.5 -16.5q0 -2 -3 -12t-7.5 -22.5t-8.5 -25t-6 -14.5q51 -16 85 -42.5t34 -86.5q0 -57 -41 -91t-96 -34 q-14 0 -40 4.5t-26 24.5z" />
<glyph unicode="&#xb9;" horiz-adv-x="311" d="M23 1489v4q0 8 13 27.5t29.5 39t34 37l23.5 23.5v-2l14 6q14 0 21.5 -18.5t11.5 -43t5 -48t1 -33.5q0 -111 -8 -222.5t-12 -222.5q0 -29 -4.5 -54.5t-4.5 -53.5q0 -10 1.5 -19.5t3.5 -19.5l-21 -25h-18l-21 23q4 137 15.5 274t11.5 275q0 25 -1 49t-3 49 q-6 -6 -14.5 -16.5t-17.5 -21.5t-19.5 -19.5t-16.5 -8.5t-14 5z" />
<glyph unicode="&#xba;" horiz-adv-x="389" d="M12 1346q0 35 8.5 82t28 90t50 73.5t75.5 30.5q37 0 58.5 -19.5t32.5 -47t14.5 -59.5t3.5 -58q0 -31 -5.5 -82t-20.5 -100.5t-42 -86t-68 -36.5q-45 0 -71.5 20.5t-41 51t-18.5 68.5t-4 73zM70 1348q0 -18 2 -45t9 -51.5t21.5 -42t38.5 -17.5q25 0 41.5 34t26.5 79t14 88 t4 61q0 12 -1 31.5t-6 36t-15 29t-27 12.5q-33 0 -53.5 -25t-32.5 -59.5t-17 -70t-5 -60.5z" />
<glyph unicode="&#xbb;" horiz-adv-x="1140" d="M14 315q0 23 19.5 32t36.5 18q51 29 98 56.5t100 49.5q61 25 119.5 59.5t118.5 67.5q23 12 46 26.5t46 30.5q-129 137 -267 261t-272 255q-10 10 -18 22.5t-12 29.5l20 22h8l17 -6q127 -133 261 -259t269 -253q16 -16 39 -37.5t23 -46.5q0 -14 -10.5 -24.5t-24 -19.5 t-28.5 -16.5t-25 -13.5q-31 -10 -61 -30.5t-58 -34.5q-66 -31 -130.5 -63.5t-125.5 -69.5q-14 -10 -36 -23.5t-45.5 -27t-46 -22.5t-38.5 -9q-23 0 -23 26zM311 291q0 20 20.5 30.5t35.5 18.5q51 29 99 55.5t101 48.5q59 25 117.5 62t118.5 67q25 12 48 25.5t44 32.5 q-127 135 -265 259t-272 257q-10 10 -19 22.5t-11 28.5l20 23h8l15 -7q129 -133 262 -259t268 -253q16 -16 39 -37.5t23 -46.5q0 -14 -10.5 -25t-24 -20.5t-28.5 -15.5t-26 -12q-29 -10 -58.5 -30.5t-57.5 -35.5q-66 -33 -131.5 -65.5t-124.5 -69.5q-14 -10 -37 -23.5 t-46.5 -25.5t-46 -21.5t-38.5 -9.5q-23 0 -23 27z" />
<glyph unicode="&#xbc;" horiz-adv-x="860" d="M4 35q0 4 6 25.5t14.5 46t15.5 47t9 30.5q35 133 77 261t85 257q53 154 102 308.5t105 308.5q27 76 46 151.5t44 151.5l12 14q4 0 7 1t8 1q27 0 26 -26q0 -18 -16.5 -74.5t-41 -133.5t-55 -166t-59.5 -172t-51.5 -150.5t-32.5 -100.5q-35 -117 -75 -230.5t-76 -228.5 q-27 -78 -47.5 -158.5t-43.5 -158.5q-4 -10 -11 -23.5t-21 -13.5q-12 0 -19.5 11.5t-7.5 21.5zM63 1511q0 8 12.5 26.5t30 38t34 37t24.5 23.5h2l12 4q14 0 21.5 -18t11.5 -42t5 -47.5t1 -33.5q0 -111 -8 -221.5t-12 -220.5q0 -27 -4.5 -51.5t-4.5 -51.5q0 -16 2.5 -37.5 t-24.5 -21.5q-23 0 -28 13.5t-5 29.5q0 129 13.5 258t13.5 258v49.5t-4 46.5q-4 -6 -12.5 -16t-18.5 -20.5t-19.5 -18.5t-17.5 -8q-6 0 -14 4l-8 16zM301 469q0 12 17.5 60.5t44 114t59.5 140t64.5 140t58 111.5t41.5 57l12 4q18 -2 26.5 -33t10.5 -70t1 -75.5t-1 -51.5 q0 -78 -2 -157.5t-2 -157.5v-72q18 4 39.5 1t21.5 -27q0 -23 -21.5 -27t-35.5 -6q-4 -35 -4 -68v-67q0 -12 1 -52t0 -85.5t-4 -83t-10 -44.5q-4 -4 -8 -6t-10 -2q-12 0 -18.5 9.5t-9.5 22.5t-3 26.5v21.5q0 51 3 102.5t3 102.5v123q-12 2 -24 3t-23 1h-65h-40t-54.5 3 t-47 12.5t-20.5 29.5zM367 492q25 -6 49 -7.5t49 -1.5h55t53 -2q-2 98 2.5 192.5t4.5 192.5q0 29 -1 58.5t-4 58.5q-66 -117 -114.5 -241t-93.5 -250z" />
<glyph unicode="&#xbd;" horiz-adv-x="921" d="M14 35q0 4 6.5 25.5t14.5 46t15 47t9 30.5q35 133 77 261t85 257q53 154 102.5 308.5t102.5 308.5q27 76 46.5 151.5t45.5 151.5l10 14q4 0 8.5 1t8.5 1q27 0 26 -26q0 -18 -16 -74.5t-42 -134.5t-56.5 -167t-58 -172t-51 -149.5t-32.5 -99.5q-35 -117 -75.5 -230.5 t-77.5 -228.5q-27 -78 -47.5 -158.5t-42.5 -158.5q-4 -10 -10.5 -23.5t-20.5 -13.5q-12 0 -19.5 11.5t-7.5 21.5zM74 1507v4q0 8 12 26.5t29.5 38t34 37t24.5 23.5l12 4q14 0 22.5 -18t12.5 -42t5 -47.5t1 -33.5q0 -111 -8 -221.5t-12 -220.5q0 -27 -4 -51.5t-4 -51.5 q0 -8 1 -18t0 -19.5t-6.5 -15.5t-19.5 -6q-23 0 -27 13.5t-4 29.5q0 129 13.5 258t13.5 258q0 25 -1 49.5t-3 46.5q-6 -6 -14.5 -16t-17.5 -20.5t-19.5 -18.5t-16.5 -8t-14 4zM348 47q0 20 22.5 64.5t52.5 93.5t58.5 95t40.5 69q20 37 43 88t42.5 106t32.5 109.5t13 95.5 t-20.5 57.5t-61.5 16.5q-61 0 -87.5 -36t-40 -80t-21.5 -80t-33 -36q-14 0 -17 13.5t-3 23.5q0 29 8 54.5t18 52.5q23 68 64 105.5t119 37.5q63 0 98 -31.5t35 -97.5q0 -33 -11.5 -80t-27 -97t-32.5 -96t-30 -77q-27 -63 -63.5 -118.5t-69.5 -115.5q-14 -25 -36.5 -60.5 t-28.5 -57.5q59 2 116.5 -0.5t116.5 -2.5q12 0 34.5 3.5t45.5 2.5t39 -8.5t16 -25.5q0 -23 -16 -26t-33 -3q-55 0 -110.5 4t-108.5 4q-23 0 -46.5 -3t-45.5 -3q-20 0 -46 5t-26 34z" />
<glyph unicode="&#xbe;" horiz-adv-x="950" d="M16 915q0 10 4 19l27 12q23 -10 37 -39q17 -8 37 -8q39 0 65.5 17.5t42 45t21.5 61.5t6 67q0 16 -3 38.5t-11.5 43t-21.5 35t-34 18.5q-16 4 -39.5 6t-23.5 24q0 16 11 25.5t24 13.5q27 12 47 39t34.5 58.5t22.5 65.5t8 61q0 33 -21.5 50t-51.5 17q-27 0 -49.5 -20.5 t-32.5 -40.5l-4 -2v-4l-15 -7l-12 5h-2q-14 10 -14 26q0 20 14 37.5t34.5 31t44 21.5t40.5 8q57 0 92 -34.5t35 -89.5q0 -70 -27 -132.5t-80 -107.5q49 -25 72.5 -73t23.5 -101q0 -45 -11 -92t-34.5 -86t-60.5 -63.5t-90 -24.5q-33 0 -69 21.5t-36 57.5zM121 35q0 4 6 25.5 t13 46t14.5 47t9.5 30.5q35 131 77 260t85 258q53 154 103 307.5t103 307.5q27 76 46.5 152.5t44.5 152.5l12 12q8 4 16 4q10 0 17.5 -9t7.5 -19q0 -16 -16.5 -73.5t-41 -134.5t-55.5 -166t-59.5 -172t-51 -149.5t-30.5 -99.5q-35 -117 -76 -230.5t-78 -230.5 q-25 -78 -46 -157.5t-44 -157.5q-4 -10 -10 -23.5t-21 -13.5q-12 0 -19 11.5t-7 21.5zM416 469q0 12 17.5 60.5t44 114t59 140t64.5 140t58.5 111.5t40.5 57l13 2q18 -2 26.5 -32t10.5 -69t1 -75.5t-1 -51.5q0 -80 -2.5 -158.5t-2.5 -156.5v-72q18 4 41 1t23 -29 q0 -20 -22.5 -24.5t-36.5 -6.5q-2 -35 -3.5 -68t-1.5 -67q0 -12 1.5 -52t0 -85.5t-4.5 -83t-9 -44.5q-4 -4 -8 -6t-10 -2q-10 0 -16.5 9.5t-9.5 22.5t-4 26.5t-1 21.5q0 51 4 101.5t4 103.5q0 31 -1 61.5t-1 61.5q-12 2 -23.5 2h-23.5h-65h-40t-54.5 3t-47 13.5t-20.5 30.5z M481 489q25 -4 49.5 -5t49.5 -1h55t53 -2q-2 96 2 191.5t4 193.5v57.5t-4 57.5q-66 -117 -115 -240t-94 -252z" />
<glyph unicode="&#xbf;" horiz-adv-x="786" d="M23 279q0 72 34.5 145.5t89 141t118 122.5t118.5 92q10 6 29.5 21.5t40 32t39 32t24.5 23.5q16 23 21.5 69t5.5 74q0 43 -2 88t-6 90q-2 16 -4.5 33t-2.5 33q0 14 5.5 26.5t23.5 12.5q29 0 35 -22.5t6 -45.5q0 -57 3 -113.5t3 -113.5q0 -16 -1 -34.5t-3 -35.5 q-4 -68 -47 -110.5t-96 -77.5q-57 -39 -123 -91.5t-121 -115.5t-92 -134t-37 -147q0 -72 44 -124t105 -80q4 -2 18.5 -4.5t32 -3.5t33 -2t21.5 -1q74 0 135.5 34t83.5 108q4 12 5 36.5t5 49t12.5 43t26.5 18.5q10 0 17.5 -9t7.5 -20q0 -145 -75 -232t-222 -87 q-61 0 -117.5 19.5t-99.5 55.5t-68.5 87t-25.5 117zM522 1516.5v35.5v19.5t3 28t8.5 24.5t15.5 10t19.5 -8t13.5 -18q2 -6 2 -29v-49.5v-51v-32.5q0 -16 -7.5 -30.5t-25.5 -14.5q-12 0 -18.5 19.5t-8.5 45t-2 51z" />
<glyph unicode="&#xc0;" d="M-51 45q0 29 9 56.5t17 54.5q18 72 33 142.5t33 141.5q27 100 51.5 200.5t48.5 203.5q23 98 55.5 193.5t55.5 193.5q6 29 21.5 89t34 124.5t35.5 119t30 72.5l18 9q18 0 30.5 -24t21 -54.5t11.5 -60t7 -42.5q8 -33 16 -64.5t17 -66.5q61 -252 111 -502.5t110 -502.5 q4 -18 15 -60.5t23.5 -88.5t21.5 -85t9 -49t-6 -23.5t-20 -13.5q-16 0 -27.5 21.5t-15.5 36.5q-20 74 -32.5 149.5t-33.5 149.5q-23 80 -39 159.5t-32 161.5q-104 0 -207 -1t-207 -3q-35 -160 -75 -314.5t-77 -312.5q-4 -16 -8 -32.5t-27 -16.5q-16 0 -22 13.5t-6 25.5z M174 737q98 4 194.5 3t194.5 3q-10 59 -22.5 119t-26.5 119q-31 135 -60.5 270t-62.5 271q-14 -41 -24.5 -83t-20.5 -83q-35 -158 -85 -309.5t-87 -309.5zM289 1833q-1 22 22 22q6 0 26.5 -16t44.5 -37.5t44 -41t29 -27.5l2 -15q0 -12 -8 -18h-23q-6 6 -28.5 24.5t-47 40 t-43 42t-18.5 26.5z" />
<glyph unicode="&#xc1;" d="M-51 45q0 -12 6 -25.5t22 -13.5q23 0 27 16.5t8 32.5q37 158 77 312.5t75 314.5q104 2 206.5 3t207.5 1q16 -82 32.5 -162t38.5 -159q20 -74 32.5 -150t33.5 -149q4 -14 15 -36t28 -22q14 0 20 13.5t6 23.5t-9 49t-21.5 85t-23.5 88t-15 61q-59 252 -109.5 502.5 t-111.5 502.5q-8 35 -16.5 67t-16.5 64q-4 12 -7 42t-11.5 60.5t-20.5 54.5t-31 24l-18 -9q-12 -18 -29.5 -72.5t-36 -119t-34 -124.5t-21.5 -89q-23 -98 -55.5 -193.5t-55.5 -193.5q-25 -102 -49 -202.5t-51 -201.5q-18 -72 -32.5 -142.5t-33.5 -141.5q-8 -27 -17 -54.5 t-9 -56.5zM174 737q37 158 87 309.5t85 309.5q10 41 20.5 83t24.5 83q33 -135 62.5 -270.5t60.5 -270.5q14 -59 26.5 -118.5t22.5 -119.5q-98 -4 -194.5 -3t-194.5 -3zM367 1724l2 15q8 8 28.5 27.5t44 41t44 38t26.5 16.5q23 0 23 -23q0 -6 -18.5 -26.5t-43 -42t-47.5 -40 t-29 -24.5h-22q-8 6 -8 18z" />
<glyph unicode="&#xc2;" d="M-51 45q0 29 9 56.5t17 54.5q18 72 33 142.5t33 141.5q27 100 51.5 200.5t48.5 203.5q23 98 55.5 193.5t55.5 193.5q6 29 21.5 89t34 124.5t35.5 119t30 72.5l18 9q18 0 30.5 -24t21 -54.5t11.5 -60t7 -42.5q8 -33 16 -64.5t17 -66.5q61 -252 111 -502.5t110 -502.5 q4 -18 15 -60.5t23.5 -88.5t21.5 -85t9 -49t-6 -23.5t-20 -13.5q-16 0 -27.5 21.5t-15.5 36.5q-20 74 -32.5 149.5t-33.5 149.5q-23 80 -39 159.5t-32 161.5q-104 0 -207 -1t-207 -3q-35 -160 -75 -314.5t-77 -312.5q-4 -16 -8 -32.5t-27 -16.5q-16 0 -22 13.5t-6 25.5z M174 737q98 4 194.5 3t194.5 3q-10 59 -22.5 119t-26.5 119q-31 135 -60.5 270t-62.5 271q-14 -41 -24.5 -83t-20.5 -83q-35 -158 -85 -309.5t-87 -309.5zM270 1690q0 14 15.5 44.5t37 61.5t44 54.5t34.5 23.5q8 0 29 -26.5t42.5 -59.5t37.5 -61.5t16 -32.5q0 -10 -9 -16.5 t-19 -6.5t-24.5 18.5t-30 43t-29 48t-19.5 34.5q-10 -10 -23.5 -34t-27.5 -48.5t-28.5 -43t-24.5 -18.5q-21 1 -21 19z" />
<glyph unicode="&#xc3;" d="M-51 45q0 29 9 56.5t17 54.5q18 72 33 142.5t33 141.5q27 100 51.5 200.5t48.5 203.5q23 98 55.5 193.5t55.5 193.5q6 29 21.5 89t34 124.5t35.5 119t30 72.5l18 9q18 0 30.5 -24t21 -54.5t11.5 -60t7 -42.5q8 -33 16 -64.5t17 -66.5q61 -252 111 -502.5t110 -502.5 q4 -18 15 -60.5t23.5 -88.5t21.5 -85t9 -49t-6 -23.5t-20 -13.5q-16 0 -27.5 21.5t-15.5 36.5q-20 74 -32.5 149.5t-33.5 149.5q-23 80 -39 159.5t-32 161.5q-104 0 -207 -1t-207 -3q-35 -160 -75 -314.5t-77 -312.5q-4 -16 -8 -32.5t-27 -16.5q-16 0 -22 13.5t-6 25.5z M174 737q98 4 194.5 3t194.5 3q-10 59 -22.5 119t-26.5 119q-31 135 -60.5 270t-62.5 271q-14 -41 -24.5 -83t-20.5 -83q-35 -158 -85 -309.5t-87 -309.5zM188 1741q0 18 12.5 36.5t31 32t40 22.5t39.5 9q33 0 52.5 -14.5t36 -31.5t34 -31.5t43.5 -14.5q18 0 32.5 12.5 t26 27.5t20.5 28.5t17 13.5q10 0 17.5 -5t7.5 -16q0 -20 -12.5 -39.5t-31.5 -35t-40.5 -24.5t-40.5 -9q-35 0 -56.5 14.5t-38 30.5t-31.5 30.5t-34 14.5q-25 0 -39 -8t-24 -20.5t-18.5 -26t-22.5 -21.5q-8 0 -14.5 8.5t-6.5 16.5z" />
<glyph unicode="&#xc4;" d="M-51 45q0 29 9 56.5t17 54.5q18 72 33 142.5t33 141.5q27 100 51.5 200.5t48.5 203.5q23 98 55.5 193.5t55.5 193.5q6 29 21.5 89t34 124.5t35.5 119t30 72.5l28 -4q23 0 34 -21.5t15.5 -49t5.5 -56t5 -41.5q8 -33 16 -64.5t17 -66.5q61 -252 111 -502.5t110 -502.5 q4 -18 15 -60.5t23.5 -88.5t21.5 -85t9 -49t-6 -23.5t-20 -13.5q-16 0 -27.5 21.5t-15.5 36.5q-20 74 -32.5 149.5t-33.5 149.5q-23 80 -39 159.5t-32 161.5q-104 0 -207 -1t-207 -3q-35 -160 -75 -314.5t-77 -312.5q-4 -16 -8 -32.5t-27 -16.5q-16 0 -22 13.5t-6 25.5z M174 737q98 4 194.5 3t194.5 3q-10 59 -22.5 119t-26.5 119q-31 135 -60.5 270t-62.5 271q-14 -41 -24.5 -83t-20.5 -83q-35 -158 -85 -309.5t-87 -309.5zM268 1733q0 16 9.5 28.5t25.5 12.5t24.5 -10.5t8.5 -24.5q0 -16 -9.5 -29.5t-25.5 -13.5t-24.5 10t-8.5 27zM459 1733 q0 16 9 28.5t26 12.5q16 0 24 -10.5t8 -24.5q0 -16 -9 -29.5t-25 -13.5t-24.5 10t-8.5 27z" />
<glyph unicode="&#xc5;" d="M-51 45q0 29 9 56.5t17 54.5q18 72 33 142.5t33 141.5q27 100 51.5 200.5t48.5 203.5q23 98 55.5 193.5t55.5 193.5q6 29 21.5 89t34 124.5t35.5 119t30 72.5l18 9q18 0 30.5 -24t21 -54.5t11.5 -60t7 -42.5q8 -33 16 -64.5t17 -66.5q61 -252 111 -502.5t110 -502.5 q4 -18 15 -60.5t23.5 -88.5t21.5 -85t9 -49t-6 -23.5t-20 -13.5q-16 0 -27.5 21.5t-15.5 36.5q-20 74 -32.5 149.5t-33.5 149.5q-23 80 -39 159.5t-32 161.5q-104 0 -207 -1t-207 -3q-35 -160 -75 -314.5t-77 -312.5q-4 -16 -8 -32.5t-27 -16.5q-16 0 -22 13.5t-6 25.5z M174 737q98 4 194.5 3t194.5 3q-10 59 -22.5 119t-26.5 119q-31 135 -60.5 270t-62.5 271q-14 -41 -24.5 -83t-20.5 -83q-35 -158 -85 -309.5t-87 -309.5zM338 1759q0 25 14 47.5t43 22.5q27 0 38 -20.5t11 -43.5q0 -25 -12 -43t-41 -18q-23 0 -38 16.5t-15 38.5zM373 1765 q0 -23 20 -28l6 2q6 12 7 30q0 12 -3 19l-8 6q-10 -6 -20 -18q0 -2 -1 -5.5t-1 -5.5z" />
<glyph unicode="&#xc6;" horiz-adv-x="1392" d="M10 31q0 10 17.5 63t48 134t69.5 182.5t81 210t84 216t80 199.5t66.5 163t43.5 104q33 76 57.5 154.5t52.5 156.5l11 10l14 4l8 4q137 -4 273.5 2t275.5 6q12 0 38.5 -3t26.5 -21q0 -15 -12 -31q-31 -6 -84 -7t-111.5 -1t-114.5 1t-93 1q-45 -2 -89 -2t-87 -4 q2 -16 3 -33.5t1 -36.5q0 -16 -1 -29.5t-3 -29.5q-8 -76 -7.5 -150.5t-9.5 -150.5q-23 -172 -24 -346q92 6 183 10t183 14q10 2 20.5 4t20.5 2q12 0 27.5 -6t15.5 -22t-23.5 -25.5t-37.5 -11.5q-98 -8 -194.5 -13.5t-194.5 -9.5q-10 -172 -10.5 -340t-2.5 -340q127 2 254 2 t254 19q8 0 14.5 2t14.5 2q10 0 21.5 -4t11.5 -17q0 -10 -6.5 -19t-12.5 -15v2v-6q-47 -4 -96 -9.5t-96 -5.5q-72 0 -140.5 -3t-140.5 -3q-25 0 -49.5 -2t-42.5 1t-30.5 17.5t-12.5 49.5v228.5t4 227.5q-43 4 -87 3t-89 -1h-67.5t-67.5 -4q-35 -86 -68 -173t-61 -177 q-10 -31 -21.5 -74t-27.5 -71q-6 -10 -14.5 -17.5t-22.5 -7.5q-23 0 -23 27zM270 592q59 4 120 2t120 -2h51q4 211 17.5 416.5t25.5 416.5q-25 -66 -51.5 -132t-54.5 -132q-59 -141 -116 -283.5t-112 -285.5z" />
<glyph unicode="&#xc7;" horiz-adv-x="940" d="M12 815q0 84 11.5 184.5t37 198.5t65.5 188.5t97 155.5q49 55 116 81t140 26q63 0 117.5 -21.5t92.5 -59.5t59.5 -92.5t21.5 -117.5q0 -8 1 -38t-1 -61.5t-9 -57t-22 -25.5q-35 0 -34 38q0 31 5 62t5 61q0 115 -62.5 183.5t-179.5 68.5q-80 0 -137 -35.5t-99 -92 t-70 -125t-46 -132.5q-29 -104 -39 -208.5t-8 -213.5l2 -102q2 -39 12 -100.5t28.5 -131t47.5 -141t63.5 -128t77.5 -92.5t94 -36q72 0 121 32t81 82t47.5 111.5t21.5 120.5q4 25 4 50.5t6 48.5q2 12 11 27.5t24 15.5q14 0 18 -9.5t4 -19.5q0 -74 -11 -156t-41 -154.5 t-84 -127t-140 -70.5q-10 -18 -14.5 -37.5t-12.5 -40.5q53 -16 87 -44t34 -87t-42 -93t-97 -34q-12 0 -35 3t-23 20q0 16 5.5 27.5t23.5 11.5q10 0 23 -4q33 2 59.5 17t26.5 52q0 20 -10.5 34.5t-27 24t-36 13.5t-37.5 6l-18 25q4 27 13 51t17 49q-59 4 -103 33.5t-83 72.5 q-59 68 -97 156t-60.5 182.5t-32 191.5t-9.5 183z" />
<glyph unicode="&#xc8;" horiz-adv-x="724" d="M43 967q0 139 3 276t3 275v51t6 32.5t23.5 18.5t54.5 6q25 0 49.5 -1t48.5 -1q61 0 123 7t123 7q8 0 21.5 -1t26 -5t21.5 -11t9 -19q0 -16 -17.5 -20.5t-27.5 -4.5q-100 0 -200.5 -4t-200.5 -8q-6 -258 -7 -514v-129.5t2 -126.5q23 0 82.5 2t124 2t119.5 -1t72 -5 q10 -2 17 -10.5t7 -18.5q0 -18 -15 -20.5t-30 -2.5q-94 -4 -187 -3t-188 -3q-2 -37 -2 -72.5v-70.5q0 -135 2.5 -266t4.5 -267q29 4 58.5 4h57.5q72 0 145.5 1.5t145.5 1.5q35 0 35 -33q0 -10 -6 -17.5t-17 -7.5q-74 0 -148.5 -2t-148.5 -2q-37 0 -73.5 -2t-73.5 -2h-14 l-15 6q-6 8 -6 19q0 236 -4 471t-4 471zM207 1853q-1 23 22 23q6 0 26.5 -16.5t44.5 -38t44.5 -41t28.5 -27.5l2 -14q0 -12 -8 -19h-23q-6 6 -28.5 24.5t-47 40t-43 42t-18.5 26.5z" />
<glyph unicode="&#xc9;" horiz-adv-x="724" d="M43 967q0 -236 4 -471.5t4 -470.5q0 -10 6 -19l15 -6h14q37 0 74 2t73 2q74 0 149 2t148 2q10 0 16.5 7.5t6.5 17.5q0 33 -35 33q-72 0 -145.5 -1.5t-145.5 -1.5h-58.5t-57.5 -4q-2 135 -4.5 266.5t-2.5 266.5v70.5t2 72.5q94 4 187.5 3t187.5 3q14 0 29.5 2t15.5 21 q0 10 -7 18.5t-17 10.5q-16 4 -71.5 5t-120 1t-124 -2t-82.5 -2q-2 63 -2 126.5v129.5q1 256 7 514q100 4 200.5 8t200.5 4q10 0 27.5 4t17.5 21q0 12 -9 19t-21.5 11t-26 5t-21.5 1q-61 0 -122.5 -7t-123.5 -7q-25 0 -49 1t-49 1q-37 0 -54.5 -6t-23.5 -18.5t-6 -33v-50.5 q0 -137 -3 -274.5t-3 -276.5zM264 1724l2 15q8 8 28.5 27.5t44 41t44.5 38t27 16.5q23 0 22 -23q0 -6 -18.5 -26.5t-43 -42t-47 -40t-28.5 -24.5h-23q-8 6 -8 18z" />
<glyph unicode="&#xca;" horiz-adv-x="724" d="M43 967q0 139 3 276t3 275v51t6 32.5t23.5 18.5t54.5 6q25 0 49.5 -1t48.5 -1q61 0 123 7t123 7q8 0 21.5 -1t26 -5t21.5 -11t9 -19q0 -16 -17.5 -20.5t-27.5 -4.5q-100 0 -200.5 -4t-200.5 -8q-6 -258 -7 -514v-129.5t2 -126.5q23 0 82.5 2t124 2t119.5 -1t72 -5 q10 -2 17 -10.5t7 -18.5q0 -18 -15 -20.5t-30 -2.5q-94 -4 -187 -3t-188 -3q-2 -37 -2 -72.5v-70.5q0 -135 2.5 -266t4.5 -267q29 4 58.5 4h57.5q72 0 145.5 1.5t145.5 1.5q35 0 35 -33q0 -10 -6 -17.5t-17 -7.5q-74 0 -148.5 -2t-148.5 -2q-37 0 -73.5 -2t-73.5 -2h-14 l-15 6q-6 8 -6 19q0 236 -4 471t-4 471zM188 1731q0 14 15.5 44.5t37 61.5t44 54.5t34.5 23.5q8 0 29 -26.5t42.5 -59.5t37.5 -61.5t16 -32.5q0 -10 -9 -16.5t-19 -6.5t-24.5 18.5t-30 43t-29 48t-19.5 33.5q-10 -10 -23.5 -33.5t-27.5 -48t-28.5 -43t-24.5 -18.5 q-21 1 -21 19z" />
<glyph unicode="&#xcb;" horiz-adv-x="724" d="M43 967q0 139 3 276t3 275v51t6 32.5t23.5 18.5t54.5 6q25 0 49.5 -1t48.5 -1q61 0 123 7t123 7q8 0 21.5 -1t26 -5t21.5 -11t9 -19q0 -16 -17.5 -20.5t-27.5 -4.5q-100 0 -200.5 -4t-200.5 -8q-6 -258 -7 -514v-129.5t2 -126.5q23 0 82.5 2t124 2t119.5 -1t72 -5 q10 -2 17 -10.5t7 -18.5q0 -18 -15 -20.5t-30 -2.5q-94 -4 -187 -3t-188 -3q-2 -37 -2 -72.5v-70.5q0 -135 2.5 -266t4.5 -267q29 4 58.5 4h57.5q72 0 145.5 1.5t145.5 1.5q35 0 35 -33q0 -10 -6 -17.5t-17 -7.5q-74 0 -148.5 -2t-148.5 -2q-37 0 -73.5 -2t-73.5 -2h-14 l-15 6q-6 8 -6 19q0 236 -4 471t-4 471zM186 1753q0 16 9.5 28.5t25.5 12.5t24.5 -10t8.5 -25q0 -16 -9.5 -29.5t-25.5 -13.5t-24.5 10.5t-8.5 26.5zM377 1753q0 16 9 28.5t26 12.5q16 0 24 -10t8 -25q0 -16 -9 -29.5t-25 -13.5t-24.5 10.5t-8.5 26.5z" />
<glyph unicode="&#xcc;" horiz-adv-x="323" d="M23 1833q-1 22 22 22q6 0 26.5 -16t44 -37.5t44 -41t28.5 -27.5l2 -15q0 -12 -8 -18h-22q-6 6 -28.5 24.5t-47.5 40t-43 42t-18 26.5zM90 616q0 225 6 448.5t6 448.5q0 10 -2 32t0 43.5t7.5 37.5t21.5 16q23 0 28 -24.5t5 -40.5q0 -270 -7.5 -537.5t-7.5 -535.5 q0 -113 2.5 -223.5t2.5 -221.5q0 -12 -5.5 -33.5t-21.5 -21.5q-20 0 -24.5 21.5t-4.5 37.5q0 139 -3 276.5t-3 276.5z" />
<glyph unicode="&#xcd;" horiz-adv-x="323" d="M78 1718l4 15q8 8 28.5 27.5t44 41t44 37.5t26.5 16q23 0 23 -22q0 -6 -18.5 -26.5t-43 -42t-47 -40t-28.5 -24.5h-23q-6 4 -10 18zM90 616q0 -139 3 -276t3 -277q0 -16 4 -37.5t25 -21.5q16 0 21.5 21.5t5.5 33.5q0 111 -2.5 221.5t-2.5 223.5q0 268 7.5 535.5 t7.5 537.5q0 16 -5 40.5t-28 24.5q-16 0 -21.5 -16t-7.5 -37.5t0 -43t2 -32.5q0 -225 -6 -448.5t-6 -448.5z" />
<glyph unicode="&#xce;" horiz-adv-x="331" d="M25 1690q0 14 15 44.5t36.5 61.5t44 54.5t35.5 23.5q8 0 28.5 -26.5t42 -59.5t38 -61.5t16.5 -32.5q0 -10 -9.5 -16.5t-19.5 -6.5t-24.5 18.5t-30 43t-28.5 48t-19 34.5q-10 -10 -23.5 -34t-28 -48.5t-29 -43t-24.5 -18.5q-20 1 -20 19zM111 616q0 225 6 448.5t6 448.5 q0 10 -2 32t0 43.5t7 37.5t22 16q23 0 27.5 -24.5t4.5 -40.5q0 -270 -7 -537.5t-7 -535.5q0 -113 2 -223.5t2 -221.5q0 -12 -5 -33.5t-22 -21.5q-20 0 -24 21.5t-4 37.5q0 139 -3 276.5t-3 276.5z" />
<glyph unicode="&#xcf;" horiz-adv-x="286" d="M68 1753q0 12 8 22.5t22 10.5q25 0 25 -27q0 -12 -7.5 -23.5t-21.5 -11.5q-27 0 -26 29zM90 616q0 225 6 448.5t6 448.5q0 10 -2 32t0 43.5t7.5 37.5t21.5 16q23 0 28 -24.5t5 -40.5q0 -270 -7.5 -537.5t-7.5 -535.5q0 -113 2.5 -223.5t2.5 -221.5q0 -12 -5.5 -33.5 t-21.5 -21.5q-20 0 -24.5 21.5t-4.5 37.5q0 139 -3 276.5t-3 276.5zM180 1753q0 12 7.5 22.5t21.5 10.5q25 0 24 -27q0 -12 -7 -23.5t-21 -11.5q-25 0 -25 29z" />
<glyph unicode="&#xd0;" horiz-adv-x="1060" d="M-12 930q0 23 22.5 29t38.5 6q18 0 36.5 -2t37.5 -2q2 70 2 138v138q0 47 3 95t3 98q0 41 -7 79.5t-7 77.5q0 18 5 35.5t25 26.5q4 2 20.5 2h36t36 -1t20.5 -1q39 0 77 2t75 2q127 0 221 -50.5t155.5 -134.5t92 -192.5t32.5 -224.5q2 -55 2 -111v-111v-108t-2 -109 q-2 -113 -31.5 -221t-91 -193t-152.5 -137.5t-216 -52.5h-53t-90.5 1t-86 2t-40.5 3q-20 8 -19.5 19.5t0.5 27.5q0 35 -2 70t-2 70q0 154 -6 305t-2 305l2 94q-10 0 -31.5 -2t-45 0t-41 7t-17.5 20zM180 74q55 2 110.5 -2t110.5 -4q39 0 91.5 5t87.5 21q96 45 151 124 t83 173t35 196.5t7 194.5q0 100 -3 216t-27.5 225.5t-82 202t-165.5 143.5q-33 16 -84.5 19t-85.5 3q-51 0 -101.5 -2t-101.5 -2h-25q4 -61 6 -123.5t2 -124.5q0 -96 -2 -189t-6 -189q8 0 34 2t52.5 2t47 -6.5t20.5 -20.5q0 -25 -26.5 -31t-43.5 -6q-23 0 -43 2t-41 2v-160 q0 -109 4 -214t4 -214q0 -61 -2 -121.5t-6 -121.5z" />
<glyph unicode="&#xd1;" horiz-adv-x="899" d="M45 1083v469v22.5t3 30t9 26.5t19 11q14 0 36.5 -46t45 -105t41 -114.5t24.5 -71.5q43 -119 88 -235t90 -234q14 -39 33 -76t33 -76q29 -78 64.5 -151.5t68.5 -147.5q23 -53 43 -109.5t45 -109.5q-2 98 2 195.5t4 195.5q0 160 -3 320.5t-3 320.5q0 55 1 110.5t1 110.5 q0 39 -2 77t-2 77q0 10 5 31.5t22 21.5q25 0 30 -20.5t5 -40.5q0 -98 -2.5 -196.5t-2.5 -197.5q0 -111 4.5 -218t4.5 -218q0 -170 1 -339t1 -339q0 -14 -3 -35.5t-24 -21.5q-14 0 -25.5 11.5t-20.5 26.5t-15.5 32.5t-10.5 27.5q-10 29 -22 54.5t-25 52.5q-18 41 -34.5 83 t-34.5 83q-20 49 -42 96t-42 96q-16 39 -32.5 78t-35.5 76q-41 90 -74.5 184t-68.5 186t-70 184.5t-68 184.5q-2 -68 -2 -135.5v-134.5q0 -57 3.5 -112.5t3.5 -112.5q4 -182 3 -361.5t3 -361.5q0 -47 3 -95.5t3 -95.5q0 -14 -5 -28.5t-24 -14.5q-25 0 -30 16.5t-5 38.5 q0 141 -4 281.5t-4 282.5q0 39 2 77.5t2 79.5q-2 76 -6 151t-4 152zM131 1696q0 20 15.5 40.5t39 36t49 24.5t48.5 9q39 0 64.5 -15t45 -34.5t41 -35t53.5 -15.5q25 0 42.5 14.5t30.5 30.5t24.5 30.5t21.5 14.5t20.5 -6t10.5 -16q0 -23 -15.5 -44.5t-39 -38t-50 -26.5 t-49.5 -10q-43 0 -69.5 15.5t-48 33.5t-39 33.5t-41.5 15.5q-31 0 -49.5 -9t-30.5 -22.5t-22.5 -28t-26.5 -24.5q-10 2 -17.5 10.5t-7.5 16.5z" />
<glyph unicode="&#xd2;" horiz-adv-x="884" d="M12 879v28.5t2 28.5q6 86 14.5 178t33 178t69.5 161t125 128q31 20 75 40.5t83 20.5q80 0 134 -48t91 -123.5t56.5 -171t29.5 -189.5t12 -178t2 -137q0 -59 -6 -119t-12 -119q-10 -80 -28.5 -177t-58.5 -180t-108 -139.5t-174 -56.5q-72 0 -125 39q-55 39 -95 104.5 t-64.5 141.5t-36 153.5t-11.5 143.5q0 74 -4 146.5t-4 146.5zM72 874q0 -72 1 -155.5t7 -168.5t21.5 -165t43.5 -143q12 -25 30 -53.5t41.5 -54t50 -44t55.5 -24.5q8 -2 22 -3q14 0 36.5 4.5t45.5 10.5t42 15t32 20q10 10 19 23.5t18 25.5q45 66 72.5 143.5t43 160.5 t20.5 167t5 162q0 66 -3 153.5t-12.5 178t-27 174t-47.5 143.5q-8 16 -18.5 28.5t-20.5 26.5q-29 39 -56.5 60.5t-78.5 21.5q-35 0 -68 -15.5t-61 -37.5q-37 -25 -68 -55q-43 -43 -71.5 -120t-45 -163t-22.5 -171t-6 -145zM287 1860q-1 22 22 22q6 0 26.5 -16.5t44 -38 t44 -41t29.5 -27.5l4 -14q-4 -14 -11 -19h-22q-6 6 -28.5 24.5t-47 40t-43 42t-18.5 27.5z" />
<glyph unicode="&#xd3;" horiz-adv-x="884" d="M12 879q0 -74 4 -147t4 -146q0 -66 11.5 -143.5t36 -153.5t64.5 -141.5t95 -104.5q53 -39 125 -39q106 0 174 56.5t108 139.5t58.5 180t28.5 177q6 59 12 118.5t6 119.5q0 53 -2 137t-12 178t-29.5 189.5t-56.5 171t-91 123.5t-134 48q-39 0 -83 -20t-75 -41 q-80 -53 -125 -128t-69.5 -161t-33 -178t-14.5 -178q-2 -14 -2 -28.5v-28.5zM72 874q0 59 6 144.5t22.5 171.5t45 163t71.5 120q31 31 68 55q29 23 61.5 38t67.5 15q51 0 78.5 -21.5t56.5 -60.5q10 -14 20.5 -26.5t18.5 -28.5q31 -59 48 -143t26.5 -174.5t12.5 -178 t3 -153.5q0 -78 -5 -162t-20.5 -167t-43 -161t-72.5 -143q-8 -12 -17.5 -25.5t-19.5 -23.5q-12 -10 -31.5 -19.5t-42.5 -15.5t-45.5 -10.5t-36.5 -4.5t-22 3q-29 6 -55.5 24.5t-50 44t-41 54t-30.5 53.5q-29 63 -44 143t-21 165t-7 169t-1 155zM324 1739l4 14q8 8 28.5 27.5 t44 41t44 38t26.5 16.5q23 0 23 -23q0 -6 -18.5 -26.5t-43 -42t-47.5 -40t-29 -24.5h-22q-6 4 -10 19z" />
<glyph unicode="&#xd4;" horiz-adv-x="884" d="M12 879v28.5t2 28.5q6 86 14.5 178t33 178t69.5 161t125 128q31 20 75 40.5t83 20.5q80 0 134 -48t91 -123.5t56.5 -171t29.5 -189.5t12 -178t2 -137q0 -59 -6 -119t-12 -119q-10 -80 -28.5 -177t-58.5 -180t-108 -139.5t-174 -56.5q-72 0 -125 39q-55 39 -95 104.5 t-64.5 141.5t-36 153.5t-11.5 143.5q0 74 -4 146.5t-4 146.5zM72 874q0 -72 1 -155.5t7 -168.5t21.5 -165t43.5 -143q12 -25 30 -53.5t41.5 -54t50 -44t55.5 -24.5q8 -2 22 -3q14 0 36.5 4.5t45.5 10.5t42 15t32 20q10 10 19 23.5t18 25.5q45 66 72.5 143.5t43 160.5 t20.5 167t5 162q0 66 -3 153.5t-12.5 178t-27 174t-47.5 143.5q-8 16 -18.5 28.5t-20.5 26.5q-29 39 -56.5 60.5t-78.5 21.5q-35 0 -68 -15.5t-61 -37.5q-37 -25 -68 -55q-43 -43 -71.5 -120t-45 -163t-22.5 -171t-6 -145zM270 1731q0 14 15.5 44.5t37 61.5t44 54.5 t34.5 23.5q8 0 29 -26.5t42.5 -59.5t37.5 -61.5t16 -32.5q0 -10 -9 -16.5t-19 -6.5t-24.5 18.5t-30 43t-29 48t-19.5 33.5q-10 -10 -23.5 -33.5t-27.5 -48t-28.5 -43t-24.5 -18.5q-21 1 -21 19z" />
<glyph unicode="&#xd5;" horiz-adv-x="884" d="M12 879v28.5t2 28.5q6 86 14.5 178t33 178t69.5 161t125 128q31 20 75 40.5t83 20.5q80 0 134 -48t91 -123.5t56.5 -171t29.5 -189.5t12 -178t2 -137q0 -59 -6 -119t-12 -119q-10 -80 -28.5 -177t-58.5 -180t-108 -139.5t-174 -56.5q-72 0 -125 39q-55 39 -95 104.5 t-64.5 141.5t-36 153.5t-11.5 143.5q0 74 -4 146.5t-4 146.5zM72 874q0 -72 1 -155.5t7 -168.5t21.5 -165t43.5 -143q12 -25 30 -53.5t41.5 -54t50 -44t55.5 -24.5q8 -2 22 -3q14 0 36.5 4.5t45.5 10.5t42 15t32 20q10 10 19 23.5t18 25.5q45 66 72.5 143.5t43 160.5 t20.5 167t5 162q0 66 -3 153.5t-12.5 178t-27 174t-47.5 143.5q-8 16 -18.5 28.5t-20.5 26.5q-29 39 -56.5 60.5t-78.5 21.5q-35 0 -68 -15.5t-61 -37.5q-37 -25 -68 -55q-43 -43 -71.5 -120t-45 -163t-22.5 -171t-6 -145zM152 1737q0 20 15 40.5t38.5 36t49 24.5t48.5 9 q39 0 64.5 -15t45 -34.5t41 -35t54.5 -15.5q25 0 42 14.5t30.5 30.5t24.5 30.5t22 14.5q10 0 20 -6t10 -16q0 -23 -15 -44.5t-38.5 -38t-50.5 -26.5t-49 -10q-43 0 -69.5 15t-48 33.5t-39 34t-42.5 15.5q-31 0 -49 -9t-30.5 -22.5t-22.5 -28t-27 -24.5q-10 2 -17 10.5 t-7 16.5z" />
<glyph unicode="&#xd6;" horiz-adv-x="884" d="M12 879v28.5t2 28.5q6 86 14.5 178t33 178t69.5 161t125 128q31 20 75 40.5t83 20.5q80 0 134 -48t91 -123.5t56.5 -171t29.5 -189.5t12 -178t2 -137q0 -59 -6 -119t-12 -119q-10 -80 -28.5 -177t-58.5 -180t-108 -139.5t-174 -56.5q-72 0 -125 39q-55 39 -95 104.5 t-64.5 141.5t-36 153.5t-11.5 143.5q0 74 -4 146.5t-4 146.5zM72 874q0 -72 1 -155.5t7 -168.5t21.5 -165t43.5 -143q12 -25 30 -53.5t41.5 -54t50 -44t55.5 -24.5q8 -2 22 -3q14 0 36.5 4.5t45.5 10.5t42 15t32 20q10 10 19 23.5t18 25.5q45 66 72.5 143.5t43 160.5 t20.5 167t5 162q0 66 -3 153.5t-12.5 178t-27 174t-47.5 143.5q-8 16 -18.5 28.5t-20.5 26.5q-29 39 -56.5 60.5t-78.5 21.5q-35 0 -68 -15.5t-61 -37.5q-37 -25 -68 -55q-43 -43 -71.5 -120t-45 -163t-22.5 -171t-6 -145zM289 1753q0 16 9 28.5t26 12.5q16 0 24 -10t8 -25 q0 -16 -9 -29.5t-25 -13.5t-24.5 10.5t-8.5 26.5zM479 1753q0 16 9.5 28.5t25.5 12.5t24.5 -10t8.5 -25q0 -16 -9.5 -29.5t-25.5 -13.5t-24.5 10.5t-8.5 26.5z" />
<glyph unicode="&#xd7;" horiz-adv-x="630" d="M10 178q0 6 13.5 34t33 64.5t44 80.5t47 83t40 70t23.5 43q-10 18 -42 72.5t-65.5 114t-60.5 110.5t-27 61q0 12 6.5 23.5t20.5 11.5h8q16 -4 19.5 -20.5t9.5 -28.5q35 -74 78 -145.5t84 -143.5q33 59 66.5 121t66.5 123q4 8 11 24.5t15.5 32t18.5 27.5t22 12t19.5 -9 t7.5 -19q0 -6 -13.5 -33t-33 -64t-43 -79t-46 -80.5t-40 -68.5t-23.5 -42q53 -92 103.5 -185.5t99.5 -187.5q-2 -10 -4 -21.5t-16 -11.5q-23 0 -33 19q-10 12 -35 58t-52.5 99.5t-53 102.5t-37.5 72q-4 -8 -20.5 -38t-37 -68t-44 -81t-43 -78.5t-33.5 -58.5l-13 -24 q-2 0 -7 -2.5t-7 -2.5q-12 0 -19.5 11.5t-7.5 21.5z" />
<glyph unicode="&#xd8;" horiz-adv-x="946" d="M-2 842q0 94 8 204.5t38 214t86 190.5t153 136q31 16 70.5 30.5t74.5 14.5q20 0 38.5 -4t37.5 -10q2 8 3 23.5t5 31t11 26.5t20 11q16 0 22 -10t6 -25q0 -23 -5 -41t-7 -39q12 -8 27.5 -23.5t30 -33.5t26.5 -35.5t21 -32.5q37 -63 58 -150t33.5 -181.5t15.5 -186.5 t3 -166q0 -59 -6 -116.5t-14 -116.5q-10 -86 -32 -183.5t-65 -179t-112.5 -135t-179.5 -53.5q-47 0 -89 14q0 -8 -1 -22t-3 -28.5t-7 -25t-17 -10.5q-14 0 -24.5 12.5t-10.5 24.5q0 18 6 37t6 37q0 2 -2 4q-35 33 -59.5 54.5t-50.5 64.5q-23 35 -42.5 86t-32.5 106.5 t-21.5 109.5t-8.5 95q0 72 -5 140.5t-5 140.5zM59 877q0 -86 1 -194t16.5 -213t51.5 -200.5t108 -156.5q29 162 54 322.5t52 322.5q35 203 75 400.5t77 400.5q-31 12 -66 12q-41 0 -76 -14.5t-67 -36.5q-33 -23 -70 -56q-47 -43 -76.5 -117.5t-47 -158.5t-25 -168t-7.5 -143 zM287 78q16 -8 32.5 -12.5t34.5 -4.5q33 0 86.5 13.5t79.5 36.5q59 51 97 136t58.5 181t28 191.5t7.5 168.5q0 63 -3 151.5t-13.5 180.5t-29 177t-51.5 139q-12 23 -31.5 45t-35.5 45q-72 -362 -135.5 -723t-124.5 -725z" />
<glyph unicode="&#xd9;" horiz-adv-x="839" d="M17 1489q-1 33 0 65.5t8.5 58t25.5 25.5q23 0 29 -19.5t6 -35.5q0 -31 -4 -62.5t-4 -64.5q0 -160 7 -320.5t7 -320.5q0 -66 3 -130t5 -130q2 -68 6.5 -153t28 -158.5t74.5 -124.5t147 -51q68 0 113 28.5t82 85.5q20 35 32.5 75t17.5 82t6 84t1 81q6 260 15.5 516t9.5 516 q0 12 -2 29.5t-1 35t7 29.5t22 12q10 0 16.5 -8t9.5 -19t4 -23.5t1 -20.5q0 -272 -5 -541.5t-13 -542.5q0 -41 -4 -88t-12.5 -95t-24 -93t-37.5 -78q-49 -70 -105.5 -99.5t-142.5 -29.5q-76 0 -130 35t-97 94q-25 33 -39 77t-23.5 93t-13.5 97.5t-4 86.5q-4 188 -5 375 t-9 373q-2 53 -4.5 103.5t-2.5 103.5q0 14 -1 47zM227 1812q0 23 23 23q6 0 26.5 -16.5t44 -38t44 -41t28.5 -27.5l2 -14q0 -12 -8 -19h-22q-6 6 -29 24.5t-47.5 40t-43 42t-18.5 26.5z" />
<glyph unicode="&#xda;" horiz-adv-x="839" d="M17 1489q1 -33 1 -47q0 -53 2.5 -103.5t4.5 -103.5q8 -186 9 -372.5t5 -375.5q0 -39 4 -87t13.5 -97t23.5 -93t39 -77q43 -59 97 -94t130 -35q86 0 142.5 29.5t105.5 99.5q23 33 38 78t23.5 93t12.5 95t4 88q8 272 13 541.5t5 542.5q0 8 -1 20.5t-4 23.5t-9 19t-17 8 q-16 0 -22 -12t-7 -29.5t1 -35t2 -29.5q0 -260 -9.5 -516t-15.5 -516q0 -39 -1 -81t-6 -84t-17.5 -82t-32.5 -75q-37 -57 -82 -85.5t-113 -28.5q-96 0 -147 51t-74.5 124.5t-28 158.5t-6.5 153q-2 66 -5 130.5t-3 129.5q0 160 -7 320.5t-7 320.5q0 33 4 64.5t4 62.5 q0 16 -6 35.5t-29 19.5q-18 0 -25.5 -25.5t-8.5 -58t0 -65.5zM309 1698l2 14q8 8 28.5 27.5t44.5 41t44.5 38t26.5 16.5q23 0 22 -23q0 -6 -18.5 -26.5t-43 -42t-47 -39.5t-28.5 -25h-23q-8 6 -8 19z" />
<glyph unicode="&#xdb;" horiz-adv-x="839" d="M17 1489q-1 33 0 65.5t8.5 58t25.5 25.5q23 0 29 -19.5t6 -35.5q0 -31 -4 -62.5t-4 -64.5q0 -160 7 -320.5t7 -320.5q0 -66 3 -130t5 -130q2 -68 6.5 -153t28 -158.5t74.5 -124.5t147 -51q68 0 113 28.5t82 85.5q20 35 32.5 75t17.5 82t6 84t1 81q6 260 15.5 516t9.5 516 q0 12 -2 29.5t-1 35t7 29.5t22 12q10 0 16.5 -8t9.5 -19t4 -23.5t1 -20.5q0 -272 -5 -541.5t-13 -542.5q0 -41 -4 -88t-12.5 -95t-24 -93t-37.5 -78q-49 -70 -105.5 -99.5t-142.5 -29.5q-76 0 -130 35t-97 94q-25 33 -39 77t-23.5 93t-13.5 97.5t-4 86.5q-4 188 -5 375 t-9 373q-2 53 -4.5 103.5t-2.5 103.5q0 14 -1 47zM229 1710q0 14 15.5 45t37 61.5t44 54t34.5 23.5q8 0 29 -26.5t42.5 -59t37.5 -61.5t16 -33q0 -10 -9 -16t-19 -6t-24.5 18.5t-30 43t-29 48t-19.5 33.5q-10 -10 -23.5 -33.5t-27.5 -48t-28.5 -43t-24.5 -18.5q-21 0 -21 18 z" />
<glyph unicode="&#xdc;" horiz-adv-x="839" d="M17 1489q-1 33 0 65.5t8.5 58t25.5 25.5q23 0 29 -19.5t6 -35.5q0 -31 -4 -62.5t-4 -64.5q0 -160 7 -320.5t7 -320.5q0 -66 3 -130t5 -130q2 -68 6.5 -153t28 -158.5t74.5 -124.5t147 -51q68 0 113 28.5t82 85.5q20 35 32.5 75t17.5 82t6 84t1 81q6 260 15.5 516t9.5 516 q0 12 -2 29.5t-1 35t7 29.5t22 12q10 0 16.5 -8t9.5 -19t4 -23.5t1 -20.5q0 -272 -5 -541.5t-13 -542.5q0 -41 -4 -88t-12.5 -95t-24 -93t-37.5 -78q-49 -70 -105.5 -99.5t-142.5 -29.5q-76 0 -130 35t-97 94q-25 33 -39 77t-23.5 93t-13.5 97.5t-4 86.5q-4 188 -5 375 t-9 373q-2 53 -4.5 103.5t-2.5 103.5q0 14 -1 47zM207 1753q0 16 9 28.5t26 12.5q16 0 24 -10t8 -25q0 -16 -9 -29.5t-25 -13.5t-24.5 10.5t-8.5 26.5zM397 1753q0 16 9.5 28.5t25.5 12.5t24.5 -10t8.5 -25q0 -16 -9.5 -29.5t-25.5 -13.5t-24.5 10.5t-8.5 26.5z" />
<glyph unicode="&#xdd;" horiz-adv-x="794" d="M-16 1610q0 -4 7 -19.5t15 -35t16.5 -37t10.5 -23.5q35 -76 63.5 -155.5t57.5 -157.5q37 -102 78.5 -203.5t82.5 -204.5q2 -4 3 -34.5t1 -76v-98.5v-102v-88v-56v-241v-23.5t2.5 -26t9.5 -20.5t23 -8q18 0 22.5 20.5t4.5 34.5q0 72 -2 142.5t-2 142.5q0 41 2 83t2 85 q0 59 -4 120.5t-4 121.5q0 20 2 30q4 10 10 21.5t10 21.5q16 29 26.5 63t22.5 62q16 45 34 88t34 88q20 57 40.5 112.5t41.5 111.5q16 41 29.5 85t27.5 85q6 16 18.5 43.5t12.5 44.5q0 10 -6 22l-17 10h-4q-16 2 -24 -7t-15 -23q-12 -29 -18 -63t-16 -64q-25 -74 -53.5 -154 t-59.5 -161t-62.5 -158.5t-62.5 -147.5q-41 98 -80 198.5t-78 203.5q-35 92 -68.5 185t-76.5 179q-8 4 -16.5 7t-18.5 3q-23 0 -22 -26zM262 1718l4 15q8 8 28.5 27.5t44 41t44.5 37.5t27 16q23 0 22 -22q0 -6 -18.5 -26.5t-43 -42t-47 -40t-28.5 -24.5h-23q-6 4 -10 18z " />
<glyph unicode="&#xde;" horiz-adv-x="595" d="M39 43v115q0 240 4 476t12 478q4 82 6 163t2 165q0 25 -3 49t-3 51q0 10 1 24.5t10 18.5l-2 -4q0 6 12 10t16 4q12 0 17.5 -31.5t7.5 -72.5t1 -79t-1 -50q0 -47 -1 -91t-3 -91q29 35 70.5 49t84.5 14q47 0 81 -30.5t55.5 -75.5t32 -94.5t10.5 -86.5q0 -63 -8.5 -140 t-34 -144.5t-75.5 -112.5t-132 -45q-23 0 -54.5 6t-48.5 23v-119q0 -92 1 -185.5t1 -187.5q0 -12 -4 -26.5t-20 -14.5q-35 0 -35 35zM98 719q0 -31 1 -58.5t9.5 -49t29 -34t59.5 -12.5q68 0 106.5 42t58 102.5t24.5 128t5 118.5q0 29 -7 69t-22.5 76t-41 60.5t-62.5 24.5 q-39 0 -67.5 -16.5t-47 -42t-28 -59.5t-9.5 -69q0 -70 -4 -139t-4 -141z" />
<glyph unicode="&#xdf;" horiz-adv-x="747" d="M25 682q0 258 12 516q2 41 3 83t7 83t20.5 78t45.5 67q39 41 91 62.5t107 21.5q59 0 114.5 -25.5t96.5 -66.5q47 -45 65.5 -107.5t18.5 -123.5q0 -127 -63.5 -228.5t-173.5 -160.5q-8 -4 -14.5 -9.5t-14.5 -9.5q111 -55 179.5 -155.5t68.5 -225.5q0 -66 -16.5 -134 t-50.5 -129.5t-84 -109t-115 -69.5q-18 -6 -38 -20.5t-40 -10.5h-11l-16 19q-4 16 4 24t21 15q47 23 91 45t83 57q59 53 86.5 139t27.5 164q0 117 -54 198t-152 138q-10 4 -21.5 11t-23.5 7q-6 0 -13.5 -2t-15.5 -2q-16 0 -23 4l-12 19q0 16 10.5 25.5t26.5 13.5 q4 2 18.5 10t31.5 17.5t32.5 18.5t21.5 13q86 51 140.5 137t54.5 189q0 55 -18.5 104t-51 86t-80 58.5t-104.5 21.5q-27 0 -55.5 -9t-54 -25.5t-45 -39t-27.5 -49.5q-6 -18 -10.5 -65t-7.5 -107.5t-6 -129.5t-4 -133.5t-2 -115.5t-1 -78q0 -117 3 -234.5t7 -236.5 q2 -59 8.5 -116.5t6.5 -116.5q0 -14 -4.5 -28.5t-14.5 -24.5l-35 10q-16 160 -23 320.5t-7 322.5z" />
<glyph unicode="&#xe0;" d="M-51 45q0 29 9 56.5t17 54.5q18 72 33 142.5t33 141.5q27 100 51.5 200.5t48.5 203.5q23 98 55.5 193.5t55.5 193.5q6 29 21.5 89t34 124.5t35.5 119t30 72.5l18 9q18 0 30.5 -24t21 -54.5t11.5 -60t7 -42.5q8 -33 16 -64.5t17 -66.5q61 -252 111 -502.5t110 -502.5 q4 -18 15 -60.5t23.5 -88.5t21.5 -85t9 -49t-6 -23.5t-20 -13.5q-16 0 -27.5 21.5t-15.5 36.5q-20 74 -32.5 149.5t-33.5 149.5q-23 80 -39 159.5t-32 161.5q-104 0 -207 -1t-207 -3q-35 -160 -75 -314.5t-77 -312.5q-4 -16 -8 -32.5t-27 -16.5q-16 0 -22 13.5t-6 25.5z M174 737q98 4 194.5 3t194.5 3q-10 59 -22.5 119t-26.5 119q-31 135 -60.5 270t-62.5 271q-14 -41 -24.5 -83t-20.5 -83q-35 -158 -85 -309.5t-87 -309.5zM289 1833q-1 22 22 22q6 0 26.5 -16t44.5 -37.5t44 -41t29 -27.5l2 -15q0 -12 -8 -18h-23q-6 6 -28.5 24.5t-47 40 t-43 42t-18.5 26.5z" />
<glyph unicode="&#xe1;" d="M-51 45q0 -12 6 -25.5t22 -13.5q23 0 27 16.5t8 32.5q37 158 77 312.5t75 314.5q104 2 206.5 3t207.5 1q16 -82 32.5 -162t38.5 -159q20 -74 32.5 -150t33.5 -149q4 -14 15 -36t28 -22q14 0 20 13.5t6 23.5t-9 49t-21.5 85t-23.5 88t-15 61q-59 252 -109.5 502.5 t-111.5 502.5q-8 35 -16.5 67t-16.5 64q-4 12 -7 42t-11.5 60.5t-20.5 54.5t-31 24l-18 -9q-12 -18 -29.5 -72.5t-36 -119t-34 -124.5t-21.5 -89q-23 -98 -55.5 -193.5t-55.5 -193.5q-25 -102 -49 -202.5t-51 -201.5q-18 -72 -32.5 -142.5t-33.5 -141.5q-8 -27 -17 -54.5 t-9 -56.5zM174 737q37 158 87 309.5t85 309.5q10 41 20.5 83t24.5 83q33 -135 62.5 -270.5t60.5 -270.5q14 -59 26.5 -118.5t22.5 -119.5q-98 -4 -194.5 -3t-194.5 -3zM367 1724l2 15q8 8 28.5 27.5t44 41t44 38t26.5 16.5q23 0 23 -23q0 -6 -18.5 -26.5t-43 -42t-47.5 -40 t-29 -24.5h-22q-8 6 -8 18z" />
<glyph unicode="&#xe2;" d="M-51 45q0 29 9 56.5t17 54.5q18 72 33 142.5t33 141.5q27 100 51.5 200.5t48.5 203.5q23 98 55.5 193.5t55.5 193.5q6 29 21.5 89t34 124.5t35.5 119t30 72.5l18 9q18 0 30.5 -24t21 -54.5t11.5 -60t7 -42.5q8 -33 16 -64.5t17 -66.5q61 -252 111 -502.5t110 -502.5 q4 -18 15 -60.5t23.5 -88.5t21.5 -85t9 -49t-6 -23.5t-20 -13.5q-16 0 -27.5 21.5t-15.5 36.5q-20 74 -32.5 149.5t-33.5 149.5q-23 80 -39 159.5t-32 161.5q-104 0 -207 -1t-207 -3q-35 -160 -75 -314.5t-77 -312.5q-4 -16 -8 -32.5t-27 -16.5q-16 0 -22 13.5t-6 25.5z M174 737q98 4 194.5 3t194.5 3q-10 59 -22.5 119t-26.5 119q-31 135 -60.5 270t-62.5 271q-14 -41 -24.5 -83t-20.5 -83q-35 -158 -85 -309.5t-87 -309.5zM270 1690q0 14 15.5 44.5t37 61.5t44 54.5t34.5 23.5q8 0 29 -26.5t42.5 -59.5t37.5 -61.5t16 -32.5q0 -10 -9 -16.5 t-19 -6.5t-24.5 18.5t-30 43t-29 48t-19.5 34.5q-10 -10 -23.5 -34t-27.5 -48.5t-28.5 -43t-24.5 -18.5q-21 1 -21 19z" />
<glyph unicode="&#xe3;" d="M-51 45q0 29 9 56.5t17 54.5q18 72 33 142.5t33 141.5q27 100 51.5 200.5t48.5 203.5q23 98 55.5 193.5t55.5 193.5q6 29 21.5 89t34 124.5t35.5 119t30 72.5l18 9q18 0 30.5 -24t21 -54.5t11.5 -60t7 -42.5q8 -33 16 -64.5t17 -66.5q61 -252 111 -502.5t110 -502.5 q4 -18 15 -60.5t23.5 -88.5t21.5 -85t9 -49t-6 -23.5t-20 -13.5q-16 0 -27.5 21.5t-15.5 36.5q-20 74 -32.5 149.5t-33.5 149.5q-23 80 -39 159.5t-32 161.5q-104 0 -207 -1t-207 -3q-35 -160 -75 -314.5t-77 -312.5q-4 -16 -8 -32.5t-27 -16.5q-16 0 -22 13.5t-6 25.5z M174 737q98 4 194.5 3t194.5 3q-10 59 -22.5 119t-26.5 119q-31 135 -60.5 270t-62.5 271q-14 -41 -24.5 -83t-20.5 -83q-35 -158 -85 -309.5t-87 -309.5zM188 1741q0 18 12.5 36.5t31 32t40 22.5t39.5 9q33 0 52.5 -14.5t36 -31.5t34 -31.5t43.5 -14.5q18 0 32.5 12.5 t26 27.5t20.5 28.5t17 13.5q10 0 17.5 -5t7.5 -16q0 -20 -12.5 -39.5t-31.5 -35t-40.5 -24.5t-40.5 -9q-35 0 -56.5 14.5t-38 30.5t-31.5 30.5t-34 14.5q-25 0 -39 -8t-24 -20.5t-18.5 -26t-22.5 -21.5q-8 0 -14.5 8.5t-6.5 16.5z" />
<glyph unicode="&#xe4;" d="M-51 45q0 29 9 56.5t17 54.5q18 72 33 142.5t33 141.5q27 100 51.5 200.5t48.5 203.5q23 98 55.5 193.5t55.5 193.5q6 29 21.5 89t34 124.5t35.5 119t30 72.5l28 -4q23 0 34 -21.5t15.5 -49t5.5 -56t5 -41.5q8 -33 16 -64.5t17 -66.5q61 -252 111 -502.5t110 -502.5 q4 -18 15 -60.5t23.5 -88.5t21.5 -85t9 -49t-6 -23.5t-20 -13.5q-16 0 -27.5 21.5t-15.5 36.5q-20 74 -32.5 149.5t-33.5 149.5q-23 80 -39 159.5t-32 161.5q-104 0 -207 -1t-207 -3q-35 -160 -75 -314.5t-77 -312.5q-4 -16 -8 -32.5t-27 -16.5q-16 0 -22 13.5t-6 25.5z M174 737q98 4 194.5 3t194.5 3q-10 59 -22.5 119t-26.5 119q-31 135 -60.5 270t-62.5 271q-14 -41 -24.5 -83t-20.5 -83q-35 -158 -85 -309.5t-87 -309.5zM268 1733q0 16 9.5 28.5t25.5 12.5t24.5 -10.5t8.5 -24.5q0 -16 -9.5 -29.5t-25.5 -13.5t-24.5 10t-8.5 27zM459 1733 q0 16 9 28.5t26 12.5q16 0 24 -10.5t8 -24.5q0 -16 -9 -29.5t-25 -13.5t-24.5 10t-8.5 27z" />
<glyph unicode="&#xe5;" d="M-51 45q0 29 9 56.5t17 54.5q18 72 33 142.5t33 141.5q27 100 51.5 200.5t48.5 203.5q23 98 55.5 193.5t55.5 193.5q6 29 21.5 89t34 124.5t35.5 119t30 72.5l18 9q18 0 30.5 -24t21 -54.5t11.5 -60t7 -42.5q8 -33 16 -64.5t17 -66.5q61 -252 111 -502.5t110 -502.5 q4 -18 15 -60.5t23.5 -88.5t21.5 -85t9 -49t-6 -23.5t-20 -13.5q-16 0 -27.5 21.5t-15.5 36.5q-20 74 -32.5 149.5t-33.5 149.5q-23 80 -39 159.5t-32 161.5q-104 0 -207 -1t-207 -3q-35 -160 -75 -314.5t-77 -312.5q-4 -16 -8 -32.5t-27 -16.5q-16 0 -22 13.5t-6 25.5z M174 737q98 4 194.5 3t194.5 3q-10 59 -22.5 119t-26.5 119q-31 135 -60.5 270t-62.5 271q-14 -41 -24.5 -83t-20.5 -83q-35 -158 -85 -309.5t-87 -309.5zM338 1759q0 25 14 47.5t43 22.5q27 0 38 -20.5t11 -43.5q0 -25 -12 -43t-41 -18q-23 0 -38 16.5t-15 38.5zM373 1765 q0 -23 20 -28l6 2q6 12 7 30q0 12 -3 19l-8 6q-10 -6 -20 -18q0 -2 -1 -5.5t-1 -5.5z" />
<glyph unicode="&#xe6;" horiz-adv-x="1392" d="M10 31q0 10 17.5 63t48 134t69.5 182.5t81 210t84 216t80 199.5t66.5 163t43.5 104q33 76 57.5 154.5t52.5 156.5l11 10l14 4l8 4q137 -4 273.5 2t275.5 6q12 0 38.5 -3t26.5 -21q0 -15 -12 -31q-31 -6 -84 -7t-111.5 -1t-114.5 1t-93 1q-45 -2 -89 -2t-87 -4 q2 -16 3 -33.5t1 -36.5q0 -16 -1 -29.5t-3 -29.5q-8 -76 -7.5 -150.5t-9.5 -150.5q-23 -172 -24 -346q92 6 183 10t183 14q10 2 20.5 4t20.5 2q12 0 27.5 -6t15.5 -22t-23.5 -25.5t-37.5 -11.5q-98 -8 -194.5 -13.5t-194.5 -9.5q-10 -172 -10.5 -340t-2.5 -340q127 2 254 2 t254 19q8 0 14.5 2t14.5 2q10 0 21.5 -4t11.5 -17q0 -10 -6.5 -19t-12.5 -15v2v-6q-47 -4 -96 -9.5t-96 -5.5q-72 0 -140.5 -3t-140.5 -3q-25 0 -49.5 -2t-42.5 1t-30.5 17.5t-12.5 49.5v228.5t4 227.5q-43 4 -87 3t-89 -1h-67.5t-67.5 -4q-35 -86 -68 -173t-61 -177 q-10 -31 -21.5 -74t-27.5 -71q-6 -10 -14.5 -17.5t-22.5 -7.5q-23 0 -23 27zM270 592q59 4 120 2t120 -2h51q4 211 17.5 416.5t25.5 416.5q-25 -66 -51.5 -132t-54.5 -132q-59 -141 -116 -283.5t-112 -285.5z" />
<glyph unicode="&#xe7;" horiz-adv-x="940" d="M12 815q0 84 11.5 184.5t37 198.5t65.5 188.5t97 155.5q49 57 116 82t140 25q63 0 117.5 -21.5t92.5 -59.5t59.5 -92.5t21.5 -117.5q0 -8 1 -38t-1 -61.5t-9 -57t-22 -25.5q-35 0 -34 38q0 31 5 62t5 61q0 115 -62.5 183.5t-179.5 68.5q-80 0 -137 -35.5t-99 -92 t-70 -125t-46 -132.5q-29 -104 -39 -208.5t-8 -213.5l2 -102q2 -39 12 -100.5t28.5 -131t47.5 -141t63.5 -128t77.5 -92.5t94 -36q72 0 121 32t81 82t47.5 111.5t21.5 120.5q4 25 4 50.5t6 48.5q2 12 11 27.5t24 15.5q14 0 18 -9.5t4 -19.5q0 -74 -11 -156t-41 -154.5 t-84 -127t-140 -70.5q-10 -18 -14.5 -37.5t-12.5 -40.5q53 -16 87 -44t34 -87t-42 -93t-97 -34q-12 0 -35 3t-23 20q0 16 5.5 27.5t23.5 11.5q10 0 23 -4q33 2 59.5 17t26.5 52q0 20 -10.5 34.5t-27 24t-36 13.5t-37.5 6l-18 25q4 27 13 51t17 49q-59 4 -103 33.5t-83 72.5 q-59 68 -97 156t-60.5 182.5t-32 191.5t-9.5 183z" />
<glyph unicode="&#xe8;" horiz-adv-x="724" d="M43 967q0 139 3 276t3 275v51t6 32.5t23.5 18.5t54.5 6q25 0 49.5 -1t48.5 -1q61 0 123 7t123 7q8 0 21.5 -1t26 -5t21.5 -11t9 -19q0 -16 -17.5 -20.5t-27.5 -4.5q-100 0 -200.5 -4t-200.5 -8q-6 -258 -7 -514v-129.5t2 -126.5q23 0 82.5 2t124 2t119.5 -1t72 -5 q10 -2 17 -10.5t7 -18.5q0 -18 -15 -20.5t-30 -2.5q-94 -4 -187 -3t-188 -3q-2 -37 -2 -72.5v-70.5q0 -135 2.5 -266t4.5 -267q29 4 58.5 4h57.5q72 0 145.5 1.5t145.5 1.5q35 0 35 -33q0 -10 -6 -17.5t-17 -7.5q-74 0 -148.5 -2t-148.5 -2q-37 0 -73.5 -2t-73.5 -2h-14 l-15 6q-6 8 -6 19q0 236 -4 471t-4 471zM207 1853q-1 23 22 23q6 0 26.5 -16.5t44.5 -38t44.5 -41t28.5 -27.5l2 -14q0 -12 -8 -19h-23q-6 6 -28.5 24.5t-47 40t-43 42t-18.5 26.5z" />
<glyph unicode="&#xe9;" horiz-adv-x="724" d="M43 967q0 -236 4 -471.5t4 -470.5q0 -10 6 -19l15 -6h14q37 0 74 2t73 2q74 0 149 2t148 2q10 0 16.5 7.5t6.5 17.5q0 33 -35 33q-72 0 -145.5 -1.5t-145.5 -1.5h-58.5t-57.5 -4q-2 135 -4.5 266.5t-2.5 266.5v70.5t2 72.5q94 4 187.5 3t187.5 3q14 0 29.5 2t15.5 21 q0 10 -7 18.5t-17 10.5q-16 4 -71.5 5t-120 1t-124 -2t-82.5 -2q-2 63 -2 126.5v129.5q1 256 7 514q100 4 200.5 8t200.5 4q10 0 27.5 4t17.5 21q0 12 -9 19t-21.5 11t-26 5t-21.5 1q-61 0 -122.5 -7t-123.5 -7q-25 0 -49 1t-49 1q-37 0 -54.5 -6t-23.5 -18.5t-6 -33v-50.5 q0 -137 -3 -274.5t-3 -276.5zM264 1724l2 15q8 8 28.5 27.5t44 41t44.5 38t27 16.5q23 0 22 -23q0 -6 -18.5 -26.5t-43 -42t-47 -40t-28.5 -24.5h-23q-8 6 -8 18z" />
<glyph unicode="&#xea;" horiz-adv-x="724" d="M43 967q0 139 3 276t3 275v51t6 32.5t23.5 18.5t54.5 6q25 0 49.5 -1t48.5 -1q61 0 123 7t123 7q8 0 21.5 -1t26 -5t21.5 -11t9 -19q0 -16 -17.5 -20.5t-27.5 -4.5q-100 0 -200.5 -4t-200.5 -8q-6 -258 -7 -514v-129.5t2 -126.5q23 0 82.5 2t124 2t119.5 -1t72 -5 q10 -2 17 -10.5t7 -18.5q0 -18 -15 -20.5t-30 -2.5q-94 -4 -187 -3t-188 -3q-2 -37 -2 -72.5v-70.5q0 -135 2.5 -266t4.5 -267q29 4 58.5 4h57.5q72 0 145.5 1.5t145.5 1.5q35 0 35 -33q0 -10 -6 -17.5t-17 -7.5q-74 0 -148.5 -2t-148.5 -2q-37 0 -73.5 -2t-73.5 -2h-14 l-15 6q-6 8 -6 19q0 236 -4 471t-4 471zM188 1731q0 14 15.5 44.5t37 61.5t44 54.5t34.5 23.5q8 0 29 -26.5t42.5 -59.5t37.5 -61.5t16 -32.5q0 -10 -9 -16.5t-19 -6.5t-24.5 18.5t-30 43t-29 48t-19.5 33.5q-10 -10 -23.5 -33.5t-27.5 -48t-28.5 -43t-24.5 -18.5 q-21 1 -21 19z" />
<glyph unicode="&#xeb;" horiz-adv-x="724" d="M43 967q0 139 3 276t3 275v51t6 32.5t23.5 18.5t54.5 6q25 0 49.5 -1t48.5 -1q61 0 123 7t123 7q8 0 21.5 -1t26 -5t21.5 -11t9 -19q0 -16 -17.5 -20.5t-27.5 -4.5q-100 0 -200.5 -4t-200.5 -8q-6 -258 -7 -514v-129.5t2 -126.5q23 0 82.5 2t124 2t119.5 -1t72 -5 q10 -2 17 -10.5t7 -18.5q0 -18 -15 -20.5t-30 -2.5q-94 -4 -187 -3t-188 -3q-2 -37 -2 -72.5v-70.5q0 -135 2.5 -266t4.5 -267q29 4 58.5 4h57.5q72 0 145.5 1.5t145.5 1.5q35 0 35 -33q0 -10 -6 -17.5t-17 -7.5q-74 0 -148.5 -2t-148.5 -2q-37 0 -73.5 -2t-73.5 -2h-14 l-15 6q-6 8 -6 19q0 236 -4 471t-4 471zM186 1753q0 16 9.5 28.5t25.5 12.5t24.5 -10t8.5 -25q0 -16 -9.5 -29.5t-25.5 -13.5t-24.5 10.5t-8.5 26.5zM377 1753q0 16 9 28.5t26 12.5q16 0 24 -10t8 -25q0 -16 -9 -29.5t-25 -13.5t-24.5 10.5t-8.5 26.5z" />
<glyph unicode="&#xec;" horiz-adv-x="323" d="M23 1833q-1 22 22 22q6 0 26.5 -16t44 -37.5t44 -41t28.5 -27.5l2 -15q0 -12 -8 -18h-22q-6 6 -28.5 24.5t-47.5 40t-43 42t-18 26.5zM90 616q0 225 6 448.5t6 448.5q0 10 -2 32t0 43.5t7.5 37.5t21.5 16q23 0 28 -24.5t5 -40.5q0 -270 -7.5 -537.5t-7.5 -535.5 q0 -113 2.5 -223.5t2.5 -221.5q0 -12 -5.5 -33.5t-21.5 -21.5q-20 0 -24.5 21.5t-4.5 37.5q0 139 -3 276.5t-3 276.5z" />
<glyph unicode="&#xed;" horiz-adv-x="323" d="M78 1718l4 15q8 8 28.5 27.5t44 41t44 37.5t26.5 16q23 0 23 -22q0 -6 -18.5 -26.5t-43 -42t-47 -40t-28.5 -24.5h-23q-6 4 -10 18zM90 616q0 -139 3 -276t3 -277q0 -16 4 -37.5t25 -21.5q16 0 21.5 21.5t5.5 33.5q0 111 -2.5 221.5t-2.5 223.5q0 268 7.5 535.5 t7.5 537.5q0 16 -5 40.5t-28 24.5q-16 0 -21.5 -16t-7.5 -37.5t0 -43t2 -32.5q0 -225 -6 -448.5t-6 -448.5z" />
<glyph unicode="&#xee;" horiz-adv-x="331" d="M25 1690q0 14 15 44.5t36.5 61.5t44 54.5t35.5 23.5q8 0 28.5 -26.5t42 -59.5t38 -61.5t16.5 -32.5q0 -10 -9.5 -16.5t-19.5 -6.5t-24.5 18.5t-30 43t-28.5 48t-19 34.5q-10 -10 -23.5 -34t-28 -48.5t-29 -43t-24.5 -18.5q-20 1 -20 19zM111 616q0 225 6 448.5t6 448.5 q0 10 -2 32t0 43.5t7 37.5t22 16q23 0 27.5 -24.5t4.5 -40.5q0 -270 -7 -537.5t-7 -535.5q0 -113 2 -223.5t2 -221.5q0 -12 -5 -33.5t-22 -21.5q-20 0 -24 21.5t-4 37.5q0 139 -3 276.5t-3 276.5z" />
<glyph unicode="&#xef;" horiz-adv-x="286" d="M68 1753q0 12 8 22.5t22 10.5q25 0 25 -27q0 -12 -7.5 -23.5t-21.5 -11.5q-27 0 -26 29zM90 616q0 225 6 448.5t6 448.5q0 10 -2 32t0 43.5t7.5 37.5t21.5 16q23 0 28 -24.5t5 -40.5q0 -270 -7.5 -537.5t-7.5 -535.5q0 -113 2.5 -223.5t2.5 -221.5q0 -12 -5.5 -33.5 t-21.5 -21.5q-20 0 -24.5 21.5t-4.5 37.5q0 139 -3 276.5t-3 276.5zM180 1753q0 12 7.5 22.5t21.5 10.5q25 0 24 -27q0 -12 -7 -23.5t-21 -11.5q-25 0 -25 29z" />
<glyph unicode="&#xf0;" horiz-adv-x="761" d="M16 403q0 104 29 206t90 184q23 31 54.5 58.5t68.5 50t76 35.5t76 13q63 0 108 -41q-27 109 -66.5 213.5t-99.5 198.5q-23 -16 -53.5 -41t-58.5 -29l-23 21q0 14 12.5 28.5t29.5 27.5t35.5 23.5t29.5 16.5q-29 47 -62 91t-67 87q-12 16 -30 27.5t-28 28.5q-4 8 -4 14 q0 10 9.5 17t19.5 7q20 0 52 -30.5t62.5 -72.5t56 -82t38.5 -58q4 2 18 11t30.5 18.5t31 17.5t18.5 8q6 0 14 -4l13 -23q-6 -29 -38 -46t-57 -29q33 -55 65 -121t58.5 -134.5t45 -139t26.5 -134.5q4 -41 14.5 -80t10.5 -79q0 -49 -5.5 -118t-18.5 -142.5t-36.5 -145.5 t-59.5 -128t-87.5 -91t-118.5 -35q-31 0 -57.5 11.5t-51.5 25.5q-47 29 -79.5 70t-53 89t-29 100t-8.5 105zM72 385q0 -47 14 -104.5t43 -106.5t72 -82t100 -33q53 0 93 33t69 86t48 118.5t30.5 131.5t16.5 123t5 96q0 12 -2 32.5t-5 43t-6 42t-7 30.5q-16 39 -54 68.5 t-79 29.5h-15q-31 0 -60.5 -12.5t-56 -32t-50 -44t-42.5 -46.5q-31 -37 -52 -82t-34.5 -94.5t-20.5 -99.5t-7 -97z" />
<glyph unicode="&#xf1;" horiz-adv-x="899" d="M45 1083v469v22.5t3 30t9 26.5t19 11q14 0 36.5 -46t45 -105t41 -114.5t24.5 -71.5q43 -119 88 -235t90 -234q14 -39 33 -76t33 -76q29 -78 64.5 -151.5t68.5 -147.5q23 -53 43 -109.5t45 -109.5q-2 98 2 195.5t4 195.5q0 160 -3 320.5t-3 320.5q0 55 1 110.5t1 110.5 q0 39 -2 77t-2 77q0 10 5 31.5t22 21.5q25 0 30 -20.5t5 -40.5q0 -98 -2.5 -196.5t-2.5 -197.5q0 -111 4.5 -218t4.5 -218q0 -170 1 -339t1 -339q0 -14 -3 -35.5t-24 -21.5q-14 0 -25.5 11.5t-20.5 26.5t-15.5 32.5t-10.5 27.5q-10 29 -22 54.5t-25 52.5q-18 41 -34.5 83 t-34.5 83q-20 49 -42 96t-42 96q-16 39 -32.5 78t-35.5 76q-41 90 -74.5 184t-68.5 186t-70 184.5t-68 184.5q-2 -68 -2 -135.5v-134.5q0 -57 3.5 -112.5t3.5 -112.5q4 -182 3 -361.5t3 -361.5q0 -47 3 -95.5t3 -95.5q0 -14 -5 -28.5t-24 -14.5q-25 0 -30 16.5t-5 38.5 q0 141 -4 281.5t-4 282.5q0 39 2 77.5t2 79.5q-2 76 -6 151t-4 152zM131 1696q0 20 15.5 40.5t39 36t49 24.5t48.5 9q39 0 64.5 -15t45 -34.5t41 -35t53.5 -15.5q25 0 42.5 14.5t30.5 30.5t24.5 30.5t21.5 14.5t20.5 -6t10.5 -16q0 -23 -15.5 -44.5t-39 -38t-50 -26.5 t-49.5 -10q-43 0 -69.5 15.5t-48 33.5t-39 33.5t-41.5 15.5q-31 0 -49.5 -9t-30.5 -22.5t-22.5 -28t-26.5 -24.5q-10 2 -17.5 10.5t-7.5 16.5z" />
<glyph unicode="&#xf2;" horiz-adv-x="884" d="M12 879v28.5t2 28.5q6 86 14.5 178t33 178t69.5 161t125 128q31 20 75 40.5t83 20.5q80 0 134 -48t91 -123.5t56.5 -171t29.5 -189.5t12 -178t2 -137q0 -59 -6 -119t-12 -119q-10 -80 -28.5 -177t-58.5 -180t-108 -139.5t-174 -56.5q-72 0 -125 39q-55 39 -95 104.5 t-64.5 141.5t-36 153.5t-11.5 143.5q0 74 -4 146.5t-4 146.5zM72 874q0 -72 1 -155.5t7 -168.5t21.5 -165t43.5 -143q12 -25 30 -53.5t41.5 -54t50 -44t55.5 -24.5q8 -2 22 -3q14 0 36.5 4.5t45.5 10.5t42 15t32 20q10 10 19 23.5t18 25.5q45 66 72.5 143.5t43 160.5 t20.5 167t5 162q0 66 -3 153.5t-12.5 178t-27 174t-47.5 143.5q-8 16 -18.5 28.5t-20.5 26.5q-29 39 -56.5 60.5t-78.5 21.5q-35 0 -68 -15.5t-61 -37.5q-37 -25 -68 -55q-43 -43 -71.5 -120t-45 -163t-22.5 -171t-6 -145zM287 1860q-1 22 22 22q6 0 26.5 -16.5t44 -38 t44 -41t29.5 -27.5l4 -14q-4 -14 -11 -19h-22q-6 6 -28.5 24.5t-47 40t-43 42t-18.5 27.5z" />
<glyph unicode="&#xf3;" horiz-adv-x="884" d="M12 879q0 -74 4 -147t4 -146q0 -66 11.5 -143.5t36 -153.5t64.5 -141.5t95 -104.5q53 -39 125 -39q106 0 174 56.5t108 139.5t58.5 180t28.5 177q6 59 12 118.5t6 119.5q0 53 -2 137t-12 178t-29.5 189.5t-56.5 171t-91 123.5t-134 48q-39 0 -83 -20t-75 -41 q-80 -53 -125 -128t-69.5 -161t-33 -178t-14.5 -178q-2 -14 -2 -28.5v-28.5zM72 874q0 59 6 144.5t22.5 171.5t45 163t71.5 120q31 31 68 55q29 23 61.5 38t67.5 15q51 0 78.5 -21.5t56.5 -60.5q10 -14 20.5 -26.5t18.5 -28.5q31 -59 48 -143t26.5 -174.5t12.5 -178 t3 -153.5q0 -78 -5 -162t-20.5 -167t-43 -161t-72.5 -143q-8 -12 -17.5 -25.5t-19.5 -23.5q-12 -10 -31.5 -19.5t-42.5 -15.5t-45.5 -10.5t-36.5 -4.5t-22 3q-29 6 -55.5 24.5t-50 44t-41 54t-30.5 53.5q-29 63 -44 143t-21 165t-7 169t-1 155zM344 1739l4 14q8 8 28.5 27.5 t44 41t44.5 38t27 16.5q23 0 22 -23q0 -6 -18.5 -26.5t-43 -42t-47 -40t-28.5 -24.5h-23q-6 4 -10 19z" />
<glyph unicode="&#xf4;" horiz-adv-x="884" d="M12 879v28.5t2 28.5q6 86 14.5 178t33 178t69.5 161t125 128q31 20 75 40.5t83 20.5q80 0 134 -48t91 -123.5t56.5 -171t29.5 -189.5t12 -178t2 -137q0 -59 -6 -119t-12 -119q-10 -80 -28.5 -177t-58.5 -180t-108 -139.5t-174 -56.5q-72 0 -125 39q-55 39 -95 104.5 t-64.5 141.5t-36 153.5t-11.5 143.5q0 74 -4 146.5t-4 146.5zM72 874q0 -72 1 -155.5t7 -168.5t21.5 -165t43.5 -143q12 -25 30 -53.5t41.5 -54t50 -44t55.5 -24.5q8 -2 22 -3q14 0 36.5 4.5t45.5 10.5t42 15t32 20q10 10 19 23.5t18 25.5q45 66 72.5 143.5t43 160.5 t20.5 167t5 162q0 66 -3 153.5t-12.5 178t-27 174t-47.5 143.5q-8 16 -18.5 28.5t-20.5 26.5q-29 39 -56.5 60.5t-78.5 21.5q-35 0 -68 -15.5t-61 -37.5q-37 -25 -68 -55q-43 -43 -71.5 -120t-45 -163t-22.5 -171t-6 -145zM270 1731q0 14 15.5 44.5t37 61.5t44 54.5 t34.5 23.5q8 0 29 -26.5t42.5 -59.5t37.5 -61.5t16 -32.5q0 -10 -9 -16.5t-19 -6.5t-24.5 18.5t-30 43t-29 48t-19.5 33.5q-10 -10 -23.5 -33.5t-27.5 -48t-28.5 -43t-24.5 -18.5q-21 1 -21 19z" />
<glyph unicode="&#xf5;" horiz-adv-x="884" d="M12 879v28.5t2 28.5q6 86 14.5 178t33 178t69.5 161t125 128q31 20 75 40.5t83 20.5q80 0 134 -48t91 -123.5t56.5 -171t29.5 -189.5t12 -178t2 -137q0 -59 -6 -119t-12 -119q-10 -80 -28.5 -177t-58.5 -180t-108 -139.5t-174 -56.5q-72 0 -125 39q-55 39 -95 104.5 t-64.5 141.5t-36 153.5t-11.5 143.5q0 74 -4 146.5t-4 146.5zM72 874q0 -72 1 -155.5t7 -168.5t21.5 -165t43.5 -143q12 -25 30 -53.5t41.5 -54t50 -44t55.5 -24.5q8 -2 22 -3q14 0 36.5 4.5t45.5 10.5t42 15t32 20q10 10 19 23.5t18 25.5q45 66 72.5 143.5t43 160.5 t20.5 167t5 162q0 66 -3 153.5t-12.5 178t-27 174t-47.5 143.5q-8 16 -18.5 28.5t-20.5 26.5q-29 39 -56.5 60.5t-78.5 21.5q-35 0 -68 -15.5t-61 -37.5q-37 -25 -68 -55q-43 -43 -71.5 -120t-45 -163t-22.5 -171t-6 -145zM152 1737q0 20 15 40.5t38.5 36t49 24.5t48.5 9 q39 0 64.5 -15t45 -34.5t41 -35t54.5 -15.5q25 0 42 14.5t30.5 30.5t24.5 30.5t22 14.5q10 0 20 -6t10 -16q0 -23 -15 -44.5t-38.5 -38t-50.5 -26.5t-49 -10q-43 0 -69.5 15t-48 33.5t-39 34t-42.5 15.5q-31 0 -49 -9t-30.5 -22.5t-22.5 -28t-27 -24.5q-10 2 -17 10.5 t-7 16.5z" />
<glyph unicode="&#xf6;" horiz-adv-x="884" d="M12 879v28.5t2 28.5q6 86 14.5 178t33 178t69.5 161t125 128q31 20 75 40.5t83 20.5q80 0 134 -48t91 -123.5t56.5 -171t29.5 -189.5t12 -178t2 -137q0 -59 -6 -119t-12 -119q-10 -80 -28.5 -177t-58.5 -180t-108 -139.5t-174 -56.5q-72 0 -125 39q-55 39 -95 104.5 t-64.5 141.5t-36 153.5t-11.5 143.5q0 74 -4 146.5t-4 146.5zM72 874q0 -72 1 -155.5t7 -168.5t21.5 -165t43.5 -143q12 -25 30 -53.5t41.5 -54t50 -44t55.5 -24.5q8 -2 22 -3q14 0 36.5 4.5t45.5 10.5t42 15t32 20q10 10 19 23.5t18 25.5q45 66 72.5 143.5t43 160.5 t20.5 167t5 162q0 66 -3 153.5t-12.5 178t-27 174t-47.5 143.5q-8 16 -18.5 28.5t-20.5 26.5q-29 39 -56.5 60.5t-78.5 21.5q-35 0 -68 -15.5t-61 -37.5q-37 -25 -68 -55q-43 -43 -71.5 -120t-45 -163t-22.5 -171t-6 -145zM268 1774q0 16 9.5 28.5t25.5 12.5t24.5 -10.5 t8.5 -24.5q0 -16 -9.5 -29.5t-25.5 -13.5t-24.5 10t-8.5 27zM459 1774q0 16 9 28.5t26 12.5q16 0 24 -10.5t8 -24.5q0 -16 -9 -29.5t-25 -13.5t-24.5 10t-8.5 27z" />
<glyph unicode="&#xf7;" horiz-adv-x="782" d="M25 696q0 25 28.5 31t46.5 6q53 0 105.5 -3t105.5 -3q43 0 86 2t84 2q12 0 37 1t49.5 -2t43 -10t18.5 -24q0 -10 -10.5 -16t-23.5 -8t-26.5 -2h-19.5q-29 0 -58.5 2t-58.5 2h-113q-61 0 -121.5 -3t-121.5 -3q-14 0 -32.5 4t-18.5 24zM283 518l4 4h-2h2l4 4l-4 2 q4 16 15 30.5t32 14.5q16 0 33 -10l8 -16l2 -17q4 -20 -10 -38.5t-37 -18.5q-18 0 -30.5 14.5t-16.5 30.5zM283 891l4 4h-2h2l4 4l-4 2q4 16 15 30.5t32 14.5q16 0 33 -10l8 -16l2 -17q4 -20 -10 -38.5t-37 -18.5q-18 0 -30.5 14t-16.5 31z" />
<glyph unicode="&#xf8;" horiz-adv-x="931" d="M-2 842q0 94 8 204.5t38 214t86 190.5t153 136q31 16 70.5 30.5t74.5 14.5q20 0 38.5 -4t37.5 -10q2 8 3 23.5t5 31t11 26.5t20 11q16 0 22 -10t6 -25q0 -23 -5 -41t-7 -39q12 -8 27.5 -23.5t30 -33.5t26.5 -35.5t21 -32.5q37 -63 58 -150t33.5 -181.5t15.5 -186.5 t3 -166q0 -59 -6 -116.5t-14 -116.5q-10 -86 -32 -183.5t-65 -179t-112.5 -135t-179.5 -53.5q-47 0 -89 14q0 -8 -1 -22t-3 -28.5t-7 -25t-17 -10.5q-14 0 -24.5 12.5t-10.5 24.5q0 18 6 37t6 37q0 2 -2 4q-35 33 -59.5 54.5t-50.5 64.5q-23 35 -42.5 86t-32.5 106.5 t-21.5 109.5t-8.5 95q0 72 -5 140.5t-5 140.5zM59 877q0 -86 1 -194t16.5 -213t51.5 -200.5t108 -156.5q29 162 54 322.5t52 322.5q35 203 75 400.5t77 400.5q-31 12 -66 12q-41 0 -76 -14.5t-67 -36.5q-33 -23 -70 -56q-47 -43 -76.5 -117.5t-47 -158.5t-25 -168t-7.5 -143 zM287 78q16 -8 32.5 -12.5t34.5 -4.5q33 0 86.5 13.5t79.5 36.5q59 51 97 136t58.5 181t28 191.5t7.5 168.5q0 63 -3 151.5t-13.5 180.5t-29 177t-51.5 139q-12 23 -31.5 45t-35.5 45q-72 -362 -135.5 -723t-124.5 -725z" />
<glyph unicode="&#xf9;" horiz-adv-x="839" d="M17 1489q-1 33 0 65.5t8.5 58t25.5 25.5q23 0 29 -19.5t6 -35.5q0 -31 -4 -62.5t-4 -64.5q0 -160 7 -320.5t7 -320.5q0 -66 3 -130t5 -130q2 -68 6.5 -153t28 -158.5t74.5 -124.5t147 -51q68 0 113 28.5t82 85.5q20 35 32.5 75t17.5 82t6 84t1 81q6 260 15.5 516t9.5 516 q0 12 -2 29.5t-1 35t7 29.5t22 12q10 0 16.5 -8t9.5 -19t4 -23.5t1 -20.5q0 -272 -5 -541.5t-13 -542.5q0 -41 -4 -88t-12.5 -95t-24 -93t-37.5 -78q-49 -70 -105.5 -99.5t-142.5 -29.5q-76 0 -130 35t-97 94q-25 33 -39 77t-23.5 93t-13.5 97.5t-4 86.5q-4 188 -5 375 t-9 373q-2 53 -4.5 103.5t-2.5 103.5q0 14 -1 47zM227 1812q0 23 23 23q6 0 26.5 -16.5t44 -38t44 -41t28.5 -27.5l2 -14q0 -12 -8 -19h-22q-6 6 -29 24.5t-47.5 40t-43 42t-18.5 26.5z" />
<glyph unicode="&#xfa;" horiz-adv-x="839" d="M17 1489q1 -33 1 -47q0 -53 2.5 -103.5t4.5 -103.5q8 -186 9 -372.5t5 -375.5q0 -39 4 -87t13.5 -97t23.5 -93t39 -77q43 -59 97 -94t130 -35q86 0 142.5 29.5t105.5 99.5q23 33 38 78t23.5 93t12.5 95t4 88q8 272 13 541.5t5 542.5q0 8 -1 20.5t-4 23.5t-9 19t-17 8 q-16 0 -22 -12t-7 -29.5t1 -35t2 -29.5q0 -260 -9.5 -516t-15.5 -516q0 -39 -1 -81t-6 -84t-17.5 -82t-32.5 -75q-37 -57 -82 -85.5t-113 -28.5q-96 0 -147 51t-74.5 124.5t-28 158.5t-6.5 153q-2 66 -5 130.5t-3 129.5q0 160 -7 320.5t-7 320.5q0 33 4 64.5t4 62.5 q0 16 -6 35.5t-29 19.5q-18 0 -25.5 -25.5t-8.5 -58t0 -65.5zM309 1698l2 14q8 8 28.5 27.5t44.5 41t44.5 38t26.5 16.5q23 0 22 -23q0 -6 -18.5 -26.5t-43 -42t-47 -39.5t-28.5 -25h-23q-8 6 -8 19z" />
<glyph unicode="&#xfb;" horiz-adv-x="839" d="M17 1489q-1 33 0 65.5t8.5 58t25.5 25.5q23 0 29 -19.5t6 -35.5q0 -31 -4 -62.5t-4 -64.5q0 -160 7 -320.5t7 -320.5q0 -66 3 -130t5 -130q2 -68 6.5 -153t28 -158.5t74.5 -124.5t147 -51q68 0 113 28.5t82 85.5q20 35 32.5 75t17.5 82t6 84t1 81q6 260 15.5 516t9.5 516 q0 12 -2 29.5t-1 35t7 29.5t22 12q10 0 16.5 -8t9.5 -19t4 -23.5t1 -20.5q0 -272 -5 -541.5t-13 -542.5q0 -41 -4 -88t-12.5 -95t-24 -93t-37.5 -78q-49 -70 -105.5 -99.5t-142.5 -29.5q-76 0 -130 35t-97 94q-25 33 -39 77t-23.5 93t-13.5 97.5t-4 86.5q-4 188 -5 375 t-9 373q-2 53 -4.5 103.5t-2.5 103.5q0 14 -1 47zM229 1710q0 14 15.5 45t37 61.5t44 54t34.5 23.5q8 0 29 -26.5t42.5 -59t37.5 -61.5t16 -33q0 -10 -9 -16t-19 -6t-24.5 18.5t-30 43t-29 48t-19.5 33.5q-10 -10 -23.5 -33.5t-27.5 -48t-28.5 -43t-24.5 -18.5q-21 0 -21 18 z" />
<glyph unicode="&#xfc;" horiz-adv-x="839" d="M17 1489q-1 33 0 65.5t8.5 58t25.5 25.5q23 0 29 -19.5t6 -35.5q0 -31 -4 -62.5t-4 -64.5q0 -160 7 -320.5t7 -320.5q0 -66 3 -130t5 -130q2 -68 6.5 -153t28 -158.5t74.5 -124.5t147 -51q68 0 113 28.5t82 85.5q20 35 32.5 75t17.5 82t6 84t1 81q6 260 15.5 516t9.5 516 q0 12 -2 29.5t-1 35t7 29.5t22 12q10 0 16.5 -8t9.5 -19t4 -23.5t1 -20.5q0 -272 -5 -541.5t-13 -542.5q0 -41 -4 -88t-12.5 -95t-24 -93t-37.5 -78q-49 -70 -105.5 -99.5t-142.5 -29.5q-76 0 -130 35t-97 94q-25 33 -39 77t-23.5 93t-13.5 97.5t-4 86.5q-4 188 -5 375 t-9 373q-2 53 -4.5 103.5t-2.5 103.5q0 14 -1 47zM207 1753q0 16 9 28.5t26 12.5q16 0 24 -10t8 -25q0 -16 -9 -29.5t-25 -13.5t-24.5 10.5t-8.5 26.5zM397 1753q0 16 9.5 28.5t25.5 12.5t24.5 -10t8.5 -25q0 -16 -9.5 -29.5t-25.5 -13.5t-24.5 10.5t-8.5 26.5z" />
<glyph unicode="&#xfd;" horiz-adv-x="808" d="M-16 1610q0 -4 7 -19.5t15 -35t16.5 -37t10.5 -23.5q35 -76 63.5 -155.5t57.5 -157.5q37 -102 78.5 -203.5t82.5 -204.5q2 -4 3 -34.5t1 -76v-98.5v-102v-88v-56v-241v-23.5t2.5 -26t9.5 -20.5t23 -8q18 0 22.5 20.5t4.5 34.5q0 72 -2 142.5t-2 142.5q0 41 2 83t2 85 q0 59 -4 120.5t-4 121.5q0 20 2 30q4 10 10 21.5t10 21.5q16 29 26.5 63t22.5 62q16 45 34 88t34 88q20 57 40.5 112.5t41.5 111.5q16 41 29.5 85t27.5 85q6 16 18.5 43.5t12.5 44.5q0 10 -6 22l-17 10h-4q-16 2 -24 -7t-15 -23q-12 -29 -18 -63t-16 -64q-25 -74 -53.5 -154 t-59.5 -161t-62.5 -158.5t-62.5 -147.5q-41 98 -80 198.5t-78 203.5q-35 92 -68.5 185t-76.5 179q-8 4 -16.5 7t-18.5 3q-23 0 -22 -26zM262 1718l4 15q8 8 28.5 27.5t44 41t44.5 37.5t27 16q23 0 22 -22q0 -6 -18.5 -26.5t-43 -42t-47 -40t-28.5 -24.5h-23q-6 4 -10 18z " />
<glyph unicode="&#xfe;" horiz-adv-x="612" d="M37 53q0 217 1 433t1 434q0 127 5 252.5t5 254.5q0 43 -4 86t-4 86q0 14 4 18.5t8 14.5q8 8 17 8q8 0 20 -12q6 -8 10 -38.5t5 -65.5t2.5 -68t1.5 -47v-14q25 8 59.5 12t62.5 4h64q78 0 119 -25.5t58 -67.5t18.5 -97.5t1.5 -114.5q0 -33 1 -85t0 -112.5t-4.5 -124 t-12.5 -119t-25.5 -97.5t-42.5 -58q-31 -23 -82.5 -31t-89.5 -8q-35 0 -71 4t-71 8q-2 -27 -2 -51v-49q0 -86 3 -169t3 -167q0 -23 -8 -39l-27 -6q-16 6 -21 20.5t-5 30.5zM98 541q61 -12 125 -13q57 0 93 6.5t57.5 25t32 52t16.5 88.5q4 53 8 105.5t4 105.5v79.5t-1 117.5 t-3 113.5t-6 64.5q-14 39 -51 52.5t-74 13.5q-47 0 -96.5 -3.5t-96.5 -13.5q-4 -158 -6 -312.5t-2 -309.5v-156v-16z" />
<glyph unicode="&#xff;" horiz-adv-x="823" d="M4 1610q0 27 23 26q10 0 18 -3t16 -7q43 -86 77 -179t69 -185q39 -102 78 -203t80 -199q31 70 62.5 147.5t62 158.5t59.5 161t53 154q10 31 16.5 64.5t18.5 62.5q6 14 14 23t25 7h4l16 -10q6 -12 6 -22q0 -16 -12 -44t-18 -44q-14 -41 -27.5 -85t-30.5 -85 q-20 -55 -40.5 -110.5t-41.5 -113.5q-16 -45 -33.5 -88t-33.5 -88q-12 -29 -22.5 -62.5t-26.5 -62.5q-4 -10 -10.5 -21t-10.5 -22q-2 -10 -2 -30q0 -59 4 -121t4 -121q0 -43 -2 -85t-2 -83q0 -72 2 -142.5t2 -142.5q0 -14 -4 -34.5t-22 -20.5q-16 0 -23.5 8t-9.5 20.5t-2 26 v23.5v241v55.5v88.5v102v98.5t-1 76t-3 34.5q-41 102 -83 203.5t-79 204.5q-29 78 -57.5 157.5t-63.5 155.5q-2 6 -10 23.5t-16.5 37t-15.5 35t-7 19.5zM227 1712q0 16 9.5 28.5t25.5 12.5t24.5 -10t8.5 -25q0 -16 -9.5 -29.5t-25.5 -13.5t-24.5 10.5t-8.5 26.5zM418 1712 q0 16 9 28.5t26 12.5q16 0 24 -10t8 -25q0 -16 -9 -29.5t-25 -13.5t-24.5 10.5t-8.5 26.5z" />
<glyph unicode="&#x152;" horiz-adv-x="1335" d="M31 684q0 102 3 209.5t25 208.5q8 37 22.5 92t34 116.5t47 123t61.5 109.5t75 79t90 31q41 0 83 -11.5t80 -32t69.5 -49t52.5 -65.5q2 33 5 66.5t15 62.5l21 14q86 -6 171 1.5t171 7.5q29 0 56.5 1t55.5 1q12 0 23.5 -8.5t11.5 -22.5q0 -23 -21.5 -27t-37.5 -4 q-86 0 -169 -5t-169 -5h-34.5t-35.5 2q-8 -47 -8 -94v-92q0 -78 8 -155t8 -155q0 -66 -5 -132t-17 -132q18 0 68.5 -2t105.5 -3t101 -3t55 -4q23 -8 22 -25q0 -16 -13 -23t-26 -7q-74 0 -147.5 7t-147.5 1l-24 -2q-6 -35 -15.5 -73t-19.5 -77t-17.5 -76.5t-9.5 -70.5 q-4 -86 -9 -173t-1 -173l2 -60q92 4 184.5 8.5t184.5 12.5q10 0 18 1t19 1q10 0 23.5 -3t13.5 -18q0 -8 -5.5 -20t-15.5 -12q-4 0 -6 2v-2q0 -6 4 -5l-2 -4q-115 -10 -226.5 -13t-226.5 -11l-20 14q-8 16 -8 45q0 63 3 129t5 131q-16 -47 -38 -103t-51.5 -105.5t-71.5 -83 t-101 -33.5q-41 0 -72 10t-53.5 29.5t-41 46t-36.5 61.5q-29 53 -47.5 124t-28.5 145.5t-15 148.5t-5 133zM90 711q0 -55 6 -151.5t23.5 -196t49.5 -182.5t85 -113q18 -10 41.5 -15.5t46.5 -5.5q37 0 72 38t64.5 97.5t56 131t47 141t35 127t20.5 88.5q51 225 51 465 q0 41 -3 92t-13 103t-27.5 98.5t-48.5 78.5q-25 27 -71 52.5t-81 31.5q-20 4 -32 4q-16 0 -34 -2t-34 -6q-10 -6 -18.5 -13t-18.5 -11q-29 -31 -48 -68t-38 -78q-45 -94 -70.5 -178t-39 -168t-17.5 -172t-4 -188z" />
<glyph unicode="&#x153;" horiz-adv-x="1335" d="M31 684q0 102 3 209.5t25 208.5q8 37 22.5 92t34 116.5t47 123t61.5 109.5t75 79t90 31q41 0 83 -11.5t80 -32t69.5 -49t52.5 -65.5q2 33 5 66.5t15 62.5l21 14q86 -6 171 1.5t171 7.5q29 0 56.5 1t55.5 1q12 0 23.5 -8.5t11.5 -22.5q0 -23 -21.5 -27t-37.5 -4 q-86 0 -169 -5t-169 -5h-34.5t-35.5 2q-8 -47 -8 -94v-92q0 -78 8 -155t8 -155q0 -66 -5 -132t-17 -132q18 0 68.5 -2t105.5 -3t101 -3t55 -4q23 -8 22 -25q0 -16 -13 -23t-26 -7q-74 0 -147.5 7t-147.5 1l-24 -2q-6 -35 -15.5 -73t-19.5 -77t-17.5 -76.5t-9.5 -70.5 q-4 -86 -9 -173t-1 -173l2 -60q92 4 184.5 8.5t184.5 12.5q10 0 18 1t19 1q10 0 23.5 -3t13.5 -18q0 -8 -5.5 -20t-15.5 -12q-4 0 -6 2v-2q0 -6 4 -5l-2 -4q-115 -10 -226.5 -13t-226.5 -11l-20 14q-8 16 -8 45q0 63 3 129t5 131q-16 -47 -38 -103t-51.5 -105.5t-71.5 -83 t-101 -33.5q-41 0 -72 10t-53.5 29.5t-41 46t-36.5 61.5q-29 53 -47.5 124t-28.5 145.5t-15 148.5t-5 133zM90 711q0 -55 6 -151.5t23.5 -196t49.5 -182.5t85 -113q18 -10 41.5 -15.5t46.5 -5.5q37 0 72 38t64.5 97.5t56 131t47 141t35 127t20.5 88.5q51 225 51 465 q0 41 -3 92t-13 103t-27.5 98.5t-48.5 78.5q-25 27 -71 52.5t-81 31.5q-20 4 -32 4q-16 0 -34 -2t-34 -6q-10 -6 -18.5 -13t-18.5 -11q-29 -31 -48 -68t-38 -78q-45 -94 -70.5 -178t-39 -168t-17.5 -172t-4 -188z" />
<glyph unicode="&#x178;" horiz-adv-x="749" d="M-37 1610q0 27 23 26q10 0 18 -3t16 -7q43 -86 77 -179t69 -185q39 -102 78 -203t80 -199q31 70 62.5 147.5t62 158.5t59.5 161t53 154q10 31 16.5 64.5t18.5 62.5q6 14 14 23t25 7h4l16 -10q6 -12 7 -22q0 -16 -12.5 -44t-18.5 -44q-14 -41 -27.5 -85t-30.5 -85 q-20 -55 -40.5 -110.5t-40.5 -113.5q-16 -45 -34 -88t-34 -88q-12 -29 -22.5 -62.5t-26.5 -62.5q-4 -10 -10.5 -21t-10.5 -22q-2 -10 -2 -30q0 -59 4 -121t4 -121q0 -43 -2 -85t-2 -83q0 -72 2 -142.5t2 -142.5q0 -14 -4 -34.5t-22 -20.5q-16 0 -23.5 8t-9.5 20.5t-2 26 v23.5v241v55.5v88.5v102v98.5t-1 76t-3 34.5q-41 102 -83 203.5t-79 204.5q-29 78 -57.5 157.5t-63.5 155.5q-2 6 -10 23.5t-16.5 37t-15.5 35t-7 19.5zM186 1733q0 16 9.5 28.5t25.5 12.5t24.5 -10.5t8.5 -24.5q0 -16 -9.5 -29.5t-25.5 -13.5t-24.5 10t-8.5 27zM377 1733 q0 16 9 28.5t26 12.5q16 0 24 -10.5t8 -24.5q0 -16 -9 -29.5t-25 -13.5t-24.5 10t-8.5 27z" />
<glyph unicode="&#x2c6;" horiz-adv-x="346" d="M0 1731q0 14 15.5 44.5t37 61.5t43 54.5t33.5 23.5q8 0 28.5 -26.5t42 -59.5t38 -61.5t16.5 -32.5q0 -10 -8 -16.5t-19 -6.5q-10 0 -24.5 18.5t-30.5 43t-29.5 48t-19.5 33.5q-8 -10 -21.5 -33.5t-29 -48t-29.5 -43t-25 -18.5q-18 1 -18 19z" />
<glyph unicode="&#x2dc;" horiz-adv-x="626" d="M8 1737q0 20 15.5 40.5t39 36t49 24.5t48.5 9q39 0 64.5 -15t45 -34.5t41 -35t54.5 -15.5q25 0 42 14.5t30.5 30.5t24.5 30.5t21 14.5t20.5 -6t10.5 -16q0 -23 -15.5 -44.5t-39 -38t-50 -26.5t-49.5 -10q-43 0 -69.5 15t-48 33.5t-39 34t-41.5 15.5q-31 0 -49.5 -9 t-30.5 -22.5t-22.5 -28t-26.5 -24.5q-10 2 -17.5 10.5t-7.5 16.5z" />
<glyph unicode="&#x2000;" horiz-adv-x="957" />
<glyph unicode="&#x2001;" horiz-adv-x="1915" />
<glyph unicode="&#x2002;" horiz-adv-x="957" />
<glyph unicode="&#x2003;" horiz-adv-x="1915" />
<glyph unicode="&#x2004;" horiz-adv-x="638" />
<glyph unicode="&#x2005;" horiz-adv-x="478" />
<glyph unicode="&#x2006;" horiz-adv-x="319" />
<glyph unicode="&#x2007;" horiz-adv-x="319" />
<glyph unicode="&#x2008;" horiz-adv-x="239" />
<glyph unicode="&#x2009;" horiz-adv-x="383" />
<glyph unicode="&#x200a;" horiz-adv-x="106" />
<glyph unicode="&#x2010;" horiz-adv-x="782" d="M25 696q0 25 28.5 31t46.5 6q53 0 105.5 -3t105.5 -3q43 0 86 2t84 2q12 0 37 1t49.5 -2t43 -10t18.5 -24q0 -10 -10.5 -16t-23.5 -8t-26.5 -2h-19.5q-29 0 -58.5 2t-58.5 2h-113q-61 0 -121.5 -3t-121.5 -3q-14 0 -32.5 4t-18.5 24z" />
<glyph unicode="&#x2011;" horiz-adv-x="782" d="M25 696q0 25 28.5 31t46.5 6q53 0 105.5 -3t105.5 -3q43 0 86 2t84 2q12 0 37 1t49.5 -2t43 -10t18.5 -24q0 -10 -10.5 -16t-23.5 -8t-26.5 -2h-19.5q-29 0 -58.5 2t-58.5 2h-113q-61 0 -121.5 -3t-121.5 -3q-14 0 -32.5 4t-18.5 24z" />
<glyph unicode="&#x2012;" horiz-adv-x="782" d="M25 696q0 25 28.5 31t46.5 6q53 0 105.5 -3t105.5 -3q43 0 86 2t84 2q12 0 37 1t49.5 -2t43 -10t18.5 -24q0 -10 -10.5 -16t-23.5 -8t-26.5 -2h-19.5q-29 0 -58.5 2t-58.5 2h-113q-61 0 -121.5 -3t-121.5 -3q-14 0 -32.5 4t-18.5 24z" />
<glyph unicode="&#x2013;" horiz-adv-x="782" d="M25 696q0 25 28.5 31t46.5 6q53 0 105.5 -3t105.5 -3q43 0 86 2t84 2q12 0 37 1t49.5 -2t43 -10t18.5 -24q0 -10 -10.5 -16t-23.5 -8t-26.5 -2h-19.5q-29 0 -58.5 2t-58.5 2h-113q-61 0 -121.5 -3t-121.5 -3q-14 0 -32.5 4t-18.5 24z" />
<glyph unicode="&#x2014;" horiz-adv-x="956" d="M25 696q0 25 28.5 31t46.5 6q53 0 105.5 -3t105.5 -3q20 0 74.5 1t115 1t114 1t75.5 1q10 0 35 1t49.5 -2t44 -10t19.5 -24q0 -10 -10.5 -16t-23.5 -8t-26.5 -2h-19.5q-29 0 -58.5 2t-58.5 2h-322q-61 0 -121.5 -3t-121.5 -3q-14 0 -32.5 4t-18.5 24z" />
<glyph unicode="&#x2018;" horiz-adv-x="221" d="M4 1491q0 12 3 46t8 69.5t12.5 64.5t17.5 33q4 2 10 2q12 0 22.5 -9t10.5 -22q0 -41 -12.5 -91t-12.5 -101q0 -57 18.5 -103.5t18.5 -62.5q0 -10 -7 -19.5t-17 -9.5q-16 0 -29.5 26.5t-23 60.5t-14.5 68t-5 48z" />
<glyph unicode="&#x2019;" horiz-adv-x="221" d="M4 1317q0 16 18.5 62t18.5 104q0 51 -11.5 101t-11.5 91q0 12 10.5 21.5t22.5 9.5q6 0 10 -2q10 -4 17.5 -33t12.5 -64.5t7 -69.5t2 -46q0 -14 -5 -48t-14 -68t-21.5 -60.5t-28.5 -26.5q-10 0 -18.5 9.5t-8.5 19.5z" />
<glyph unicode="&#x201a;" horiz-adv-x="221" d="M4 -279q0 16 18.5 62.5t18.5 105.5q0 49 -11.5 100.5t-11.5 90.5q0 12 10.5 21.5t22.5 9.5h10q10 -4 17.5 -34t12.5 -66t7 -69.5t2 -45.5q0 -14 -5 -48t-14 -68t-21.5 -60.5t-28.5 -26.5q-10 0 -18.5 9t-8.5 19z" />
<glyph unicode="&#x201c;" horiz-adv-x="317" d="M4 1599v25l6 14q15 11 25 11q16 0 21 -14.5t5 -28.5q0 -41 2.5 -81t2.5 -81v-62v-36l-21 -21h-14l-21 23q2 63 -2 125.5t-4 125.5zM139 1599v25l6 14q15 11 25 11q16 0 21.5 -14.5t5.5 -28.5q0 -41 2 -81t2 -81v-62v-36l-21 -21h-14l-21 23q2 63 -2 125.5t-4 125.5z" />
<glyph unicode="&#x201d;" horiz-adv-x="317" d="M4 1346v36v62q0 41 2 81t2 81q0 14 5.5 28.5t23.5 14.5q12 0 22 -11l7 -14v-25q0 -63 -3.5 -125.5t-3.5 -125.5l-20 -23h-14zM139 1346v36v62q0 41 2 81t2 81q0 14 5.5 28.5t23.5 14.5q12 0 23 -11l6 -14v-25q0 -63 -3 -125.5t-3 -125.5l-21 -23h-14z" />
<glyph unicode="&#x201e;" horiz-adv-x="317" d="M4 72v24l6 17q6 4 12.5 7t12.5 3q16 0 21 -15.5t5 -29.5q0 -41 2.5 -81t2.5 -81v-61v-37l-21 -21h-14l-21 23q2 63 -2 125.5t-4 126.5zM139 72v24l6 17q6 4 12.5 7t12.5 3q16 0 21.5 -15.5t5.5 -29.5q0 -41 2 -81t2 -81v-61v-37l-21 -21h-14l-21 23q2 63 -2 125.5 t-4 126.5z" />
<glyph unicode="&#x2022;" horiz-adv-x="258" d="M-2 850q0 29 25.5 51.5t54.5 22.5q31 0 45 -20.5t14 -49.5t-16.5 -58.5t-50.5 -29.5q-31 0 -51.5 27.5t-20.5 56.5z" />
<glyph unicode="&#x2026;" horiz-adv-x="788" d="M18 59l5 2h-3h3l4 7h-4q4 18 15 32.5t32 14.5q16 0 32 -13l9 -16l2 -16q4 -20 -10 -39t-37 -19q-18 0 -30.5 14.5t-17.5 32.5zM281 59l4 2h-2h2l2 7h-4q4 18 16 32.5t33 14.5q18 0 30 -13l11 -16v-16q0 -20 -11 -39t-34 -19q-20 0 -31.5 14.5t-15.5 32.5zM532 59l5 2h-2 h2l4 7h-4q4 18 15 32.5t32 14.5q16 0 32 -13l9 -16l2 -16q4 -20 -10 -39t-37 -19q-18 0 -30.5 14.5t-17.5 32.5z" />
<glyph unicode="&#x202f;" horiz-adv-x="383" />
<glyph unicode="&#x2039;" horiz-adv-x="446" d="M2 563q0 16 27.5 50t62.5 71t70 70.5t49 50.5q10 12 24.5 30.5t30.5 18.5q25 0 25 -29q0 -14 -4 -22q-53 -59 -108.5 -115.5t-108.5 -116.5q12 -14 48 -53t73.5 -83t68.5 -82t31 -46q0 -10 -9.5 -17t-19.5 -7q-6 0 -27.5 19.5t-50 48t-60.5 63.5t-59.5 66.5t-45 54 t-17.5 28.5z" />
<glyph unicode="&#x203a;" horiz-adv-x="417" d="M-2 307q0 8 30.5 46t69.5 82t75 83t46 53q-53 59 -108.5 116t-108.5 116q-4 16 -4 22q0 29 25 29q16 0 31.5 -18.5t25.5 -30.5q14 -16 48 -50t69.5 -71t62.5 -70.5t27 -50.5q0 -6 -17.5 -28.5t-45 -54t-59.5 -66.5t-60.5 -63.5t-50 -48t-27.5 -19.5q-10 0 -19.5 7 t-9.5 17z" />
<glyph unicode="&#x205f;" horiz-adv-x="478" />
<glyph unicode="&#x20ac;" horiz-adv-x="909" d="M-4 653q0 16 24.5 25.5t55 12.5t61.5 4t43 3q4 43 8.5 86t8.5 84q-12 0 -42 -2t-61 -1t-56.5 6.5t-29.5 17.5q-4 8 -4 16q0 16 12.5 19.5t22.5 3.5q16 0 28.5 -3t26.5 -3q29 0 54.5 2t54.5 6q20 84 46.5 168t64.5 160.5t90.5 146.5t123.5 125q37 29 80 48t86 40 q14 6 27.5 13t30.5 7q10 0 20 -8t10 -18q0 -16 -18.5 -25.5t-30.5 -13.5q-76 -23 -149.5 -72t-118.5 -115q-70 -104 -126 -215.5t-79 -234.5q29 2 55.5 8t55.5 6q84 0 164.5 9.5t166.5 9.5q18 0 39 -5.5t21 -27.5q0 -10 -9.5 -16.5t-21.5 -9.5t-24.5 -4t-20.5 -1 q-111 0 -217.5 -10t-216.5 -18q-6 -43 -10 -86t-4 -86h16q96 0 190.5 11t190.5 11q16 0 33.5 -8t17.5 -29q0 -10 -8 -15t-18.5 -7t-22.5 -2h-19q-92 0 -182 -11.5t-182 -11.5h-14q6 -61 25.5 -132t51 -137.5t75.5 -125t97 -94.5q41 -29 91.5 -55.5t97.5 -39.5q12 -4 12 -12 q0 -10 -10 -23.5t-16 -23.5q-53 10 -89 32.5t-79 49.5q-72 41 -127.5 104.5t-95.5 138t-63.5 155.5t-29.5 161q-35 -4 -68.5 -10t-68.5 -6q-16 0 -31.5 4t-15.5 24z" />
<glyph unicode="&#x2122;" horiz-adv-x="1310" d="M8 1591q0 23 18.5 28t34.5 5q43 0 86 -1t84 3q4 6 19 6q8 0 18 -6q41 6 84 3t84 -3q8 0 23.5 2t31 2t27.5 -5t12 -19q0 -16 -15 -24.5t-35.5 -11.5t-41 -3h-30.5q-12 0 -23.5 4t-24.5 4q-23 0 -42 -3t-42 -3q4 -162 -4 -323t-8 -320v-6v-21.5t-1 -27t-7 -22.5t-20 -9 t-21.5 12t-7.5 25q0 139 6 275t6 275v86v56q-47 -4 -96 -4t-96 6zM602 1393v52t3 81t10.5 73.5t23.5 32.5q18 0 32.5 -26.5t18.5 -42.5q45 -141 90 -281.5t82 -284.5q88 313 197 621h4l-2 2l8 12t12 6q16 0 25.5 -20.5t9.5 -32.5q0 -98 9.5 -195.5t9.5 -195.5 q0 -78 6 -152.5t6 -152.5q0 -12 -6 -30.5t-23 -18.5q-16 0 -23.5 10t-7.5 24q0 84 -5 166t-5 166q0 66 -4 129.5t-8 128.5q-18 -51 -33.5 -103t-34.5 -106q-25 -72 -49 -147.5t-41 -151.5q-2 -8 -5 -24.5t-8 -33.5t-13.5 -29.5t-20.5 -12.5q-6 0 -14 4q-16 10 -19.5 28.5 t-7.5 35.5q-12 76 -36.5 147.5t-47.5 145.5q-18 61 -35.5 121.5t-37.5 121.5v-112v-97q0 -78 1 -156.5t1 -156.5q0 -16 -2.5 -32.5t0.5 -33.5q2 -14 -5.5 -24t-23.5 -10q-14 0 -20.5 10t-6.5 22q0 131 -2 261.5t-2 261.5z" />
<glyph unicode="&#x25fc;" horiz-adv-x="1638" d="M0 0v1638h1638v-1638h-1638z" />
<glyph unicode="&#xfb01;" horiz-adv-x="753" d="M12 702q0 162 6.5 323t20.5 323q2 41 12 91t31.5 95t56.5 74.5t88 29.5q74 0 114 -46t58.5 -111.5t20.5 -137t2 -122.5q0 -37 1 -74t1 -74q0 -16 -3 -32.5t-26 -16.5t-25.5 14.5t-2.5 30.5q0 29 2 79t1 106.5t-7.5 114.5t-21.5 106.5t-42 78t-70 29.5q-10 0 -14 -2 q-45 -10 -70.5 -52t-39 -95.5t-16.5 -109.5t-5 -93q-6 -129 -12 -256t-6 -256q51 4 102 7t102 3q14 0 28.5 -1t29.5 -1q6 -6 13 -12t7 -17q0 -12 -15.5 -18t-25.5 -6q-59 0 -119.5 -3t-121.5 -7q2 -160 4 -317t2 -314q0 -33 -29 -33q-10 0 -16.5 9t-9.5 21.5t-3 25v18.5 q0 158 -1 313.5t-1 314.5zM532 1580v36t6.5 17t16.5 12h6h10q12 0 17.5 -23t6.5 -52.5t1 -57v-37.5q0 -14 -2 -32t-25 -18q-18 0 -28 15q-2 2 -4 27.5t-3.5 55t-1.5 57.5zM537 987v54v88.5t2 83t8 42.5t18 7q20 0 25.5 -12.5t5.5 -28.5l-2 -545l2 -418q0 -53 3 -104.5 t3 -102.5q0 -16 -7 -30.5t-28 -14.5q-10 0 -16 8.5t-9 20.5t-3 24.5v18.5q0 229 -1 454.5t-1 454.5z" />
<glyph unicode="&#xfb02;" horiz-adv-x="753" d="M12 702q0 162 6.5 323t20.5 323q2 41 12 91t31.5 95t56.5 74.5t88 29.5q74 0 114 -46t58.5 -111.5t20.5 -137t2 -122.5q0 -37 1 -74t1 -74q0 -16 -3 -32.5t-26 -16.5t-25.5 14.5t-2.5 30.5q0 29 2 79t1 106.5t-7.5 114.5t-21.5 106.5t-42 78t-70 29.5q-10 0 -14 -2 q-45 -10 -70.5 -52t-39 -95.5t-16.5 -109.5t-5 -93q-6 -129 -12 -256t-6 -256q51 4 102 7t102 3q14 0 28.5 -1t29.5 -1q6 -6 13 -12t7 -17q0 -12 -15.5 -18t-25.5 -6q-59 0 -119.5 -3t-121.5 -7q2 -160 4 -317t2 -314q0 -33 -29 -33q-10 0 -16.5 9t-9.5 21.5t-3 25v18.5 q0 158 -1 313.5t-1 314.5zM537 1208v228v38.5v60.5t2 57.5t8 31.5t18 6q20 0 25.5 -12t5.5 -29l-2 -907l2 -424q0 -53 3 -104.5t3 -102.5q0 -16 -7 -30.5t-28 -14.5q-10 0 -15 8.5t-8 19.5t-4 23.5t-1 20.5q0 285 -1 565.5t-1 564.5z" />
<glyph unicode="&#xfb03;" horiz-adv-x="1198" d="M16 702q0 162 7.5 323t19.5 323q2 41 12.5 91t32 95t56 74.5t87.5 29.5q74 0 114 -46t58.5 -111.5t20.5 -137t2 -122.5q0 -37 1 -74t1 -74q0 -16 -3 -32.5t-26 -16.5t-25.5 14.5t-2.5 30.5q0 29 2 79t1 106.5t-7.5 114.5t-21.5 106.5t-42 78t-70 29.5q-10 0 -14 -2 q-47 -10 -72.5 -52t-38 -95.5t-15.5 -109.5t-5 -93q-6 -129 -12 -256t-6 -256q51 4 101 7t103 3q14 0 28.5 -1t29.5 -1l12 -12t6 -17q0 -12 -14 -18t-25 -6q-59 0 -120.5 -3t-120.5 -7q2 -160 4 -317t2 -314q0 -33 -29 -33q-10 0 -16 9t-9.5 21.5t-3.5 25v18.5 q0 158 -1 313.5t-1 314.5zM463 702q0 162 8 323t21 323q2 41 12 91t31.5 95t56.5 74.5t88 29.5q74 0 112.5 -46t57 -111.5t20.5 -137t2 -122.5q0 -37 2.5 -74t2.5 -74q0 -16 -4.5 -32.5t-26.5 -16.5q-20 0 -24.5 14.5t-4.5 30.5q0 29 2 79t1 106.5t-6 114.5t-20.5 106.5 t-43 78t-70.5 29.5q-8 0 -12 -2q-47 -10 -73 -52t-38 -95.5t-15 -109.5t-5 -93q-6 -129 -12.5 -256t-6.5 -256q51 4 101.5 7t101.5 3q16 0 29.5 -1t29.5 -1q6 -6 12.5 -12t6.5 -17q0 -12 -14.5 -18t-24.5 -6q-61 0 -121.5 -3t-120.5 -7q2 -160 3 -317t1 -314q0 -33 -28 -33 q-10 0 -15.5 9t-8.5 21.5t-3 25v18.5q0 158 -2 313.5t-2 314.5zM985 1580v36t6 17t17 12h6h10q12 0 16 -23t6.5 -52.5t1.5 -57t-1 -37.5q0 -14 -2.5 -32t-22.5 -18q-18 0 -29 15q-2 2 -4 27.5t-3 55t-1 57.5zM987 987v54v88.5t2 83t8 42.5q8 6 21 7q20 0 24.5 -12.5 t4.5 -28.5v-545v-418q0 -53 3 -104.5t3 -102.5q0 -16 -6.5 -30.5t-26.5 -14.5q-10 0 -16.5 8.5t-9.5 20.5t-3 24.5v18.5q0 229 -2 454.5t-2 454.5z" />
<glyph unicode="&#xfb04;" horiz-adv-x="1198" d="M16 702q0 162 7.5 323t19.5 323q2 41 12.5 91t32 95t56 74.5t87.5 29.5q74 0 114 -46t58.5 -111.5t20.5 -137t2 -122.5q0 -37 1 -74t1 -74q0 -16 -3 -32.5t-26 -16.5t-25.5 14.5t-2.5 30.5q0 29 2 79t1 106.5t-7.5 114.5t-21.5 106.5t-42 78t-70 29.5q-10 0 -14 -2 q-47 -10 -72.5 -52t-38 -95.5t-15.5 -109.5t-5 -93q-6 -129 -12 -256t-6 -256q51 4 101 7t103 3q14 0 28.5 -1t29.5 -1l12 -12t6 -17q0 -12 -14 -18t-25 -6q-59 0 -120.5 -3t-120.5 -7q2 -160 4 -317t2 -314q0 -33 -29 -33q-10 0 -16 9t-9.5 21.5t-3.5 25v18.5 q0 158 -1 313.5t-1 314.5zM463 702q0 162 8 323t21 323q2 41 12 91t31.5 95t56.5 74.5t88 29.5q74 0 112.5 -46t57 -111.5t20.5 -137t2 -122.5q0 -37 2.5 -74t2.5 -74q0 -16 -4.5 -32.5t-26.5 -16.5q-20 0 -24.5 14.5t-4.5 30.5q0 29 2 79t1 106.5t-6 114.5t-20.5 106.5 t-43 78t-70.5 29.5q-8 0 -12 -2q-47 -10 -73 -52t-38 -95.5t-15 -109.5t-5 -93q-6 -129 -12.5 -256t-6.5 -256q51 4 101.5 7t101.5 3q16 0 29.5 -1t29.5 -1q6 -6 12.5 -12t6.5 -17q0 -12 -14.5 -18t-24.5 -6q-61 0 -121.5 -3t-120.5 -7q2 -160 3 -317t1 -314q0 -33 -28 -33 q-10 0 -15.5 9t-8.5 21.5t-3 25v18.5q0 158 -2 313.5t-2 314.5zM987 1217v227v40.5t1 59.5t3 57.5t6 32.5q6 4 21 4q18 0 23.5 -11t5.5 -28v-917v-424q0 -53 3 -104.5t3 -102.5q0 -16 -6.5 -30.5t-26.5 -14.5q-10 0 -16.5 8.5t-9.5 19.5t-3 23.5v20.5q0 287 -2 569.5 t-2 569.5z" />
</font>
</defs>
</svg>
