<?xml version="1.0" standalone="no"?>
<!DOCTYPE svg PUBLIC "-//W3C//DTD SVG 1.1//EN" "http://www.w3.org/Graphics/SVG/1.1/DTD/svg11.dtd" >
<svg xmlns="http://www.w3.org/2000/svg">
<metadata></metadata>
<defs>
<font id="ta_have_a_nice_daybold" horiz-adv-x="841" >
<font-face units-per-em="2048" ascent="1638" descent="-410" />
<missing-glyph horiz-adv-x="452" />
<glyph horiz-adv-x="0" />
<glyph unicode="&#xd;" horiz-adv-x="0" />
<glyph horiz-adv-x="0" />
<glyph horiz-adv-x="0" />
<glyph unicode=" "  horiz-adv-x="452" />
<glyph unicode="&#x09;" horiz-adv-x="452" />
<glyph unicode="&#xa0;" horiz-adv-x="452" />
<glyph unicode="!" horiz-adv-x="344" d="M53 752q0 182 6.5 363t6.5 366q0 16 -1.5 41.5t2 49t15.5 40t41 16.5q37 0 49 -30.5t12 -61.5q0 -211 -6 -419t-6 -419q0 -80 1 -159.5t3 -159.5q0 -18 -5 -36.5t-17 -31.5q-18 -14 -35 -14q-37 0 -48.5 28.5t-11.5 57.5q0 92 -3 184.5t-3 184.5zM57 95.5v37.5 q0 31 11.5 56.5t50.5 25.5q25 0 39 -15.5t20 -38t7 -48t1 -43.5q0 -35 -19 -54.5t-54 -19.5q-23 0 -34 16.5t-16.5 38t-5.5 45z" />
<glyph unicode="&#x22;" horiz-adv-x="509" d="M16 1563q0 31 12.5 55t47.5 24q33 0 46 -22.5t13 -50.5q0 -41 2 -82t2 -82v-47v-41l-10 -21l-20 -20l-23 -8h-12l-23 8l-20 20l-11 23q2 61 -1 122.5t-3 121.5zM223 1563q0 31 12.5 55t49.5 24q31 0 44 -22.5t13 -50.5q0 -41 2 -82t2 -82v-47v-41l-10 -21l-21 -20l-20 -8 h-14l-23 8l-20 20l-9 23q2 61 -2 122.5t-4 121.5z" />
<glyph unicode="#" horiz-adv-x="1261" d="M10 70q0 16 15.5 66t37.5 114q20 61 42 122.5t34 96.5l8 16h-36q-16 0 -35 4.5t-33 12.5t-23.5 21.5t-9.5 35.5q0 25 18.5 36t43 15t49 3t41.5 -1q6 0 12 -1t10 1l9 17q35 92 66.5 181t66.5 181l8 17q-23 0 -46.5 -1t-47.5 -3q-25 -2 -48.5 12t-25.5 43q-4 35 23.5 50 t56.5 17h48t85 2l8 19q47 104 82 212.5t78 215.5q6 16 17 36.5t28 26.5q2 2 9 4.5t9 2.5q27 0 47.5 -11.5t20.5 -46.5q0 -4 -11.5 -36.5t-28.5 -80t-38.5 -103.5t-40 -105.5t-33 -86t-18.5 -47.5h31h303h26q47 111 86 223.5t84 223.5q6 16 16.5 36.5t26.5 26.5q2 2 9.5 4.5 t9.5 2.5q29 0 48 -11.5t19 -46.5q0 -4 -11 -36.5t-28.5 -80t-38 -103.5t-40 -105.5t-34 -86t-18.5 -47.5q20 2 40 4.5t40 2.5q29 0 57.5 -14.5t28.5 -49.5q0 -29 -22.5 -43t-48.5 -14q-35 0 -70 -1t-70 -3q-39 -98 -75.5 -196.5t-71.5 -199.5q16 0 31.5 -1t31.5 -1t43 1 t52.5 -3t44 -15t18.5 -36q0 -23 -10 -37t-26.5 -22t-35 -11.5t-36.5 -3.5q-41 0 -78 3.5t-76 3.5q-12 -35 -32.5 -91.5t-41 -117t-37 -114.5t-22.5 -85q-4 -29 -22.5 -54.5t-47.5 -25.5q-27 0 -44 19.5t-17 46.5q0 16 18.5 74.5t42 127t46 132t30.5 88.5q-23 0 -45.5 1 t-44.5 1h-98.5t-100.5 -5l-76 -4q-12 -35 -32.5 -90t-40 -114.5t-36 -112.5t-22.5 -84q-4 -29 -22.5 -54.5t-48.5 -25.5q-27 0 -43.5 19.5t-16.5 46.5zM315 608l64 2q74 4 148.5 3t148.5 -5q35 102 71.5 201t75.5 201q-53 0 -105 3t-106 1l-149 -4q-41 -98 -77 -199.5 t-71 -202.5z" />
<glyph unicode="$" horiz-adv-x="825" d="M12 377q0 27 16.5 48t45.5 21q20 0 39.5 -18t19.5 -41q0 -78 36 -145.5t114 -96.5v125q0 133 -3.5 263.5t-3.5 261.5v77q-29 25 -61.5 42.5t-60.5 46.5q-66 59 -97.5 145t-31.5 174q0 61 20.5 120.5t57 107.5t87 83t111.5 51q0 18 2 38t9 36.5t20.5 27.5t36.5 11 q29 0 44 -20.5t15 -46.5q0 -18 -2 -29q39 -2 80 -19.5t73.5 -45t54 -64.5t21.5 -78q0 -25 -11 -53.5t-42 -28.5t-42 22.5t-23.5 51.5t-36 54.5t-80.5 29.5q-10 -147 -11 -294t-6 -294q63 -53 114.5 -109.5t88.5 -121t56.5 -138t19.5 -161.5q0 -68 -17.5 -133.5t-52 -120 t-87 -93t-122.5 -55.5q0 -16 1.5 -43.5t-3 -53.5t-16.5 -44.5t-39 -18.5q-45 0 -55 32t-10 67v59q-63 14 -113.5 50t-84.5 86.5t-52.5 110.5t-18.5 124zM152 1284q0 -86 29.5 -147.5t101.5 -108.5q2 121 4 238.5t6 236.5q-70 -29 -105.5 -86t-35.5 -133zM401 684 q0 -135 2.5 -269t2.5 -270q41 12 70.5 41t48 65t26.5 77t8 82q0 104 -43 195t-115 161v-82z" />
<glyph unicode="%" horiz-adv-x="1042" d="M10 1194q0 84 36 162t114 119q16 8 36.5 16t36.5 8q53 0 89 -25.5t58.5 -64.5t32 -86t9.5 -90q0 -45 -11.5 -96.5t-35 -95.5t-62.5 -72.5t-94 -28.5t-94 21.5t-64.5 56.5t-38 81t-12.5 95zM129 1192q0 -18 3 -42t11.5 -43.5t23.5 -33.5t40 -14q31 0 50 19.5t28.5 48 t12.5 59.5t3 55q0 12 -3 33.5t-9 43t-16.5 39t-24.5 23.5q-72 -23 -95.5 -69.5t-23.5 -118.5zM201 59q0 14 5 24.5t9 22.5q29 80 47.5 165t40.5 169q51 207 110.5 407t123.5 404q29 86 51 177.5t59 175.5q14 34 47 34q23 0 43.5 -19.5t20.5 -41.5q0 -12 -11.5 -54 t-29 -100.5t-38 -126t-39.5 -128t-35.5 -107.5t-22.5 -66q-31 -80 -51.5 -163.5t-43.5 -167.5q-31 -123 -63.5 -246t-67.5 -246q-6 -20 -11 -50t-15.5 -56.5t-27.5 -46t-46 -19.5q-23 0 -39 18.5t-16 40.5zM496 254q0 47 15 101.5t44 100.5t72 75.5t98 29.5q51 0 87 -25.5 t56.5 -63.5t29.5 -85t9 -90q0 -45 -10 -97.5t-34.5 -96.5t-63.5 -72.5t-94 -28.5q-53 0 -92.5 21.5t-66 56.5t-38.5 81t-12 93zM614 258q0 -18 3.5 -41.5t11.5 -45t23.5 -36t39.5 -14.5q31 0 49.5 19.5t28.5 47t13 57t3 52.5q0 10 -3 34.5t-9 49.5t-16 43t-25 18 q-8 0 -15 -3t-13 -7q-53 -25 -72 -73t-19 -101z" />
<glyph unicode="&#x26;" horiz-adv-x="1007" d="M0 504q0 152 77 277.5t191 228.5q-25 53 -46 94t-37.5 82t-25.5 87t-9 107q0 127 61 193.5t197 66.5q51 0 102 -16t92 -47t65.5 -75t24.5 -99q0 -59 -26.5 -117.5t-67.5 -114t-89 -104.5t-89 -86l293 -649q8 35 20 58.5t45 21.5q35 -4 48.5 -23.5t13.5 -52.5 q-2 -27 -9 -55q-4 -25 -12 -53.5t-22 -57.5l-4 -8q14 -29 26 -57.5t10 -45.5q-4 -25 -23.5 -41t-45.5 -12q-25 2 -36 16.5t-19 32.5l-13 -6q-37 -27 -81 -38t-91 -11t-96 8t-96 19q-53 12 -103.5 49t-92.5 86t-72.5 104.5t-43.5 104.5q-16 70 -16 133zM125 502 q0 -43 14.5 -95.5t40 -100.5t61 -88t78.5 -60q35 -16 88.5 -26.5t92.5 -10.5q41 0 69.5 8t46.5 18q23 11 37 25l-329 719q-41 -35 -78 -80t-63.5 -96t-42 -105.5t-15.5 -107.5zM274 1384q0 -82 27 -149.5t61 -138.5q27 23 62 58.5t66.5 77.5t53 85t21.5 80q0 59 -49 95 t-106 36q-78 0 -107 -36t-29 -108z" />
<glyph unicode="'" horiz-adv-x="305" d="M16 1563q0 31 12.5 55t47.5 24q33 0 46 -22.5t13 -50.5q0 -41 2 -82t2 -82v-47v-41l-10 -21l-20 -20l-23 -8h-12l-23 8l-20 20l-11 23q2 61 -1 122.5t-3 121.5z" />
<glyph unicode="(" horiz-adv-x="600" d="M31 877q0 141 47 278q4 10 7 21.5t7 21.5q14 61 37 124.5t54.5 121t74.5 106.5t100 82q4 2 14.5 5t14.5 3q27 0 44.5 -15t17.5 -42q0 -16 -7 -29q-6 -8 -23.5 -23t-40 -34.5t-45 -43t-36.5 -48.5q-33 -53 -59.5 -124t-45 -147.5t-28.5 -151.5t-10 -136q0 -160 41 -329 t120 -308q16 -31 37 -57.5t41 -55.5q10 -14 10 -37q0 -14 -8 -30l-18 -17l-27 -10h-24q-29 14 -45.5 37.5t-32.5 48.5q-55 82 -96 179.5t-68 199.5t-40 207t-13 203z" />
<glyph unicode=")" horiz-adv-x="600" d="M31 1583q0 27 18.5 42t42.5 15q4 0 14.5 -3t14.5 -5q57 -33 100 -82t76 -106.5t54.5 -120.5t37.5 -125q4 -10 7 -21.5t7 -21.5q23 -68 34.5 -137t11.5 -141q0 -98 -13.5 -203t-40 -207t-67.5 -199.5t-97 -179.5q-16 -25 -31.5 -48.5t-43.5 -37.5h-27l-27 10l-16 17 q-4 6 -6 15t-2 15q0 23 10 37q18 29 40 55.5t38 57.5q80 139 120 308t40 329q0 61 -10.5 136t-29 151.5t-45 147.5t-59.5 124q-16 25 -37.5 48.5t-43 43t-39 34.5t-23.5 23q-4 6 -6 14.5t-2 14.5z" />
<glyph unicode="*" horiz-adv-x="786" d="M2 1284q0 27 25.5 40t60.5 16t70 2t53 -1q-6 14 -17.5 43t-22.5 61t-20.5 60.5t-9.5 44.5q0 23 12.5 41.5t39.5 18.5t43 -18.5t27 -44t18.5 -53.5t13.5 -48q6 18 16.5 46t23.5 52.5t30.5 43t42.5 18.5t39 -16.5t14 -41.5q0 -16 -9.5 -43.5t-21.5 -58.5t-24.5 -58.5 t-20.5 -46.5h76q18 0 36.5 2.5t37.5 2.5q29 0 59.5 -15.5t30.5 -50.5q0 -20 -13.5 -31.5t-32 -17.5t-39 -7t-34.5 -1q-23 0 -43.5 2t-42.5 2q-10 0 -20.5 -1t-20.5 -1q6 -14 19.5 -43t26.5 -60.5t23.5 -59.5t10.5 -38q0 -23 -6.5 -33t-15.5 -15t-21.5 -7t-24.5 -6l-39 12 q-18 31 -29.5 64.5t-27.5 64.5q-4 -14 -13.5 -42t-22.5 -54.5t-31.5 -46t-39.5 -19.5q-25 0 -38 20.5t-13 43.5q0 16 10.5 46.5t23.5 63.5t25.5 62.5t16.5 42.5q-23 -2 -57.5 -5.5t-69.5 1t-59.5 18.5t-24.5 49z" />
<glyph unicode="+" horiz-adv-x="1071" d="M18 705q0 20 11.5 32.5t28 18.5t35 7t34.5 1h289l2 80q0 18 -1 59t-2 85t0 81t7 49q8 16 21.5 23.5t29.5 7.5q35 0 48.5 -24.5t13.5 -53.5l-3 -307h89q20 0 61 1t84 1t80 -1t49 -7q31 -16 31 -51t-23.5 -47.5t-54.5 -12.5h-316q0 -86 3.5 -170t3.5 -170q0 -27 -17.5 -46 t-44.5 -19q-20 0 -32.5 10t-18.5 26.5t-8 34t-2 33.5v301q-82 0 -164 -2t-164 -2q-29 0 -49.5 16.5t-20.5 45.5z" />
<glyph unicode="," horiz-adv-x="305" d="M25 162q0 23 13 37t36 14q35 0 55.5 -23.5t30.5 -56.5t13 -68.5t3 -62.5q0 -37 -5 -72.5t-9 -72.5q-2 -29 -11.5 -53.5t-39.5 -34.5q-4 -2 -17 -2q-23 0 -42 16t-19 43q0 43 11 88t11 90q0 47 -15 86t-15 72z" />
<glyph unicode="-" horiz-adv-x="876" d="M8 715q0 23 12.5 36t31 20t40 9t37.5 2q55 0 110.5 -2t110.5 -2q45 0 88 2t88 2h51t66 -5t56.5 -19.5t23.5 -40.5q0 -23 -14.5 -34t-34 -16t-42 -6.5t-36.5 -1.5q-35 0 -68.5 2.5t-68.5 2.5q-90 0 -178 -3.5t-179 -3.5q-12 0 -28.5 2.5t-30.5 8.5t-24.5 17t-10.5 30z" />
<glyph unicode="." horiz-adv-x="239" d="M-20 57l4 17l-2 2q4 25 22.5 43t46.5 18q29 0 46.5 -18.5t17.5 -46.5q0 -29 -18.5 -52.5t-49.5 -23.5q-27 0 -45 18.5t-22 42.5z" />
<glyph unicode="/" horiz-adv-x="630" d="M2 63q0 33 12.5 72t18.5 72q25 123 55.5 241.5t63.5 237.5q41 154 79.5 305.5t85.5 304.5q6 18 16.5 67.5t23 102t22.5 95.5t14 51q23 27 51 26q27 0 43.5 -17t16.5 -44q0 -25 -14.5 -85t-33 -130t-37 -132.5t-26.5 -90.5q-25 -88 -49.5 -175t-44.5 -178 q-25 -117 -59.5 -229.5t-63.5 -226.5q-18 -70 -26.5 -139.5t-28.5 -137.5q-8 -23 -25.5 -38t-42.5 -15t-38 20t-13 43z" />
<glyph unicode="0" horiz-adv-x="835" d="M20 696v11v270q0 55 4.5 127t15.5 147.5t33.5 148.5t59.5 131t91.5 93t127.5 35q74 0 126 -34t89 -90t59.5 -128t35 -145.5t16.5 -144t4 -124.5v-291q0 -55 -4 -126.5t-15.5 -147.5t-33 -148.5t-58 -131t-91 -93.5t-128.5 -35t-127 35t-90 92.5t-59.5 130t-34.5 147.5 t-16.5 145.5t-4.5 125.5zM143 692q0 -33 2 -85t9.5 -113.5t21.5 -124t37 -112.5t55.5 -82t77.5 -32q35 0 59.5 10.5t47.5 39.5q43 53 66.5 147t34.5 200.5t12 208t1 169.5q0 55 -5 135t-17.5 161.5t-34 155.5t-55.5 117q-25 29 -53.5 39t-63.5 10q-43 0 -74 -33t-53.5 -84 t-34.5 -113.5t-20.5 -124t-10.5 -113.5t-2 -81v-39v-256z" />
<glyph unicode="1" horiz-adv-x="446" d="M-2 1432q0 23 12.5 37t30.5 20q29 10 58.5 34.5t57 50t50 45t37.5 19.5q27 0 44 -18t17 -45q0 -10 -2 -21.5t-4 -21.5q-8 -76 -14 -151.5t-6 -149.5q0 -137 2 -273.5t2 -271.5q0 -137 -5.5 -273.5t-5.5 -273.5v-80l-4 -6q-2 -23 -16 -38t-37 -15q-31 0 -48 21.5t-17 50.5 v250q0 92 3 183t3 183v368.5t8 368.5q-20 -12 -51 -31.5t-56 -19.5t-42 17.5t-17 40.5z" />
<glyph unicode="2" horiz-adv-x="872" d="M29 94q0 39 12 75t22 73q31 102 70 170.5t85 126t96.5 112t101.5 127.5q43 61 76.5 119.5t58 118t38 123t13.5 139.5q0 37 -4 77t-17.5 73.5t-38 58t-65.5 35.5q-59 0 -96 -22.5t-58.5 -56.5t-34 -73t-23.5 -72.5t-27.5 -56t-44.5 -22.5q-23 0 -39.5 18t-16.5 41 q0 18 7.5 36.5t13.5 37.5q20 59 45.5 112.5t62.5 92t88.5 61t122.5 22.5q23 0 41 -6q59 -18 99 -57t65 -89t35 -107.5t10 -112.5q0 -84 -18.5 -165t-52 -159t-79 -149.5t-100.5 -135.5q-23 -25 -56.5 -67.5t-68.5 -87.5t-64.5 -86t-41.5 -64q-29 -53 -55.5 -111.5 t-34.5 -117.5q78 2 155.5 1t155.5 -1q23 0 65.5 4t86 1t75 -16.5t31.5 -45.5q0 -25 -12.5 -38.5t-29.5 -17.5t-37.5 -4h-37.5q-29 0 -58.5 -1t-57.5 -1h-220q-45 0 -90 -3t-90 -3q-39 0 -51 31.5t-12 62.5z" />
<glyph unicode="3" horiz-adv-x="757" d="M0 324q0 33 11.5 51t45.5 22q29 2 42.5 -17.5t20.5 -51t13 -68.5t22.5 -69.5t47 -54t88.5 -21.5q45 0 87 26.5t71 59.5q39 43 44 89t5 101v74t-6.5 86t-19.5 81t-40 56q-16 12 -39.5 16.5t-46.5 4.5q-16 0 -44 -2t-54.5 1t-46 15t-19.5 41q0 33 22.5 45t51.5 12t72 11.5 t65 29.5q29 20 50.5 81t36 132.5t21.5 139t7 102.5q0 37 -6 73.5t-21.5 66.5t-44 49.5t-71.5 19.5q-88 0 -149.5 -53.5t-61.5 -139.5q0 -16 -1 -35.5t-7.5 -36t-18.5 -27.5t-37 -11q-31 0 -43 24.5t-12 50.5q0 74 20.5 136.5t60.5 108.5t100 71.5t140 25.5q74 0 126.5 -25.5 t84 -68.5t47 -101t15.5 -124q0 -49 -8.5 -125t-25.5 -154.5t-44 -147.5t-62 -103q49 -35 76 -81t40 -99.5t15.5 -110t2.5 -111.5q0 -68 -9.5 -119t-33 -92t-62.5 -74.5t-98 -68.5q-31 -18 -67 -26.5t-70 -8.5q-68 0 -120 26.5t-88 71.5t-55.5 103.5t-19.5 122.5z" />
<glyph unicode="4" horiz-adv-x="768" d="M20 776q0 23 10.5 45.5t20.5 42.5l15 43q6 8 8 17q49 104 96 206.5t88 210.5q29 72 59.5 143.5t77.5 137.5l25 14l33 4l26 -8q16 -12 23.5 -30.5t7.5 -38.5q0 -123 7 -243t7 -243q0 -33 -4 -63.5t-2 -65.5l6 -129h64q27 0 42 -18t15 -45q0 -25 -20.5 -39.5t-42.5 -18.5 l-66 -2l4 -47l4 -121v-51v-147.5t4 -147.5q2 -25 6.5 -49t4.5 -49q0 -29 -13.5 -56.5t-50.5 -27.5q-35 0 -53.5 23.5t-18.5 52.5q0 113 -7 225.5t-7 226.5v170q-41 2 -67.5 2h-67.5q-29 0 -53.5 -3t-53.5 -3q-18 0 -40.5 3t-42 12.5t-32 25t-12.5 41.5zM176 825 q55 -4 104.5 -5t104.5 -1l4 119v98v135.5t-2 137.5q-47 -113 -101.5 -221.5t-95.5 -223.5z" />
<glyph unicode="5" horiz-adv-x="735" d="M0 330q0 29 11.5 52.5t43.5 23.5q27 0 40.5 -16.5t19.5 -40t6 -49.5t4 -42q12 -59 50 -98t99 -39q27 0 53.5 7t47.5 24q33 29 51 88t29.5 127.5t14.5 135t5 109.5q2 45 -2 85t-21.5 69t-50 45t-88.5 14q-49 0 -76.5 -19.5t-46 -42t-37 -40.5t-49.5 -21q-35 -2 -48 27 t-13 57q0 80 -1 181.5t-2 208t-2 207t-1 180.5q0 33 14.5 52t48.5 19q25 0 50.5 -2t50.5 -2q141 0 280 6q16 0 30.5 2t29.5 2q29 0 52 -13t23 -46t-23.5 -48t-51.5 -15q-98 0 -192.5 -3.5t-190.5 -5.5q-2 -20 -2 -39.5v-39.5q0 -45 1 -119t2 -153t3 -152.5t4 -118.5 q31 20 67 33q31 10 73 15t89 -5q72 -16 112 -45t59.5 -70t23.5 -94t4 -119q0 -47 -3 -83t-7 -83q-6 -72 -20.5 -149.5t-47.5 -141t-90 -104.5t-150 -41q-70 0 -121 27.5t-85.5 73.5t-52 105.5t-17.5 123.5z" />
<glyph unicode="6" horiz-adv-x="843" d="M0 596q0 57 4 140t13.5 178.5t25.5 194.5t39.5 189.5t55.5 164t73 116.5q37 39 79 50t93 11q41 0 81 -19t71.5 -52t51 -73t19.5 -81q0 -23 -10 -41t-37 -18q-35 0 -49 23.5t-28.5 52t-35 56.5t-63.5 38h-8q-16 0 -41 -7.5t-39 -21.5q-25 -25 -45.5 -75t-37.5 -115.5 t-30.5 -138t-24 -141.5t-16.5 -128t-10 -96q20 27 51 53.5t66 46t71.5 31.5t71.5 12q109 0 173.5 -50t98 -126t44 -167t10.5 -173q0 -74 -16.5 -150.5t-54.5 -139t-102.5 -101.5t-158.5 -39q-125 0 -200.5 58.5t-116.5 147.5t-54.5 193.5t-13.5 196.5zM129 444 q0 -98 39 -183t125 -122q47 -20 70.5 -18t46.5 2q61 0 99 30.5t57.5 75.5t25.5 98.5t6 100.5q0 53 -4 121.5t-23.5 130t-61.5 103.5t-116 42q-63 0 -112.5 -38.5t-83 -97t-51 -125t-17.5 -120.5z" />
<glyph unicode="7" horiz-adv-x="813" d="M10 1577q0 29 19.5 42t44.5 13q125 0 250 3t249 3q29 0 73 -2t71 -14l16 -20l8 -27l-2 -25q-16 -27 -34.5 -42t-38.5 -35q-39 -35 -72 -76t-64 -84q-37 -53 -74.5 -111.5t-60.5 -118.5q-74 -195 -118 -402.5t-44 -416.5q0 -49 4.5 -99t4.5 -97q0 -29 -18.5 -48.5 t-47.5 -19.5t-42 23.5t-18 54.5t-5 63.5v51.5q0 35 1 67.5t3 67.5q10 168 34.5 327.5t73.5 310t128 290t198 266.5q-117 0 -232.5 -3t-232.5 -3q-27 0 -50.5 16t-23.5 45z" />
<glyph unicode="8" horiz-adv-x="835" d="M23 549q4 63 11 107t24.5 80t45 68t74.5 73q-33 27 -54.5 78t-34.5 109t-18 115.5t-5 98.5q0 39 5 78t15 76q12 43 39 80.5t63.5 66.5t80.5 45t89 16t88 -16t80 -45t64.5 -65.5t40.5 -79.5q12 -37 16 -75t4 -77q0 -41 -5 -98.5t-18.5 -116.5t-35 -111.5t-53.5 -78.5 q55 -33 84.5 -69t44 -76t18.5 -86t8 -99q6 -78 -8 -173t-52 -178t-104.5 -139.5t-167.5 -56.5q-104 0 -171.5 55.5t-106.5 138t-53.5 179t-7.5 176.5zM139 559q0 -51 8.5 -126t31 -144.5t65.5 -118.5t112 -49q72 0 117 49t69.5 119.5t32 146.5t3.5 129q-8 92 -36 144.5 t-57 78.5q-37 31 -77 39q-8 -2 -14.5 -3t-14.5 -1h-4h-27h-4q-10 0 -17.5 1t-15.5 3q-66 -8 -100.5 -50t-50.5 -91q-18 -57 -21 -127zM186 1288q0 -47 6.5 -106.5t25 -112.5t52 -90t88.5 -37t89 37t52.5 90t24.5 112.5t6 106.5q0 37 -9 78t-29.5 76t-51 57.5t-75.5 22.5 q-49 0 -83 -20.5t-55.5 -54.5t-31 -76t-9.5 -83z" />
<glyph unicode="9" horiz-adv-x="804" d="M20 1114q0 96 20.5 190.5t68 169t123 120.5t188.5 46q76 0 126 -48t77.5 -117.5t38 -147.5t10.5 -135q-2 -74 -2 -135q-2 -53 -2 -99.5v-54.5q0 -61 -3 -133t-8.5 -143.5t-13.5 -143t-16 -133.5q-10 -68 -29.5 -130t-54.5 -111.5t-89.5 -79t-131.5 -29.5 q-63 0 -106.5 17.5t-72 48t-46 75.5t-29.5 101q-4 12 -6.5 24.5t-2.5 22.5q0 27 14.5 44t41.5 17t41 -17.5t22 -42t14.5 -55t20.5 -55t40 -42t71 -17.5q29 0 59.5 12t50.5 35q31 35 50.5 117t31.5 175t18.5 180t8.5 136q-37 -41 -91.5 -58.5t-107.5 -17.5q-92 0 -153.5 36 t-99.5 94.5t-54.5 133t-16.5 150.5zM141 1122q0 -51 7.5 -103t29 -95t61.5 -70t105 -27q74 0 115 32t61.5 81t25.5 107.5t5 111.5q0 41 -4 102.5t-19.5 120t-47 100.5t-87.5 42q-72 0 -120 -42t-77.5 -103.5t-42 -131t-12.5 -125.5z" />
<glyph unicode=":" horiz-adv-x="319" d="M27 95.5v37.5q0 31 11 56.5t50 25.5q25 0 39 -15.5t20.5 -38t7.5 -48t1 -43.5q0 -35 -19.5 -54.5t-54.5 -19.5q-23 0 -34 16.5t-16 38t-5 45zM27 1068v38q0 27 10 54.5t45 27.5q27 0 42 -15.5t22.5 -37t8.5 -46t1 -45.5q0 -35 -19.5 -55t-54.5 -20q-23 0 -34 16t-16 37.5 t-5 45.5z" />
<glyph unicode=";" horiz-adv-x="319" d="M25 162q0 23 13 37t36 14q35 0 55.5 -23.5t30.5 -56.5t13 -68.5t3 -62.5q0 -37 -5 -72.5t-9 -72.5q-2 -29 -11.5 -53.5t-39.5 -34.5q-4 -2 -17 -2q-23 0 -42 16t-19 43q0 43 11 88t11 90q0 47 -15 86t-15 72zM27 1068v38q0 27 10 54.5t45 27.5q27 0 42 -15.5t22.5 -37 t8.5 -46t1 -45.5q0 -35 -19.5 -55t-54.5 -20q-23 0 -34 16t-16 37.5t-5 45.5z" />
<glyph unicode="&#x3c;" horiz-adv-x="843" d="M14 565q0 29 18.5 46.5t41.5 33.5q16 10 59 44t99.5 77t119 90t117.5 86t96 64.5t56 25.5q23 0 41 -15t18 -38q0 -18 -12.5 -35.5t-29.5 -32t-36.5 -26t-32.5 -19.5q-47 -29 -98 -66.5t-102.5 -78.5t-102.5 -81t-96 -75q106 -72 215 -154.5t219 -146.5q20 -10 40 -25.5 t28 -37.5q6 -12 6 -27q0 -23 -13.5 -35t-33.5 -12q-25 0 -51.5 13.5t-47.5 25.5q-16 10 -58 38.5t-96 64.5t-112.5 77t-109 77t-86 62.5t-41.5 36.5q-14 20 -15 43z" />
<glyph unicode="=" horiz-adv-x="835" d="M20 436q0 31 31 45q4 2 34 4t72 3t92 1t96 1.5t82 1.5h52q18 0 48 1t56.5 -3.5t46 -17.5t19.5 -44q0 -33 -27.5 -44t-54.5 -11q-117 0 -234.5 -3t-234.5 -3q-31 0 -54.5 18t-23.5 51zM20 705q0 31 31 45q4 2 34 4t72 3t91 1t95 1t82 1h52q20 0 49 1t56.5 -3t47 -17.5 t19.5 -44.5q0 -33 -27.5 -44t-54.5 -11q-117 0 -234.5 -3t-234.5 -3q-31 0 -54.5 18.5t-23.5 51.5z" />
<glyph unicode="&#x3e;" horiz-adv-x="843" d="M14 979q0 23 18.5 38t41.5 15q14 0 55 -25.5t96.5 -64.5t118 -86t118.5 -90t100 -76t61 -45q20 -14 38.5 -32.5t18.5 -47.5q0 -23 -14 -43q-6 -8 -42 -35.5t-86.5 -63.5t-108.5 -77t-112.5 -77t-96.5 -64.5t-58 -38.5q-20 -12 -47 -25.5t-52 -13.5q-20 0 -33.5 12.5 t-13.5 34.5q0 14 7 27q8 23 27.5 38t39.5 25q111 63 219.5 146.5t214.5 154.5q-92 70 -197.5 156t-201.5 145q-12 8 -31.5 19.5t-37 26t-30 32t-12.5 35.5z" />
<glyph unicode="?" horiz-adv-x="782" d="M6 1325q0 152 85 234.5t235 82.5q63 0 122.5 -18t105.5 -54t74.5 -89.5t28.5 -120.5q0 -72 -35.5 -142.5t-90 -134t-119 -116t-119.5 -86.5q-8 -6 -25.5 -18.5t-37 -27t-35 -27.5t-21.5 -20q-12 -16 -16 -53t-4 -57q0 -55 8 -114.5t8 -106.5q0 -29 -15.5 -47.5 t-43.5 -18.5q-41 0 -56.5 27.5t-15.5 62.5q0 53 -3 103.5t-3 103.5v32.5t2 33.5q6 72 52 114.5t101 77.5q49 31 109.5 77t113 100.5t88.5 115.5t36 127q0 49 -39 94t-86 62q-12 4 -44 6t-47 2q-68 0 -104.5 -19.5t-55 -48t-23.5 -63.5t-10 -63.5t-17.5 -48t-45.5 -19.5 q-25 0 -41 16t-16 41zM49 159q2 36 2 58q0 29 15.5 52.5t48.5 23.5q27 0 39 -21.5t16 -50t4 -58.5v-48q0 -14 -1 -33t-7 -36t-17.5 -29.5t-31.5 -12.5q-33 0 -47.5 25.5t-18.5 59.5t-2 70z" />
<glyph unicode="@" horiz-adv-x="1325" d="M0 633q0 61 7 121.5t22 119.5q25 113 54.5 210.5t74.5 182.5t109.5 162.5t160.5 151.5q27 20 61.5 31.5t73.5 17.5t77 7t69 1q236 0 340 -112.5t104 -341.5q0 -92 -20.5 -175t-47.5 -171q-18 -57 -42.5 -138.5t-63.5 -155t-93.5 -125.5t-131.5 -52q-66 0 -96.5 47 t-34.5 106q-47 -45 -102.5 -81t-123.5 -36q-61 0 -103 31t-66.5 77t-35 102.5t-10.5 105.5q0 82 25.5 177t77 175t126 133t171.5 53q43 0 95 -18t83 -49l10 4l27 2l14 -6l16 -14l13 -25l4 -23q-12 -53 -29.5 -133t-33 -165t-27 -163.5t-11.5 -129.5q0 -14 3.5 -26.5 t13.5 -23.5q43 12 76.5 58.5t59.5 105t43 117.5t28 96q16 55 33.5 110.5t23.5 112.5t6 119q0 111 -26.5 173.5t-78 94t-124 40t-166.5 8.5q-74 0 -117 -24.5t-94 -76.5q-106 -100 -176 -235q-31 -59 -54.5 -134t-41 -155t-26.5 -160t-9 -145q0 -53 10 -111q12 -68 50 -133 t94.5 -116.5t124 -83t136.5 -31.5q123 0 229.5 58t176.5 161q18 29 36.5 65.5t47.5 53.5l25 4l26 -6l19 -15q12 -16 12 -39t-18.5 -53.5t-30.5 -50.5q-90 -143 -227.5 -219t-307.5 -76q-125 0 -211 49t-166 141q-47 51 -77 109q-41 80 -53.5 163t-12.5 171zM299 721 q0 -23 4 -56.5t16.5 -64.5t31.5 -53.5t50 -22.5t63 21.5t54 42.5q39 37 57.5 67.5t36.5 77.5q10 23 21.5 41.5t17.5 40.5q16 63 28.5 124.5t25.5 127.5q-20 37 -56.5 55.5t-77.5 18.5q-66 0 -115.5 -46t-84.5 -111.5t-53.5 -138.5t-18.5 -124z" />
<glyph unicode="A" horiz-adv-x="899" d="M-61 70q0 20 7 51t16 64.5t18.5 66.5t13.5 55q29 135 61.5 269.5t67.5 269.5q23 94 53.5 186t52.5 187q6 25 22.5 86t35 127.5t37 121t28.5 64.5q6 8 18.5 15t22.5 7q29 0 45.5 -20.5t24.5 -42.5q18 -49 25.5 -101.5t21.5 -103.5q41 -147 72.5 -296.5t60.5 -299.5 q27 -139 59.5 -276.5t63.5 -278.5q8 -35 22.5 -74.5t14.5 -76.5q0 -25 -13.5 -46.5t-41.5 -21.5q-31 0 -48.5 26.5t-23.5 51.5q-20 72 -31.5 144.5t-32.5 144.5q-10 31 -19 72.5t-19.5 86.5t-20.5 90.5t-18 81.5l-3 9q-78 0 -158 3q-48 2 -94 2q-31 0 -63 -1l-4 -15 q-12 -47 -26.5 -103t-28 -114.5t-25.5 -113t-22 -97.5q-12 -51 -26.5 -103t-25.5 -106q-4 -25 -17 -43t-42 -18t-45 20.5t-16 49.5zM242 827q34 1 68 1t67 -1q67 -2 135 -2l-4 23q-23 131 -55.5 258t-61.5 256q-31 -133 -65.5 -260t-77.5 -256z" />
<glyph unicode="B" horiz-adv-x="839" d="M16 504q0 131 3.5 262t3.5 262q0 68 -3.5 134.5t-3.5 133.5q0 47 2 95.5t2 97.5q0 6 -2 15t0 20l5 51q8 20 30.5 32.5t50 19.5t54 9t45.5 2q88 0 169 -30.5t142 -87t97 -137t36 -181.5q0 -123 -51 -219t-152 -156q127 -47 194 -122.5t67 -206.5q0 -127 -55.5 -217.5 t-153.5 -171.5q-33 -29 -78 -49.5t-96.5 -34t-102.5 -20.5t-94 -7h-16q-47 0 -61.5 32.5t-14.5 71.5q0 100 -8.5 199.5t-8.5 202.5zM133 553q0 -109 4 -216.5t15 -215.5q84 2 162.5 27.5t139 70.5t97.5 109.5t37 142.5q0 61 -26.5 106.5t-72 75t-104.5 44t-123 14.5 q-31 0 -62.5 -2t-62.5 -7q-2 -37 -3 -74.5t-1 -74.5zM137 1225q0 -99 2 -199q1 -50 1 -100t-1 -99h4q76 0 144 33q55 27 99 52.5t75 61.5t47 88t16 130q0 76 -25.5 136.5t-68.5 102.5t-100.5 64.5t-122.5 22.5q-39 0 -70 -9q1 -48 1 -95v-48q-1 -70 -1 -141z" />
<glyph unicode="C" horiz-adv-x="905" d="M25 868q0 68 3 141.5t14 147.5t30.5 143.5t50.5 131.5q20 39 48 76.5t60.5 66.5t73.5 46t90 17q117 0 206 -53t112 -158q2 -10 4 -18t4 -18.5t4 -22.5q0 -14 1 -34v-7q0 -16 -3 -31q-4 -29 -17.5 -50t-41.5 -21q-27 0 -43.5 18.5t-16.5 44.5q0 16 2 33.5t2 36.5 q0 6 -2 14q-2 6 -3 13.5t-5 13.5q-27 55 -74 87t-123 32q-57 0 -98 -36t-69.5 -92.5t-47 -127t-29 -141t-13.5 -133t-3 -103.5q0 -66 2 -162t11.5 -197.5t28 -193.5t50.5 -148q23 -37 63 -51t81 -14q106 0 157.5 59.5t67.5 143.5q0 14 2 26q2 10 4 22.5t6 18.5 q12 16 22.5 17.5t29.5 3.5q29 2 39 -15.5t14 -40.5q4 -27 -2 -61q-8 -43 -26.5 -86t-46.5 -81t-62.5 -66.5t-73.5 -41.5q-39 -12 -81 -16t-83 -4q-80 0 -134 37t-88 98.5t-52.5 138t-26.5 155.5t-10 153.5t-4 130.5q-2 39 -3 77.5t-1 79.5z" />
<glyph unicode="D" horiz-adv-x="1046" d="M41 115q0 29 2 57.5t2 56.5q1 65 1 130v65q-1 96 -1 194v607q0 41 3 83t3 83q0 29 -3 58.5t-3 59.5q0 20 1 43t8 42.5t22.5 31.5t44.5 12q57 0 113.5 1t113.5 1q129 0 223.5 -51t155.5 -136t91 -195.5t32 -227.5q2 -53 2 -105.5v-107.5v-104t-2 -105q-2 -113 -32 -222.5 t-90 -195.5t-152.5 -138t-219.5 -52h-225q-55 0 -72.5 34t-17.5 81zM164 817q0 -135 5 -268t5 -268v-78t-4 -80q39 0 77 -2t79 -2q35 0 84 3t82 19q86 41 134 114t71.5 161t28.5 181t5 175q0 58 1 122v25q0 52 -3 105q-4 66 -14 128t-31 116q-29 68 -78 134t-117 97 q-29 14 -71.5 17.5t-73.5 3.5q-43 0 -85 -2t-85 -2v-87q0 -131 -4 -261q-6 -174 -6 -351z" />
<glyph unicode="E" horiz-adv-x="714" d="M20 844v166q0 137 2.5 273t2.5 273q0 35 23.5 50.5t57.5 19.5q22 3 44 3q11 0 23 -1q34 -2 56 -2q59 0 120 6t120 6q14 0 33.5 -3t36 -11t26.5 -20q8 -10 8 -27v-6l-2 -10q-4 -35 -34.5 -40t-59.5 -5q-51 -2 -102 -5.5t-103 -5.5q-33 0 -65.5 1t-63.5 -3q0 -111 -3 -217 t-3 -217q0 -59 1 -120.5t3 -121.5q37 0 55.5 1t34 1h35h56.5q16 0 34.5 -2t34 -8t25.5 -19.5t10 -35.5q0 -31 -19.5 -41t-46.5 -10q-43 0 -66.5 -1t-43 -2t-43 -2t-66.5 -1q0 -33 -1 -64t-1 -61q0 -117 3 -230.5t3 -230.5q61 0 123 -1t121 -1q29 0 56.5 3t56.5 3t50 -15.5 t21 -48.5q0 -29 -17 -41t-43 -16t-52.5 -3t-44.5 1h-185l-47 2q-23 2 -43 -2t-43 -4q-41 0 -55 15.5t-14 54.5q0 88 -1 176t-1 176q0 106 -3.5 210.5t-3.5 213.5z" />
<glyph unicode="F" horiz-adv-x="759" d="M33 1571q0 33 23.5 48t52.5 15q72 0 144.5 3t145.5 3q29 0 57.5 -2t57.5 -2h33.5t35 -4t27 -15t11.5 -36q0 -41 -30 -53t-65 -12q-53 0 -103 2t-104 2q-41 0 -80.5 -2t-80.5 -5q4 -81 4 -160q0 -39 -1 -79q-3 -118 -3 -240q0 -45 2 -90t2 -92v-21v-4q55 2 111.5 2h111.5 q25 0 52.5 -14t27.5 -47q0 -31 -17.5 -43t-42 -15t-52 -1t-46.5 2q-23 -2 -46 -3t-46 -1h-51v-15v-141q0 -115 2 -228.5t2 -230.5q0 -29 -10.5 -60.5t-46.5 -31.5q-43 0 -57.5 31.5t-14.5 66.5q0 86 2 171t2 171q0 166 -3 334t-3 334q0 66 2 132.5t2 131.5q0 51 -4 100.5 t-4 98.5z" />
<glyph unicode="G" horiz-adv-x="970" d="M10 909q0 68 6.5 140.5t18.5 142.5q8 43 27.5 96t46 105.5t58.5 99.5t66 78q41 37 102.5 53t115.5 16q49 0 95 -8t83 -43q53 -51 80.5 -130t27.5 -152q0 -31 -15 -55.5t-50 -24.5q-29 0 -42.5 21.5t-13.5 45.5q0 27 -2 58.5t-10 62.5t-23.5 56.5t-41.5 41.5 q-12 6 -36 8.5t-36 2.5q-33 0 -76 -8.5t-72 -26.5q-23 -14 -37 -36.5t-30 -43.5q-41 -55 -64.5 -119.5t-37 -132t-17.5 -136.5t-4 -134q0 -131 14.5 -268.5t46.5 -264.5q12 -47 37 -89t61 -74.5t81 -51t96 -18.5q47 0 75.5 14.5t46 39t27 58t17.5 72.5q12 49 12 96v110.5 t-4 111.5l-2 34v50q-20 0 -41 1t-41 1q-74 0 -141 -7q-14 -2 -26.5 -4t-25.5 -2q-25 0 -45 15.5t-20 42.5q0 31 32.5 46t76 21t86.5 6h63q25 0 58.5 1t63.5 -3t52.5 -20.5t26.5 -48.5q0 -10 1 -22.5t1 -22.5q0 -43 -1 -86v-29q0 -28 1 -57l6 -160q-8 -90 -25.5 -147.5 t-36.5 -92.5q-23 -41 -47 -63q-41 -39 -93 -57.5t-107 -18.5h-9q-117 0 -211 68.5t-137 177.5q-35 86 -48 176t-21 182q-8 76 -13.5 151.5t-5.5 153.5z" />
<glyph unicode="H" horiz-adv-x="884" d="M20 88q0 49 2.5 98.5t2.5 100.5q0 74 -1 147.5t-1 145.5q0 178 5 341.5t5 319.5q0 86 -5 169t-5 169q0 23 14 39t37 20l26 -2q35 -16 41 -49t9 -65q2 -66 4 -128.5t2 -125.5q0 -86 -3 -168t-3 -166v-14v-82q53 2 108 5t111 3q53 0 105 -1t106 -3v82q0 162 2 322.5 t6 322.5q0 16 3 29.5t15 25.5q18 18 43 18q29 0 43.5 -19t14.5 -46q0 -117 -3.5 -230.5t-3.5 -230.5q0 -66 1 -122t1 -122q0 -14 -2 -28.5t-2 -30.5q0 -23 2 -47.5t2 -48.5q4 -147 4.5 -301t0.5 -301q0 -16 -2.5 -36t-8.5 -36t-18 -28.5t-33 -12.5q-31 0 -47 20.5t-16 49.5 v610v39q-47 2 -93.5 5t-93.5 3q-39 0 -77.5 -4t-77.5 -4q-23 0 -46.5 1t-46.5 -1l-2 -39q-5 -95 -5 -194q0 -48 1 -98q4 -150 4 -294q0 -16 -3 -34.5t-17 -32.5q-16 -18 -43 -19q-33 0 -47.5 24.5t-14.5 53.5z" />
<glyph unicode="I" horiz-adv-x="385" d="M0 621q0 217 6 432t6 432q0 16 -2 42.5t2 51.5t17.5 43t42.5 18q39 0 51 -32.5t12 -63.5q0 -260 -7 -517t-7 -519q0 -104 1 -209.5t3 -212.5q0 -18 -5 -37.5t-18 -34.5q-18 -14 -34 -14q-41 0 -51.5 30.5t-10.5 59.5q0 133 -3 265t-3 266z" />
<glyph unicode="J" horiz-adv-x="776" d="M23 315.5v20.5q0 25 15 49.5t44 24.5t41 -30t20 -77l2 -12q12 -72 59.5 -121t139.5 -49q59 0 95 32.5t46 90.5q4 29 5.5 56.5t1.5 55.5q0 111 5 221.5t5 221.5q0 195 -4 385t-4 383q0 29 15 50t46 21q23 0 35 -13t18 -31.5t8 -40t2 -35.5q0 -197 1.5 -390.5t1.5 -390.5 q0 -86 -1.5 -171t-5.5 -171q-3 -38 -3 -75v-18v-8q0 -42 -9 -85q-20 -98 -94 -154.5t-172 -56.5q-139 0 -210 70.5t-91 177.5l-10 49q-2 10 -2 20.5z" />
<glyph unicode="K" horiz-adv-x="980" d="M53 84q0 47 3 92t3 92q0 109 -2 216.5t-2 215.5q0 92 4 183.5t4 183.5q0 70 -3 139.5t-3 139.5q0 51 2 100t7 100q2 20 8 46t28 34q4 2 11.5 3t9.5 1q37 0 51 -22.5t14 -55.5q0 -49 -4 -98t-4 -100q0 -63 2 -127t2 -127q0 -70 -1 -138.5t-3 -138.5l53 60q43 49 80 104 t76 109q80 117 161 230.5t157 232.5q14 23 34.5 51t51.5 28q20 0 36.5 -16.5t16.5 -36.5q0 -16 -32 -70.5t-80 -128t-105.5 -156.5t-108.5 -157t-89 -127t-48 -67l55 -142q37 -94 83 -202.5t89 -200.5q6 -12 25.5 -52t39 -84t36 -81t16.5 -45q0 -27 -18.5 -43.5t-44.5 -16.5 q-23 0 -41 15q-8 6 -30 50t-50.5 108.5t-61 142.5t-64.5 155.5t-60.5 145l-47.5 112.5l-14 33l-119 -139v-123q0 -106 1 -211.5t3 -214.5q0 -25 -8 -50.5t-37 -35.5q-6 -2 -16 -2q-35 0 -50.5 28.5t-15.5 57.5z" />
<glyph unicode="L" horiz-adv-x="698" d="M27 333.5v276.5q0 217 5 433.5t5 433.5q0 16 -1 43.5t3 53t17.5 45t43.5 19.5q18 0 33 -14q12 -12 18.5 -52t7.5 -86v-45.5v-44.5q-1 -44 -1 -65q0 -193 -6.5 -383t-6.5 -383q0 -113 1 -223.5t4 -222.5q86 2 173 4q29 1 58 1q58 0 115 -3q23 0 37 -6t26 -27 q10 -17 10 -35q0 -29 -22.5 -40t-46.5 -11q-98 0 -193.5 -2t-191.5 -2q-31 0 -56.5 12.5t-27.5 46.5q-4 139 -4 276.5z" />
<glyph unicode="M" horiz-adv-x="1218" d="M29 49q0 12 2 23.5t4 21.5q2 47 2 92t4 93q4 55 6 111l4 112q4 123 12.5 246.5t8.5 246.5q0 80 4 159t4 159q0 19 -2 69q-1 20 -1 40q0 30 2 61q3 51 17.5 89t46.5 38q25 0 40.5 -19.5t25.5 -42.5l35 -84q16 -53 31.5 -111.5t31 -115.5t28.5 -111.5t23 -99.5 q8 -33 19.5 -63.5t21.5 -63.5q25 -98 56.5 -192.5t64.5 -192.5q10 -29 18.5 -52.5t18.5 -51.5q45 123 87 242.5t75 246.5q8 33 26.5 107.5t42 164t48 181.5t47.5 161l37 72q6 12 20 22.5t31 10.5q18 0 29.5 -11.5t17.5 -26.5t9 -32.5t3 -31.5q2 -51 3 -101.5t1 -101.5 q0 -68 4 -134.5t4 -134.5q0 -190 7.5 -381.5t21.5 -381.5q4 -55 7 -115t3 -115q0 -27 -12 -50.5t-43 -23.5q-23 0 -36 13.5t-19 32t-8 40t-2 39.5q0 178 -14.5 355.5t-22.5 357.5q-3 69 -3 136v34v34q0 68 -3 136l-3 66q-23 -92 -40 -182.5t-41 -180.5q-6 -25 -16.5 -49.5 t-14.5 -48.5q-6 -31 -15.5 -59.5t-19.5 -57.5q-10 -31 -20.5 -61.5t-20.5 -61.5q-18 -68 -49 -133t-45 -129q-6 -27 -21.5 -58.5t-52.5 -31.5l-12 2q-23 4 -41.5 33.5t-22.5 50.5q-14 61 -45.5 129t-50.5 139q-23 86 -54.5 168t-53.5 168q-25 92 -43.5 184.5t-42.5 184.5 l2 -66q2 -40 2 -81q-1 -46 -3 -92q-4 -87 -8 -173q-8 -150 -15 -298t-17 -296q-2 -29 -3 -58.5t-1 -58.5v-36.5t-5.5 -39t-17.5 -30.5t-37 -12q-29 0 -45 17t-16 46z" />
<glyph unicode="N" horiz-adv-x="913" d="M12 1069l2 459q0 25 3 49.5t22 42.5q14 18 37 18q31 0 47 -29.5t27 -54.5q27 -66 49 -130t47 -130q41 -115 86 -226.5t86 -223.5q23 -63 47 -117.5t50 -107t51.5 -103.5t54.5 -108q0 27 1 44t2 32.5t1 33v43.5q0 156 -3.5 311.5t-3.5 311.5q0 53 1.5 104t1.5 105 q0 37 -2.5 73.5t-2.5 71.5q0 29 13.5 57.5t48.5 28.5q39 0 50 -30.5t11 -61.5q0 -94 -2 -188.5t-2 -188.5q0 -47 1 -91t3 -89q5 -103 5 -204q0 -51 -1 -101q-4 -152 -4 -303q0 -73 3 -147q1 -25 1 -49q0 -49 -4 -97q-4 -25 -16 -45.5t-41 -20.5q-27 0 -40 19.5t-24 42.5 q-35 76 -66.5 151.5t-62.5 149.5q-20 47 -40.5 92t-38.5 92q-16 39 -32 76t-32 71q-10 23 -18.5 43.5t-18.5 42.5q-45 117 -87 218.5t-87 218.5l-2 -58q-1 -21 -1 -43q0 -32 2 -64q3 -54 5 -108q3 -141 3 -280v-69.5v-68.5q0 -139 3 -278q0 -47 3.5 -92t3.5 -90 q0 -31 -14.5 -53.5t-49.5 -22.5q-37 0 -49 27.5t-12 58.5q0 135 -3.5 269t-3.5 270q0 39 1.5 76.5t1.5 76.5q0 76 -5.5 148.5t-5.5 144.5z" />
<glyph unicode="O" horiz-adv-x="927" d="M14 874v29t2 31q6 88 15.5 179t34 176t70.5 160t128 128q35 23 81 43t87 20q84 0 141.5 -47t96.5 -121.5t60.5 -168t31.5 -187.5t12 -180t2 -143q0 -59 -5 -117t-11 -115q-10 -84 -30.5 -182t-62.5 -182t-113 -140.5t-179 -56.5q-76 0 -139 45q-57 39 -98.5 105.5 t-67 142.5t-36.5 154.5t-11 144.5q0 70 -4.5 140.5t-4.5 141.5zM135 723.5q0 -78.5 6 -159.5t20.5 -156.5t41.5 -133.5q10 -23 25.5 -47t35 -45.5t41 -38t45.5 -20.5q6 -2 17 -2q12 0 29.5 3t37 9t35.5 13.5t25 15.5q10 8 17 19.5t13 21.5q41 61 66.5 134t39 150.5 t18.5 155.5t5 150q0 57 -2 141t-11 172t-25.5 168t-43.5 129q-8 14 -16 26.5t-18 24.5q-23 31 -43.5 47.5t-61.5 16.5q-29 0 -55.5 -12.5t-48.5 -28.5q-16 -12 -31.5 -24.5t-32.5 -29.5q-39 -39 -63.5 -109.5t-39 -151.5t-20.5 -159.5t-6 -132.5v-146.5z" />
<glyph unicode="P" horiz-adv-x="845" d="M8 84q0 135 4 267t4 267q0 142 -1 284v94q0 95 1 190q0 72 7.5 143.5t7.5 143.5q0 16 -3 33.5t-3 33.5q-1 46 23 70q20 21 55 21q6 0 12 -1l18 -2q29 -4 55.5 -4t55.5 2q45 2 89 8t91 6q82 0 140.5 -31.5t93 -87t51 -128t16.5 -154.5q0 -49 -8 -115.5t-24.5 -133 t-45.5 -125t-67 -91.5q-29 -25 -70 -36t-85 -17t-90 -8t-85 -6q-10 -2 -30.5 -1t-39.5 1h-47v-25q0 -301 -6 -602q0 -16 -3 -33.5t-18 -30.5q-16 -16 -38 -16q-41 0 -50.5 24.5t-9.5 59.5zM133 827q23 0 77 1t113.5 4.5t110.5 9.5t68 16q27 18 46 69.5t31.5 113t18.5 119.5 t6 91q0 25 -4 57.5t-12 64.5t-20.5 61.5t-30.5 50.5q-20 25 -57.5 31t-65.5 6q-66 0 -133.5 -8.5t-135.5 -8.5v-58q0 -102 -5 -205q-7 -132 -7 -265v-78v-72z" />
<glyph unicode="Q" horiz-adv-x="905" d="M14 874v30t2 30q6 94 16.5 192.5t40 188.5t84 164.5t150.5 122.5q29 14 60.5 24t60.5 10q76 0 130 -37.5t91 -100t58.5 -140.5t33 -158t16.5 -153.5t7 -126.5l4 -66t2 -66q0 -49 -5 -95t-9 -93q-6 -66 -15.5 -128t-25 -122.5t-41 -118t-64.5 -110.5q4 -10 14.5 -30.5 t19.5 -42t16.5 -40t7.5 -26.5q0 -25 -16.5 -42.5t-41.5 -17.5q-16 0 -30.5 13.5t-26.5 31t-21.5 37t-15.5 31.5q-70 -33 -141 -33q-80 0 -144 43q-59 41 -99 105.5t-64.5 140.5t-34.5 153.5t-10 145.5q0 72 -4.5 142.5t-4.5 141.5zM133 872q0 -63 1 -143t7 -163t20.5 -160.5 t39.5 -133.5q8 -20 23.5 -43.5t35 -46t42 -39t44.5 -20.5h16q27 0 55.5 8t51.5 19q-4 10 -18.5 40.5t-29.5 64.5t-27.5 62.5t-12.5 32.5q0 23 21.5 42.5t43.5 19.5q20 0 37 -18.5t30 -43t23.5 -51.5t16.5 -43q29 51 47 119.5t28.5 141.5t14.5 145t4 131q0 57 -2 140t-11 170 t-25.5 166t-43.5 132q-6 12 -15 25.5t-20 25.5q-20 29 -40.5 46.5t-61.5 17.5q-31 0 -56.5 -12.5t-49.5 -30.5q-16 -10 -31 -23.5t-29 -28.5q-39 -37 -63.5 -107.5t-39 -150.5t-20.5 -158.5t-6 -132.5z" />
<glyph unicode="R" d="M23 784q0 49 2 98.5t2 100.5q0 20 -1 71.5t-2 118t-1 139t1 135t3 105.5t6 54q10 20 29.5 26t37.5 6l115 -4q25 0 63.5 1t78.5 3t77 2t60 -6l8 -2q61 -25 103 -74t69.5 -110.5t40 -130t12.5 -129.5q0 -47 -10 -104.5t-31.5 -116t-55.5 -112.5t-83 -93l6 -10 q6 -10 26.5 -64.5t43 -136.5t41 -180.5t18.5 -192.5l4 -37q2 -18 2 -36.5v-36.5q0 -25 -15.5 -46.5t-43.5 -21.5q-10 0 -20.5 4t-18.5 8q-20 14 -25 80l-6 170q-29 190 -59.5 298t-83.5 147q-63 2 -125 6t-125 4q-14 0 -23 -2q-2 -41 -2 -82v-82l9 -465q0 -31 -13.5 -55.5 t-48.5 -24.5q-27 0 -40 16.5t-18 39t-5 47v43.5q0 160 -1 316.5t-1 315.5zM145 831q19 1 38 1q47 0 95 -4q66 -5 132 -5h16t12 4q4 2 17.5 18.5t30 38t30.5 42t19 26.5q35 53 49 120t14 130q0 43 -7 89t-24.5 89t-45 78t-68.5 55q-16 0 -29.5 1.5t-30.5 1.5q-63 0 -125 -4 q-29 -2 -57 -1q-33 0 -66 2v-53q0 -90 2.5 -179t2.5 -179v-68v-45.5t-1.5 -56.5t-2.5 -56.5t-1 -44.5z" />
<glyph unicode="S" horiz-adv-x="786" d="M23 332v6q0 26 15 48q17 26 48 26t40 -28t13 -69l6 -28q8 -37 22.5 -73t43.5 -64q25 -23 68 -26t75 -3q51 0 88 20.5t58.5 54t32 77.5t10.5 89q0 61 -16.5 106.5t-45.5 98.5q-39 72 -86 122t-97 92t-97 81t-84 87t-59.5 114.5t-22.5 161.5q0 82 19.5 156.5t60.5 132 t105.5 92t154.5 34.5q143 0 205 -82q55 -73 56 -189q0 -15 -1 -30l-2 -34q-2 -31 -16.5 -55.5t-47.5 -24.5q-29 0 -44 17.5t-15 45.5q0 6 1 12.5t1 12.5l4 41q2 14 2 27q0 56 -28 95q-34 48 -115 48q-66 0 -108 -29t-66.5 -73t-34.5 -99t-10 -109q0 -100 41 -165.5 t120 -122.5q66 -47 128.5 -109.5t110.5 -135.5t77 -154t29 -165q0 -174 -86.5 -268t-262.5 -94q-68 0 -119 22.5t-86.5 60.5t-56 89t-24.5 109z" />
<glyph unicode="T" horiz-adv-x="864" d="M-80 1579q0 25 25 49l22 8q72 0 143.5 1t143.5 1h426q27 0 50.5 -17t23.5 -46q0 -39 -31 -50.5t-59 -11.5q-41 0 -81 3.5t-81 3.5q-35 0 -68 -1h-22q-22 0 -45 1q1 -55 1 -109q0 -143 -8 -283q-10 -192 -10 -391q0 -170 3 -337t3 -334q0 -25 -11 -46.5t-40 -21.5 q-35 0 -50 14.5t-21.5 38t-5.5 50t1 51.5v651q0 180 10.5 354t10.5 350v13q-30 -1 -60 -1h-29.5h-28.5q-30 0 -60 -1h-42t-50.5 4t-42 17t-17.5 40z" />
<glyph unicode="U" horiz-adv-x="856" d="M2 1472q-1 12 -1 24q0 25 3 50q4 37 18.5 63.5t45.5 26.5q35 0 50 -27.5t15 -56.5q0 -31 -4 -61.5t-4 -60.5q0 -154 7 -308.5t7 -312.5q0 -61 2 -122.5t4 -125.5q0 -57 3.5 -132t24 -142.5t63.5 -114.5t124 -47q57 0 95.5 23.5t66.5 70.5q39 61 45 142t8 151 q4 252 13.5 500t9.5 495q0 16 -1 39t2 44.5t14.5 35.5t35.5 14q43 0 55.5 -33.5t12.5 -68.5q0 -262 -5 -521t-14 -521q0 -41 -4 -89.5t-13 -96.5t-24.5 -93t-40.5 -80q-29 -41 -57.5 -67.5t-60 -42t-69.5 -21.5t-87 -6q-80 0 -134 38t-102 99q-25 33 -40 78t-24 93t-13 97.5 t-4 90.5q-4 180 -4.5 360t-8.5 361q-4 49 -6 98t-2 96q0 23 -2 61z" />
<glyph unicode="V" horiz-adv-x="915" d="M-59 1575q0 57 57 63q4 1 9 1q26 -1 38 -23q14 -26 18 -53q29 -209 78 -422t97 -418q27 -117 56.5 -230.5t61.5 -226.5q72 240 124 478.5t112 478.5q4 16 17.5 76.5t27.5 127t25.5 121t15.5 60.5q18 25 45 24q27 0 44 -17t17 -40q0 -39 -11 -96.5t-25.5 -120t-31 -120.5 t-24.5 -97q-47 -186 -84 -374.5t-90 -375.5q-20 -72 -39.5 -141.5t-38.5 -140.5q-6 -23 -14 -51.5t-27 -45.5q-6 -6 -16 -8t-21 -6h-5q-20 0 -38 28q-20 32 -35.5 73.5t-25.5 82.5t-14 54q-76 248 -132.5 496.5t-109.5 500.5q-8 33 -18.5 79t-19.5 93t-16 92t-7 78z" />
<glyph unicode="W" horiz-adv-x="1300" d="M0 1575q0 25 12.5 43t38.5 18q18 0 34.5 -9t25.5 -25q6 -12 16 -63.5t21.5 -114t20.5 -119t13 -76.5q41 -211 83 -411t89 -410q23 143 43.5 279t42 272.5t46 280.5t55.5 308q4 25 17 50.5t46 25.5q25 0 37 -17.5t16 -39.5l2 -19q16 -82 28.5 -162.5t27.5 -164.5 q37 -211 68.5 -410t64.5 -410q51 231 97 454.5t87 457.5q2 14 10.5 58t17.5 92t17 89t13 50q6 10 21 24t28 14h8l22 -10l21 -18l-4 -4l10 -6q4 -7 4 -23q0 -39 -11 -84t-18 -84q-8 -57 -19 -113.5t-24 -113.5q-43 -217 -86 -432t-88 -433q-12 -55 -23 -109t-24 -110 q-6 -31 -19.5 -64.5t-51.5 -33.5q-25 0 -38.5 15.5t-20.5 37t-9 45t-4 41.5q-8 90 -24.5 178.5t-32.5 178.5q-12 80 -25.5 174t-27 192.5t-27 192.5t-27.5 174q-12 -80 -25.5 -175t-26.5 -192.5t-26.5 -191.5t-25.5 -174q-14 -90 -33 -178.5t-25 -178.5q-2 -18 -4 -41.5 t-9 -46t-20.5 -38t-37.5 -15.5q-41 0 -54.5 30.5t-19.5 61.5q-10 57 -22.5 113.5t-24.5 111.5q-45 217 -88 433.5t-86 433.5q-16 86 -29.5 172t-34.5 170q-4 12 -6 24.5t-2 24.5z" />
<glyph unicode="X" horiz-adv-x="870" d="M-10 59q0 16 5 31.5t11 32.5q37 86 67.5 173t65.5 173q18 47 33.5 85t29 75t29 74.5t33.5 82.5q-20 59 -38.5 115.5t-41.5 116.5q-47 125 -93 272.5t-85 274.5v10q-4 29 14.5 44t47.5 15q18 0 31.5 -10t19.5 -27q29 -74 54.5 -156.5t51 -167.5t53 -167t60.5 -154 q18 57 40.5 122t46.5 131.5t48.5 130t48.5 118.5q16 35 30.5 80t37.5 78q19 28 51 28h2q23 0 40 -17t17 -40q0 -12 -11 -45t-27.5 -77t-37 -94t-39 -96t-32.5 -84t-21 -54l-2 -7q-29 -86 -57.5 -169t-62.5 -173q74 -182 147.5 -342.5t155.5 -341.5q6 -12 11 -24.5t5 -26.5 q0 -25 -17.5 -37t-39.5 -12q-35 0 -53.5 23.5t-30.5 52.5q-35 72 -68 137.5t-63.5 130t-60 131t-58.5 141.5q-27 -72 -54.5 -134t-54 -124.5t-51 -126t-47.5 -135.5q-10 -31 -26.5 -63.5t-53.5 -32.5q-29 0 -45 15.5t-16 43.5z" />
<glyph unicode="Y" horiz-adv-x="808" d="M-55 1581q0 23 15 39t40 16q37 0 59 -28q6 -8 26.5 -55.5t48.5 -117t57.5 -150.5t57 -156.5t48 -137t27.5 -88.5q45 139 99 284.5t99 278.5q10 31 17.5 63t19.5 60q8 20 23.5 34.5t38.5 14.5q27 0 43 -18t16 -45q0 -23 -11.5 -47.5t-19.5 -46.5q-33 -94 -65.5 -188.5 t-65.5 -190.5q-23 -66 -49.5 -126.5t-48.5 -125.5q-8 -23 -17.5 -54.5t-19.5 -82.5l2 -21q4 -43 4 -87v-89q0 -41 -2 -80t-2 -80q0 -23 3 -74t3 -106t-4 -102t-18 -62q-4 -6 -14.5 -10t-20.5 -4q-25 0 -38 10t-19.5 26.5t-7.5 35t-1 36.5v230q0 84 2 165q1 27 1 54 q0 54 -3 109l-2 49q-35 100 -54 164.5t-42 119.5q-47 115 -86 230.5t-88 228.5q-4 10 -13.5 27.5t-17.5 36t-14 35t-6 26.5z" />
<glyph unicode="Z" horiz-adv-x="913" d="M14 1575q0 29 18.5 42t45.5 15q135 8 272 8h273h40.5t43 -6t35 -19t14.5 -38q0 -16 -10.5 -43t-24.5 -55.5t-28.5 -56t-22.5 -46.5q-133 -311 -247 -625.5t-243 -627.5h15q72 0 143.5 5t142.5 5q49 0 98.5 2t100.5 2q31 0 61.5 -10t30.5 -51q0 -23 -13.5 -38t-35.5 -22 l-6 4l-4 -6q-26 1 -52.5 1t-52.5 -1q-52 -2 -104 -2q-84 0 -166 -6t-166 -6h-39.5t-42 5t-36 15.5t-21.5 32.5v10q-2 16 4 31t14 29q20 37 40 82t37 92t33.5 95t33.5 89q66 176 130 351.5t132 349.5q35 86 70.5 171t76.5 171h-37l-356 -2q-33 0 -64.5 -2t-62.5 -2 q-27 0 -48.5 14t-21.5 43z" />
<glyph unicode="[" horiz-adv-x="497" d="M16 771v108q0 23 1 81t3.5 133.5t5.5 158.5t7 156t9 124t11 65q10 25 29.5 32t44.5 7q23 0 44.5 -2t43.5 -2q18 0 44 1t49.5 -2t40 -16t16.5 -40q0 -31 -25 -43t-49 -12h-131q-10 -80 -9 -162t-4 -164q-4 -59 -8 -119.5t-4 -122.5q0 -209 2 -415.5t10 -415.5h48 q16 0 45.5 1t58.5 -3t49.5 -16.5t20.5 -39.5q0 -29 -21.5 -47t-50.5 -18h-52t-75 2t-71.5 6t-43.5 14q-18 14 -22 37q-4 14 -6 70.5t-4.5 136.5t-3.5 172t-2 178t-1 157z" />
<glyph unicode="\" horiz-adv-x="630" d="M-6 1577q0 27 16.5 44t42.5 17q31 0 51 -26q6 -8 16.5 -51t23 -95.5t22.5 -101.5t16 -68q45 -154 84 -305t82 -305q33 -119 64.5 -237.5t54.5 -241.5q6 -33 18.5 -72t12.5 -72q0 -23 -13.5 -43t-40.5 -20q-25 0 -41 15.5t-24 37.5q-20 68 -29.5 137.5t-27.5 139.5 q-29 115 -64 227.5t-59 228.5q-18 90 -44 177.5t-51 175.5q-8 29 -26.5 91t-36.5 132t-32.5 130t-14.5 85z" />
<glyph unicode="]" horiz-adv-x="528" d="M16 63q0 27 20.5 39.5t49.5 16.5t58.5 3t45.5 -1h48q8 209 10 415.5t2 415.5q0 61 -5 122t-7 120q-4 82 -3 164t-10 162h-131q-25 0 -49.5 12t-24.5 43q0 27 16.5 40t40 16t48.5 2t43 -1q23 0 45.5 2t44.5 2q25 0 44.5 -7t29.5 -32q6 -14 11 -65t9 -124t7 -156 t5.5 -158.5t3.5 -133.5t1 -81v-108t-1 -157t-2 -178t-3.5 -172t-4.5 -136t-6 -71q-4 -23 -22 -37q-10 -10 -43 -14t-72 -6t-75 -2h-52q-29 0 -50.5 18.5t-21.5 46.5z" />
<glyph unicode="^" horiz-adv-x="808" d="M10 862q0 6 14.5 48t36 100.5t47 127t49 129t41 104.5t23.5 56q14 35 28.5 67t26.5 67q6 27 31 43q18 12 41 12q41 0 59.5 -31t28.5 -63q8 -25 18.5 -48.5t20.5 -46.5q4 -10 21.5 -54t41 -104.5t49 -128t47 -125t36 -98.5t14.5 -47q0 -25 -20.5 -43t-45.5 -18 q-35 0 -45 33q-29 76 -56.5 150.5t-51.5 150.5q-10 33 -26.5 63.5t-26.5 63.5q-12 35 -23.5 68.5t-28.5 66.5l-10 20l-2 2v-2l-12 -22q-51 -92 -84 -196.5t-72 -202.5q-6 -12 -13 -37t-14.5 -49.5t-15.5 -46t-14 -29.5q-10 -14 -25.5 -25.5t-34.5 -11.5q-23 0 -38 17.5 t-15 39.5z" />
<glyph unicode="_" horiz-adv-x="849" d="M-55 -156q0 10 10 24.5t20 18.5q14 4 60.5 6.5t102 2.5h107.5h79h157q33 0 87.5 1t112.5 2t111.5 0t84.5 -5q20 -4 32.5 -18.5t12.5 -37.5q0 -16 -10.5 -33.5t-26.5 -21.5q-10 -4 -34 -4h-50.5t-50 1t-35.5 1q-180 -2 -358.5 -2h-358.5q-27 0 -40 21.5t-13 43.5z" />
<glyph unicode="`" horiz-adv-x="401" d="M10 1907q0 25 17.5 42t42.5 17q12 0 28 -8q6 -2 30 -22.5t51.5 -46t52 -49t30.5 -30.5q12 -16 12 -36q0 -27 -15 -43.5t-42 -16.5q-18 0 -31 10q-8 6 -33.5 28t-54 47.5t-52 48t-28.5 30.5q-8 10 -8 29z" />
<glyph unicode="a" horiz-adv-x="899" d="M-61 70q0 20 7 51t16 64.5t18.5 66.5t13.5 55q29 135 61.5 269.5t67.5 269.5q23 94 53.5 186t52.5 187q6 25 22.5 86t35 127.5t37 121t28.5 64.5q6 8 18.5 15t22.5 7q29 0 45.5 -20.5t24.5 -42.5q18 -49 25.5 -101.5t21.5 -103.5q41 -147 72.5 -296.5t60.5 -299.5 q27 -139 59.5 -276.5t63.5 -278.5q8 -35 22.5 -74.5t14.5 -76.5q0 -25 -13.5 -46.5t-41.5 -21.5q-31 0 -48.5 26.5t-23.5 51.5q-20 72 -31.5 144.5t-32.5 144.5q-10 31 -19 72.5t-19.5 86.5t-20.5 90.5t-18 81.5l-3 9q-78 0 -158 3q-48 2 -94 2q-31 0 -63 -1l-4 -15 q-12 -47 -26.5 -103t-28 -114.5t-25.5 -113t-22 -97.5q-12 -51 -26.5 -103t-25.5 -106q-4 -25 -17 -43t-42 -18t-45 20.5t-16 49.5zM242 827q34 1 68 1t67 -1q67 -2 135 -2l-4 23q-23 131 -55.5 258t-61.5 256q-31 -133 -65.5 -260t-77.5 -256z" />
<glyph unicode="b" horiz-adv-x="839" d="M16 504q0 131 3.5 262t3.5 262q0 68 -3.5 134.5t-3.5 133.5q0 47 2 95.5t2 97.5q0 6 -2 15t0 20l5 51q8 20 30.5 32.5t50 19.5t54 9t45.5 2q88 0 169 -30.5t142 -87t97 -137t36 -181.5q0 -123 -51 -219t-152 -156q127 -47 194 -122.5t67 -206.5q0 -127 -55.5 -217.5 t-153.5 -171.5q-33 -29 -78 -49.5t-96.5 -34t-102.5 -20.5t-94 -7h-16q-47 0 -61.5 32.5t-14.5 71.5q0 100 -8.5 199.5t-8.5 202.5zM133 553q0 -109 4 -216.5t15 -215.5q84 2 162.5 27.5t139 70.5t97.5 109.5t37 142.5q0 61 -26.5 106.5t-72 75t-104.5 44t-123 14.5 q-31 0 -62.5 -2t-62.5 -7q-2 -37 -3 -74.5t-1 -74.5zM137 1225q0 -99 2 -199q1 -50 1 -100t-1 -99h4q76 0 144 33q55 27 99 52.5t75 61.5t47 88t16 130q0 76 -25.5 136.5t-68.5 102.5t-100.5 64.5t-122.5 22.5q-39 0 -70 -9q1 -48 1 -95v-48q-1 -70 -1 -141z" />
<glyph unicode="c" horiz-adv-x="905" d="M25 868q0 68 3 141.5t14 147.5t30.5 143.5t50.5 131.5q20 39 48 76.5t60.5 66.5t73.5 46t90 17q117 0 206 -53t112 -158q2 -10 4 -18t4 -18.5t4 -22.5q0 -14 1 -34v-7q0 -16 -3 -31q-4 -29 -17.5 -50t-41.5 -21q-27 0 -43.5 18.5t-16.5 44.5q0 16 2 33.5t2 36.5 q0 6 -2 14q-2 6 -3 13.5t-5 13.5q-27 55 -74 87t-123 32q-57 0 -98 -36t-69.5 -92.5t-47 -127t-29 -141t-13.5 -133t-3 -103.5q0 -66 2 -162t11.5 -197.5t28 -193.5t50.5 -148q23 -37 63 -51t81 -14q106 0 157.5 59.5t67.5 143.5q0 14 2 26q2 10 4 22.5t6 18.5 q12 16 22.5 17.5t29.5 3.5q29 2 39 -15.5t14 -40.5q4 -27 -2 -61q-8 -43 -26.5 -86t-46.5 -81t-62.5 -66.5t-73.5 -41.5q-39 -12 -81 -16t-83 -4q-80 0 -134 37t-88 98.5t-52.5 138t-26.5 155.5t-10 153.5t-4 130.5q-2 39 -3 77.5t-1 79.5z" />
<glyph unicode="d" horiz-adv-x="1046" d="M41 115q0 29 2 57.5t2 56.5q1 65 1 130v65q-1 96 -1 194v607q0 41 3 83t3 83q0 29 -3 58.5t-3 59.5q0 20 1 43t8 42.5t22.5 31.5t44.5 12q57 0 113.5 1t113.5 1q129 0 223.5 -51t155.5 -136t91 -195.5t32 -227.5q2 -53 2 -105.5v-107.5v-104t-2 -105q-2 -113 -32 -222.5 t-90 -195.5t-152.5 -138t-219.5 -52h-225q-55 0 -72.5 34t-17.5 81zM164 817q0 -135 5 -268t5 -268v-78t-4 -80q39 0 77 -2t79 -2q35 0 84 3t82 19q86 41 134 114t71.5 161t28.5 181t5 175q0 58 1 122v25q0 52 -3 105q-4 66 -14 128t-31 116q-29 68 -78 134t-117 97 q-29 14 -71.5 17.5t-73.5 3.5q-43 0 -85 -2t-85 -2v-87q0 -131 -4 -261q-6 -174 -6 -351z" />
<glyph unicode="e" horiz-adv-x="714" d="M20 844v166q0 137 2.5 273t2.5 273q0 35 23.5 50.5t57.5 19.5q22 3 44 3q11 0 23 -1q34 -2 56 -2q59 0 120 6t120 6q14 0 33.5 -3t36 -11t26.5 -20q8 -10 8 -27v-6l-2 -10q-4 -35 -34.5 -40t-59.5 -5q-51 -2 -102 -5.5t-103 -5.5q-33 0 -65.5 1t-63.5 -3q0 -111 -3 -217 t-3 -217q0 -59 1 -120.5t3 -121.5q37 0 55.5 1t34 1h35h56.5q16 0 34.5 -2t34 -8t25.5 -19.5t10 -35.5q0 -31 -19.5 -41t-46.5 -10q-43 0 -66.5 -1t-43 -2t-43 -2t-66.5 -1q0 -33 -1 -64t-1 -61q0 -117 3 -230.5t3 -230.5q61 0 123 -1t121 -1q29 0 56.5 3t56.5 3t50 -15.5 t21 -48.5q0 -29 -17 -41t-43 -16t-52.5 -3t-44.5 1h-185l-47 2q-23 2 -43 -2t-43 -4q-41 0 -55 15.5t-14 54.5q0 88 -1 176t-1 176q0 106 -3.5 210.5t-3.5 213.5z" />
<glyph unicode="f" horiz-adv-x="759" d="M33 1571q0 33 23.5 48t52.5 15q72 0 144.5 3t145.5 3q29 0 57.5 -2t57.5 -2h33.5t35 -4t27 -15t11.5 -36q0 -41 -30 -53t-65 -12q-53 0 -103 2t-104 2q-41 0 -80.5 -2t-80.5 -5q4 -81 4 -160q0 -40 -1 -79q-3 -119 -3 -240q0 -45 2 -90t2 -92v-21v-4q55 2 111.5 2h111.5 q25 0 52.5 -14t27.5 -47q0 -31 -17.5 -43t-42 -15t-52 -1t-46.5 2q-23 -2 -46 -3t-46 -1h-51v-15v-141q0 -115 2 -228.5t2 -230.5q0 -29 -10.5 -60.5t-46.5 -31.5q-43 0 -57.5 31.5t-14.5 66.5q0 86 2 171t2 171q0 166 -3 334t-3 334q0 66 2 132.5t2 131.5q0 51 -4 100.5 t-4 98.5z" />
<glyph unicode="g" horiz-adv-x="970" d="M10 909q0 68 6.5 140.5t18.5 142.5q8 43 27.5 96t46 105.5t58.5 99.5t66 78q41 37 102.5 53t115.5 16q49 0 95 -8t83 -43q53 -51 80.5 -130t27.5 -152q0 -31 -15 -55.5t-50 -24.5q-29 0 -42.5 21.5t-13.5 45.5q0 27 -2 58.5t-10 62.5t-23.5 56.5t-41.5 41.5 q-12 6 -36 8.5t-36 2.5q-33 0 -76 -8.5t-72 -26.5q-23 -14 -37 -36.5t-30 -43.5q-41 -55 -64.5 -119.5t-37 -132t-17.5 -136.5t-4 -134q0 -131 14.5 -268.5t46.5 -264.5q12 -47 37 -89t61 -74.5t81 -51t96 -18.5q47 0 75.5 14.5t46 39t27 58t17.5 72.5q12 49 12 96v110.5 t-4 111.5l-2 34v50q-20 0 -41 1t-41 1q-74 0 -141 -7q-14 -2 -26.5 -4t-25.5 -2q-25 0 -45 15.5t-20 42.5q0 31 32.5 46t76 21t86.5 6h63q25 0 58.5 1t63.5 -3t52.5 -20.5t26.5 -48.5q0 -10 1 -22.5t1 -22.5q0 -43 -1 -86v-29q0 -28 1 -57l6 -160q-8 -90 -25.5 -147.5 t-36.5 -92.5q-23 -41 -47 -63q-41 -39 -93 -57.5t-107 -18.5h-9q-117 0 -211 68.5t-137 177.5q-35 86 -48 176t-21 182q-8 76 -13.5 151.5t-5.5 153.5z" />
<glyph unicode="h" horiz-adv-x="884" d="M20 88q0 49 2.5 98.5t2.5 100.5q0 74 -1 147.5t-1 145.5q0 178 5 341.5t5 319.5q0 86 -5 169t-5 169q0 23 14 39t37 20l26 -2q35 -16 41 -49t9 -65q2 -66 4 -128.5t2 -125.5q0 -86 -3 -168t-3 -166v-14v-82q53 2 108 5t111 3q53 0 105 -1t106 -3v82q0 162 2 322.5 t6 322.5q0 16 3 29.5t15 25.5q18 18 43 18q29 0 43.5 -19t14.5 -46q0 -117 -3.5 -230.5t-3.5 -230.5q0 -66 1 -122t1 -122q0 -14 -2 -28.5t-2 -30.5q0 -23 2 -47.5t2 -48.5q4 -147 4.5 -301t0.5 -301q0 -16 -2.5 -36t-8.5 -36t-18 -28.5t-33 -12.5q-31 0 -47 20.5t-16 49.5 v610v39q-47 2 -93.5 5t-93.5 3q-39 0 -77.5 -4t-77.5 -4q-23 0 -46.5 1t-46.5 -1l-2 -39q-5 -95 -5 -194q0 -48 1 -98q4 -150 4 -294q0 -16 -3 -34.5t-17 -32.5q-16 -18 -43 -19q-33 0 -47.5 24.5t-14.5 53.5z" />
<glyph unicode="i" horiz-adv-x="385" d="M82 621q0 217 6 432t6 432q0 16 -2 42.5t2 51.5t17.5 43t42.5 18q39 0 51 -32.5t12 -63.5q0 -260 -7 -517t-7 -519q0 -104 1 -209.5t3 -212.5q0 -18 -5 -37.5t-18 -34.5q-18 -14 -34 -14q-41 0 -51.5 30.5t-10.5 59.5q0 133 -3 265t-3 266z" />
<glyph unicode="j" horiz-adv-x="776" d="M23 315.5v20.5q0 25 15 49.5t44 24.5t41 -30t20 -77l2 -12q12 -72 59.5 -121t139.5 -49q59 0 95 32.5t46 90.5q4 29 5.5 56.5t1.5 55.5q0 111 5 221.5t5 221.5q0 195 -4 385t-4 383q0 29 15 50t46 21q23 0 35 -13t18 -31.5t8 -40t2 -35.5q0 -197 1.5 -390.5t1.5 -390.5 q0 -86 -1.5 -171t-5.5 -171q-3 -38 -3 -75v-18v-8q0 -42 -9 -85q-20 -98 -94 -154.5t-172 -56.5q-139 0 -210 70.5t-91 177.5l-10 49q-2 10 -2 20.5z" />
<glyph unicode="k" horiz-adv-x="980" d="M53 84q0 47 3 92t3 92q0 109 -2 216.5t-2 215.5q0 92 4 183.5t4 183.5q0 70 -3 139.5t-3 139.5q0 51 2 100t7 100q2 20 8 46t28 34q4 2 11.5 3t9.5 1q37 0 51 -22.5t14 -55.5q0 -49 -4 -98t-4 -100q0 -63 2 -127t2 -127q0 -70 -1 -138.5t-3 -138.5l53 60q43 49 80 104 t76 109q80 117 161 230.5t157 232.5q14 23 34.5 51t51.5 28q20 0 36.5 -16.5t16.5 -36.5q0 -16 -32 -70.5t-80 -128t-105.5 -156.5t-108.5 -157t-89 -127t-48 -67l55 -142q37 -94 83 -202.5t89 -200.5q6 -12 25.5 -52t39 -84t36 -81t16.5 -45q0 -27 -18.5 -43.5t-44.5 -16.5 q-23 0 -41 15q-8 6 -30 50t-50.5 108.5t-61 142.5t-64.5 155.5t-60.5 145l-47.5 112.5l-14 33l-119 -139v-123q0 -106 1 -211.5t3 -214.5q0 -25 -8 -50.5t-37 -35.5q-6 -2 -16 -2q-35 0 -50.5 28.5t-15.5 57.5z" />
<glyph unicode="l" horiz-adv-x="698" d="M27 335.5v276.5q0 217 5 432.5t5 432.5q0 16 -1 43.5t3 53t18.5 45t42.5 19.5q18 0 33 -14q12 -12 18.5 -52t7.5 -86v-45.5v-44.5q-1 -44 -1 -65q0 -193 -6.5 -382t-6.5 -382q0 -113 1 -223.5t4 -222.5q86 2 173 4q29 1 58 1q58 0 115 -3q23 0 37 -6t26 -27 q10 -16 10 -35q0 -29 -22.5 -40t-46.5 -11q-98 0 -193.5 -2t-191.5 -2q-31 0 -56.5 12.5t-27.5 46.5q-4 139 -4 276.5z" />
<glyph unicode="m" horiz-adv-x="1218" d="M29 51q0 12 2 23.5t4 21.5q2 47 2 92t4 93q4 55 6 111.5t4 111.5q4 123 12.5 245.5t8.5 245.5q0 80 4 159t4 159q0 19 -2 69q-1 20 -1 40q0 30 2 61q3 51 17.5 89t46.5 38q25 0 40.5 -19.5t25.5 -42.5q25 -57 46 -134t39.5 -158.5t35 -161.5t30.5 -144q8 -35 19.5 -67.5 t19.5 -67.5q27 -104 57.5 -203.5t61.5 -203.5q10 -31 18.5 -63t18.5 -62q43 131 84 264t74 268q6 31 21.5 95.5t34.5 144.5t39.5 166t41 161.5t38 131t30.5 71.5q8 12 21 22.5t30 10.5q18 0 29.5 -11.5t17.5 -26.5t9 -32.5t3 -31.5q2 -51 3 -101.5t1 -101.5q0 -68 4 -134.5 t4 -134.5q0 -188 7.5 -379.5t21.5 -381.5q4 -55 7 -114.5t3 -115.5q0 -27 -12 -50t-43 -23q-23 0 -36 13t-19 31.5t-8.5 40t-2.5 39.5q0 178 -14 355.5t-22 355.5q-3 69 -3 136v34v28q0 70 -4 142q-23 -98 -44 -193.5t-46 -189.5q-6 -27 -16 -52.5t-14 -51.5 q-4 -33 -13.5 -63t-19.5 -60q-10 -33 -21.5 -64.5t-19.5 -66.5q-18 -72 -48 -148t-44 -143q-6 -29 -21.5 -61.5t-50.5 -32.5l-12 2q-23 4 -40.5 34.5t-21.5 53.5q-14 66 -45.5 143.5t-48.5 153.5q-23 92 -53.5 179t-52.5 177q-25 98 -45.5 194.5t-42.5 194.5 q-4 -86 -4.5 -173t-4.5 -173q-8 -147 -15 -295.5t-17 -296.5q-2 -29 -3 -58.5t-1 -58.5v-36.5t-5.5 -39t-17.5 -30.5t-37 -12q-29 0 -45 17.5t-16 45.5z" />
<glyph unicode="n" horiz-adv-x="913" d="M10 1069l2 459q0 25 3 49.5t22 42.5q14 18 37 18q31 0 47 -29.5t26 -54.5q27 -66 49.5 -130t47.5 -130q41 -115 86 -226.5t86 -223.5q47 -127 106.5 -248t108.5 -246q2 53 3 106.5t1 106.5q0 156 -3 310.5t-3 310.5q0 53 1 104t1 105q0 37 -2 73.5t-2 71.5q0 29 13 57.5 t48 28.5q39 0 50.5 -30.5t11.5 -61.5q0 -94 -2.5 -188.5t-2.5 -188.5q0 -47 1.5 -91t3.5 -89q7 -135 7 -270v-33q-1 -152 -1 -303v-147t-6 -146q-4 -25 -16.5 -45.5t-41.5 -20.5q-27 0 -46 19.5t-30 42.5q-35 76 -66.5 151.5t-62.5 149.5q-20 47 -40.5 92t-38.5 92l-32 74 l-32 74q-10 23 -18.5 43t-18.5 43q-45 117 -88 230.5t-88 229.5v-84q0 -53 2 -107l4 -108q3 -139 3 -278v-69.5v-68.5q0 -139 3 -278q0 -47 3.5 -92t3.5 -90q0 -31 -14.5 -53.5t-49.5 -22.5q-37 0 -49 27.5t-12 58.5q0 135 -3.5 269t-3.5 270q0 39 1 76.5t1 76.5 q0 74 -5 146.5t-5 144.5z" />
<glyph unicode="o" horiz-adv-x="927" d="M14 872v28.5t2 31.5q6 88 15.5 179t34 177t70.5 160t128 127q35 23 81 43t87 20q84 0 141.5 -47t96.5 -121.5t60.5 -168t31.5 -187.5t12 -179t2 -142q0 -59 -5 -117t-11 -115q-10 -84 -30.5 -182t-62.5 -182t-113 -140.5t-179 -56.5q-76 0 -139 45q-57 39 -98.5 105.5 t-67 142.5t-36.5 154.5t-11 144.5q0 70 -4.5 139t-4.5 141zM135 722.5q0 -79.5 6 -159.5t20.5 -155.5t41.5 -133.5q10 -23 25.5 -47t35 -45.5t41 -38t45.5 -20.5q6 -2 17 -2q12 0 29.5 3t37 9t35.5 13.5t25 15.5q10 8 16 19.5t14 21.5q41 59 66.5 132t39 150.5t18.5 156.5 t5 151q0 57 -2 141t-11 171t-25.5 167t-43.5 129q-8 14 -16 26.5t-18 24.5q-23 31 -43.5 47.5t-61.5 16.5q-29 0 -55.5 -12.5t-48.5 -28.5q-16 -12 -31.5 -24.5t-32.5 -29.5q-39 -39 -63.5 -109.5t-39 -151.5t-20.5 -159.5t-6 -132.5v-145.5z" />
<glyph unicode="p" horiz-adv-x="845" d="M8 84q0 135 4 267t4 267q0 141 -1 282v95q0 94 1 189q0 72 7.5 143.5t7.5 142.5q0 16 -3 34t-3 34q0 90 90 90q33 0 65 -2q15 -1 31.5 -1t32.5 1q45 2 89 7t91 5q82 0 139.5 -29.5t93 -79.5t51 -118t15.5 -143q0 -45 -8 -106.5t-24.5 -124t-44.5 -116t-66 -83.5 q-31 -23 -72 -34t-87 -16.5t-90 -7.5t-81 -8q-43 -6 -82 -6h-37q1 -116 1 -230v-113q-1 -169 -5 -343q0 -16 -3 -33.5t-18 -30.5q-16 -16 -38 -16q-41 0 -50.5 24.5t-9.5 59.5zM133 885q23 0 77 4t113.5 10t110.5 14.5t68 18.5q27 16 46 60t31.5 96.5t18.5 102.5t6 81 q0 25 -4 54.5t-12 59t-21.5 56t-29.5 45.5q-20 23 -57 28t-66 5q-66 0 -133.5 -7.5t-135.5 -7.5v-54q0 -94 -5 -187q-7 -119 -7 -242v-72v-65z" />
<glyph unicode="q" horiz-adv-x="905" d="M14 872v29.5t2 30.5q6 94 16.5 192.5t40 188.5t84 164.5t150.5 121.5q29 14 60.5 24.5t60.5 10.5q76 0 130 -37.5t91 -100t58.5 -140.5t33 -158t16.5 -153.5t7 -126.5l4 -66t2 -66q0 -47 -5 -93t-9 -93q-6 -66 -15.5 -128t-25 -122.5t-41 -118t-64.5 -110.5 q4 -10 14.5 -30.5t19.5 -42t16.5 -40t7.5 -26.5q0 -25 -16.5 -42.5t-41.5 -17.5q-16 0 -30.5 13.5t-26.5 31t-21.5 37t-15.5 31.5q-70 -33 -141 -33q-80 0 -144 43q-57 41 -97 105.5t-64.5 140.5t-35.5 153.5t-11 145.5q0 72 -4.5 141.5t-4.5 140.5zM133 870q0 -61 1 -142 t7 -163t20.5 -159.5t39.5 -133.5q8 -20 23.5 -43.5t35 -46t42 -39t44.5 -20.5h16q27 0 55.5 8t51.5 19q-4 10 -18.5 40.5t-29.5 64.5t-27.5 62.5t-12.5 32.5q0 23 21.5 42.5t43.5 19.5q20 0 37 -18.5t30 -43t23.5 -51.5t16.5 -43q29 51 47 119.5t28.5 141.5t14.5 143.5 t4 130.5q0 57 -3 141t-11 170t-24.5 166t-43.5 131q-8 14 -16 26.5t-19 24.5q-20 29 -40.5 46t-61.5 17q-31 0 -56.5 -12t-49.5 -31q-16 -10 -31 -23t-29 -28q-39 -37 -63.5 -107.5t-39 -150.5t-20.5 -159t-6 -132z" />
<glyph unicode="r" d="M25 784q0 49 2 98.5t2 100.5q0 20 -1 71.5t-2 118t-1 139t1 135t3 105.5t6 54q10 20 29.5 26t37.5 6q29 0 57.5 -2t57.5 -2q25 0 62.5 2t77.5 3t76 1t59 -6l8 -2q59 -23 102 -71t69.5 -108t39 -126.5t12.5 -126.5q0 -47 -10.5 -107.5t-32 -120t-54 -108.5t-77.5 -73 q31 -57 44 -130t17 -150t4 -153.5t4 -140.5q2 -37 4.5 -75t2.5 -74q0 -25 -15.5 -46.5t-44.5 -21.5q-10 0 -20 4t-19 8q-16 10 -21 63.5t-7 129.5t-3 164t-7.5 168.5t-22.5 142t-47 86.5q-63 2 -125 6t-125 4q-14 0 -23 -2q-2 -41 -2 -83v-83q0 -131 4.5 -261t4.5 -261 q0 -31 -13.5 -55.5t-48.5 -24.5q-27 0 -40 16.5t-18 39t-5 47v43.5q0 160 -1 316t-1 316zM147 897q19 1 38 1q47 0 95 -4q66 -5 132 -5h39.5t35.5 4q4 2 11.5 10t14.5 17.5t14.5 18.5t9.5 13q35 53 49 120t14 130q0 43 -7 89t-24.5 89t-45 78t-68.5 55q-16 0 -29.5 1.5 t-30.5 1.5q-63 0 -125 -4q-29 -2 -57 -1q-33 0 -66 2v-53q0 -90 2.5 -179t2.5 -179v-68q0 -35 -1 -68.5t-4 -68.5z" />
<glyph unicode="s" horiz-adv-x="786" d="M18 383q0 29 16.5 54.5t47.5 25.5q33 0 42 -34t13 -82t17.5 -102.5t56.5 -94.5q25 -23 68 -26t75 -3q51 0 88 20.5t58.5 54t32 77.5t10.5 89q0 61 -16.5 106.5t-45.5 98.5q-37 72 -85 122t-98 91t-97 80t-84 88t-59.5 113.5t-22.5 161.5q0 82 19.5 156.5t60.5 132 t105.5 92t154.5 34.5q72 0 121 -21.5t79.5 -61t45 -95t14.5 -123.5q0 -18 -1 -42.5t-7 -47t-19.5 -39t-38.5 -16.5q-29 0 -44 17t-15 46q0 25 5 48.5t5 48.5q0 74 -32.5 122t-112.5 48q-66 0 -108 -29t-66.5 -73t-34.5 -99t-10 -109q0 -100 41 -165.5t120 -122.5 q66 -47 128.5 -108.5t110.5 -134.5t77 -154t29 -165q0 -174 -86.5 -268t-262.5 -94q-82 0 -138 33t-91 87t-50.5 122.5t-15.5 140.5z" />
<glyph unicode="t" horiz-adv-x="864" d="M-80 1579q0 25 25 49l22 8q72 0 143.5 1t143.5 1h426q27 0 50.5 -17t23.5 -46q0 -39 -31 -50.5t-59 -11.5q-41 0 -81 3.5t-81 3.5q-35 0 -68 -1h-22q-22 0 -45 1q1 -55 1 -109q0 -143 -8 -283q-10 -192 -10 -389q0 -170 3 -336.5t3 -334.5q0 -25 -11 -46.5t-40 -21.5 q-35 0 -50 14.5t-21.5 38t-5.5 50t1 51.5v651q0 178 10.5 352t10.5 350v13q-30 -1 -60 -1h-29.5h-28.5q-30 0 -60 -1h-44t-49.5 4t-41 17t-17.5 40z" />
<glyph unicode="u" horiz-adv-x="856" d="M4 1470q-1 12 -1 24q0 25 3 50q4 37 18.5 63.5t45.5 26.5q35 0 50 -27.5t15 -56.5q0 -31 -4 -61.5t-4 -61.5q0 -154 7 -308t7 -310q0 -61 2 -122.5t4 -125.5q0 -57 3.5 -132t24 -142.5t63.5 -114.5t124 -47q57 0 94.5 23.5t65.5 70.5q39 61 45 142t8 151 q4 250 13.5 497.5t9.5 495.5q0 16 -1 39t2 44.5t14.5 35.5t35.5 14q43 0 55.5 -33.5t12.5 -68.5q0 -262 -5 -520t-14 -520q0 -41 -4 -90.5t-13 -97.5t-24.5 -93t-40.5 -78q-29 -41 -57.5 -67.5t-60 -42t-69.5 -21.5t-85 -6q-80 0 -134 38t-101 99q-25 33 -40.5 78t-24.5 93 t-13 97.5t-4 90.5q-4 180 -4 359t-9 359q-4 49 -6 98.5t-2 96.5q0 23 -2 61z" />
<glyph unicode="v" horiz-adv-x="915" d="M-57 1575q0 57 57 63q4 1 9 1q26 -1 38 -23q14 -26 19 -53q29 -209 78 -422t96 -418q27 -117 56 -229.5t62 -225.5q72 238 124.5 476.5t111.5 478.5q4 16 17.5 76.5t26.5 127t25.5 121t16.5 60.5q14 25 45 24q25 0 42 -17.5t17 -39.5q0 -39 -10 -96.5t-25.5 -120 t-31 -120.5t-23.5 -97q-47 -186 -84 -373.5t-90 -374.5q-20 -72 -39.5 -141.5t-38.5 -140.5q-6 -23 -15 -51.5t-26 -45.5q-14 -10 -36 -14h-5q-20 0 -38 26q-20 30 -36 73.5t-26 83.5t-14 55q-76 248 -132.5 495.5t-109.5 499.5q-8 33 -18.5 79t-19.5 93t-16 92t-7 78z" />
<glyph unicode="w" horiz-adv-x="1300" d="M2 1573q0 25 12.5 43t38.5 18q41 0 60 -35q6 -12 16 -63t21.5 -113.5t20.5 -119t13 -76.5q41 -211 82 -420t88 -420q45 291 101.5 578.5t85.5 580.5q4 25 17 50.5t46 25.5q25 0 37 -17.5t16 -39.5l2 -19q16 -82 22.5 -162.5t20.5 -164.5q37 -209 75 -415t71 -417 q51 231 97 460.5t87 463.5q2 14 10.5 58t17.5 92t17 89t13 49q6 10 21 24.5t28 14.5h8l22 -10l21 -18l-4 -4l10 -7q4 -6 4 -22q0 -39 -11 -84t-18 -84q-8 -57 -19 -113.5t-24 -113.5q-43 -217 -86 -431t-88 -432q-12 -55 -23 -109t-24 -110q-6 -31 -19.5 -64.5t-51.5 -33.5 q-25 0 -38.5 15.5t-20.5 37t-9 45t-4 41.5q-8 90 -24.5 178.5t-32.5 178.5q-27 160 -52.5 317.5t-54.5 317.5q-25 -160 -52.5 -318t-51.5 -317q-14 -90 -33 -178.5t-25 -178.5q-2 -18 -4 -41.5t-9 -46t-20.5 -38t-37.5 -15.5q-39 0 -52.5 30.5t-19.5 61.5 q-10 57 -22.5 113.5t-24.5 111.5q-45 217 -88 432.5t-86 432.5q-16 86 -29.5 172t-34.5 170q-4 12 -6 24.5t-2 24.5z" />
<glyph unicode="x" horiz-adv-x="870" d="M-10 59q0 16 5 31.5t11 32.5q35 86 67.5 172t65.5 174q35 92 67 184t68 185q-20 59 -43.5 115.5t-46.5 115.5q-47 123 -93 245t-85 249l6 10h-6q-4 29 14.5 44t47.5 15q18 0 31.5 -10t19.5 -27q59 -147 106 -297.5t113 -293.5q39 117 87 227t97 221q16 35 30.5 80 t37.5 78q19 28 51 28h2q23 0 40 -17t17 -40q0 -18 -22.5 -73.5t-51 -121t-56 -125t-38.5 -85.5l-2 -7q-29 -86 -59.5 -170t-69.5 -163q63 -190 147.5 -371.5t164.5 -364.5q6 -12 11 -24.5t5 -26.5q0 -25 -17.5 -37t-39.5 -12q-35 0 -53.5 23.5t-30.5 52.5 q-70 145 -131.5 292.5t-118.5 299.5q-53 -141 -107.5 -284.5t-99.5 -287.5q-10 -31 -26.5 -63.5t-53.5 -32.5q-29 0 -45 15t-16 44z" />
<glyph unicode="y" horiz-adv-x="808" d="M-53 1581q0 23 15 39t40 16q37 0 59 -28q6 -8 25.5 -53.5t46.5 -112t56.5 -143t56 -148.5t48 -128t32.5 -81q53 129 102 260t94 264q10 31 17.5 63t19.5 60q8 20 23.5 34.5t38.5 14.5q27 0 43 -18t16 -45q0 -23 -11.5 -47.5t-19.5 -46.5q-33 -94 -64.5 -188.5 t-66.5 -190.5q-23 -63 -50.5 -125t-49.5 -127q-8 -23 -20.5 -48.5t-12.5 -49.5q0 -59 3 -116.5t3 -117.5q0 -41 -2 -80t-2 -80q0 -23 2 -74t2 -106t-4 -102t-16 -62q-14 -14 -35 -14q-25 0 -38 10t-19.5 26.5t-7.5 35t-1 37.5v229v215t-2 213q-27 51 -47 113.5t-43 117.5 q-47 115 -89 230.5t-91 228.5q-4 10 -13.5 27.5t-17.5 36t-14 35t-6 26.5z" />
<glyph unicode="z" horiz-adv-x="913" d="M12 1573q0 29 18.5 42t45.5 15q135 8 272 8h273h40.5t43 -6t35 -19.5t14.5 -37.5q0 -16 -10.5 -43t-24.5 -55.5t-28.5 -56t-22.5 -46.5q-133 -311 -247 -624.5t-243 -626.5h15q72 0 143.5 5t142.5 5q49 0 98.5 2t100.5 2q31 0 61.5 -10t30.5 -51q0 -23 -13.5 -38 t-35.5 -22l-6 4l-4 -6q-26 1 -52.5 1t-52.5 -1q-52 -2 -104 -2q-84 0 -166 -6t-166 -6h-39.5t-42 5t-36 15.5t-21.5 32.5v10q-2 16 4 31t14 29q20 37 40 82t37 92t33.5 95t33.5 89q66 176 130 350.5t132 348.5q35 86 70.5 171t76.5 171h-37l-356 -2q-33 0 -64.5 -2t-62.5 -2 q-27 0 -48.5 14t-21.5 43z" />
<glyph unicode="{" horiz-adv-x="569" d="M33 840q0 25 19.5 41t42 35.5t42 46t19.5 73.5q0 35 -7.5 69t-15.5 68.5t-15 69.5t-7 70q0 68 17 127t53 103t90.5 69.5t125.5 25.5q23 0 41.5 -13t18.5 -38q0 -35 -18.5 -47t-44 -15t-52.5 -5t-43 -17q-39 -35 -54.5 -88t-15.5 -100q0 -35 7.5 -70t16.5 -68.5t16 -68.5 t7 -70q0 -33 -5 -55t-14 -42.5t-23.5 -39t-32.5 -43.5q76 -49 75 -137q0 -43 -16 -90t-35.5 -94.5t-36 -94.5t-16.5 -92q0 -29 8 -59.5t23.5 -59t36 -53t45.5 -39.5q10 -6 19 -10t20 -8q16 -10 26 -26.5t10 -35.5q0 -25 -17 -42t-44 -17q-16 0 -27.5 6t-25.5 14 q-43 23 -79 59t-60.5 81t-39 94t-14.5 96q0 55 15.5 105.5t34 96.5t34 90t15.5 89q0 18 -18.5 26.5t-41 16.5t-41 22.5t-18.5 43.5z" />
<glyph unicode="|" horiz-adv-x="360" d="M57 362v356.5t2 354.5q2 63 5.5 125t3.5 125q0 66 -4.5 129.5t-4.5 128.5q0 23 19.5 39t42.5 16q35 0 47 -23.5t12 -51.5q0 -43 2 -86t2 -86q0 -119 -5 -236t-5 -235q0 -147 -1 -291t-1 -291q0 -66 7 -129.5t7 -128.5q0 -27 -14 -53.5t-45 -26.5q-29 0 -45 22.5t-16 49.5 v6l32 2l-32 2q-4 72 -6.5 141.5t-2.5 140.5z" />
<glyph unicode="}" horiz-adv-x="602" d="M29 1587q0 25 18.5 38t40.5 13q72 0 126 -25.5t90 -69.5t53.5 -103.5t17.5 -126.5q0 -35 -7.5 -70t-15.5 -69.5t-15 -68.5t-7 -69q0 -47 19.5 -73.5t42 -46t42 -36t19.5 -40.5q0 -29 -18.5 -43.5t-41 -22.5t-41 -16t-18.5 -27q0 -45 15.5 -89t33.5 -90t33.5 -95 t15.5 -107q0 -47 -14.5 -96t-39 -94t-60 -81t-78.5 -59q-14 -8 -25.5 -14t-28.5 -6q-27 0 -44 17.5t-17 41.5q0 41 39 62q8 4 17 8t20 10q25 14 45 39t35.5 53.5t24.5 59.5t9 59q0 45 -16 92t-35.5 94.5t-36 94.5t-16.5 90q0 90 74 137q-18 25 -32.5 43.5t-24 39t-14.5 43 t-5 54.5q0 35 7 70t16.5 68.5t16.5 68.5t7 70q0 47 -15.5 100t-54.5 88q-16 14 -42.5 16.5t-52 5.5t-44 15t-18.5 47z" />
<glyph unicode="~" horiz-adv-x="1191" d="M10 696q0 18 10 43q39 86 120 144.5t179 58.5q80 0 130.5 -36t91.5 -78t83 -77.5t109 -35.5q25 0 53.5 13t56 33.5t47 45t25.5 49.5q6 23 18.5 44.5t41.5 21.5q27 0 44 -18.5t17 -45.5q0 -49 -31.5 -97t-77.5 -85t-101.5 -60.5t-100.5 -23.5q-84 0 -138.5 36t-97.5 80 t-80.5 79.5t-84.5 35.5q-61 0 -108.5 -39t-82.5 -82l2 7q-6 -23 -26.5 -45.5t-45.5 -22.5t-39 16.5t-14 38.5z" />
<glyph unicode="&#xa1;" horiz-adv-x="344" d="M53 870q0 92 3 184.5t3 184.5q0 29 11.5 57.5t48.5 28.5q20 0 35 -14q12 -12 17 -30.5t5 -37.5q-2 -80 -3 -159.5t-1 -159.5q0 -211 6 -419t6 -419q0 -31 -12 -60.5t-49 -29.5q-29 0 -41 16.5t-15.5 39t-2 48t1.5 41.5q0 184 -6.5 365.5t-6.5 363.5zM57 1489v38.5t5.5 46 t16.5 38t34 16.5q35 0 54 -20.5t19 -55.5q0 -18 -1 -42.5t-7 -47t-20.5 -38t-38.5 -15.5q-39 0 -50.5 24.5t-11.5 55.5z" />
<glyph unicode="&#xa2;" horiz-adv-x="808" d="M20 811q0 76 7.5 157t30 157.5t61.5 143t104 115.5q35 27 75 43.5t85 16.5q47 0 96 -23q4 18 9.5 41t14.5 44.5t23.5 35.5t36.5 14q23 0 39 -18t16 -41q0 -37 -14 -85t-24 -83q41 -59 57 -134t16 -146q0 -16 -1 -38t-7 -42.5t-18.5 -34.5t-34.5 -14q-33 0 -48.5 21.5 t-15.5 49.5q0 18 3.5 35.5t3.5 34.5q0 25 -3.5 48.5t-7.5 45.5q-25 -94 -54.5 -187.5t-57.5 -185.5q-37 -123 -72 -243.5t-68 -243.5q23 -29 58 -45.5t71 -16.5q14 0 28.5 8.5t25.5 18.5q37 29 45 79t11 98t11 83t47 35q45 0 55.5 -31.5t10.5 -66.5t-4 -77t-15.5 -82 t-30 -76t-48.5 -58q-29 -23 -65 -38t-75 -15q-43 0 -84 14t-77 39q-14 -47 -30 -94t-28 -97q-4 -23 -22.5 -39t-42.5 -16q-23 0 -39.5 17.5t-16.5 39.5q0 12 11.5 52.5t27 87.5t28.5 91t19 62q-37 68 -60.5 133.5t-37.5 131t-19.5 134t-5.5 144.5zM141 844 q0 -92 11.5 -195.5t40.5 -191.5q25 96 50 189t54 190q18 61 41.5 122.5t40.5 124.5q16 57 31.5 112.5t35.5 111.5q-14 8 -28.5 13t-30.5 5q-35 0 -63.5 -18.5t-53.5 -40.5q-37 -29 -61.5 -82.5t-39.5 -113.5t-21.5 -120.5t-6.5 -105.5z" />
<glyph unicode="&#xa3;" horiz-adv-x="890" d="M10 59q-4 20 14.5 50t43 61t49 60.5t35.5 52.5q23 43 39 96t28 109.5t18.5 112.5t6.5 106q-29 -4 -59.5 -6.5t-59.5 -2.5q-31 0 -49.5 17.5t-18.5 48.5q0 29 24.5 44t49.5 15h56.5t56.5 2q-2 84 -7.5 166t-5.5 164q0 76 10.5 156t41 147.5t87 116.5t148.5 61l14 2 q61 8 102.5 -23.5t67 -82.5t37 -112.5t11.5 -112.5q0 -27 -16.5 -47.5t-45.5 -20.5t-42 20.5t-20.5 51t-11.5 66.5t-11 67t-22 51.5t-46 20.5q-20 0 -44 -8.5t-38 -24.5q-6 -4 -13.5 -9.5t-13.5 -11.5q-27 -27 -41 -66.5t-21.5 -83.5t-8.5 -88t-1 -79q0 -72 8.5 -141.5 t4.5 -139.5l-2 -41q25 -2 49 -3t49 -1q16 0 39.5 1t45 -3t37 -16.5t15.5 -38.5q0 -41 -31.5 -52.5t-60.5 -11.5q-37 0 -73 1t-70 6q-8 -131 -30 -255t-85 -241q57 23 119 22q31 0 71.5 -11t78.5 -31.5t64.5 -49t26.5 -65.5q0 -23 -13 -41.5t-40 -18.5q-18 0 -34.5 15.5 t-37 33t-48 33t-70.5 15.5t-88.5 -17.5t-85 -38t-71.5 -38t-52 -17.5t-37 13.5t-21 31.5z" />
<glyph unicode="&#xa4;" horiz-adv-x="880" d="M-2 1249q0 20 13.5 41t35.5 21q27 0 48.5 -14.5t41 -35t35.5 -43t33 -38.5q47 27 97 39t104 12q39 0 64.5 -5t59.5 -20q31 33 57.5 68t55.5 72l8 8q4 6 10.5 9t12.5 5h2q4 0 8 1t8 1q27 0 41.5 -19t14.5 -42q0 -18 -14.5 -42t-34 -47.5t-40 -46t-32.5 -36.5 q47 -47 66.5 -109.5t19.5 -128.5q0 -49 -8.5 -102.5t-27 -105.5t-46 -97t-64.5 -78q12 -16 31.5 -40.5t39 -51.5t33 -52.5t13.5 -43.5q0 -20 -15.5 -40t-37.5 -20q-14 0 -28.5 6.5t-24.5 16.5q-8 8 -24.5 31.5t-35 51t-36 53.5t-27.5 40q-35 -6 -66 -6q-25 0 -50.5 3 t-49.5 11q-27 -35 -54.5 -72.5t-46.5 -76.5q-10 -23 -25.5 -45.5t-43.5 -22.5q-25 0 -42.5 18.5t-17.5 40.5q0 16 15.5 45t35 60t40 58.5t30.5 43.5q-80 53 -121 137t-41 179q0 31 8.5 65.5t21.5 68.5t30.5 65.5t36.5 56.5q-20 25 -37 47t-39 45l-6 6l-6 6 q-10 10 -19.5 21.5t-9.5 27.5zM141 848q0 -55 17.5 -103.5t50.5 -85t79 -58t101 -21.5q16 0 42 3t40 9q31 14 53.5 53t38 87t23.5 95t8 78q0 39 -12.5 76t-36 66.5t-56 48t-75.5 18.5q-41 0 -85 -10t-75 -39q-43 -37 -78 -97.5t-35 -119.5z" />
<glyph unicode="&#xa5;" horiz-adv-x="827" d="M-51 1577q0 27 17.5 44t41.5 17q27 0 40 -14t24 -37q35 -72 61.5 -147.5t54.5 -151.5q35 -90 70 -178l70 -176q41 117 90 231.5t86 233.5q14 47 26.5 96t30.5 92q8 18 22.5 33.5t37.5 15.5t42 -16t19 -39q0 -18 -12.5 -64.5t-33 -104.5t-44 -123.5t-47 -126t-42 -107.5 t-28.5 -68q31 0 59.5 -10t28.5 -51q0 -23 -14 -35t-31 -23q-23 -2 -44 -4t-44 0l-16 -45q18 0 45.5 2t53.5 0t43 -14t17 -43q0 -39 -24.5 -53.5t-59.5 -14.5h-102q6 -98 6 -198q0 -41 -2 -82t-2 -82q0 -37 3 -75t3 -75q0 -20 -2 -39.5t-2 -40.5q0 -20 1 -38.5t-3 -33 t-17.5 -23.5t-41.5 -9q-47 0 -58 47q0 6 -1 44t-1 84v89v55q0 94 1 188.5t-1 188.5h-37q-18 0 -40.5 -1t-42 3t-33 17.5t-13.5 42.5q0 27 14.5 39t35 17t44 4t42.5 -1l-17 45q-10 0 -19 1t-20 1q-16 0 -32.5 1t-28.5 6.5t-19.5 17.5t-7.5 35q0 41 24.5 49t55.5 10 q-4 12 -22.5 60.5t-44 113t-54 137t-52 134t-39 103.5t-15.5 46z" />
<glyph unicode="&#xa6;" horiz-adv-x="331" d="M78 78v72.5v123v145.5t2 142.5t5 110.5t9 53q14 18 41 18q29 0 47.5 -14t18.5 -43q0 -66 -2 -132.5t-2 -131.5q0 -90 2 -179t2 -180q0 -29 -14.5 -46t-43.5 -17q-39 0 -52 21.5t-13 56.5zM78 930q0 166 3 329.5t3 329.5q0 25 20.5 37t42.5 12q23 0 38.5 -12t15.5 -37 q0 -166 -3 -329.5t-1 -329.5q0 -10 -1 -17.5t-8 -15.5q-8 -10 -22 -16.5t-27 -6.5q-23 0 -42 16.5t-19 39.5z" />
<glyph unicode="&#xa7;" horiz-adv-x="804" d="M0 231q0 25 15.5 44.5t41.5 19.5q31 0 39 -18.5t17.5 -43t30 -51t75.5 -45.5q20 -6 38.5 -10t41.5 -4q33 0 68.5 7t66.5 23.5t51.5 43t20.5 67.5q0 43 -20.5 82t-55.5 64q-41 27 -86 43t-86 39q-23 10 -40 24t-38 29q-12 10 -25.5 18t-25.5 19q-49 43 -73.5 104.5 t-24.5 126.5q0 145 125 229q-53 39 -89 96.5t-36 125.5q0 176 99 275t280 99q113 0 175 -68.5t62 -178.5q0 -18 -2 -43t-10 -46.5t-23.5 -37t-42.5 -15.5t-40 19.5t-13 42.5q0 18 5 35.5t5 37.5q0 63 -25.5 101.5t-94.5 38.5q-117 0 -184.5 -64.5t-67.5 -181.5 q0 -47 22.5 -80t58 -57.5t80.5 -44t90.5 -40t86 -45t67.5 -59.5q18 -23 31.5 -51.5t23.5 -54.5q16 -39 25.5 -78t9.5 -82q0 -66 -15.5 -132.5t-55.5 -119.5q23 -37 37 -79t14 -87q0 -66 -29 -115t-75 -83.5t-104.5 -52t-115.5 -17.5q-53 0 -107.5 13.5t-98.5 41t-71.5 71.5 t-27.5 105zM152 807q0 -63 35.5 -106.5t88 -76t109.5 -57t102 -49.5q41 76 41 164q0 10 -1 19.5t-3 19.5q-8 61 -27.5 100t-49 65.5t-70.5 46t-92 42.5q-53 -29 -93 -65t-40 -103z" />
<glyph unicode="&#xa8;" horiz-adv-x="479" d="M8 1753q0 29 19.5 51.5t48.5 22.5t46 -19.5t17 -48.5t-18.5 -50t-48.5 -21q-29 0 -46.5 18t-17.5 47zM227 1753q0 29 19.5 51.5t48.5 22.5t46 -19.5t17 -48.5t-18 -50t-49 -21q-29 0 -46.5 18t-17.5 47z" />
<glyph unicode="&#xa9;" horiz-adv-x="1048" d="M0 969q0 55 13.5 122.5t37 135t53 129t62.5 104.5q33 41 76 72t92 51q35 14 68.5 25.5t72.5 11.5q20 0 45 -6q68 -12 135.5 -48t108.5 -96q37 -51 62.5 -114.5t42 -131t24.5 -136.5t8 -130q0 -78 -18.5 -159.5t-53 -157.5t-89 -139.5t-124.5 -104.5l-24 -14 q-37 -23 -67.5 -31t-73.5 -8q-115 0 -200 61.5t-140.5 154.5t-83 202.5t-27.5 206.5zM119 983q0 -72 19.5 -162t60.5 -170t104.5 -134t153.5 -54q35 0 54 10t50 27q57 29 98 82t68 115.5t39 131t12 127.5q0 72 -9 154t-34.5 157.5t-74 136t-128.5 87.5q-23 6 -47 6 q-84 0 -147.5 -46t-107.5 -115.5t-70.5 -150.5t-38.5 -151q-2 -10 -2 -24.5v-26.5zM215 958q0 35 4 70t14 68q12 35 36 72.5t54.5 68.5t67.5 51.5t78 20.5q25 0 51.5 -10.5t50 -27t39 -39t15.5 -48.5q0 -27 -17.5 -40.5t-42.5 -13.5q-18 0 -29.5 9.5t-20.5 22t-19.5 21.5 t-24.5 9q-35 0 -60.5 -27.5t-42 -66.5t-24.5 -80t-8 -68q0 -23 4 -51.5t15.5 -53t29.5 -42t49 -17.5q35 0 56.5 15.5t37 34t29.5 34t37 15.5q25 0 40 -17.5t15 -40.5q0 -35 -21.5 -63.5t-53 -51t-67.5 -34.5t-65 -12q-61 0 -105 26.5t-70.5 67.5t-39 93t-12.5 105z" />
<glyph unicode="&#xaa;" horiz-adv-x="577" d="M2 1270q0 57 17.5 119.5t51 114.5t83 86t114.5 34q25 0 55.5 -7t56.5 -21.5t44 -36t18 -50.5t-6 -65.5t-12 -74.5t-12 -77t-6 -71q0 -18 1 -42t-3.5 -46.5t-17.5 -38t-42 -15.5q-33 0 -47 25q-27 -20 -59.5 -30.5t-65.5 -10.5q-41 0 -72.5 18.5t-53 48t-33 66.5t-11.5 74 zM119 1282q0 -31 12 -64.5t51 -33.5q33 0 56 22q14 16 29.5 55t27.5 83.5t20.5 86.5t10.5 64q-23 14 -50 14q-35 0 -64.5 -23.5t-50 -59t-31.5 -74.5t-11 -70z" />
<glyph unicode="&#xab;" horiz-adv-x="1382" d="M10 653q0 29 19.5 52.5t40.5 42.5q66 61 129 124.5t129 124.5q45 41 89 83t89 85q20 20 39.5 42t42.5 40q20 16 45 17l22 -11l21 -22l8 -25q-4 -23 -13 -38t-26 -29q-121 -121 -247 -234.5t-244 -236.5q78 -47 159.5 -89t163.5 -79q43 -20 83 -45t81 -47q23 -10 41 -26.5 t18 -43.5q0 -25 -14 -41t-41 -16q-18 0 -40.5 8t-45 20.5t-45 25.5t-37.5 23q-18 12 -57 33t-87 45.5t-100.5 51t-96.5 51t-75.5 44t-37.5 31.5q-12 18 -13 39zM520 678q0 29 19.5 52.5t40.5 41.5q66 61 129 125t129 123q45 43 89 85t89 85q20 18 39.5 40.5t42.5 41.5 q20 16 45 16l22 -10l21 -23l8 -24q-4 -23 -13.5 -38t-25.5 -32q-121 -121 -247 -233.5t-244 -235.5q78 -47 159.5 -89t163.5 -79q43 -20 83 -46.5t81 -47.5q23 -10 41 -25.5t18 -42.5q0 -25 -14 -41t-41 -16q-18 0 -40.5 8.5t-46.5 20.5t-45.5 25.5t-35.5 23.5 q-18 12 -57 32.5t-87 44t-100.5 51.5t-96.5 51.5t-75.5 44t-38.5 32.5q-12 14 -12 39z" />
<glyph unicode="&#xac;" horiz-adv-x="899" d="M-6 786q14 39 53 39q43 0 87 1t87 1q31 0 61.5 -2t63.5 -2q78 0 155 -2t154 -2h41l25 -10l20 -23l9 -24q-8 -78 -6.5 -157t1.5 -156v-35t-4 -35.5t-15 -26.5t-34 -10q-29 0 -48 19.5t-19 48.5q0 72 -1 145.5t3 144.5q-59 2 -120 3.5t-120 1.5h-96q-18 0 -59.5 -2.5 t-84.5 -2.5t-80.5 5.5t-50.5 19.5q-16 16 -16 45l2 14z" />
<glyph unicode="&#xad;" horiz-adv-x="835" d="M8 715q0 23 12.5 36t31 20t40 9t37.5 2q55 0 110.5 -2t110.5 -2q45 0 88 2t88 2h51t66 -5t56.5 -19.5t23.5 -40.5q0 -23 -14.5 -34t-34 -16t-42 -6.5t-36.5 -1.5q-35 0 -68.5 2.5t-68.5 2.5q-90 0 -178 -3.5t-179 -3.5q-12 0 -28.5 2.5t-30.5 8.5t-24.5 17t-10.5 30z" />
<glyph unicode="&#xae;" horiz-adv-x="1038" d="M-12 956q0 55 13 123t36.5 135.5t53.5 129t65 104.5q33 41 75.5 71.5t90.5 51.5q35 14 69.5 25.5t71.5 11.5q20 0 45 -6q68 -12 136.5 -48t109.5 -96q37 -51 62.5 -114.5t41.5 -131t23.5 -136t7.5 -130.5q0 -78 -16.5 -162t-52.5 -160.5t-89 -139t-127 -99.5l-24 -12 q-37 -18 -67 -29.5t-75 -11.5q-115 0 -199.5 61.5t-140 154.5t-83 202.5t-27.5 205.5zM106 973q0 -72 19.5 -163t60.5 -171t104.5 -134t153.5 -54q35 0 55.5 10t49.5 26q57 29 98 82.5t67.5 116t39 131t12.5 127.5q0 72 -9 155t-35 158.5t-74 135t-126 86.5q-12 4 -24.5 5 t-24.5 1q-84 0 -147.5 -46t-107.5 -116t-70.5 -149.5t-38.5 -149.5q-2 -12 -2.5 -25.5t-0.5 -25.5zM268 864q0 59 4 119.5t4 120.5q0 49 -2 79.5t8.5 48t38.5 24t87 6.5q33 0 82 -5.5t73 -27.5q16 -16 26.5 -45t15.5 -63t7 -65.5t2 -54.5q0 -90 -90 -118q16 -35 36 -78 t20 -80q0 -25 -16.5 -45.5t-43.5 -20.5q-23 0 -35 12.5t-20 29t-13.5 36t-9.5 35.5q-10 27 -22 50.5t-23 49.5h-10q0 -31 3 -62.5t3 -61.5q0 -33 -12 -66t-53 -33q-23 0 -35 11.5t-17.5 29t-5.5 35.5v33q0 29 -1 54.5t-1 51.5zM389 995q25 0 49.5 -1t46.5 1l4 2 q0 8 1.5 16.5t1.5 16.5q0 27 -4.5 53.5t-14.5 51.5q-16 2 -30.5 4t-30.5 2h-11l-8 -2q-2 -35 -2 -72t-2 -72z" />
<glyph unicode="&#xaf;" horiz-adv-x="686" d="M-2 1761q0 25 19.5 38t41.5 16q109 10 217.5 9t217.5 -1q23 0 42 -12.5t19 -41.5q0 -23 -17.5 -42t-39.5 -23q-47 -6 -103.5 -7t-114 -1t-113.5 1t-106 1q-29 0 -46 17.5t-17 45.5z" />
<glyph unicode="&#xb0;" horiz-adv-x="466" d="M14 1325q0 41 10.5 92t33 97.5t58.5 77t87 30.5q43 0 68.5 -20.5t41 -51t20.5 -67.5t5 -70q0 -37 -7 -92t-24.5 -107.5t-49.5 -89.5t-81 -37q-51 0 -83 23t-49 56.5t-23.5 75.5t-6.5 83zM133 1325q0 -8 1 -27.5t5 -40t11.5 -36t21.5 -13.5q12 14 21.5 43t15.5 63t9 65.5 t3 50.5q0 16 -2 37.5t-12 33.5h-14l-9 -4q-29 -35 -40 -80t-11 -92z" />
<glyph unicode="&#xb1;" horiz-adv-x="1071" d="M16 109q0 10 9.5 24t19.5 19q14 4 60.5 6t101.5 2h107.5h78.5h158q33 0 77 1t91 2t90 0t74 -5q23 -4 34 -18.5t11 -37.5q0 -16 -9.5 -33.5t-27.5 -21.5q-23 -6 -53.5 -4t-53.5 2q-180 -2 -358 -2h-358q-27 0 -39.5 21.5t-12.5 44.5zM18 723q0 20 11.5 32.5t28 18.5t35 7 t34.5 1h289l2 80q0 18 -1 59.5t-2 85.5t0 80.5t7 49.5q8 16 21.5 23t29.5 7q35 0 48.5 -24.5t13.5 -52.5l-3 -308h89q20 0 61 1t84 1t80 -1t49 -7q31 -16 31 -51t-23.5 -47t-54.5 -12h-316q0 -86 3.5 -170t3.5 -170q0 -27 -17.5 -46.5t-44.5 -19.5q-20 0 -32.5 10.5 t-18.5 26.5t-8 33.5t-2 34.5v301q-82 0 -164 -2t-164 -2q-29 0 -49.5 16t-20.5 45z" />
<glyph unicode="&#xb2;" horiz-adv-x="583" d="M18 834v8q0 49 42 120.5t91.5 156.5t91.5 179.5t42 190.5q0 20 -9.5 26.5t-27.5 6.5q-16 0 -26.5 -4.5t-22.5 -10.5q-16 -18 -24.5 -50t-18 -62.5t-24.5 -53t-44 -22.5t-40 19.5t-11 43.5q0 23 6 45.5t12 45.5q27 78 67 121.5t130 43.5q70 0 109.5 -38.5t39.5 -108.5 q0 -35 -9 -78t-22.5 -87t-28.5 -86t-28 -73q-12 -29 -30.5 -63.5t-40 -69.5t-42 -69.5t-36.5 -63.5q45 2 90 -1t90 -3q16 0 30.5 3t31.5 3q25 0 40 -16.5t15 -40.5q0 -68 -72 -68q-49 0 -97 4t-97 4q-33 0 -64 -2t-63 0l-21 11l-18 18z" />
<glyph unicode="&#xb3;" horiz-adv-x="454" d="M2 903q0 20 13.5 36.5t35.5 16.5q29 0 48.5 -20.5t31.5 -20.5q29 0 46.5 12.5t27.5 31t13 42t3 46.5q0 47 -10 72.5t-26.5 36.5t-34 14.5t-34 7.5t-26.5 13t-10 36t19.5 43t42 38.5t42 58.5t19.5 103q0 43 -41 43q-16 0 -25.5 -11t-18.5 -25.5t-20.5 -25.5t-31.5 -11 q-25 0 -42.5 20.5t-17.5 42.5q0 27 16.5 51.5t40 41t52 26.5t53.5 10q74 0 115 -50t41 -120q0 -55 -15.5 -110.5t-54.5 -96.5q45 -35 65.5 -89t20.5 -109q0 -49 -10.5 -96.5t-35 -85t-63.5 -61t-96 -23.5q-47 0 -90 29.5t-43 82.5z" />
<glyph unicode="&#xb4;" horiz-adv-x="434" d="M31 1761q0 27 12 39q6 6 31.5 29.5t53.5 49.5t51.5 46.5t27.5 24.5q12 6 29 6q27 0 43 -16.5t16 -43.5q0 -18 -8 -28q-4 -8 -27.5 -30.5t-52.5 -48.5t-54.5 -47.5t-33.5 -27.5q-15 -8 -31 -8q-25 0 -41 15.5t-16 39.5z" />
<glyph unicode="&#xb5;" horiz-adv-x="743" d="M43 -522q0 90 7 179t11 179q4 78 3 156t-1 155q0 106 -6 211t-6 211q0 119 4 236t4 235q0 18 -1 43t3.5 47.5t16.5 39t41 16.5q18 0 27.5 -10.5t14.5 -25.5t6 -31.5t1 -28.5q0 -33 -3 -65t-3 -64q-2 -53 -2 -107.5v-108.5q0 -61 -1 -129.5t0 -138t8 -138.5t23 -126 q14 -47 40 -73.5t79 -26.5q37 0 66 14q20 8 33.5 38t22.5 65.5t13.5 71.5t4.5 56q0 186 4 367.5t4 366.5q0 31 8 61.5t49 30.5q31 0 40 -28.5t9 -53.5q0 -139 -2 -277.5t-2 -277.5q0 -78 -4 -153t-4 -152q0 -39 5 -76t5 -74q0 -39 -20 -61l-21 -11h-24l-23 9q-4 4 -7 9t-7 9 q-33 -31 -75 -41t-85 -10q-76 0 -129 45q2 -82 1 -162t-9 -162l-2 -20q-4 -35 -4 -69t-2 -68v-29l-2 -2v-12v-29.5t-4.5 -33t-14.5 -27t-29 -11.5q-29 0 -45 16.5t-16 45.5z" />
<glyph unicode="&#xb6;" horiz-adv-x="770" d="M4 1159q0 106 35 211t119 176q39 33 83 58.5t95 31.5q47 6 99 5t100 -1q83 0 83 -88q0 -197 -8 -391t-8 -393q0 -156 2 -311.5t2 -313.5q0 -18 4 -36.5t4 -36.5q0 -23 -13 -45.5t-38 -22.5q-72 0 -71 74q0 86 -3.5 172t-3.5 174l-2 500q0 143 7.5 284.5t7.5 284.5v29h-29 l-57 -2q4 -98 -3.5 -193.5t-7.5 -194.5q0 -129 -1 -258t-1 -258q0 -117 3.5 -231.5t3.5 -230.5q0 -20 2 -39t2 -37q0 -25 -13.5 -48.5t-42.5 -23.5q-33 0 -49 19.5t-16 50.5q0 137 -4 273t-4 274v76.5t2 76.5q-72 8 -124.5 45t-86 91.5t-51 120t-17.5 128.5z" />
<glyph unicode="&#xb7;" horiz-adv-x="282" d="M27 737l6 17l-2 2q4 25 22.5 43t44.5 18q29 0 46.5 -18.5t17.5 -46.5q0 -29 -17.5 -52.5t-50.5 -23.5q-27 0 -45 18.5t-22 42.5z" />
<glyph unicode="&#xb8;" horiz-adv-x="409" d="M12 -301q0 25 20.5 42t45.5 17h21.5t23.5 2t18.5 8.5t8.5 20.5q0 25 -18.5 31t-42 11t-42 15.5t-18.5 44.5q0 16 6 42t18.5 49.5t28.5 40t37 16.5q23 0 41 -14.5t18 -38.5q0 -14 -5 -26.5t-9 -25.5q51 -20 78.5 -54t27.5 -89q0 -68 -49 -110.5t-115 -42.5q-29 0 -61.5 12 t-32.5 49z" />
<glyph unicode="&#xb9;" horiz-adv-x="376" d="M27 1464q0 14 12 36t29.5 44.5t36 41t30.5 28.5l8 -2l-2 4q4 2 12.5 4t12.5 2q27 0 41 -20.5t20 -48t7.5 -56.5t1.5 -47q0 -104 -7.5 -209.5t-11.5 -210.5q-2 -25 -5 -49.5t-3 -48.5q0 -33 -5 -60.5t-50 -27.5q-35 0 -48.5 20.5t-13.5 50.5q0 125 13.5 248t13.5 248v14 q-14 -14 -37 -14q-20 0 -37.5 15t-17.5 38z" />
<glyph unicode="&#xba;" horiz-adv-x="466" d="M14 1325q0 41 10.5 92t33 97.5t58.5 77t87 30.5q43 0 68.5 -20.5t41 -51t20.5 -67.5t5 -70q0 -37 -7 -92t-24.5 -107.5t-49.5 -89.5t-81 -37q-51 0 -83 23t-49 56.5t-23.5 75.5t-6.5 83zM133 1325q0 -8 1 -27.5t5 -40t11.5 -36t21.5 -13.5q12 14 21.5 43t15.5 63t9 65.5 t3 50.5q0 16 -2 37.5t-12 33.5h-14l-9 -4q-29 -35 -40 -80t-11 -92z" />
<glyph unicode="&#xbb;" horiz-adv-x="1382" d="M10 362q0 27 17.5 42.5t40.5 25.5q41 20 80.5 47t82.5 47q82 37 164 79t160 89q-117 123 -244 235.5t-248 233.5q-33 31 -38 70l8 24l20 23l23 10q25 0 45 -16q23 -18 43 -40t41 -42q45 -41 87 -85t89 -85q66 -61 129 -123.5t129 -124.5q20 -18 40.5 -41.5t20.5 -52.5 q0 -10 -4 -20.5t-8 -18.5q-8 -12 -40 -32.5t-76 -44t-95 -51.5t-99 -51.5t-87 -44t-58 -32.5q-16 -10 -37.5 -23.5t-45 -25.5t-46 -20.5t-41.5 -8.5q-25 0 -39 16.5t-14 40.5zM520 338q0 27 17.5 43t40.5 27q41 23 80.5 47t82.5 45q82 37 164 79t160 89q-119 123 -244 236.5 t-248 234.5q-14 14 -24 29.5t-14 37.5l8 25l20 22l23 11q25 0 45 -17q23 -18 42 -39.5t40 -42.5q45 -43 89 -85t89 -83q66 -61 129 -124.5t129 -124.5q20 -18 40.5 -42t20.5 -53q0 -10 -4 -19t-8 -20q-8 -10 -40 -30.5t-76 -45t-96 -51t-100 -51t-87 -45t-58 -33.5 q-16 -10 -36.5 -23t-44 -25.5t-46.5 -20.5t-41 -8q-25 0 -39 16t-14 41z" />
<glyph unicode="&#xbc;" horiz-adv-x="954" d="M10 1468q0 14 12.5 37t30 45.5t35.5 41t31 26.5h8l-2 2q12 8 25 8q27 0 41 -20.5t20 -48t7 -56t1 -47.5q0 -106 -7 -210.5t-11 -211.5q0 -25 -4 -48t-4 -48q0 -33 -5.5 -60.5t-50.5 -27.5q-35 0 -48 20.5t-13 51.5q0 123 12 246.5t12 248.5v13q-16 -12 -37 -13 q-20 0 -36.5 15.5t-16.5 35.5zM43 53q0 8 6 28.5t13.5 45.5t14.5 46.5t9 31.5q35 129 75 253t81 247q51 150 98 298t100 295q6 18 19.5 65.5t28 97.5t27.5 91t20 50q18 25 49 24q25 0 41 -16t16 -41q0 -20 -15.5 -75.5t-40 -130.5t-53 -160t-56 -165t-50.5 -144.5t-33 -98.5 q-33 -111 -72.5 -221.5t-74.5 -221.5q-25 -76 -44.5 -151.5t-41.5 -151.5q-6 -23 -20.5 -41t-41.5 -18q-25 0 -40 19.5t-15 43.5zM395 469q0 16 16.5 65.5t43 114t58.5 136t62.5 134t56 108.5t38.5 58q23 18 43 19q33 0 47 -31t19 -73t3 -84t-2 -64q0 -76 -3 -150.5 t-3 -152.5v-35q25 -2 43.5 -16t18.5 -41t-16.5 -42.5t-41.5 -19.5q-4 -72 -4 -143.5v-142.5q0 -16 -1 -35t-6 -35t-17.5 -27.5t-34.5 -11.5q-20 0 -32.5 11.5t-19 27.5t-8.5 34.5t-2 35.5q0 47 3 95t3 95v94l-34 2q-20 2 -59.5 1t-77 3t-65.5 19.5t-28 50.5zM532 518 q12 -2 25.5 -2h26.5h73q-2 80 1.5 161t3.5 163q-37 -78 -69 -159t-61 -163z" />
<glyph unicode="&#xbd;" horiz-adv-x="1050" d="M-6 1479q0 14 12 36.5t29.5 44t36 41t30.5 27.5l9 -2v4q4 4 12 6t12 2q25 0 39 -20.5t21.5 -48t8.5 -56.5t1 -47q0 -106 -8.5 -210.5t-12.5 -211.5q0 -25 -4 -49t-4 -49v-31.5t-4 -28t-15.5 -20.5t-33.5 -8q-35 0 -49.5 21.5t-14.5 52.5q0 123 13.5 247t13.5 246v15 q-16 -12 -37 -13q-20 0 -37.5 15.5t-17.5 36.5zM63 63q0 8 6.5 29t13.5 45.5t14 46t9 31.5q35 127 75 252t81 248q51 150 98.5 297t100.5 295q6 18 19.5 65t27.5 97.5t27.5 92.5t19.5 50q18 25 49 24q25 0 41.5 -16t16.5 -41q0 -20 -15.5 -75.5t-40 -130.5t-53.5 -160 t-56.5 -164.5t-50 -144t-32.5 -99.5q-33 -113 -72 -222.5t-74 -220.5q-25 -76 -45 -151.5t-43 -151.5q-6 -23 -19.5 -41t-39.5 -18q-27 0 -42.5 19.5t-15.5 43.5zM446 74q0 25 21.5 69.5t50.5 92t57.5 92.5t42.5 69q76 137 111 295q4 18 8 37t4 39q0 25 -12 32t-35 7 q-51 0 -69.5 -35t-28.5 -77t-24.5 -76.5t-53.5 -34.5q-29 0 -40 21.5t-11 45.5q0 25 7 49.5t15 49.5q29 82 73 128t136 46q76 0 119 -41t43 -115q0 -35 -10 -82t-25.5 -96t-33 -94t-29.5 -76q-18 -43 -43 -83t-49 -79q-23 -33 -39.5 -66.5t-36.5 -66.5q43 2 85 -1t85 -3 q20 0 49 3t54.5 0t43 -16.5t17.5 -46.5q0 -35 -25.5 -47t-54.5 -12q-53 0 -105.5 4t-105.5 4q-23 0 -44.5 -3t-43.5 -3q-35 0 -69 14.5t-34 55.5z" />
<glyph unicode="&#xbe;" horiz-adv-x="1099" d="M2 903q0 18 6 31l17 16l24 13h25q29 -12 45 -41l12 -2q31 0 50.5 14t30.5 36.5t15 49.5t4 51q0 63 -20.5 80.5t-44 23t-44 10.5t-20.5 44q0 27 22.5 45t48.5 41.5t48.5 61.5t22.5 106q0 16 -10.5 24.5t-24.5 8.5q-18 0 -32.5 -14.5t-22.5 -28.5l-13 -11l-8 -10l-12 -6 l-27 2l-10 6l-10 2q-23 18 -23 49q0 25 16.5 48.5t40 41t51 27.5t50.5 10q70 0 111.5 -41t41.5 -110q0 -59 -21.5 -123t-61.5 -105q39 -33 56 -78t17 -94t-13 -99t-40 -92t-68 -67.5t-98 -25.5q-47 0 -89 28.5t-42 77.5zM147 57q0 8 6.5 28.5t13.5 45.5t14 46.5t9 31.5 q35 127 75 251t81 249q49 147 97.5 295.5t101.5 295.5q6 18 19.5 65.5t27.5 97.5t26.5 91t18.5 50q18 25 49 24q27 0 43 -16t16 -41q0 -20 -15 -75.5t-39.5 -130.5t-54.5 -160t-57.5 -163.5t-49 -143t-31.5 -99.5q-33 -113 -73 -222.5t-75 -220.5q-23 -76 -43 -151.5 t-43 -151.5q-6 -23 -20.5 -41t-40.5 -18q-25 0 -40.5 19.5t-15.5 43.5zM512 473q0 16 16.5 65.5t43 114t58.5 136t62.5 134t56 107.5t37.5 57q23 19 41 19q33 0 48.5 -31t19.5 -72.5t2 -83.5t-2 -63q0 -76 -2 -151.5t-2 -151.5v-37q23 -2 41 -15.5t18 -39.5q0 -51 -57 -62 q-4 -72 -3 -143.5t1 -142.5q0 -16 -1 -35t-7 -35t-18.5 -27.5t-35.5 -11.5q-20 0 -32.5 11.5t-18.5 27.5t-8 34.5t-2 33.5q0 49 5 97t3 95l-2 94h-35q-20 0 -58 -1t-76 4.5t-65.5 21.5t-27.5 51zM649 520q12 0 25.5 -1t25.5 -1q18 0 37 1t37 -1q-2 82 1 163t3 161 q-76 -160 -129 -322z" />
<glyph unicode="&#xbf;" horiz-adv-x="782" d="M8 287q0 70 36 141.5t89 135t117.5 115.5t120.5 87q8 6 26.5 18.5t37 26.5t34.5 27.5t23 21.5q12 16 15 52t3 59q0 55 -7 113.5t-7 107.5q0 29 15 47t44 18q41 0 56.5 -28.5t15.5 -63.5q0 -51 3 -102t3 -102q0 -16 -1 -33t-3 -33q-6 -72 -51.5 -116t-100.5 -79 q-49 -31 -109.5 -75.5t-112.5 -99t-88 -117t-36 -125.5q0 -51 38 -96.5t85 -59.5q12 -4 44 -6t46 -2q70 0 106.5 19.5t54 48t22.5 63.5t11.5 63.5t18.5 48t45 19.5q25 0 40 -16.5t15 -40.5q0 -154 -85 -237t-232 -83q-63 0 -122.5 18.5t-105.5 55.5t-75 89t-29 120z M490.5 1483.5q1.5 29.5 1.5 48.5q0 14 1 33.5t7 36t17 28.5t32 12q33 0 46 -24.5t17 -59t2 -70.5t-2 -58q0 -29 -15 -51.5t-46 -22.5q-27 0 -39 20.5t-17.5 49t-4 58z" />
<glyph unicode="&#xc0;" d="M-78 70q0 20 7.5 51t16.5 64.5t18 66.5t13 55q29 135 63 268.5t66 268.5q23 94 53.5 186t53.5 187q6 25 22.5 86t35 127.5t37 121t28.5 64.5q6 8 18.5 15t22.5 7q29 0 45 -20.5t24 -42.5q18 -49 25.5 -101.5t22.5 -103.5q41 -147 72.5 -295.5t60.5 -298.5 q27 -139 59.5 -276.5t63.5 -278.5q8 -35 22 -75t14 -76q0 -25 -13 -46.5t-42 -21.5q-31 0 -48 26.5t-24 51.5q-20 72 -31.5 144.5t-31.5 144.5t-34.5 142.5t-31.5 141.5q-86 0 -172 -1t-172 -3l-46 -188t-46 -191q-12 -51 -26.5 -103t-24.5 -106q-4 -25 -17.5 -43t-41.5 -18 q-29 0 -45.5 20.5t-16.5 49.5zM211 768q74 2 147.5 2t147.5 2q-27 147 -61.5 294t-69.5 294q-35 -152 -80 -297t-84 -295zM213 1907q0 25 17.5 42t41.5 17q10 0 31 -8q4 -2 27.5 -22.5t51.5 -46t52.5 -49t30.5 -30.5q12 -12 12 -36q0 -27 -14 -43.5t-41 -16.5q-20 0 -31 10 q-8 6 -33.5 28t-54.5 47.5t-53.5 48t-28.5 30.5q-8 16 -8 29z" />
<glyph unicode="&#xc1;" d="M-78 70q0 20 7.5 51t16.5 64.5t18 66.5t13 55q29 135 63 268.5t66 268.5q23 94 53.5 186t53.5 187q6 25 22.5 86t35 127.5t37 121t28.5 64.5q6 8 18.5 15t22.5 7q29 0 45 -20.5t24 -42.5q18 -49 25.5 -101.5t22.5 -103.5q41 -147 72.5 -295.5t60.5 -298.5 q27 -139 59.5 -276.5t63.5 -278.5q8 -35 22 -75t14 -76q0 -25 -13 -46.5t-42 -21.5q-31 0 -48 26.5t-24 51.5q-20 72 -31.5 144.5t-31.5 144.5t-34.5 142.5t-31.5 141.5q-86 0 -172 -1t-172 -3l-46 -188t-46 -191q-12 -51 -26.5 -103t-24.5 -106q-4 -25 -17.5 -43t-41.5 -18 q-29 0 -45.5 20.5t-16.5 49.5zM211 768q74 2 147.5 2t147.5 2q-27 147 -61.5 294t-69.5 294q-35 -152 -80 -297t-84 -295zM326 1761q0 27 12 39q6 6 30.5 29.5t52.5 49.5t51.5 46.5t29.5 24.5q12 6 28 6q25 0 42.5 -16.5t17.5 -43.5q0 -18 -8 -28q-4 -8 -29 -30.5 t-53.5 -48.5t-54 -47.5t-33.5 -27.5q-11 -8 -29 -8q-25 0 -41 15.5t-16 39.5z" />
<glyph unicode="&#xc2;" d="M-78 70q0 20 7.5 51t16.5 64.5t18 66.5t13 55q29 135 63 268.5t66 268.5q23 94 53.5 186t53.5 187q6 25 22.5 86t35 127.5t37 121t28.5 64.5q6 8 18.5 15t22.5 7q29 0 45 -20.5t24 -42.5q18 -49 25.5 -101.5t22.5 -103.5q41 -147 72.5 -295.5t60.5 -298.5 q27 -139 59.5 -276.5t63.5 -278.5q8 -35 22 -75t14 -76q0 -25 -13 -46.5t-42 -21.5q-31 0 -48 26.5t-24 51.5q-20 72 -31.5 144.5t-31.5 144.5t-34.5 142.5t-31.5 141.5q-86 0 -172 -1t-172 -3l-46 -188t-46 -191q-12 -51 -26.5 -103t-24.5 -106q-4 -25 -17.5 -43t-41.5 -18 q-29 0 -45.5 20.5t-16.5 49.5zM190 1769q0 8 16.5 40t39 69t43 70.5t30.5 44.5q20 25 50 24q23 0 54.5 -30.5t61 -71.5t50 -83t20.5 -65t-15 -39t-38 -16t-41.5 16.5t-32.5 40t-25.5 49t-23.5 42.5q-10 -16 -23.5 -41t-30 -48.5t-35 -41t-36.5 -17.5q-23 0 -43.5 15.5 t-20.5 41.5zM211 768q74 2 147.5 2t147.5 2q-27 147 -61.5 294t-69.5 294q-35 -152 -80 -297t-84 -295z" />
<glyph unicode="&#xc3;" d="M-78 70q0 20 7.5 51t16.5 64.5t18 66.5t13 55q29 135 63 268.5t66 268.5q23 94 53.5 186t53.5 187q6 25 22.5 86t35 127.5t37 121t28.5 64.5q6 8 18.5 15t22.5 7q29 0 45 -20.5t24 -42.5q18 -49 25.5 -101.5t22.5 -103.5q41 -147 72.5 -295.5t60.5 -298.5 q27 -139 59.5 -276.5t63.5 -278.5q8 -35 22 -75t14 -76q0 -25 -13 -46.5t-42 -21.5q-31 0 -48 26.5t-24 51.5q-20 72 -31.5 144.5t-31.5 144.5t-34.5 142.5t-31.5 141.5q-86 0 -172 -1t-172 -3l-46 -188t-46 -191q-12 -51 -26.5 -103t-24.5 -106q-4 -25 -17.5 -43t-41.5 -18 q-29 0 -45.5 20.5t-16.5 49.5zM133 1755q0 29 18.5 55.5t45 47t57.5 33t57 12.5q43 0 71 -17.5t48.5 -37t37.5 -37t40 -17.5q20 0 32.5 15.5t23.5 33t23.5 32.5t37.5 15q23 0 41 -15t18 -40q0 -31 -17.5 -59.5t-43 -51t-57 -36t-60.5 -13.5q-43 0 -74 17.5t-52.5 37 t-36.5 37t-28 17.5q-29 0 -45 -14.5t-27.5 -32t-22.5 -31.5t-30 -14q-25 0 -41 20.5t-16 42.5zM211 768q74 2 147.5 2t147.5 2q-27 147 -61.5 294t-69.5 294q-35 -152 -80 -297t-84 -295z" />
<glyph unicode="&#xc4;" d="M-78 70q0 20 7.5 51t16.5 64.5t18 66.5t13 55q29 135 63 268.5t66 268.5q23 94 53.5 186t53.5 187q6 25 22.5 86t35 127.5t37 121t28.5 64.5q6 8 18.5 15t22.5 7q29 0 45 -20.5t24 -42.5q18 -49 25.5 -101.5t22.5 -103.5q41 -147 72.5 -295.5t60.5 -298.5 q27 -139 59.5 -276.5t63.5 -278.5q8 -35 22 -75t14 -76q0 -25 -13 -46.5t-42 -21.5q-31 0 -48 26.5t-24 51.5q-20 72 -31.5 144.5t-31.5 144.5t-34.5 142.5t-31.5 141.5q-86 0 -172 -1t-172 -3l-46 -188t-46 -191q-12 -51 -26.5 -103t-24.5 -106q-4 -25 -17.5 -43t-41.5 -18 q-29 0 -45.5 20.5t-16.5 49.5zM209 1753q0 29 18.5 51.5t48.5 22.5q29 0 46.5 -19.5t17.5 -48.5t-18.5 -50t-49.5 -21q-29 0 -46 18t-17 47zM211 768q74 2 147.5 2t147.5 2q-27 147 -61.5 294t-69.5 294q-35 -152 -80 -297t-84 -295zM428 1753q0 29 18.5 51.5t49.5 22.5 q29 0 46 -19.5t17 -48.5t-18.5 -50t-48.5 -21q-29 0 -46.5 18t-17.5 47z" />
<glyph unicode="&#xc5;" horiz-adv-x="884" d="M-78 70q0 20 7.5 51t16.5 64.5t18 66.5t13 55q29 135 63 268.5t66 268.5q23 94 53.5 186t53.5 187q6 25 22.5 86t35 127.5t37 121t28.5 64.5q6 8 18.5 15t22.5 7q29 0 45 -20.5t24 -42.5q18 -49 25.5 -101.5t22.5 -103.5q41 -147 72.5 -295.5t60.5 -298.5 q27 -139 59.5 -276.5t63.5 -278.5q8 -35 22 -75t14 -76q0 -25 -13 -46.5t-42 -21.5q-31 0 -48 26.5t-24 51.5q-20 72 -31.5 144.5t-31.5 144.5t-34.5 142.5t-31.5 141.5q-86 0 -172 -1t-172 -3l-46 -188t-46 -191q-12 -51 -26.5 -103t-24.5 -106q-4 -25 -17.5 -43t-41.5 -18 q-29 0 -45.5 20.5t-16.5 49.5zM211 768q74 2 147.5 2t147.5 2q-27 147 -61.5 294t-69.5 294q-35 -152 -80 -297t-84 -295zM293 1858q0 41 33 77q33 29 67 29q64 0 84 -63q10 -33 4 -73t-39 -63l-6 -4q-25 -12 -47 -12q-43 0 -72 33q-29 31 -24 76zM352 1858q0 -18 10 -29 q8 -12 27 -12q4 0 17 4l2 2q12 8 15 23.5t-1 27.5q-10 23 -33 22q-10 0 -24 -10q-12 -12 -13 -28z" />
<glyph unicode="&#xc6;" horiz-adv-x="1380" d="M-29 59q0 16 5.5 25.5t9.5 24.5q82 250 177 494.5t193 490.5q37 94 77 185t73 187q6 16 13 43t17.5 51.5t23.5 43t32 22.5q8 6 18 6q133 0 264.5 4t264.5 4q14 0 30.5 -2t30.5 -8t23.5 -17t9.5 -30q0 -16 -10.5 -35.5t-26.5 -23.5q-20 -6 -89 -7t-153 -1h-164.5 t-123.5 -3q2 -25 2 -49t-4 -49q-8 -72 -7.5 -144.5t-9.5 -144.5q-10 -74 -15 -147.5t-7 -147.5q78 4 157.5 7.5t157.5 13.5q12 2 23.5 3t21.5 1q27 0 49.5 -14.5t22.5 -42.5q0 -33 -30 -48.5t-58 -17.5q-86 -6 -173 -11t-173 -9q-8 -150 -8.5 -297.5t-2.5 -294.5 q227 2 455 18q8 0 15.5 1t13.5 1q25 0 44 -11t19 -40q0 -16 -13 -38.5t-32 -26.5q-94 -16 -188 -17q-82 0 -164 -3t-166 -3q-55 0 -78.5 21.5t-23.5 74.5q0 72 2 142.5t2 142.5v123q-35 2 -69 2h-69h-54t-54 -2q-29 -78 -59.5 -157t-55.5 -159q-10 -35 -21.5 -73.5 t-27.5 -71.5q-25 -41 -63 -41q-23 0 -38.5 16.5t-15.5 38.5zM299 633q41 0 83 -1t83 -1h35q4 147 13 293t19 293q-45 -109 -89 -215.5t-83 -217.5q-14 -39 -32.5 -75.5t-28.5 -75.5z" />
<glyph unicode="&#xc7;" horiz-adv-x="976" d="M14 791q0 84 12.5 182t38 195.5t66.5 185.5t98 151q53 59 127 86t152 27q68 0 126 -22.5t101 -63.5t67.5 -97.5t24.5 -125.5q0 -20 1 -55t-4 -69t-19 -58.5t-45 -24.5t-47.5 20.5t-16.5 51.5q0 29 4.5 58.5t4.5 57.5q0 98 -52.5 153.5t-150.5 55.5q-78 0 -135.5 -40 t-97.5 -103.5t-65.5 -144.5t-38.5 -162.5t-18.5 -158.5t-5.5 -130q0 -78 11.5 -171t39 -184.5t71.5 -170t110 -125.5q23 -16 55 -17q23 0 43.5 6t38.5 15q53 23 82 64.5t43 90.5t20.5 101.5t13.5 94.5t21.5 68.5t46.5 26.5q29 0 42.5 -16.5t13.5 -44.5q0 -76 -12.5 -158 t-43 -153.5t-85 -126t-140.5 -74.5l-8 -27q51 -18 80.5 -53t29.5 -92q0 -35 -14 -64t-37.5 -49t-54.5 -30.5t-64 -10.5q-29 0 -59.5 9t-30.5 44q0 29 14.5 49.5t43.5 20.5q10 0 23.5 -1t25.5 1t20 8t8 23q0 27 -28.5 34t-48.5 9l-23 12l-18 25l-9 24q4 16 9.5 31.5 t11.5 32.5q-51 12 -90 40.5t-74 65.5q-61 68 -100 153t-62.5 178t-33 188t-9.5 184z" />
<glyph unicode="&#xc8;" horiz-adv-x="702" d="M20 842q0 -106 3.5 -211t3.5 -211q0 -88 1 -176t1 -176q0 -39 14 -54.5t55 -15.5q23 0 43.5 4t42.5 2l47 -2h185q18 0 44.5 -1t52.5 3t43 16.5t17 40.5q0 33 -21.5 48.5t-49.5 15.5q-29 0 -56.5 -3t-56.5 -3q-59 0 -120.5 1t-123.5 1q0 117 -3 230.5t-3 230.5 q0 31 1 61.5t1 63.5q86 0 170 3t170 3q27 0 46.5 10t19.5 41q0 23 -10.5 35t-25.5 18t-33.5 8t-35.5 2h-151.5t-149.5 -2q-2 59 -3 121t-1 121q0 111 3 217.5t3 216.5q31 4 64 3t65 -1q51 2 102.5 5t102.5 5q29 0 59.5 5.5t34.5 40.5l2 10q2 20 -8 32.5t-26.5 20.5t-36 11 t-33.5 3q-59 0 -119.5 -6t-120.5 -6q-23 0 -56.5 2t-67 -2t-57 -19.5t-23.5 -50.5q0 -137 -2.5 -273t-2.5 -273v-166zM141 1894q0 25 17.5 42.5t42.5 17.5q12 0 28 -8q6 -2 30 -22.5t51.5 -46.5t52 -49.5t30.5 -29.5q12 -16 13 -37q0 -27 -15.5 -43t-42.5 -16q-16 0 -31 8 q-8 6 -33.5 27.5t-54 47t-52 49.5t-27.5 32q-8 10 -9 28z" />
<glyph unicode="&#xc9;" horiz-adv-x="702" d="M20 842q0 -106 3.5 -211t3.5 -211q0 -88 1 -176t1 -176q0 -39 14 -54.5t55 -15.5q23 0 43.5 4t42.5 2l47 -2h185q18 0 44.5 -1t52.5 3t43 16.5t17 40.5q0 33 -21.5 48.5t-49.5 15.5q-29 0 -56.5 -3t-56.5 -3q-59 0 -120.5 1t-123.5 1q0 117 -3 230.5t-3 230.5 q0 31 1 61.5t1 63.5q86 0 170 3t170 3q27 0 46.5 10t19.5 41q0 23 -10.5 35t-25.5 18t-33.5 8t-35.5 2h-151.5t-149.5 -2q-2 59 -3 121t-1 121q0 111 3 217.5t3 216.5q31 4 64 3t65 -1q51 2 102.5 5t102.5 5q29 0 59.5 5.5t34.5 40.5l2 10q2 20 -8 32.5t-26.5 20.5t-36 11 t-33.5 3q-59 0 -119.5 -6t-120.5 -6q-23 0 -56.5 2t-67 -2t-57 -19.5t-23.5 -50.5q0 -137 -2.5 -273t-2.5 -273v-166zM238 1763q0 27 12 39q6 6 30.5 29.5t52 49.5t51.5 46.5t30 24.5q12 6 28 6q25 0 42.5 -16.5t17.5 -43.5q0 -18 -8 -28q-4 -8 -29 -30.5t-53.5 -48.5 t-54 -47.5t-33.5 -27.5q-11 -8 -29 -8q-25 0 -41 15.5t-16 39.5z" />
<glyph unicode="&#xca;" horiz-adv-x="702" d="M20 842v166q0 137 2.5 273t2.5 273q0 35 23.5 50.5t57 19.5t67.5 2t56 -2q59 0 120 6t120 6q14 0 33.5 -3t36 -11t26.5 -20.5t8 -32.5l-2 -10q-4 -35 -34.5 -40.5t-59.5 -5.5q-51 -2 -102 -5t-103 -5q-33 0 -65.5 1t-63.5 -3q0 -111 -3 -217t-3 -217q0 -59 1 -120.5 t3 -121.5q74 2 150 2h151q16 0 35 -2t34 -8t25.5 -18.5t10.5 -34.5q0 -31 -19.5 -41t-46.5 -10q-86 0 -170 -3t-170 -3q0 -33 -1 -64t-1 -61q0 -117 3 -230.5t3 -230.5q61 0 123 -1t121 -1q29 0 56.5 3t56.5 3t50 -15.5t21 -48.5q0 -29 -17 -41t-43 -16t-52.5 -3t-44.5 1 h-185l-47 2q-23 2 -43 -2t-43 -4q-41 0 -55 15.5t-14 54.5q0 88 -1 176t-1 176q0 106 -3.5 210.5t-3.5 211.5zM109 1769q0 8 16 40t38.5 69t43 70.5t31.5 44.5q20 25 49 24q23 0 54.5 -30.5t61 -71.5t50 -83t20.5 -65t-15 -39t-38 -16t-41.5 16.5t-32.5 40t-25.5 49 t-23.5 42.5q-10 -16 -23.5 -41t-30 -48.5t-35 -41t-36.5 -17.5q-23 0 -43 15.5t-20 41.5z" />
<glyph unicode="&#xcb;" horiz-adv-x="702" d="M20 842q0 -106 3.5 -211t3.5 -211q0 -88 1 -176t1 -176q0 -39 14 -54.5t55 -15.5q23 0 43.5 4t42.5 2l47 -2h185q18 0 44.5 -1t52.5 3t43 16.5t17 40.5q0 33 -21.5 48.5t-49.5 15.5q-29 0 -56.5 -3t-56.5 -3q-59 0 -120.5 1t-123.5 1q0 117 -3 230.5t-3 230.5 q0 31 1 61.5t1 63.5q86 0 170 3t170 3q27 0 46.5 10t19.5 41q0 23 -10.5 35t-25.5 18t-33.5 8t-35.5 2h-151.5t-149.5 -2q-2 59 -3 121t-1 121q0 111 3 217.5t3 216.5q31 4 64 3t65 -1q51 2 102.5 5t102.5 5q29 0 59.5 5.5t34.5 40.5l2 10q2 20 -8 32.5t-26.5 20.5t-36 11 t-33.5 3q-59 0 -119.5 -6t-120.5 -6q-23 0 -56.5 2t-67 -2t-57 -19.5t-23.5 -50.5q0 -137 -2.5 -273t-2.5 -273v-166zM127 1774q0 29 18.5 51t49.5 22q29 0 46 -19t17 -48t-18.5 -50.5t-49.5 -21.5q-29 0 -46 18.5t-17 47.5zM346 1774q0 29 18.5 51t49.5 22q29 0 46 -19 t17 -48t-18.5 -50.5t-48.5 -21.5q-29 0 -46.5 18.5t-17.5 47.5z" />
<glyph unicode="&#xcc;" horiz-adv-x="385" d="M51 1874q0 20 13.5 34.5t33.5 14.5q12 0 25 -6q4 -2 22.5 -19.5t41 -39t42 -41l25.5 -25.5q10 -14 10 -31q0 -23 -12 -36t-35 -13q-14 0 -22 8q-6 4 -28 22.5t-44.5 40t-42 41t-23.5 25.5q-6 8 -6 25zM78 621q0 217 6 431t6 431q0 16 -2 42.5t2 51.5t16.5 43t40.5 18 q39 0 51.5 -32.5t12.5 -63.5q0 -260 -7 -516t-7 -518q0 -104 1 -209.5t3 -212.5q0 -18 -5.5 -37.5t-17.5 -34.5q-18 -14 -35 -14q-39 0 -49 30.5t-10 59.5q0 135 -3 266.5t-3 264.5z" />
<glyph unicode="&#xcd;" horiz-adv-x="385" d="M72 1761q0 16 10 31l25.5 25.5t42 41t41 39t22.5 19.5q12 6 25 6q20 0 33.5 -14.5t13.5 -34.5q0 -16 -6 -25q-4 -6 -23.5 -25.5t-42.5 -41t-43 -40t-27 -22.5q-10 -8 -24 -8q-23 0 -35 13.5t-12 35.5zM78 621q0 217 6 431t6 431q0 16 -2 42.5t2 51.5t16.5 43t40.5 18 q39 0 51.5 -32.5t12.5 -63.5q0 -260 -7 -516t-7 -518q0 -104 1 -209.5t3 -212.5q0 -18 -5.5 -37.5t-17.5 -34.5q-18 -14 -35 -14q-39 0 -49 30.5t-10 59.5q0 135 -3 266.5t-3 264.5z" />
<glyph unicode="&#xce;" horiz-adv-x="385" d="M31 1761q0 6 13 36t29.5 65.5t34 66.5t23.5 41q16 23 39 23q18 0 43 -29t47.5 -67.5t38.5 -77.5t16 -60q0 -23 -12.5 -37t-30.5 -14t-31.5 15.5t-23.5 38t-20.5 45t-18.5 38.5q-6 -14 -17 -36.5t-23.5 -45t-28 -39t-29.5 -16.5q-18 0 -33.5 15.5t-15.5 37.5zM98 621 q0 217 6.5 431t6.5 431q0 16 -2.5 42.5t2 51.5t16.5 43t41 18q39 0 51 -32.5t12 -63.5q0 -260 -7 -516t-7 -518q0 -104 1 -209.5t3 -212.5q0 -18 -5 -37.5t-17 -34.5q-18 -14 -35 -14q-39 0 -49.5 30.5t-10.5 59.5q0 135 -3 266.5t-3 264.5z" />
<glyph unicode="&#xcf;" horiz-adv-x="385" d="M35 1735q0 25 13 43t36 18t35 -16t12 -39t-13.5 -41.5t-35.5 -18.5q-23 0 -35 15.5t-12 38.5zM78 621q0 217 6 431t6 431q0 16 -2 42.5t2 51.5t16.5 43t40.5 18q39 0 51.5 -32.5t12.5 -63.5q0 -260 -7 -516t-7 -518q0 -104 1 -209.5t3 -212.5q0 -18 -5.5 -37.5 t-17.5 -34.5q-18 -14 -35 -14q-39 0 -49 30.5t-10 59.5q0 135 -3 266.5t-3 264.5zM176 1735q0 25 13.5 43t35.5 18q23 0 35 -16t12 -39t-13 -41.5t-36 -18.5t-35 15.5t-12 38.5z" />
<glyph unicode="&#xd0;" horiz-adv-x="1101" d="M-2 911q0 45 35 54.5t69 9.5h27q2 104 4 208.5t2 209.5q0 41 -6 82t-6 81q0 39 16.5 56.5t41 21.5t54 2t58.5 -2q35 0 71.5 2t71.5 2q129 0 224.5 -51t159 -135t95 -193.5t33.5 -228.5q2 -53 2 -105.5v-105.5v-105t-2 -106q-2 -115 -32.5 -223.5t-93 -194.5t-156 -138 t-220.5 -52h-53t-85 1t-82 2t-46 3q-23 6 -33 21.5t-14 35t-4 40v38.5q0 43 2 86t2 86q0 123 -5 244t-1 244l2 57q-18 0 -40.5 -2t-42 1t-34 15.5t-14.5 38.5zM248 750q0 -106 4 -211t4 -211q0 -102 -6 -201q45 -2 89 -4t89 -2q33 0 80 3t76 17q86 41 135 114t73.5 161 t30.5 181t6 175q0 90 -2 197.5t-23.5 209t-72.5 186.5t-149 132q-29 12 -74 16.5t-76 4.5q-47 0 -92 -2.5t-90 -4.5q4 -51 4 -101v-103q0 -166 -6 -332h26q20 0 48 2t52.5 -1t42 -16.5t17.5 -44.5q0 -25 -14 -42t-41 -17q-35 0 -66.5 2t-64.5 0v-108z" />
<glyph unicode="&#xd1;" horiz-adv-x="913" d="M10 1069l2 459q0 25 3 49.5t22 42.5q14 18 37 18q31 0 47 -29.5t26 -54.5q27 -66 49.5 -130t47.5 -130q41 -115 86 -226.5t86 -223.5q47 -127 106.5 -248t108.5 -246q2 53 3 106.5t1 106.5q0 156 -3 310.5t-3 310.5q0 53 1 104t1 105q0 37 -2 73.5t-2 71.5q0 29 13 57.5 t48 28.5q39 0 50.5 -30.5t11.5 -61.5q0 -94 -2.5 -188.5t-2.5 -188.5q0 -47 1.5 -91t3.5 -89q8 -152 7 -303.5t-1 -302.5v-147t-6 -146q-4 -25 -16.5 -45.5t-41.5 -20.5q-27 0 -46 19.5t-30 42.5q-35 76 -66.5 151.5t-62.5 149.5q-20 47 -40.5 92t-38.5 92l-32 74l-32 74 q-10 23 -18.5 43t-18.5 43q-45 117 -88 230.5t-88 229.5v-84q0 -53 2 -107l4 -108q4 -174 3 -347t3 -347q0 -47 3.5 -92t3.5 -90q0 -31 -14.5 -53.5t-49.5 -22.5q-37 0 -49 27.5t-12 58.5q0 135 -3.5 269t-3.5 270q0 39 1 76.5t1 76.5q0 74 -5 146.5t-5 144.5zM84 1776 q0 29 17.5 55.5t44 46.5t58.5 32.5t58 12.5q43 0 70.5 -17.5t47 -37t37 -36.5t40.5 -17t35 15t22 33.5t22.5 34t36.5 15.5q25 0 43.5 -16.5t18.5 -41.5q0 -31 -17.5 -59.5t-44 -51t-58.5 -35.5t-60 -13q-43 0 -74 17.5t-52.5 36.5t-37 36.5t-27.5 17.5q-29 0 -44 -14 t-26.5 -31.5t-22.5 -32t-32 -14.5q-23 0 -39 20.5t-16 43.5z" />
<glyph unicode="&#xd2;" horiz-adv-x="897" d="M14 872v28.5t2 31.5q6 88 15.5 179t34 177t70.5 160t128 127q35 23 81 43t87 20q84 0 141.5 -47t96.5 -121.5t60.5 -168t31.5 -187.5t12 -179t2 -142q0 -59 -5 -117t-11 -115q-10 -84 -30.5 -182t-62.5 -182t-113 -140.5t-179 -56.5q-76 0 -139 45q-57 39 -98.5 105.5 t-67 142.5t-36.5 154.5t-11 144.5q0 70 -4.5 139t-4.5 141zM135 722.5q0 -79.5 6 -159.5t20.5 -155.5t41.5 -133.5q10 -23 25.5 -47t35 -45.5t41 -38t45.5 -20.5q6 -2 17 -2q12 0 29.5 3t37 9t35.5 13.5t25 15.5q10 8 16 19.5t14 21.5q41 59 66.5 132t39 150.5t18.5 156.5 t5 151q0 57 -2 141t-11 171t-25.5 167t-43.5 129q-8 14 -16 26.5t-18 24.5q-23 31 -43.5 47.5t-61.5 16.5q-29 0 -55.5 -12.5t-48.5 -28.5q-16 -12 -31.5 -24.5t-32.5 -29.5q-39 -39 -63.5 -109.5t-39 -151.5t-20.5 -159.5t-6 -132.5v-145.5zM254 1907q0 25 17.5 42t41.5 17 q10 0 31 -8q4 -2 27.5 -22.5t51.5 -46t52.5 -49t30.5 -30.5q12 -12 12 -36q0 -27 -14 -43.5t-41 -16.5q-20 0 -31 10q-8 6 -33.5 28t-54.5 47.5t-53.5 48t-28.5 30.5q-8 16 -8 29z" />
<glyph unicode="&#xd3;" horiz-adv-x="897" d="M14 872v28.5t2 31.5q6 88 15.5 179t34 177t70.5 160t128 127q35 23 81 43t87 20q84 0 141.5 -47t96.5 -121.5t60.5 -168t31.5 -187.5t12 -179t2 -142q0 -59 -5 -117t-11 -115q-10 -84 -30.5 -182t-62.5 -182t-113 -140.5t-179 -56.5q-76 0 -139 45q-57 39 -98.5 105.5 t-67 142.5t-36.5 154.5t-11 144.5q0 70 -4.5 139t-4.5 141zM135 722.5q0 -79.5 6 -159.5t20.5 -155.5t41.5 -133.5q10 -23 25.5 -47t35 -45.5t41 -38t45.5 -20.5q6 -2 17 -2q12 0 29.5 3t37 9t35.5 13.5t25 15.5q10 8 16 19.5t14 21.5q41 59 66.5 132t39 150.5t18.5 156.5 t5 151q0 57 -2 141t-11 171t-25.5 167t-43.5 129q-8 14 -16 26.5t-18 24.5q-23 31 -43.5 47.5t-61.5 16.5q-29 0 -55.5 -12.5t-48.5 -28.5q-16 -12 -31.5 -24.5t-32.5 -29.5q-39 -39 -63.5 -109.5t-39 -151.5t-20.5 -159.5t-6 -132.5v-145.5zM305 1782q0 27 12 39 q6 6 31 29.5t52.5 49t51 46t29.5 24.5q12 6 29 6q25 0 42 -16t17 -43q0 -18 -8 -29q-4 -8 -28.5 -30.5t-53 -48t-54.5 -47t-34 -27.5q-11 -9 -29 -9q-25 0 -41 15.5t-16 40.5z" />
<glyph unicode="&#xd4;" horiz-adv-x="897" d="M14 872v28.5t2 31.5q6 88 15.5 179t34 177t70.5 160t128 127q35 23 81 43t87 20q84 0 141.5 -47t96.5 -121.5t60.5 -168t31.5 -187.5t12 -179t2 -142q0 -59 -5 -117t-11 -115q-10 -84 -30.5 -182t-62.5 -182t-113 -140.5t-179 -56.5q-76 0 -139 45q-57 39 -98.5 105.5 t-67 142.5t-36.5 154.5t-11 144.5q0 70 -4.5 139t-4.5 141zM135 722.5q0 -79.5 6 -159.5t20.5 -155.5t41.5 -133.5q10 -23 25.5 -47t35 -45.5t41 -38t45.5 -20.5q6 -2 17 -2q12 0 29.5 3t37 9t35.5 13.5t25 15.5q10 8 16 19.5t14 21.5q41 59 66.5 132t39 150.5t18.5 156.5 t5 151q0 57 -2 141t-11 171t-25.5 167t-43.5 129q-8 14 -16 26.5t-18 24.5q-23 31 -43.5 47.5t-61.5 16.5q-29 0 -55.5 -12.5t-48.5 -28.5q-16 -12 -31.5 -24.5t-32.5 -29.5q-39 -39 -63.5 -109.5t-39 -151.5t-20.5 -159.5t-6 -132.5v-145.5zM231 1749q0 8 16.5 40t39 68.5 t43 70.5t30.5 44q20 25 50 25q23 0 54.5 -31t61 -72t50 -83t20.5 -64q0 -23 -15 -39t-38 -16t-41.5 16t-32.5 40t-25.5 49.5t-23.5 41.5q-10 -16 -23.5 -40.5t-30 -48.5t-35 -41t-36.5 -17q-23 0 -43.5 15t-20.5 42z" />
<glyph unicode="&#xd5;" horiz-adv-x="897" d="M14 872v28.5t2 31.5q6 88 15.5 179t34 177t70.5 160t128 127q35 23 81 43t87 20q84 0 141.5 -47t96.5 -121.5t60.5 -168t31.5 -187.5t12 -179t2 -142q0 -59 -5 -117t-11 -115q-10 -84 -30.5 -182t-62.5 -182t-113 -140.5t-179 -56.5q-76 0 -139 45q-57 39 -98.5 105.5 t-67 142.5t-36.5 154.5t-11 144.5q0 70 -4.5 139t-4.5 141zM133 1776q0 29 18.5 55.5t45 46.5t57.5 32.5t57 12.5q43 0 71 -17.5t48.5 -37t37.5 -36.5t40 -17q20 0 32.5 15t23.5 32.5t23.5 33t37.5 15.5q23 0 41 -15.5t18 -40.5q0 -31 -17.5 -59.5t-43 -51t-57 -35.5 t-60.5 -13q-43 0 -74 17.5t-52.5 36.5t-36.5 36.5t-28 17.5q-29 0 -45 -14t-27.5 -31.5t-22.5 -32t-30 -14.5q-25 0 -41 20.5t-16 43.5zM135 722.5q0 -79.5 6 -159.5t20.5 -155.5t41.5 -133.5q10 -23 25.5 -47t35 -45.5t41 -38t45.5 -20.5q6 -2 17 -2q12 0 29.5 3t37 9 t35.5 13.5t25 15.5q10 8 16 19.5t14 21.5q41 59 66.5 132t39 150.5t18.5 156.5t5 151q0 57 -2 141t-11 171t-25.5 167t-43.5 129q-8 14 -16 26.5t-18 24.5q-23 31 -43.5 47.5t-61.5 16.5q-29 0 -55.5 -12.5t-48.5 -28.5q-16 -12 -31.5 -24.5t-32.5 -29.5 q-39 -39 -63.5 -109.5t-39 -151.5t-20.5 -159.5t-6 -132.5v-145.5z" />
<glyph unicode="&#xd6;" horiz-adv-x="897" d="M14 872v28.5t2 31.5q6 88 15.5 179t34 177t70.5 160t128 127q35 23 81 43t87 20q84 0 141.5 -47t96.5 -121.5t60.5 -168t31.5 -187.5t12 -179t2 -142q0 -59 -5 -117t-11 -115q-10 -84 -30.5 -182t-62.5 -182t-113 -140.5t-179 -56.5q-76 0 -139 45q-57 39 -98.5 105.5 t-67 142.5t-36.5 154.5t-11 144.5q0 70 -4.5 139t-4.5 141zM135 722.5q0 -79.5 6 -159.5t20.5 -155.5t41.5 -133.5q10 -23 25.5 -47t35 -45.5t41 -38t45.5 -20.5q6 -2 17 -2q12 0 29.5 3t37 9t35.5 13.5t25 15.5q10 8 16 19.5t14 21.5q41 59 66.5 132t39 150.5t18.5 156.5 t5 151q0 57 -2 141t-11 171t-25.5 167t-43.5 129q-8 14 -16 26.5t-18 24.5q-23 31 -43.5 47.5t-61.5 16.5q-29 0 -55.5 -12.5t-48.5 -28.5q-16 -12 -31.5 -24.5t-32.5 -29.5q-39 -39 -63.5 -109.5t-39 -151.5t-20.5 -159.5t-6 -132.5v-145.5zM250 1774q0 29 18.5 51t48.5 22 q29 0 46.5 -19t17.5 -48t-18.5 -50.5t-49.5 -21.5q-29 0 -46 18.5t-17 47.5zM469 1774q0 29 18.5 51t49.5 22q29 0 46 -19t17 -48t-18.5 -50.5t-49.5 -21.5q-29 0 -46 18.5t-17 47.5z" />
<glyph unicode="&#xd7;" horiz-adv-x="716" d="M27 213q0 10 12 38t30.5 64.5t42 77.5t45 80t40 69.5t26.5 45.5q-14 25 -46 78t-63.5 110.5t-56 106.5t-24.5 65q0 25 15 45.5t42 20.5q12 0 19 -2q20 -6 28 -20.5t15 -33.5q8 -23 25.5 -55.5t38 -67t40.5 -67.5t33 -57q29 51 58.5 101t51.5 103q6 14 14.5 32t19.5 33 t25.5 25.5t33.5 10.5q23 0 40 -18.5t17 -41.5q0 -16 -25.5 -68t-59.5 -111.5t-65.5 -114t-42.5 -72.5q49 -92 98.5 -180t96.5 -181q0 -4 1 -10t1 -12q0 -27 -16.5 -41t-40.5 -14q-16 0 -30.5 10t-25.5 20q-12 16 -27.5 47t-33 65t-32.5 65.5t-28 54.5l-24 45l-6 8l-2 -2 l-37 -70q-23 -43 -51.5 -88t-44.5 -92q-6 -16 -14.5 -31.5t-24.5 -25.5q-11 -8 -29 -8q-27 0 -43 20t-16 43z" />
<glyph unicode="&#xd8;" horiz-adv-x="989" d="M18 842q0 98 9.5 208.5t40 214t88 190.5t155.5 138q35 16 77 32.5t79 16.5q12 0 24.5 -2t24.5 -4q4 29 16.5 55.5t47.5 26.5q29 0 44 -19.5t15 -45.5q0 -29 -10 -66q68 -61 106.5 -141t58 -168t26.5 -180t11 -178q2 -33 3.5 -65t1.5 -64q0 -59 -6.5 -117t-14.5 -115 q-12 -92 -34.5 -191.5t-67.5 -182.5t-119 -136t-188 -53q-29 0 -56 6q-4 -27 -15 -50.5t-42 -23.5q-25 0 -45.5 20.5t-20.5 45.5q0 14 3 29.5t8 29.5q-55 41 -94.5 103.5t-65 134t-37.5 146.5t-12 141t-5.5 132t-5.5 132zM141 877q0 -72 1 -164t11.5 -186.5t35 -179.5 t71.5 -144q29 141 50.5 281.5t43.5 281.5q33 190 70 375.5t72 374.5q-8 2 -14.5 3t-14.5 1q-33 0 -62.5 -13.5t-58.5 -31.5q-16 -10 -31.5 -23.5t-31.5 -28.5q-41 -37 -69 -106.5t-44 -149.5t-22.5 -157.5t-6.5 -132.5zM367 123q20 -4 30 -4q12 0 32 3t40 8t38.5 12.5 t29.5 15.5q55 49 88.5 128t52 169t26 180t7.5 158q0 59 -3 149t-14.5 184.5t-34 177t-59.5 128.5q-63 -328 -120.5 -653.5t-112.5 -655.5z" />
<glyph unicode="&#xd9;" horiz-adv-x="856" d="M4 1469.5q-2 37.5 2 74.5t18.5 63.5t45.5 26.5q35 0 50 -27.5t15 -56.5q0 -31 -4 -61.5t-4 -61.5q0 -154 7 -308t7 -310q0 -61 2 -122.5t4 -125.5q0 -57 3.5 -132t24 -142.5t63.5 -114.5t124 -47q57 0 94.5 23.5t65.5 70.5q39 61 45 142t8 151q4 250 13.5 497.5 t9.5 495.5q0 16 -1 39t2 44.5t14.5 35.5t35.5 14q43 0 55.5 -33.5t12.5 -68.5q0 -262 -5 -520t-14 -520q0 -41 -4 -90.5t-13 -97.5t-24.5 -93t-40.5 -78q-29 -41 -57.5 -67.5t-60 -42t-69.5 -21.5t-85 -6q-80 0 -134 38t-101 99q-25 33 -40.5 78t-24.5 93t-13 97.5t-4 90.5 q-4 180 -4 359t-9 359q-4 49 -6 98.5t-2 96.5q0 23 -2 60.5zM193 1886q0 25 17 42.5t42 17.5q10 0 31 -9q4 -2 27.5 -22.5t51 -46t52 -49t30.5 -29.5q12 -12 13 -37q0 -27 -14.5 -43t-41.5 -16q-20 0 -30 10q-8 6 -34 27.5t-54.5 47t-53 48t-28.5 31.5q-8 16 -8 28z" />
<glyph unicode="&#xda;" horiz-adv-x="856" d="M4 1469.5q-2 37.5 2 74.5t18.5 63.5t45.5 26.5q35 0 50 -27.5t15 -56.5q0 -31 -4 -61.5t-4 -61.5q0 -154 7 -308t7 -310q0 -61 2 -122.5t4 -125.5q0 -57 3.5 -132t24 -142.5t63.5 -114.5t124 -47q57 0 94.5 23.5t65.5 70.5q39 61 45 142t8 151q4 250 13.5 497.5 t9.5 495.5q0 16 -1 39t2 44.5t14.5 35.5t35.5 14q43 0 55.5 -33.5t12.5 -68.5q0 -262 -5 -520t-14 -520q0 -41 -4 -90.5t-13 -97.5t-24.5 -93t-40.5 -78q-29 -41 -57.5 -67.5t-60 -42t-69.5 -21.5t-85 -6q-80 0 -134 38t-101 99q-25 33 -40.5 78t-24.5 93t-13 97.5t-4 90.5 q-4 180 -4 359t-9 359q-4 49 -6 98.5t-2 96.5q0 23 -2 60.5zM285 1720q0 27 12 39q6 6 30.5 29.5t52.5 49.5t51.5 46.5t29.5 24.5q12 6 28 6q25 0 42.5 -16.5t17.5 -43.5q0 -18 -8 -28q-4 -8 -29 -30.5t-53.5 -48.5t-54 -47.5t-33.5 -27.5q-11 -8 -29 -8q-25 0 -41 15.5 t-16 39.5z" />
<glyph unicode="&#xdb;" horiz-adv-x="856" d="M4 1469.5q-2 37.5 2 74.5t18.5 63.5t45.5 26.5q35 0 50 -27.5t15 -56.5q0 -31 -4 -61.5t-4 -61.5q0 -154 7 -308t7 -310q0 -61 2 -122.5t4 -125.5q0 -57 3.5 -132t24 -142.5t63.5 -114.5t124 -47q57 0 94.5 23.5t65.5 70.5q39 61 45 142t8 151q4 250 13.5 497.5 t9.5 495.5q0 16 -1 39t2 44.5t14.5 35.5t35.5 14q43 0 55.5 -33.5t12.5 -68.5q0 -262 -5 -520t-14 -520q0 -41 -4 -90.5t-13 -97.5t-24.5 -93t-40.5 -78q-29 -41 -57.5 -67.5t-60 -42t-69.5 -21.5t-85 -6q-80 0 -134 38t-101 99q-25 33 -40.5 78t-24.5 93t-13 97.5t-4 90.5 q-4 180 -4 359t-9 359q-4 49 -6 98.5t-2 96.5q0 23 -2 60.5zM170 1769q0 8 16.5 40t39 69t43 70.5t30.5 44.5q20 25 49 24q23 0 54.5 -30.5t61.5 -71.5t50.5 -83t20.5 -65t-15.5 -39t-38.5 -16t-41 16.5t-32.5 40t-25.5 49t-24 42.5q-10 -16 -23 -41t-29.5 -48.5t-35 -41 t-37.5 -17.5q-23 0 -43 15.5t-20 41.5z" />
<glyph unicode="&#xdc;" horiz-adv-x="856" d="M4 1469.5q-2 37.5 2 74.5t18.5 63.5t45.5 26.5q35 0 50 -27.5t15 -56.5q0 -31 -4 -61.5t-4 -61.5q0 -154 7 -308t7 -310q0 -61 2 -122.5t4 -125.5q0 -57 3.5 -132t24 -142.5t63.5 -114.5t124 -47q57 0 94.5 23.5t65.5 70.5q39 61 45 142t8 151q4 250 13.5 497.5 t9.5 495.5q0 16 -1 39t2 44.5t14.5 35.5t35.5 14q43 0 55.5 -33.5t12.5 -68.5q0 -262 -5 -520t-14 -520q0 -41 -4 -90.5t-13 -97.5t-24.5 -93t-40.5 -78q-29 -41 -57.5 -67.5t-60 -42t-69.5 -21.5t-85 -6q-80 0 -134 38t-101 99q-25 33 -40.5 78t-24.5 93t-13 97.5t-4 90.5 q-4 180 -4 359t-9 359q-4 49 -6 98.5t-2 96.5q0 23 -2 60.5zM188 1753q0 29 18.5 51.5t49.5 22.5q29 0 46 -19.5t17 -48.5t-18 -50t-49 -21q-29 0 -46.5 18t-17.5 47zM408 1753q0 29 18 51.5t49 22.5q29 0 46.5 -19.5t17.5 -48.5t-18.5 -50t-49.5 -21q-29 0 -46 18t-17 47z " />
<glyph unicode="&#xdd;" horiz-adv-x="800" d="M-74 1581q0 23 15.5 39t40.5 16q37 0 59 -28q6 -8 25.5 -53.5t46 -112t56.5 -143t56.5 -148.5t48 -128t31.5 -81q53 129 102.5 260t94.5 264q10 31 17 63t20 60q8 20 23.5 34.5t37.5 14.5q27 0 43 -18t16 -45q0 -23 -11 -47.5t-19 -46.5q-33 -94 -65 -188.5t-66 -190.5 q-23 -63 -50.5 -125t-50.5 -127q-8 -23 -20 -48.5t-12 -49.5q0 -59 3 -116.5t3 -117.5q0 -41 -2 -80t-2 -80q0 -23 2 -74t2 -106t-4.5 -102t-16.5 -62q-14 -14 -35 -14q-25 0 -38 10t-19 26.5t-7 35t-1 37.5v229v215t-2 213q-27 51 -47.5 113.5t-42.5 117.5 q-47 115 -89 230.5t-92 228.5q-4 10 -13 27.5t-17 36t-14.5 35t-6.5 26.5zM203 1720q0 27 12 39q6 6 30.5 29.5t52.5 49.5t51.5 46.5t29.5 24.5q12 6 29 6q25 0 42 -16.5t17 -43.5q0 -18 -8 -28q-4 -8 -28.5 -30.5t-53.5 -48.5t-54.5 -47.5t-33.5 -27.5q-11 -8 -29 -8 q-25 0 -41 15.5t-16 39.5z" />
<glyph unicode="&#xde;" horiz-adv-x="628" d="M16 127q2 31 2 53q0 238 3.5 473.5t11.5 472.5q4 82 6 164t2 164q0 25 -3 49.5t-3 50.5q0 16 4 37t20 31q10 6 21.5 11t21.5 5q29 0 41.5 -33.5t16.5 -78.5t3 -89t-1 -63q0 -29 -1 -55.5t-1 -54.5q23 12 57.5 18t61.5 6q55 0 95 -32.5t64.5 -81t36.5 -103.5t12 -100 q0 -72 -9 -154t-38.5 -152.5t-85 -117.5t-147.5 -47q-33 0 -70 10v-102q0 -84 2 -166t2 -166q0 -39 -18 -60q-14 -16 -41 -16q-31 0 -45 20.5t-18.5 48t-2.5 58.5zM140 694q-1 -20 4.5 -37.5t18.5 -28t42 -10.5q57 0 91 39t49 95.5t19.5 117t4.5 103.5q0 20 -5.5 54 t-17.5 65.5t-31.5 54t-46.5 22.5q-66 0 -93.5 -48t-27.5 -103q0 -72 -3 -141.5t-3 -139.5q0 -23 -1 -43z" />
<glyph unicode="&#xdf;" horiz-adv-x="1443" d="M-27 22.5q4 14.5 17 22.5q10 6 21.5 8t23.5 2h16h10h19q0 23 -1 45.5t-1 44.5q0 23 -1 43.5t-1 42.5v48q0 25 -1 48t-3 48q0 14 -1 27.5t-1 27.5q-2 41 -2 80v78v61v70v53v47v84q2 72 3 127t3 107q0 49 7 98t17 98q14 57 44 105.5t73 89.5q8 6 15.5 10t13.5 8q2 2 3 2 t3 2q90 57 188 82q10 4 17.5 5t15.5 5q27 6 52.5 13.5t54.5 11.5t54 6t52 4q94 6 180 -12q20 -4 40 -10t40 -13q16 -4 29 -8q12 -4 16 -6l4 -2q41 -23 58.5 -52.5t13.5 -82.5q-2 -35 -12.5 -61.5t-26.5 -51.5q-10 -18 -22.5 -38.5t-22.5 -41.5q-10 -16 -17.5 -29.5 t-17.5 -29.5q-23 -37 -47.5 -76t-56.5 -80q-18 -23 -33.5 -48t-32.5 -52q23 4 46.5 8t45.5 6l21 2q8 2 22 2q43 0 99 -24q49 -23 98 -68q29 -27 46 -56.5t28 -57.5q41 -102 45 -224q0 -8 1 -15t1 -15v-68q-4 -53 -10.5 -112.5t-32.5 -116.5q-14 -35 -49 -82 q-23 -33 -52.5 -63.5t-70.5 -51.5l-2 -2q-8 -4 -16.5 -8t-18.5 -8q-27 -10 -56.5 -19.5t-64.5 -13.5q-16 -2 -29.5 -3t-29.5 -1q-14 0 -25.5 1t-21.5 3l-23 4q-25 4 -51.5 10t-52.5 15q-4 0 -9.5 2t-9.5 4v-4q0 -29 -14 -43q-12 -12 -33 -13q-16 0 -25 4q-8 4 -12 5l-4 2 q-16 10 -20 26v2q-4 8 -4 17v43q-2 16 -2.5 32.5t-2.5 32.5q-2 23 -4 43.5t-2 42.5v25q-2 0 -2 2q-4 29 8.5 41t22.5 16q6 2 18 2q16 0 28.5 -8t16.5 -12q20 -20 21 -54q0 -4 1 -6t1 -6v-31q-2 -16 18 -43q2 -4 4.5 -7t4.5 -7t16 -8q27 -8 57.5 -15.5t65.5 -11.5 q43 -4 88 4.5t98 30.5q20 10 38 26.5t38 39.5q72 84 86 180q8 45 10 85t0 79q0 4 -1 9t-1 11q0 14 -1 26.5t-3 26.5q-4 31 -9 61t-18 58q-8 20 -12 29q-10 27 -20 45q-37 70 -121 88q-8 2 -19.5 1t-23.5 -3h-10q-23 -4 -42.5 -8t-39.5 -8q-10 -4 -21.5 -7.5t-23.5 -7.5 q-16 -4 -27 -8q-12 -4 -22 -4q-6 0 -11 2q-8 2 -29.5 8t-31.5 29q-10 18 -5 36.5t11 30.5q16 31 33.5 64t38.5 65q10 16 22 34t25 34q10 16 20 29.5t21 29.5q23 31 40 65t38 64l14 23q8 16 16 30.5t17 28.5q4 10 9 18.5t11 18.5q14 29 6 76q-2 2 -3 2t-3 2l-12 4 q-8 4 -16.5 5t-16.5 5q-29 8 -54.5 13.5t-53.5 7.5q-88 6 -183 -10q-74 -14 -149 -39q-14 -4 -27.5 -8t-25.5 -9h-3q-14 -6 -28 -14q-25 -12 -48.5 -25.5t-43.5 -31.5q-53 -49 -72 -121q-27 -94 -27 -201q0 -33 -1 -64.5t-1 -66.5v-86q0 -47 -1 -94t-1 -94q-2 -16 -2 -30.5 v-31.5q-2 -23 -2 -44v-44q0 -29 1 -59.5t3 -59.5q0 -16 1 -29.5t1 -29.5q2 -29 3 -57.5t1 -57.5v-32.5t2 -32.5v-53q0 -23 1 -44.5t1 -44.5h13q29 0 51 -16q10 -8 16 -20.5t2 -28.5q-4 -8 -11 -18.5t-21 -14.5q-10 -2 -17.5 -2t-13.5 -2q-16 0 -25 -2q-25 -2 -50 -3t-50 -1 h-25.5t-21.5 2q-41 4 -60 37q-8 14 -4 28.5z" />
<glyph unicode="&#xe0;" d="M-78 70q0 20 7.5 51t16.5 64.5t18 66.5t13 55q29 135 63 268.5t66 268.5q23 94 53.5 186t53.5 187q6 25 22.5 86t35 127.5t37 121t28.5 64.5q6 8 18.5 15t22.5 7q29 0 45 -20.5t24 -42.5q18 -49 25.5 -101.5t22.5 -103.5q41 -147 72.5 -295.5t60.5 -298.5 q27 -139 59.5 -276.5t63.5 -278.5q8 -35 22 -75t14 -76q0 -25 -13 -46.5t-42 -21.5q-31 0 -48 26.5t-24 51.5q-20 72 -31.5 144.5t-31.5 144.5t-34.5 142.5t-31.5 141.5q-86 0 -172 -1t-172 -3l-46 -188t-46 -191q-12 -51 -26.5 -103t-24.5 -106q-4 -25 -17.5 -43t-41.5 -18 q-29 0 -45.5 20.5t-16.5 49.5zM211 768q74 2 147.5 2t147.5 2q-27 147 -61.5 294t-69.5 294q-35 -152 -80 -297t-84 -295zM213 1907q0 25 17.5 42t41.5 17q10 0 31 -8q4 -2 27.5 -22.5t51.5 -46t52.5 -49t30.5 -30.5q12 -12 12 -36q0 -27 -14 -43.5t-41 -16.5q-20 0 -31 10 q-8 6 -33.5 28t-54.5 47.5t-53.5 48t-28.5 30.5q-8 16 -8 29z" />
<glyph unicode="&#xe1;" d="M-78 70q0 20 7.5 51t16.5 64.5t18 66.5t13 55q29 135 63 268.5t66 268.5q23 94 53.5 186t53.5 187q6 25 22.5 86t35 127.5t37 121t28.5 64.5q6 8 18.5 15t22.5 7q29 0 45 -20.5t24 -42.5q18 -49 25.5 -101.5t22.5 -103.5q41 -147 72.5 -295.5t60.5 -298.5 q27 -139 59.5 -276.5t63.5 -278.5q8 -35 22 -75t14 -76q0 -25 -13 -46.5t-42 -21.5q-31 0 -48 26.5t-24 51.5q-20 72 -31.5 144.5t-31.5 144.5t-34.5 142.5t-31.5 141.5q-86 0 -172 -1t-172 -3l-46 -188t-46 -191q-12 -51 -26.5 -103t-24.5 -106q-4 -25 -17.5 -43t-41.5 -18 q-29 0 -45.5 20.5t-16.5 49.5zM211 768q74 2 147.5 2t147.5 2q-27 147 -61.5 294t-69.5 294q-35 -152 -80 -297t-84 -295zM326 1761q0 27 12 39q6 6 30.5 29.5t52.5 49.5t51.5 46.5t29.5 24.5q12 6 28 6q25 0 42.5 -16.5t17.5 -43.5q0 -18 -8 -28q-4 -8 -29 -30.5 t-53.5 -48.5t-54 -47.5t-33.5 -27.5q-11 -8 -29 -8q-25 0 -41 15.5t-16 39.5z" />
<glyph unicode="&#xe2;" d="M-78 70q0 20 7.5 51t16.5 64.5t18 66.5t13 55q29 135 63 268.5t66 268.5q23 94 53.5 186t53.5 187q6 25 22.5 86t35 127.5t37 121t28.5 64.5q6 8 18.5 15t22.5 7q29 0 45 -20.5t24 -42.5q18 -49 25.5 -101.5t22.5 -103.5q41 -147 72.5 -295.5t60.5 -298.5 q27 -139 59.5 -276.5t63.5 -278.5q8 -35 22 -75t14 -76q0 -25 -13 -46.5t-42 -21.5q-31 0 -48 26.5t-24 51.5q-20 72 -31.5 144.5t-31.5 144.5t-34.5 142.5t-31.5 141.5q-86 0 -172 -1t-172 -3l-46 -188t-46 -191q-12 -51 -26.5 -103t-24.5 -106q-4 -25 -17.5 -43t-41.5 -18 q-29 0 -45.5 20.5t-16.5 49.5zM190 1749q0 8 16.5 40t39 68.5t43 70.5t30.5 44q20 25 50 25q23 0 54.5 -31t61 -72t50 -83t20.5 -64q0 -23 -15 -39t-38 -16t-41.5 16t-32.5 40t-25.5 49.5t-23.5 41.5q-10 -16 -23.5 -40.5t-30 -48.5t-35 -41t-36.5 -17q-23 0 -43.5 15 t-20.5 42zM211 768q74 2 147.5 2t147.5 2q-27 147 -61.5 294t-69.5 294q-35 -152 -80 -297t-84 -295z" />
<glyph unicode="&#xe3;" d="M-78 70q0 20 7.5 51t16.5 64.5t18 66.5t13 55q29 135 63 268.5t66 268.5q23 94 53.5 186t53.5 187q6 25 22.5 86t35 127.5t37 121t28.5 64.5q6 8 18.5 15t22.5 7q29 0 45 -20.5t24 -42.5q18 -49 25.5 -101.5t22.5 -103.5q41 -147 72.5 -295.5t60.5 -298.5 q27 -139 59.5 -276.5t63.5 -278.5q8 -35 22 -75t14 -76q0 -25 -13 -46.5t-42 -21.5q-31 0 -48 26.5t-24 51.5q-20 72 -31.5 144.5t-31.5 144.5t-34.5 142.5t-31.5 141.5q-86 0 -172 -1t-172 -3l-46 -188t-46 -191q-12 -51 -26.5 -103t-24.5 -106q-4 -25 -17.5 -43t-41.5 -18 q-29 0 -45.5 20.5t-16.5 49.5zM133 1755q0 29 18.5 55.5t45 47t57.5 33t57 12.5q43 0 71 -17.5t48.5 -37t37.5 -37t40 -17.5q20 0 32.5 15.5t23.5 33t23.5 32.5t37.5 15q23 0 41 -15t18 -40q0 -31 -17.5 -59.5t-43 -51t-57 -36t-60.5 -13.5q-43 0 -74 17.5t-52.5 37 t-36.5 37t-28 17.5q-29 0 -45 -14.5t-27.5 -32t-22.5 -31.5t-30 -14q-25 0 -41 20.5t-16 42.5zM211 768q74 2 147.5 2t147.5 2q-27 147 -61.5 294t-69.5 294q-35 -152 -80 -297t-84 -295z" />
<glyph unicode="&#xe4;" d="M-78 70q0 20 7.5 51t16.5 64.5t18 66.5t13 55q29 135 63 268.5t66 268.5q23 94 53.5 186t53.5 187q6 25 22.5 86t35 127.5t37 121t28.5 64.5q6 8 18.5 15t22.5 7q29 0 45 -20.5t24 -42.5q18 -49 25.5 -101.5t22.5 -103.5q41 -147 72.5 -295.5t60.5 -298.5 q27 -139 59.5 -276.5t63.5 -278.5q8 -35 22 -75t14 -76q0 -25 -13 -46.5t-42 -21.5q-31 0 -48 26.5t-24 51.5q-20 72 -31.5 144.5t-31.5 144.5t-34.5 142.5t-31.5 141.5q-86 0 -172 -1t-172 -3l-46 -188t-46 -191q-12 -51 -26.5 -103t-24.5 -106q-4 -25 -17.5 -43t-41.5 -18 q-29 0 -45.5 20.5t-16.5 49.5zM209 1753q0 29 18.5 51.5t48.5 22.5q29 0 46.5 -19.5t17.5 -48.5t-18.5 -50t-49.5 -21q-29 0 -46 18t-17 47zM211 768q74 2 147.5 2t147.5 2q-27 147 -61.5 294t-69.5 294q-35 -152 -80 -297t-84 -295zM428 1753q0 29 18.5 51.5t49.5 22.5 q29 0 46 -19.5t17 -48.5t-18.5 -50t-48.5 -21q-29 0 -46.5 18t-17.5 47z" />
<glyph unicode="&#xe5;" horiz-adv-x="884" d="M-78 70q0 20 7.5 51t16.5 64.5t18 66.5t13 55q29 135 63 268.5t66 268.5q23 94 53.5 186t53.5 187q6 25 22.5 86t35 127.5t37 121t28.5 64.5q6 8 18.5 15t22.5 7q29 0 45 -20.5t24 -42.5q18 -49 25.5 -101.5t22.5 -103.5q41 -147 72.5 -295.5t60.5 -298.5 q27 -139 59.5 -276.5t63.5 -278.5q8 -35 22 -75t14 -76q0 -25 -13 -46.5t-42 -21.5q-31 0 -48 26.5t-24 51.5q-20 72 -31.5 144.5t-31.5 144.5t-34.5 142.5t-31.5 141.5q-86 0 -172 -1t-172 -3l-46 -188t-46 -191q-12 -51 -26.5 -103t-24.5 -106q-4 -25 -17.5 -43t-41.5 -18 q-29 0 -45.5 20.5t-16.5 49.5zM211 768q74 2 147.5 2t147.5 2q-27 147 -61.5 294t-69.5 294q-35 -152 -80 -297t-84 -295zM293 1858q0 41 33 77q33 29 67 29q64 0 84 -63q10 -33 4 -73t-39 -63l-6 -4q-25 -12 -47 -12q-43 0 -72 33q-29 31 -24 76zM352 1858q0 -18 10 -29 q8 -12 27 -12q4 0 17 4l2 2q12 8 15 23.5t-1 27.5q-10 23 -33 22q-10 0 -24 -10q-12 -12 -13 -28z" />
<glyph unicode="&#xe6;" horiz-adv-x="1380" d="M-29 59q0 16 5.5 25.5t9.5 24.5q82 250 177 494.5t193 490.5q37 94 77 185t73 187q6 16 13 43t17.5 51.5t23.5 43t32 22.5q8 6 18 6q133 0 264.5 4t264.5 4q14 0 30.5 -2t30.5 -8t23.5 -17t9.5 -30q0 -16 -10.5 -35.5t-26.5 -23.5q-20 -6 -89 -7t-153 -1h-164.5 t-123.5 -3q2 -25 2 -49t-4 -49q-8 -72 -7.5 -144.5t-9.5 -144.5q-10 -74 -15 -147.5t-7 -147.5q78 4 157.5 7.5t157.5 13.5q12 2 23.5 3t21.5 1q27 0 49.5 -14.5t22.5 -42.5q0 -33 -30 -48.5t-58 -17.5q-86 -6 -173 -11t-173 -9q-8 -150 -8.5 -297.5t-2.5 -294.5 q227 2 455 18q8 0 15.5 1t13.5 1q25 0 44 -11t19 -40q0 -16 -13 -38.5t-32 -26.5q-94 -16 -188 -17q-82 0 -164 -3t-166 -3q-55 0 -78.5 21.5t-23.5 74.5q0 72 2 142.5t2 142.5v123q-35 2 -69 2h-69h-54t-54 -2q-29 -78 -59.5 -157t-55.5 -159q-10 -35 -21.5 -73.5 t-27.5 -71.5q-25 -41 -63 -41q-23 0 -38.5 16.5t-15.5 38.5zM299 633q41 0 83 -1t83 -1h35q4 147 13 293t19 293q-45 -109 -89 -215.5t-83 -217.5q-14 -39 -32.5 -75.5t-28.5 -75.5z" />
<glyph unicode="&#xe7;" horiz-adv-x="976" d="M14 791q0 84 12.5 182t38 195.5t66.5 185.5t98 151q53 59 127 86t152 27q68 0 126 -22.5t101 -63.5t67.5 -97.5t24.5 -125.5q0 -20 1 -55t-4 -69t-19 -58.5t-45 -24.5t-47.5 20.5t-16.5 51.5q0 29 4.5 58.5t4.5 57.5q0 98 -52.5 153.5t-150.5 55.5q-78 0 -135.5 -40 t-97.5 -103.5t-65.5 -144.5t-38.5 -162.5t-18.5 -158.5t-5.5 -130q0 -78 11.5 -171t39 -184.5t71.5 -170t110 -125.5q23 -16 55 -17q23 0 43.5 6t38.5 15q53 23 82 64.5t43 90.5t20.5 101.5t13.5 94.5t21.5 68.5t46.5 26.5q29 0 42.5 -16.5t13.5 -44.5q0 -76 -12.5 -158 t-43 -153.5t-85 -126t-140.5 -74.5l-8 -27q51 -18 80.5 -53t29.5 -92q0 -35 -14 -64t-37.5 -49t-54.5 -30.5t-64 -10.5q-29 0 -59.5 9t-30.5 44q0 29 14.5 49.5t43.5 20.5q10 0 23.5 -1t25.5 1t20 8t8 23q0 27 -28.5 34t-48.5 9l-23 12l-18 25l-9 24q4 16 9.5 31.5 t11.5 32.5q-51 12 -90 40.5t-74 65.5q-61 68 -100 153t-62.5 178t-33 188t-9.5 184z" />
<glyph unicode="&#xe8;" horiz-adv-x="702" d="M20 842q0 -106 3.5 -211t3.5 -211q0 -88 1 -176t1 -176q0 -39 14 -54.5t55 -15.5q23 0 43.5 4t42.5 2l47 -2h185q18 0 44.5 -1t52.5 3t43 16.5t17 40.5q0 33 -21.5 48.5t-49.5 15.5q-29 0 -56.5 -3t-56.5 -3q-59 0 -120.5 1t-123.5 1q0 117 -3 230.5t-3 230.5 q0 31 1 61.5t1 63.5q86 0 170 3t170 3q27 0 46.5 10t19.5 41q0 23 -10.5 35t-25.5 18t-33.5 8t-35.5 2h-151.5t-149.5 -2q-2 59 -3 121t-1 121q0 111 3 217.5t3 216.5q31 4 64 3t65 -1q51 2 102.5 5t102.5 5q29 0 59.5 5.5t34.5 40.5l2 10q2 20 -8 32.5t-26.5 20.5t-36 11 t-33.5 3q-59 0 -119.5 -6t-120.5 -6q-23 0 -56.5 2t-67 -2t-57 -19.5t-23.5 -50.5q0 -137 -2.5 -273t-2.5 -273v-166zM141 1894q0 25 17.5 42.5t42.5 17.5q12 0 28 -8q6 -2 30 -22.5t51.5 -46.5t52 -49.5t30.5 -29.5q12 -16 13 -37q0 -27 -15.5 -43t-42.5 -16q-16 0 -31 8 q-8 6 -33.5 27.5t-54 47t-52 49.5t-27.5 32q-8 10 -9 28z" />
<glyph unicode="&#xe9;" horiz-adv-x="702" d="M20 842q0 -106 3.5 -211t3.5 -211q0 -88 1 -176t1 -176q0 -39 14 -54.5t55 -15.5q23 0 43.5 4t42.5 2l47 -2h185q18 0 44.5 -1t52.5 3t43 16.5t17 40.5q0 33 -21.5 48.5t-49.5 15.5q-29 0 -56.5 -3t-56.5 -3q-59 0 -120.5 1t-123.5 1q0 117 -3 230.5t-3 230.5 q0 31 1 61.5t1 63.5q86 0 170 3t170 3q27 0 46.5 10t19.5 41q0 23 -10.5 35t-25.5 18t-33.5 8t-35.5 2h-151.5t-149.5 -2q-2 59 -3 121t-1 121q0 111 3 217.5t3 216.5q31 4 64 3t65 -1q51 2 102.5 5t102.5 5q29 0 59.5 5.5t34.5 40.5l2 10q2 20 -8 32.5t-26.5 20.5t-36 11 t-33.5 3q-59 0 -119.5 -6t-120.5 -6q-23 0 -56.5 2t-67 -2t-57 -19.5t-23.5 -50.5q0 -137 -2.5 -273t-2.5 -273v-166zM217 1763q0 27 12 39q6 6 31 29.5t52.5 49.5t51 46.5t29.5 24.5q12 6 29 6q25 0 42 -16.5t17 -43.5q0 -18 -8 -28q-4 -8 -28.5 -30.5t-53.5 -48.5 t-54.5 -47.5t-33.5 -27.5q-11 -8 -29 -8q-25 0 -41 15.5t-16 39.5z" />
<glyph unicode="&#xea;" horiz-adv-x="702" d="M20 842v166q0 137 2.5 273t2.5 273q0 35 23.5 50.5t57 19.5t67.5 2t56 -2q59 0 120 6t120 6q14 0 33.5 -3t36 -11t26.5 -20.5t8 -32.5l-2 -10q-4 -35 -34.5 -40.5t-59.5 -5.5q-51 -2 -102 -5t-103 -5q-33 0 -65.5 1t-63.5 -3q0 -111 -3 -217t-3 -217q0 -59 1 -120.5 t3 -121.5q74 2 150 2h151q16 0 35 -2t34 -8t25.5 -18.5t10.5 -34.5q0 -31 -19.5 -41t-46.5 -10q-86 0 -170 -3t-170 -3q0 -33 -1 -64t-1 -61q0 -117 3 -230.5t3 -230.5q61 0 123 -1t121 -1q29 0 56.5 3t56.5 3t50 -15.5t21 -48.5q0 -29 -17 -41t-43 -16t-52.5 -3t-44.5 1 h-185l-47 2q-23 2 -43 -2t-43 -4q-41 0 -55 15.5t-14 54.5q0 88 -1 176t-1 176q0 106 -3.5 210.5t-3.5 211.5zM109 1769q0 8 16 40t38.5 69t43 70.5t31.5 44.5q20 25 49 24q23 0 54.5 -30.5t61 -71.5t50 -83t20.5 -65t-15 -39t-38 -16t-41.5 16.5t-32.5 40t-25.5 49 t-23.5 42.5q-10 -16 -23.5 -41t-30 -48.5t-35 -41t-36.5 -17.5q-23 0 -43 15.5t-20 41.5z" />
<glyph unicode="&#xeb;" horiz-adv-x="702" d="M20 842q0 -106 3.5 -211t3.5 -211q0 -88 1 -176t1 -176q0 -39 14 -54.5t55 -15.5q23 0 43.5 4t42.5 2l47 -2h185q18 0 44.5 -1t52.5 3t43 16.5t17 40.5q0 33 -21.5 48.5t-49.5 15.5q-29 0 -56.5 -3t-56.5 -3q-59 0 -120.5 1t-123.5 1q0 117 -3 230.5t-3 230.5 q0 31 1 61.5t1 63.5q86 0 170 3t170 3q27 0 46.5 10t19.5 41q0 23 -10.5 35t-25.5 18t-33.5 8t-35.5 2h-151.5t-149.5 -2q-2 59 -3 121t-1 121q0 111 3 217.5t3 216.5q31 4 64 3t65 -1q51 2 102.5 5t102.5 5q29 0 59.5 5.5t34.5 40.5l2 10q2 20 -8 32.5t-26.5 20.5t-36 11 t-33.5 3q-59 0 -119.5 -6t-120.5 -6q-23 0 -56.5 2t-67 -2t-57 -19.5t-23.5 -50.5q0 -137 -2.5 -273t-2.5 -273v-166zM127 1774q0 29 18.5 51t49.5 22q29 0 46 -19t17 -48t-18.5 -50.5t-49.5 -21.5q-29 0 -46 18.5t-17 47.5zM346 1774q0 29 18.5 51t49.5 22q29 0 46 -19 t17 -48t-18.5 -50.5t-48.5 -21.5q-29 0 -46.5 18.5t-17.5 47.5z" />
<glyph unicode="&#xec;" horiz-adv-x="385" d="M51 1874q0 20 13.5 34.5t33.5 14.5q12 0 25 -6q4 -2 22.5 -19.5t41 -39t42 -41l25.5 -25.5q10 -14 10 -31q0 -23 -12 -36t-35 -13q-14 0 -22 8q-6 4 -28 22.5t-44.5 40t-42 41t-23.5 25.5q-6 8 -6 25zM78 621q0 217 6 431t6 431q0 16 -2 42.5t2 51.5t16.5 43t40.5 18 q39 0 51.5 -32.5t12.5 -63.5q0 -260 -7 -516t-7 -518q0 -104 1 -209.5t3 -212.5q0 -18 -5.5 -37.5t-17.5 -34.5q-18 -14 -35 -14q-39 0 -49 30.5t-10 59.5q0 135 -3 266.5t-3 264.5z" />
<glyph unicode="&#xed;" horiz-adv-x="385" d="M72 1761q0 16 10 31l25.5 25.5t42 41t41 39t22.5 19.5q12 6 25 6q20 0 33.5 -14.5t13.5 -34.5q0 -16 -6 -25q-4 -6 -23.5 -25.5t-42.5 -41t-43 -40t-27 -22.5q-10 -8 -24 -8q-23 0 -35 13.5t-12 35.5zM78 621q0 217 6 431t6 431q0 16 -2 42.5t2 51.5t16.5 43t40.5 18 q39 0 51.5 -32.5t12.5 -63.5q0 -260 -7 -516t-7 -518q0 -104 1 -209.5t3 -212.5q0 -18 -5.5 -37.5t-17.5 -34.5q-18 -14 -35 -14q-39 0 -49 30.5t-10 59.5q0 135 -3 266.5t-3 264.5z" />
<glyph unicode="&#xee;" horiz-adv-x="385" d="M31 1761q0 6 13 36t29.5 65.5t34 66.5t23.5 41q16 23 39 23q18 0 43 -29t47.5 -67.5t38.5 -77.5t16 -60q0 -23 -12.5 -37t-30.5 -14t-31.5 15.5t-23.5 38t-20.5 45t-18.5 38.5q-6 -14 -17 -36.5t-23.5 -45t-28 -39t-29.5 -16.5q-18 0 -33.5 15.5t-15.5 37.5zM98 621 q0 217 6.5 431t6.5 431q0 16 -2.5 42.5t2 51.5t16.5 43t41 18q39 0 51 -32.5t12 -63.5q0 -260 -7 -516t-7 -518q0 -104 1 -209.5t3 -212.5q0 -18 -5 -37.5t-17 -34.5q-18 -14 -35 -14q-39 0 -49.5 30.5t-10.5 59.5q0 135 -3 266.5t-3 264.5z" />
<glyph unicode="&#xef;" horiz-adv-x="385" d="M35 1735q0 25 13 43t36 18t35 -16t12 -39t-13.5 -41.5t-35.5 -18.5q-23 0 -35 15.5t-12 38.5zM78 621q0 217 6 431t6 431q0 16 -2 42.5t2 51.5t16.5 43t40.5 18q39 0 51.5 -32.5t12.5 -63.5q0 -260 -7 -516t-7 -518q0 -104 1 -209.5t3 -212.5q0 -18 -5.5 -37.5 t-17.5 -34.5q-18 -14 -35 -14q-39 0 -49 30.5t-10 59.5q0 135 -3 266.5t-3 264.5zM176 1735q0 25 13.5 43t35.5 18q23 0 35 -16t12 -39t-13 -41.5t-36 -18.5t-35 15.5t-12 38.5z" />
<glyph unicode="&#xf0;" horiz-adv-x="804" d="M6 414q0 104 30 206.5t93 186.5q47 66 127 115t162 49q27 0 55 -6q-23 74 -51.5 146.5t-69.5 139.5q-6 -2 -14 -10t-19.5 -17.5t-27 -16.5t-35.5 -9l-25 8l-20 21l-10 22q0 39 30.5 61.5t59.5 41.5q-25 37 -51.5 71.5t-53.5 69.5q-14 16 -30.5 27.5t-26.5 29.5 q-8 10 -8 29q0 27 18.5 41t42.5 14q25 0 56.5 -27.5t61.5 -64.5t54.5 -73.5t36.5 -57.5q18 10 40 26.5t44 16.5q27 0 41 -19.5t14 -45.5q0 -25 -27.5 -46.5t-47.5 -31.5q78 -131 114.5 -265.5t67.5 -281.5q4 -25 9 -50.5t5 -49.5q0 -53 -5 -124t-19.5 -144.5t-39 -145.5 t-62.5 -128t-92 -91t-126 -35q-35 0 -63.5 12t-57.5 29q-100 59 -140 162.5t-40 214.5zM125 397q0 -39 11 -88t35 -92t58.5 -71.5t83.5 -28.5q43 0 77 30.5t57.5 79.5t40 109.5t26.5 120t14 110.5t4 82q0 33 -5 64.5t-11 64.5q-16 25 -40.5 50.5t-59.5 25.5 q-55 0 -105.5 -39t-83.5 -80q-55 -66 -78.5 -160t-23.5 -178z" />
<glyph unicode="&#xf1;" horiz-adv-x="913" d="M10 1069l2 459q0 25 3 49.5t22 42.5q14 18 37 18q31 0 47 -29.5t26 -54.5q27 -66 49.5 -130t47.5 -130q41 -115 86 -226.5t86 -223.5q47 -127 106.5 -248t108.5 -246q2 53 3 106.5t1 106.5q0 156 -3 310.5t-3 310.5q0 53 1 104t1 105q0 37 -2 73.5t-2 71.5q0 29 13 57.5 t48 28.5q39 0 50.5 -30.5t11.5 -61.5q0 -94 -2.5 -188.5t-2.5 -188.5q0 -47 1.5 -91t3.5 -89q8 -152 7 -303.5t-1 -302.5v-147t-6 -146q-4 -25 -16.5 -45.5t-41.5 -20.5q-27 0 -46 19.5t-30 42.5q-35 76 -66.5 151.5t-62.5 149.5q-20 47 -40.5 92t-38.5 92l-32 74l-32 74 q-10 23 -18.5 43t-18.5 43q-45 117 -88 230.5t-88 229.5v-84q0 -53 2 -107l4 -108q4 -174 3 -347t3 -347q0 -47 3.5 -92t3.5 -90q0 -31 -14.5 -53.5t-49.5 -22.5q-37 0 -49 27.5t-12 58.5q0 135 -3.5 269t-3.5 270q0 39 1 76.5t1 76.5q0 74 -5 146.5t-5 144.5zM104 1776 q0 29 17.5 55.5t44.5 46.5t58.5 32.5t58.5 12.5q43 0 70.5 -17.5t47 -37t37 -36.5t39.5 -17q23 0 35 15t22.5 33.5t22.5 34t37 15.5t43 -16.5t18 -41.5q0 -31 -17 -59.5t-44 -51t-58.5 -35.5t-60.5 -13q-43 0 -73.5 17.5t-52 36.5t-37 36.5t-27.5 17.5q-29 0 -44.5 -14 t-26.5 -31.5t-22.5 -32t-31.5 -14.5q-23 0 -39.5 20.5t-16.5 43.5z" />
<glyph unicode="&#xf2;" horiz-adv-x="897" d="M14 872v28.5t2 31.5q6 88 15.5 179t34 177t70.5 160t128 127q35 23 81 43t87 20q84 0 141.5 -47t96.5 -121.5t60.5 -168t31.5 -187.5t12 -179t2 -142q0 -59 -5 -117t-11 -115q-10 -84 -30.5 -182t-62.5 -182t-113 -140.5t-179 -56.5q-76 0 -139 45q-57 39 -98.5 105.5 t-67 142.5t-36.5 154.5t-11 144.5q0 70 -4.5 139t-4.5 141zM135 722.5q0 -79.5 6 -159.5t20.5 -155.5t41.5 -133.5q10 -23 25.5 -47t35 -45.5t41 -38t45.5 -20.5q6 -2 17 -2q12 0 29.5 3t37 9t35.5 13.5t25 15.5q10 8 16 19.5t14 21.5q41 59 66.5 132t39 150.5t18.5 156.5 t5 151q0 57 -2 141t-11 171t-25.5 167t-43.5 129q-8 14 -16 26.5t-18 24.5q-23 31 -43.5 47.5t-61.5 16.5q-29 0 -55.5 -12.5t-48.5 -28.5q-16 -12 -31.5 -24.5t-32.5 -29.5q-39 -39 -63.5 -109.5t-39 -151.5t-20.5 -159.5t-6 -132.5v-145.5zM254 1907q0 25 17.5 42t41.5 17 q10 0 31 -8q4 -2 27.5 -22.5t51.5 -46t52.5 -49t30.5 -30.5q12 -12 12 -36q0 -27 -14 -43.5t-41 -16.5q-20 0 -31 10q-8 6 -33.5 28t-54.5 47.5t-53.5 48t-28.5 30.5q-8 16 -8 29z" />
<glyph unicode="&#xf3;" horiz-adv-x="897" d="M14 872v28.5t2 31.5q6 88 15.5 179t34 177t70.5 160t128 127q35 23 81 43t87 20q84 0 141.5 -47t96.5 -121.5t60.5 -168t31.5 -187.5t12 -179t2 -142q0 -59 -5 -117t-11 -115q-10 -84 -30.5 -182t-62.5 -182t-113 -140.5t-179 -56.5q-76 0 -139 45q-57 39 -98.5 105.5 t-67 142.5t-36.5 154.5t-11 144.5q0 70 -4.5 139t-4.5 141zM135 722.5q0 -79.5 6 -159.5t20.5 -155.5t41.5 -133.5q10 -23 25.5 -47t35 -45.5t41 -38t45.5 -20.5q6 -2 17 -2q12 0 29.5 3t37 9t35.5 13.5t25 15.5q10 8 16 19.5t14 21.5q41 59 66.5 132t39 150.5t18.5 156.5 t5 151q0 57 -2 141t-11 171t-25.5 167t-43.5 129q-8 14 -16 26.5t-18 24.5q-23 31 -43.5 47.5t-61.5 16.5q-29 0 -55.5 -12.5t-48.5 -28.5q-16 -12 -31.5 -24.5t-32.5 -29.5q-39 -39 -63.5 -109.5t-39 -151.5t-20.5 -159.5t-6 -132.5v-145.5zM305 1761q0 27 12 39 q6 6 31 29.5t52.5 49.5t51 46.5t29.5 24.5q12 6 29 6q25 0 42 -16.5t17 -43.5q0 -18 -8 -28q-4 -8 -28.5 -30.5t-53 -48.5t-54.5 -47.5t-34 -27.5q-11 -8 -29 -8q-25 0 -41 15.5t-16 39.5z" />
<glyph unicode="&#xf4;" horiz-adv-x="897" d="M14 872v28.5t2 31.5q6 88 15.5 179t34 177t70.5 160t128 127q35 23 81 43t87 20q84 0 141.5 -47t96.5 -121.5t60.5 -168t31.5 -187.5t12 -179t2 -142q0 -59 -5 -117t-11 -115q-10 -84 -30.5 -182t-62.5 -182t-113 -140.5t-179 -56.5q-76 0 -139 45q-57 39 -98.5 105.5 t-67 142.5t-36.5 154.5t-11 144.5q0 70 -4.5 139t-4.5 141zM135 722.5q0 -79.5 6 -159.5t20.5 -155.5t41.5 -133.5q10 -23 25.5 -47t35 -45.5t41 -38t45.5 -20.5q6 -2 17 -2q12 0 29.5 3t37 9t35.5 13.5t25 15.5q10 8 16 19.5t14 21.5q41 59 66.5 132t39 150.5t18.5 156.5 t5 151q0 57 -2 141t-11 171t-25.5 167t-43.5 129q-8 14 -16 26.5t-18 24.5q-23 31 -43.5 47.5t-61.5 16.5q-29 0 -55.5 -12.5t-48.5 -28.5q-16 -12 -31.5 -24.5t-32.5 -29.5q-39 -39 -63.5 -109.5t-39 -151.5t-20.5 -159.5t-6 -132.5v-145.5zM231 1749q0 8 16.5 40t39 68.5 t43 70.5t30.5 44q20 25 50 25q23 0 54.5 -31t61 -72t50 -83t20.5 -64q0 -23 -15 -39t-38 -16t-41.5 16t-32.5 40t-25.5 49.5t-23.5 41.5q-10 -16 -23.5 -40.5t-30 -48.5t-35 -41t-36.5 -17q-23 0 -43.5 15t-20.5 42z" />
<glyph unicode="&#xf5;" horiz-adv-x="897" d="M14 872v28.5t2 31.5q6 88 15.5 179t34 177t70.5 160t128 127q35 23 81 43t87 20q84 0 141.5 -47t96.5 -121.5t60.5 -168t31.5 -187.5t12 -179t2 -142q0 -59 -5 -117t-11 -115q-10 -84 -30.5 -182t-62.5 -182t-113 -140.5t-179 -56.5q-76 0 -139 45q-57 39 -98.5 105.5 t-67 142.5t-36.5 154.5t-11 144.5q0 70 -4.5 139t-4.5 141zM133 1776q0 29 18.5 55.5t45 46.5t57.5 32.5t57 12.5q43 0 71 -17.5t48.5 -37t37.5 -36.5t40 -17q20 0 32.5 15t23.5 32.5t23.5 33t37.5 15.5q23 0 41 -15.5t18 -40.5q0 -31 -17.5 -59.5t-43 -51t-57 -35.5 t-60.5 -13q-43 0 -74 17.5t-52.5 36.5t-36.5 36.5t-28 17.5q-29 0 -45 -14t-27.5 -31.5t-22.5 -32t-30 -14.5q-25 0 -41 20.5t-16 43.5zM135 722.5q0 -79.5 6 -159.5t20.5 -155.5t41.5 -133.5q10 -23 25.5 -47t35 -45.5t41 -38t45.5 -20.5q6 -2 17 -2q12 0 29.5 3t37 9 t35.5 13.5t25 15.5q10 8 16 19.5t14 21.5q41 59 66.5 132t39 150.5t18.5 156.5t5 151q0 57 -2 141t-11 171t-25.5 167t-43.5 129q-8 14 -16 26.5t-18 24.5q-23 31 -43.5 47.5t-61.5 16.5q-29 0 -55.5 -12.5t-48.5 -28.5q-16 -12 -31.5 -24.5t-32.5 -29.5 q-39 -39 -63.5 -109.5t-39 -151.5t-20.5 -159.5t-6 -132.5v-145.5z" />
<glyph unicode="&#xf6;" horiz-adv-x="897" d="M14 872v28.5t2 31.5q6 88 15.5 179t34 177t70.5 160t128 127q35 23 81 43t87 20q84 0 141.5 -47t96.5 -121.5t60.5 -168t31.5 -187.5t12 -179t2 -142q0 -59 -5 -117t-11 -115q-10 -84 -30.5 -182t-62.5 -182t-113 -140.5t-179 -56.5q-76 0 -139 45q-57 39 -98.5 105.5 t-67 142.5t-36.5 154.5t-11 144.5q0 70 -4.5 139t-4.5 141zM135 722.5q0 -79.5 6 -159.5t20.5 -155.5t41.5 -133.5q10 -23 25.5 -47t35 -45.5t41 -38t45.5 -20.5q6 -2 17 -2q12 0 29.5 3t37 9t35.5 13.5t25 15.5q10 8 16 19.5t14 21.5q41 59 66.5 132t39 150.5t18.5 156.5 t5 151q0 57 -2 141t-11 171t-25.5 167t-43.5 129q-8 14 -16 26.5t-18 24.5q-23 31 -43.5 47.5t-61.5 16.5q-29 0 -55.5 -12.5t-48.5 -28.5q-16 -12 -31.5 -24.5t-32.5 -29.5q-39 -39 -63.5 -109.5t-39 -151.5t-20.5 -159.5t-6 -132.5v-145.5zM250 1774q0 29 18.5 51t48.5 22 q29 0 46.5 -19t17.5 -48t-18.5 -50.5t-49.5 -21.5q-29 0 -46 18.5t-17 47.5zM469 1774q0 29 18.5 51t49.5 22q29 0 46 -19t17 -48t-18.5 -50.5t-49.5 -21.5q-29 0 -46 18.5t-17 47.5z" />
<glyph unicode="&#xf7;" horiz-adv-x="835" d="M8 715q0 23 12.5 36t31 20t40 9t37.5 2q55 0 110.5 -2t110.5 -2q45 0 88 2t88 2h51t66 -5t56.5 -19.5t23.5 -40.5q0 -23 -14.5 -34t-34 -16t-42 -6.5t-36.5 -1.5q-35 0 -68.5 2.5t-68.5 2.5q-90 0 -178 -3.5t-179 -3.5q-12 0 -28.5 2.5t-30.5 8.5t-24.5 17t-10.5 30z M274 492l7 16l-2 2q4 25 21 43t46 18t46.5 -18t17.5 -47t-18.5 -52.5t-49.5 -23.5q-27 0 -45 18.5t-23 43.5zM274 944l7 17l-2 2q4 25 21 43t46 18t46.5 -18.5t17.5 -47.5t-18.5 -52t-49.5 -23q-27 0 -45 18.5t-23 42.5z" />
<glyph unicode="&#xf8;" horiz-adv-x="989" d="M18 842q0 98 9.5 208.5t40 214t88 190.5t155.5 138q35 16 77 32.5t79 16.5q12 0 24.5 -2t24.5 -4q4 29 16.5 55.5t47.5 26.5q29 0 44 -19.5t15 -45.5q0 -29 -10 -66q68 -61 106.5 -141t58 -168t26.5 -180t11 -178q2 -33 3.5 -65t1.5 -64q0 -59 -6.5 -117t-14.5 -115 q-12 -92 -34.5 -191.5t-67.5 -182.5t-119 -136t-188 -53q-29 0 -56 6q-4 -27 -15 -50.5t-42 -23.5q-25 0 -45.5 20.5t-20.5 45.5q0 14 3 29.5t8 29.5q-55 41 -94.5 103.5t-65 134t-37.5 146.5t-12 141t-5.5 132t-5.5 132zM141 877q0 -72 1 -164t11.5 -186.5t35 -179.5 t71.5 -144q29 141 50.5 281.5t43.5 281.5q33 190 70 375.5t72 374.5q-8 2 -14.5 3t-14.5 1q-33 0 -62.5 -13.5t-58.5 -31.5q-16 -10 -31.5 -23.5t-31.5 -28.5q-41 -37 -69 -106.5t-44 -149.5t-22.5 -157.5t-6.5 -132.5zM367 123q20 -4 30 -4q12 0 32 3t40 8t38.5 12.5 t29.5 15.5q55 49 88.5 128t52 169t26 180t7.5 158q0 59 -3 149t-14.5 183.5t-34 177t-59.5 129.5q-63 -328 -120.5 -653.5t-112.5 -655.5z" />
<glyph unicode="&#xf9;" horiz-adv-x="856" d="M4 1469.5q-2 37.5 2 74.5t18.5 63.5t45.5 26.5q35 0 50 -27.5t15 -56.5q0 -31 -4 -61.5t-4 -61.5q0 -154 7 -308t7 -310q0 -61 2 -122.5t4 -125.5q0 -57 3.5 -132t24 -142.5t63.5 -114.5t124 -47q57 0 94.5 23.5t65.5 70.5q39 61 45 142t8 151q4 250 13.5 497.5 t9.5 495.5q0 16 -1 39t2 44.5t14.5 35.5t35.5 14q43 0 55.5 -33.5t12.5 -68.5q0 -262 -5 -520t-14 -520q0 -41 -4 -90.5t-13 -97.5t-24.5 -93t-40.5 -78q-29 -41 -57.5 -67.5t-60 -42t-69.5 -21.5t-85 -6q-80 0 -134 38t-101 99q-25 33 -40.5 78t-24.5 93t-13 97.5t-4 90.5 q-4 180 -4 359t-9 359q-4 49 -6 98.5t-2 96.5q0 23 -2 60.5zM193 1886q0 25 17 42.5t42 17.5q10 0 31 -9q4 -2 27.5 -22.5t51 -46t52 -49t30.5 -29.5q12 -12 13 -37q0 -27 -14.5 -43t-41.5 -16q-20 0 -30 10q-8 6 -34 27.5t-54.5 47t-53 48t-28.5 31.5q-8 16 -8 28z" />
<glyph unicode="&#xfa;" horiz-adv-x="856" d="M4 1469.5q-2 37.5 2 74.5t18.5 63.5t45.5 26.5q35 0 50 -27.5t15 -56.5q0 -31 -4 -61.5t-4 -61.5q0 -154 7 -308t7 -310q0 -61 2 -122.5t4 -125.5q0 -57 3.5 -132t24 -142.5t63.5 -114.5t124 -47q57 0 94.5 23.5t65.5 70.5q39 61 45 142t8 151q4 250 13.5 497.5 t9.5 495.5q0 16 -1 39t2 44.5t14.5 35.5t35.5 14q43 0 55.5 -33.5t12.5 -68.5q0 -262 -5 -520t-14 -520q0 -41 -4 -90.5t-13 -97.5t-24.5 -93t-40.5 -78q-29 -41 -57.5 -67.5t-60 -42t-69.5 -21.5t-85 -6q-80 0 -134 38t-101 99q-25 33 -40.5 78t-24.5 93t-13 97.5t-4 90.5 q-4 180 -4 359t-9 359q-4 49 -6 98.5t-2 96.5q0 23 -2 60.5zM285 1720q0 27 12 39q6 6 30.5 29.5t52.5 49.5t51.5 46.5t29.5 24.5q12 6 28 6q25 0 42.5 -16.5t17.5 -43.5q0 -18 -8 -28q-4 -8 -29 -30.5t-53.5 -48.5t-54 -47.5t-33.5 -27.5q-11 -8 -29 -8q-25 0 -41 15.5 t-16 39.5z" />
<glyph unicode="&#xfb;" horiz-adv-x="856" d="M4 1469.5q-2 37.5 2 74.5t18.5 63.5t45.5 26.5q35 0 50 -27.5t15 -56.5q0 -31 -4 -61.5t-4 -61.5q0 -154 7 -308t7 -310q0 -61 2 -122.5t4 -125.5q0 -57 3.5 -132t24 -142.5t63.5 -114.5t124 -47q57 0 94.5 23.5t65.5 70.5q39 61 45 142t8 151q4 250 13.5 497.5 t9.5 495.5q0 16 -1 39t2 44.5t14.5 35.5t35.5 14q43 0 55.5 -33.5t12.5 -68.5q0 -262 -5 -520t-14 -520q0 -41 -4 -90.5t-13 -97.5t-24.5 -93t-40.5 -78q-29 -41 -57.5 -67.5t-60 -42t-69.5 -21.5t-85 -6q-80 0 -134 38t-101 99q-25 33 -40.5 78t-24.5 93t-13 97.5t-4 90.5 q-4 180 -4 359t-9 359q-4 49 -6 98.5t-2 96.5q0 23 -2 60.5zM170 1769q0 8 16.5 40t39 69t43 70.5t30.5 44.5q20 25 49 24q23 0 54.5 -30.5t61.5 -71.5t50.5 -83t20.5 -65t-15.5 -39t-38.5 -16t-41 16.5t-32.5 40t-25.5 49t-24 42.5q-10 -16 -23 -41t-29.5 -48.5t-35 -41 t-37.5 -17.5q-23 0 -43 15.5t-20 41.5z" />
<glyph unicode="&#xfc;" horiz-adv-x="856" d="M4 1469.5q-2 37.5 2 74.5t18.5 63.5t45.5 26.5q35 0 50 -27.5t15 -56.5q0 -31 -4 -61.5t-4 -61.5q0 -154 7 -308t7 -310q0 -61 2 -122.5t4 -125.5q0 -57 3.5 -132t24 -142.5t63.5 -114.5t124 -47q57 0 94.5 23.5t65.5 70.5q39 61 45 142t8 151q4 250 13.5 497.5 t9.5 495.5q0 16 -1 39t2 44.5t14.5 35.5t35.5 14q43 0 55.5 -33.5t12.5 -68.5q0 -262 -5 -520t-14 -520q0 -41 -4 -90.5t-13 -97.5t-24.5 -93t-40.5 -78q-29 -41 -57.5 -67.5t-60 -42t-69.5 -21.5t-85 -6q-80 0 -134 38t-101 99q-25 33 -40.5 78t-24.5 93t-13 97.5t-4 90.5 q-4 180 -4 359t-9 359q-4 49 -6 98.5t-2 96.5q0 23 -2 60.5zM188 1753q0 29 18.5 51.5t49.5 22.5q29 0 46 -19.5t17 -48.5t-18 -50t-49 -21q-29 0 -46.5 18t-17.5 47zM408 1753q0 29 18 51.5t49 22.5q29 0 46.5 -19.5t17.5 -48.5t-18.5 -50t-49.5 -21q-29 0 -46 18t-17 47z " />
<glyph unicode="&#xfd;" horiz-adv-x="757" d="M-74 1581q0 23 15.5 39t40.5 16q37 0 59 -28q6 -8 25.5 -53.5t46 -112t56.5 -143t56.5 -148.5t48 -128t31.5 -81q53 129 102.5 260t94.5 264q10 31 17 63t20 60q8 20 23.5 34.5t37.5 14.5q27 0 43 -18t16 -45q0 -23 -11 -47.5t-19 -46.5q-33 -94 -65 -188.5t-66 -190.5 q-23 -63 -50.5 -125t-50.5 -127q-8 -23 -20 -48.5t-12 -49.5q0 -59 3 -116.5t3 -117.5q0 -41 -2 -80t-2 -80q0 -23 2 -74t2 -106t-4.5 -102t-16.5 -62q-14 -14 -35 -14q-25 0 -38 10t-19 26.5t-7 35t-1 37.5v229v215t-2 213q-27 51 -47.5 113.5t-42.5 117.5 q-47 115 -89 230.5t-92 228.5q-4 10 -13 27.5t-17 36t-14.5 35t-6.5 26.5zM203 1720q0 27 12 39q6 6 30.5 29.5t52.5 49.5t51.5 46.5t29.5 24.5q12 6 29 6q25 0 42 -16.5t17 -43.5q0 -18 -8 -28q-4 -8 -28.5 -30.5t-53.5 -48.5t-54.5 -47.5t-33.5 -27.5q-11 -8 -29 -8 q-25 0 -41 15.5t-16 39.5z" />
<glyph unicode="&#xfe;" horiz-adv-x="655" d="M23 80q0 211 1 418t1 417q0 123 5 243t5 243q0 41 -4 83t-4 83q0 27 14 48t43 21q31 0 46 -27.5t19.5 -65.5t4.5 -75.5v-58.5q33 6 64.5 7t64.5 1q90 0 139 -22.5t71.5 -65.5t26.5 -103.5t4 -133.5q0 -55 2 -144.5t-5 -180.5t-27.5 -168t-65.5 -107q-35 -23 -88 -32 t-94 -9q-55 0 -107 6v-68q0 -78 3 -157.5t3 -159.5q0 -31 -14 -54l-18 -12l-25 -8l-25 2q-23 12 -31.5 33.5t-8.5 46.5zM145 575q43 -6 88 -6q12 0 33 1t42.5 5.5t39 10.5t23.5 18q10 16 16 57t10 87.5t5 89.5t1 65v74.5v113t-2 106.5t-4 58q-10 29 -39.5 36t-52.5 7 q-78 0 -153 -12q-2 -147 -4.5 -294.5t-2.5 -295.5v-121z" />
<glyph unicode="&#xff;" horiz-adv-x="757" d="M-74 1581q0 23 15.5 39t40.5 16q37 0 59 -28q6 -8 25.5 -53.5t46 -112t56.5 -143t56.5 -148.5t48 -128t31.5 -81q53 129 102.5 260t94.5 264q10 31 17 63t20 60q8 20 23.5 34.5t37.5 14.5q27 0 43 -18t16 -45q0 -23 -11 -47.5t-19 -46.5q-33 -94 -65 -188.5t-66 -190.5 q-23 -63 -50.5 -125t-50.5 -127q-8 -23 -20 -48.5t-12 -49.5q0 -59 3 -116.5t3 -117.5q0 -41 -2 -80t-2 -80q0 -23 2 -74t2 -106t-4.5 -102t-16.5 -62q-14 -14 -35 -14q-25 0 -38 10t-19 26.5t-7 35t-1 37.5v229v215t-2 213q-27 51 -47.5 113.5t-42.5 117.5 q-47 115 -89 230.5t-92 228.5q-4 10 -13 27.5t-17 36t-14.5 35t-6.5 26.5zM106 1753q0 29 18.5 51.5t49.5 22.5q29 0 46.5 -19.5t17.5 -48.5t-18.5 -50t-49.5 -21q-29 0 -46.5 18t-17.5 47zM326 1753q0 29 18 51.5t49 22.5q29 0 46.5 -19.5t17.5 -48.5t-18.5 -50t-49.5 -21 q-29 0 -46 18t-17 47z" />
<glyph unicode="&#x152;" horiz-adv-x="1261" d="M0 690q0 98 2 201.5t23 200.5q8 39 21 95t33.5 116.5t47.5 121t61.5 107.5t77.5 76.5t94 29.5q68 0 131.5 -25.5t110.5 -72.5q4 27 16.5 55.5t47.5 28.5q80 0 157.5 4t155.5 4q27 0 53.5 1t50.5 1q27 0 46.5 -18.5t19.5 -42.5q0 -35 -28.5 -48.5t-59.5 -13.5 q-78 0 -157 -4t-156 -4h-35q-4 -35 -4 -71.5v-71.5q0 -74 8 -146.5t8 -144.5q0 -55 -3 -110.5t-13 -108.5h60t82 -1t79 -3t55 -8q18 -4 31.5 -19.5t13.5 -34.5q0 -29 -21.5 -45t-50.5 -16q-66 0 -133 3t-133 3q-10 -59 -28.5 -125.5t-22.5 -126.5q-4 -80 -7 -160.5 t-3 -162.5v-23q86 4 174 11.5t172 7.5q25 0 45 -11.5t20 -40.5q0 -39 -30 -57h2q-4 -4 -7 -5t-6 -3h-2q-2 0 -10 -4q-8 -2 -66.5 -6.5t-130 -7.5t-137 -6t-84.5 -3q-35 0 -48 28.5t-13 57.5q0 16 2 31.5t2 32.5v8q-29 -63 -77 -113.5t-124 -50.5h-6q-88 0 -134 42t-83 114 q-27 51 -44 119.5t-27.5 141t-14.5 144.5t-4 129zM117 717q0 -47 5 -134t20.5 -178.5t41 -167t68.5 -100.5q26 -16 65 -16q27 0 54.5 34.5t53.5 90t48.5 122t39.5 129t29.5 114t18.5 73.5q25 109 36 215.5t11 216.5q0 55 -6 119.5t-26.5 123t-60.5 102.5t-107 57q-8 2 -23 2 q-27 0 -53 -7l-25 -18q-25 -29 -40 -59.5t-31 -65.5q-41 -88 -65 -166t-36 -155.5t-15 -158.5t-3 -173zM995 70l4 -9l15 -8q4 8 4 13q0 6 -4 14q-6 -2 -19 -10z" />
<glyph unicode="&#x153;" horiz-adv-x="1261" d="M0 690q0 98 2 201.5t23 200.5q8 39 21 95t33.5 116.5t47.5 121t61.5 107.5t77.5 76.5t94 29.5q68 0 131.5 -25.5t110.5 -72.5q4 27 16.5 55.5t47.5 28.5q80 0 157.5 4t155.5 4q27 0 53.5 1t50.5 1q27 0 46.5 -18.5t19.5 -42.5q0 -35 -28.5 -48.5t-59.5 -13.5 q-78 0 -157 -4t-156 -4h-35q-4 -35 -4 -71.5v-71.5q0 -74 8 -146.5t8 -144.5q0 -55 -3 -110.5t-13 -108.5h60t82 -1t79 -3t55 -8q18 -4 31.5 -19.5t13.5 -34.5q0 -29 -21.5 -45t-50.5 -16q-66 0 -133 3t-133 3q-10 -59 -28.5 -125.5t-22.5 -126.5q-4 -80 -7 -160.5 t-3 -162.5v-23q86 4 174 11.5t172 7.5q25 0 45 -11.5t20 -40.5q0 -39 -30 -57h2q-4 -4 -7 -5t-6 -3h-2q-2 0 -10 -4q-8 -2 -66.5 -6.5t-130 -7.5t-137 -6t-84.5 -3q-35 0 -48 28.5t-13 57.5q0 16 2 31.5t2 32.5v8q-29 -63 -77 -113.5t-124 -50.5h-6q-88 0 -134 42t-83 114 q-27 51 -44 119.5t-27.5 141t-14.5 144.5t-4 129zM117 717q0 -47 5 -134t20.5 -178.5t41 -167t68.5 -100.5q26 -16 65 -16q27 0 54.5 34.5t53.5 90t48.5 122t39.5 129t29.5 114t18.5 73.5q25 109 36 215.5t11 216.5q0 55 -6 119.5t-26.5 123t-60.5 102.5t-107 57q-8 2 -23 2 q-27 0 -53 -7l-25 -18q-25 -29 -40 -59.5t-31 -65.5q-41 -88 -65 -166t-36 -155.5t-15 -158.5t-3 -173zM995 70l4 -9l15 -8q4 8 4 13q0 6 -4 14q-6 -2 -19 -10z" />
<glyph unicode="&#x178;" horiz-adv-x="794" d="M-33 1581q0 23 15.5 39t40.5 16q37 0 59 -28q6 -8 25.5 -53.5t46 -112t56.5 -143t56.5 -148.5t48 -128t31.5 -81q53 129 102.5 260t94.5 264q10 31 17 63t20 60q8 20 23 34.5t38 14.5q27 0 43 -18t16 -45q0 -23 -11 -47.5t-19 -46.5q-33 -94 -65 -188.5t-66 -190.5 q-23 -63 -50.5 -125t-50.5 -127q-8 -23 -20 -48.5t-12 -49.5q0 -59 3 -116.5t3 -117.5q0 -41 -2 -80t-2 -80q0 -23 2 -74t2 -106t-4.5 -102t-16.5 -62q-14 -14 -35 -14q-25 0 -38 10t-19 26.5t-7 35t-1 37.5v229v215t-2 213q-27 51 -47.5 113.5t-42.5 117.5 q-47 115 -89 230.5t-92 228.5q-4 10 -13 27.5t-17 36t-14.5 35t-6.5 26.5zM147 1753q0 29 18.5 51.5t49.5 22.5q29 0 46.5 -19.5t17.5 -48.5t-18.5 -50t-49.5 -21q-29 0 -46.5 18t-17.5 47zM367 1753q0 29 18 51.5t49 22.5q29 0 46.5 -19.5t17.5 -48.5t-18.5 -50t-49.5 -21 q-29 0 -46 18t-17 47z" />
<glyph unicode="&#x2c6;" horiz-adv-x="520" d="M27 1729q0 8 16 39.5t38.5 68.5t43 71t31.5 44q20 25 49 24q23 0 54.5 -30.5t61 -71.5t50 -83t20.5 -65t-15 -39t-38 -16t-41 16.5t-32.5 40t-26 49t-23.5 42.5q-10 -16 -23.5 -41t-30 -48.5t-34.5 -41t-37 -17.5q-23 0 -43 15.5t-20 42.5z" />
<glyph unicode="&#x2dc;" horiz-adv-x="673" d="M10 1776q0 29 18.5 55.5t45 46.5t57.5 32.5t57 12.5q43 0 71 -17.5t48.5 -37t37.5 -36.5t40 -17q20 0 32.5 15t24 32.5t23.5 33t37 15.5q23 0 41 -15.5t18 -40.5q0 -31 -17.5 -59.5t-43 -51t-57 -35.5t-60.5 -13q-43 0 -73.5 17.5t-52 36.5t-37 36.5t-27.5 17.5 q-29 0 -45.5 -14t-27.5 -31.5t-22.5 -32t-29.5 -14.5q-25 0 -41.5 20.5t-16.5 43.5z" />
<glyph unicode="&#x2000;" horiz-adv-x="1008" />
<glyph unicode="&#x2001;" horiz-adv-x="2017" />
<glyph unicode="&#x2002;" horiz-adv-x="1008" />
<glyph unicode="&#x2003;" horiz-adv-x="2017" />
<glyph unicode="&#x2004;" horiz-adv-x="672" />
<glyph unicode="&#x2005;" horiz-adv-x="504" />
<glyph unicode="&#x2006;" horiz-adv-x="336" />
<glyph unicode="&#x2007;" horiz-adv-x="336" />
<glyph unicode="&#x2008;" horiz-adv-x="252" />
<glyph unicode="&#x2009;" horiz-adv-x="403" />
<glyph unicode="&#x200a;" horiz-adv-x="112" />
<glyph unicode="&#x2010;" horiz-adv-x="876" d="M8 715q0 23 12.5 36t31 20t40 9t37.5 2q55 0 110.5 -2t110.5 -2q45 0 88 2t88 2h51t66 -5t56.5 -19.5t23.5 -40.5q0 -23 -14.5 -34t-34 -16t-42 -6.5t-36.5 -1.5q-35 0 -68.5 2.5t-68.5 2.5q-90 0 -178 -3.5t-179 -3.5q-12 0 -28.5 2.5t-30.5 8.5t-24.5 17t-10.5 30z" />
<glyph unicode="&#x2011;" horiz-adv-x="876" d="M8 715q0 23 12.5 36t31 20t40 9t37.5 2q55 0 110.5 -2t110.5 -2q45 0 88 2t88 2h51t66 -5t56.5 -19.5t23.5 -40.5q0 -23 -14.5 -34t-34 -16t-42 -6.5t-36.5 -1.5q-35 0 -68.5 2.5t-68.5 2.5q-90 0 -178 -3.5t-179 -3.5q-12 0 -28.5 2.5t-30.5 8.5t-24.5 17t-10.5 30z" />
<glyph unicode="&#x2012;" horiz-adv-x="876" d="M8 715q0 23 12.5 36t31 20t40 9t37.5 2q55 0 110.5 -2t110.5 -2q45 0 88 2t88 2h51t66 -5t56.5 -19.5t23.5 -40.5q0 -23 -14.5 -34t-34 -16t-42 -6.5t-36.5 -1.5q-35 0 -68.5 2.5t-68.5 2.5q-90 0 -178 -3.5t-179 -3.5q-12 0 -28.5 2.5t-30.5 8.5t-24.5 17t-10.5 30z" />
<glyph unicode="&#x2013;" horiz-adv-x="835" d="M8 715q0 23 12.5 36t31 20t40 9t37.5 2q55 0 110.5 -2t110.5 -2q45 0 88 2t88 2h51t66 -5t56.5 -19.5t23.5 -40.5q0 -23 -14.5 -34t-34 -16t-42 -6.5t-36.5 -1.5q-35 0 -68.5 2.5t-68.5 2.5q-90 0 -178 -3.5t-179 -3.5q-12 0 -28.5 2.5t-30.5 8.5t-24.5 17t-10.5 30z" />
<glyph unicode="&#x2014;" horiz-adv-x="1032" d="M8 715q0 23 12.5 36t31 20t40 9t37.5 2q55 0 110.5 -2t110.5 -2q23 0 73 1t107.5 1t107.5 1t73 1h51t65.5 -5t56 -19.5t23.5 -40.5q0 -23 -14 -34t-33.5 -16t-42 -6.5t-37.5 -1.5q-35 0 -68.5 2.5t-68.5 2.5q-45 0 -117.5 -1t-152.5 -2.5t-153 -2.5t-118 -1 q-12 0 -28.5 2.5t-30.5 8.5t-24.5 17t-10.5 30z" />
<glyph unicode="&#x2018;" horiz-adv-x="280" d="M10 1370q0 18 2 55t9.5 74t18.5 67.5t30 39.5q12 4 20 4q27 0 46.5 -18.5t19.5 -45.5q0 -43 -12.5 -89t-12.5 -93q0 -55 18.5 -94t18.5 -68q0 -23 -17.5 -41t-39.5 -18q-27 0 -45.5 27.5t-30.5 64.5t-18.5 75t-6.5 60z" />
<glyph unicode="&#x2019;" horiz-adv-x="280" d="M10 1202q0 29 18.5 68t18.5 94q0 47 -12 93t-12 89q0 27 19 45.5t46 18.5q8 0 21 -4q18 -8 29.5 -39t18.5 -68t9 -73.5t2 -55.5q0 -23 -6 -60.5t-18.5 -74.5t-31 -64.5t-44.5 -27.5q-23 0 -40.5 18t-17.5 41z" />
<glyph unicode="&#x201a;" horiz-adv-x="280" d="M10 -229q0 29 18.5 66.5t18.5 92.5q0 47 -12 94.5t-12 90.5q0 27 19 45t46 18q8 0 21 -4q18 -8 29.5 -39t18.5 -68.5t9 -73.5t2 -54q0 -23 -6 -61t-18.5 -74.5t-31 -64.5t-44.5 -28q-23 0 -40.5 18.5t-17.5 41.5z" />
<glyph unicode="&#x201c;" horiz-adv-x="471" d="M16 1563q0 31 12.5 55t47.5 24q33 0 46 -22.5t13 -50.5q0 -41 2 -82t2 -82v-47v-41l-10 -21l-20 -20l-23 -8h-12l-23 8l-20 20l-11 23q2 61 -1 122.5t-3 121.5zM223 1563q0 31 12.5 55t49.5 24q31 0 44 -22.5t13 -50.5q0 -41 2 -82t2 -82v-47v-41l-10 -21l-21 -20l-20 -8 h-14l-23 8l-20 20l-9 23q2 61 -2 122.5t-4 121.5z" />
<glyph unicode="&#x201d;" horiz-adv-x="471" d="M16 1317v41v47q0 41 2 82t2 82q0 29 12.5 51t45.5 22q37 0 49 -24.5t12 -54.5q0 -59 -4 -121t-2 -123l-8 -23l-21 -20l-22 -8h-14l-23 8l-18 20zM223 1317v41v47q0 41 2 82t2 82q0 29 13.5 51t44.5 22q37 0 49 -24.5t12 -54.5q0 -59 -4 -121t-2 -123l-8 -23l-21 -20 l-22 -8h-15l-20 8l-21 20z" />
<glyph unicode="&#x201e;" horiz-adv-x="471" d="M16 -70q0 41 2 82t2 82q0 29 12.5 51.5t45.5 22.5q37 0 49 -24.5t12 -55.5q0 -59 -4 -120.5t-2 -121.5l-8 -24l-21 -21l-22 -8h-14l-23 8l-18 21l-11 20v41v47zM223 -70q0 41 2 82t2 82q0 29 13.5 51.5t44.5 22.5q37 0 49 -24.5t12 -55.5q0 -59 -4 -120.5t-2 -121.5 l-8 -24l-21 -21l-22 -8h-15l-20 8l-21 21l-10 20v41v47z" />
<glyph unicode="&#x2022;" horiz-adv-x="342" d="M6 856q0 41 34 71.5t75 30.5q43 0 65.5 -28.5t22.5 -69.5t-25 -79t-72 -38q-43 0 -71.5 36t-28.5 77z" />
<glyph unicode="&#x2026;" horiz-adv-x="921" d="M20 78l5 16l-2 2q4 25 22 43.5t47 18.5t46.5 -18.5t17.5 -47.5t-18.5 -52.5t-49.5 -23.5q-27 0 -45 18.5t-23 43.5zM309 78l6 16l-2 2q4 25 22.5 43.5t45.5 18.5q29 0 46 -18.5t17 -47.5t-17 -52.5t-50 -23.5q-27 0 -45.5 18.5t-22.5 43.5zM623 78l4 16l-2 2 q6 25 23.5 43.5t45.5 18.5q29 0 46.5 -18.5t17.5 -47.5t-18.5 -52.5t-49.5 -23.5q-27 0 -45 18.5t-22 43.5z" />
<glyph unicode="&#x202f;" horiz-adv-x="403" />
<glyph unicode="&#x2039;" horiz-adv-x="497" d="M4 555q0 25 27.5 62.5t63.5 75.5t73 74t55 58q14 16 28.5 31.5t39.5 15.5h4q27 0 41 -17t14 -42q0 -20 -6 -33q-6 -10 -32.5 -40.5t-59.5 -64.5t-63.5 -65.5t-43.5 -44.5q14 -16 47 -52t68 -76t61.5 -75.5t26.5 -54.5q0 -23 -18 -38t-41 -15q-16 0 -28.5 8t-22.5 19 q-14 14 -52.5 53t-78 83t-71.5 84t-32 54z" />
<glyph unicode="&#x203a;" horiz-adv-x="485" d="M4 307q0 18 26.5 54t61.5 76t69 76t48 52l-44 44t-64.5 66t-59.5 64.5t-31 40.5q-4 6 -5 15.5t-1 17.5q0 25 13.5 42t39.5 17h6q23 0 38.5 -15t29.5 -32q18 -23 54 -58.5t73 -73.5t64.5 -75.5t27.5 -62.5q0 -14 -31.5 -54t-71.5 -84t-78 -83t-52 -53q-10 -10 -24 -18.5 t-30 -8.5q-20 0 -39.5 15.5t-19.5 37.5z" />
<glyph unicode="&#x205f;" horiz-adv-x="504" />
<glyph unicode="&#x20ac;" horiz-adv-x="997" d="M20 639q0 29 21.5 43t50.5 20.5t59.5 6.5t49.5 2q2 27 4 51t4 51q-23 0 -53.5 -3t-59 2t-48 19.5t-19.5 49.5q0 29 20.5 41t44.5 12q14 0 27.5 -2t28.5 -2q20 0 38.5 1t36.5 3q18 80 46 160t66 154.5t89 140t119 118.5q39 31 81 48.5t85 37.5q16 8 32.5 16.5t34.5 8.5 q25 0 43.5 -16.5t18.5 -40.5q0 -33 -26 -47.5t-50 -22.5q-68 -23 -130.5 -65t-103.5 -101q-59 -88 -108 -181t-74 -198q29 6 56.5 8t58.5 2q16 0 33.5 2.5t33.5 4.5q51 4 100.5 8t100.5 4q31 0 60.5 -12.5t29.5 -51.5q0 -20 -12 -34q-16 -20 -43 -23.5t-49 -3.5 q-98 0 -194.5 -9.5t-194.5 -17.5q-4 -27 -6.5 -52.5t-4.5 -51.5q88 2 175.5 12t173.5 10q31 0 56.5 -16t25.5 -51q0 -14 -7 -23q-14 -23 -39.5 -28t-50.5 -5q-84 0 -164.5 -9t-164.5 -11q8 -53 26.5 -112.5t48 -116t66.5 -105.5t82 -80q12 -10 35.5 -23.5t48 -25.5t47 -23.5 t37.5 -13.5q39 -6 39 -41q0 -18 -11.5 -35.5t-21.5 -31.5l-31 -10q-53 10 -90 32.5t-82 48.5q-68 41 -122 99.5t-94 129t-64.5 147.5t-32.5 155q-27 -4 -52.5 -8t-52.5 -4q-29 0 -53.5 12t-24.5 47z" />
<glyph unicode="&#x2122;" horiz-adv-x="1316" d="M4 1552q0 35 25.5 49.5t54.5 14.5q37 0 74 -1t73 1q8 6 25 6q16 0 25 -4q37 4 72.5 1t70.5 -3q16 0 37.5 2t40 -1t32 -14.5t13.5 -35.5q0 -25 -15.5 -38t-38 -19.5t-47 -7.5t-40.5 -1q-10 0 -20.5 3t-20.5 3q-12 0 -25.5 -1t-26.5 -3q2 -33 2 -64.5v-64.5q0 -111 -7 -219 t-7 -219v-34.5t-5 -34t-16.5 -27t-33.5 -11.5q-25 0 -41.5 20.5t-16.5 43.5q0 139 6.5 275.5t6.5 275.5v57q-39 -2 -77 -2t-75 4l-18 10l-19 19zM583 1432.5q-1 42.5 3 84.5t18 73.5t43 31.5q33 0 50.5 -29.5t25.5 -56.5q35 -104 67.5 -208.5t63.5 -211.5q35 121 74 237.5 t80 233.5l2 4q6 14 18 24.5t29 10.5q27 0 45 -25.5t18 -50.5q0 -92 8.5 -181t8.5 -181q0 -72 5 -141.5t5 -141.5q0 -27 -13.5 -51.5t-41.5 -24.5q-25 0 -42.5 17.5t-17.5 42.5q0 96 -4 191.5t-8 189.5q-25 -78 -52.5 -159t-43.5 -161q-4 -14 -8.5 -32.5t-11.5 -35 t-20.5 -27.5t-31.5 -11q-10 0 -27 8q-23 10 -30 31.5t-11 44.5q-12 78 -37.5 152.5t-48.5 150.5q0 -23 2 -81t2 -121.5t-3 -117t-13 -65.5q-16 -18 -43 -19q-27 0 -41 17.5t-14 42.5q0 123 -2 241.5t-2 241.5q0 20 -1 62.5z" />
<glyph unicode="&#x25fc;" horiz-adv-x="1638" d="M0 0v1638h1638v-1638h-1638z" />
<glyph unicode="&#xfb01;" horiz-adv-x="1069" d="M33 1569q0 33 23.5 48t52.5 15q72 0 144.5 3t145.5 3q29 0 57.5 -2t57.5 -2h33.5t35 -4t27 -15t11.5 -36q0 -41 -30 -53.5t-65 -12.5q-53 0 -103 2.5t-104 2.5q-41 0 -80.5 -2.5t-80.5 -4.5q6 -121 3 -239.5t-3 -239.5q0 -45 1 -90t3 -92q88 4 176 4h176q27 0 54.5 -14.5 t27.5 -46.5q0 -31 -17.5 -44.5t-43 -16.5t-53 -1t-46.5 2q-23 -2 -47 -3t-47 -1q-45 0 -89 2t-89 -2v-178q0 -115 2 -228.5t2 -230.5q0 -29 -10.5 -60.5t-46.5 -31.5q-43 0 -57.5 31.5t-14.5 66.5q0 86 2 171t2 171q0 166 -3 333t-3 333q0 66 2 132.5t2 131.5q0 51 -4 100.5 t-4 98.5zM754 621q0 217 6 431t6 431q0 16 -2 42.5t2 51.5t16.5 43t40.5 18q39 0 51.5 -32.5t12.5 -63.5q0 -260 -7.5 -516t-7.5 -518q0 -104 2.5 -209.5t2.5 -212.5q0 -18 -4.5 -37.5t-18.5 -34.5q-14 -14 -35 -14q-39 0 -49 30.5t-10 59.5q0 135 -3 266.5t-3 264.5z" />
<glyph unicode="&#xfb02;" horiz-adv-x="1458" d="M33 1569q0 33 23.5 48t52.5 15q72 0 144.5 3t145.5 3q29 0 57.5 -2t57.5 -2h33.5t35 -4t27 -15t11.5 -36q0 -41 -30 -53.5t-65 -12.5q-53 0 -103 2.5t-104 2.5q-41 0 -80.5 -2.5t-80.5 -4.5q6 -121 3 -239.5t-3 -239.5q0 -45 1 -90t3 -92q88 4 176 4h176q27 0 54.5 -14.5 t27.5 -46.5q0 -31 -17.5 -44.5t-43 -16.5t-53 -1t-46.5 2q-23 -2 -47 -3t-47 -1q-45 0 -89 2t-89 -2v-178q0 -115 2 -228.5t2 -230.5q0 -29 -10.5 -60.5t-46.5 -31.5q-43 0 -57.5 31.5t-14.5 66.5q0 86 2 171t2 171q0 166 -3 333t-3 333q0 66 2 132.5t2 131.5q0 51 -4 100.5 t-4 98.5zM776 335.5v276.5q0 217 5 432.5t5 432.5q0 16 -1 43.5t3.5 53t18.5 45t43 19.5q18 0 33 -14q12 -12 18 -52t7 -86t0 -90t-1 -65q0 -193 -6 -382t-6 -382q0 -113 1 -223.5t3 -222.5q86 2 173 4t173 -2q23 0 37 -6t27 -27q10 -16 10 -35q0 -29 -22.5 -40t-47.5 -11 q-98 0 -193 -2t-192 -2q-31 0 -56.5 12.5t-27.5 46.5q-4 139 -4 276.5z" />
<glyph unicode="&#xfb03;" horiz-adv-x="1888" d="M33 1569q0 33 23.5 48t52.5 15q72 0 144.5 3t145.5 3q29 0 57.5 -2t57.5 -2h33.5t35 -4t27 -15t11.5 -36q0 -41 -30 -53.5t-65 -12.5q-53 0 -103 2.5t-104 2.5q-41 0 -80.5 -2.5t-80.5 -4.5q6 -121 3 -239.5t-3 -239.5q0 -45 1 -90t3 -92q88 4 176 4h176q27 0 54.5 -14.5 t27.5 -46.5q0 -31 -17.5 -44.5t-43 -16.5t-53 -1t-46.5 2q-23 -2 -47 -3t-47 -1q-45 0 -89 2t-89 -2v-178q0 -115 2 -228.5t2 -230.5q0 -29 -10.5 -60.5t-46.5 -31.5q-43 0 -57.5 31.5t-14.5 66.5q0 86 2 171t2 171q0 166 -3 333t-3 333q0 66 2 132.5t2 131.5q0 51 -4 100.5 t-4 98.5zM784 1569q0 33 23.5 48t52.5 15q72 0 144.5 3t146.5 3q29 0 57.5 -2t57.5 -2h33.5t35 -4t26.5 -15t11 -36q0 -41 -29.5 -53.5t-64.5 -12.5q-53 0 -103.5 2.5t-103.5 2.5q-41 0 -81 -2.5t-81 -4.5q6 -121 3 -239.5t-3 -239.5q0 -45 1 -90t3 -92q88 4 176.5 4h176.5 q27 0 54.5 -14.5t27.5 -46.5q0 -31 -17.5 -44.5t-43 -16.5t-53.5 -1t-46 2q-23 -2 -47.5 -3t-46.5 -1q-45 0 -89 2t-90 -2v-178q0 -115 2.5 -228.5t2.5 -230.5q0 -29 -10.5 -60.5t-47.5 -31.5q-43 0 -57 31.5t-14 66.5q0 86 2 171t2 171q0 166 -3.5 333t-3.5 333 q0 66 2.5 132.5t2.5 131.5q0 51 -4.5 100.5t-4.5 98.5zM1581 621q0 217 6 431t6 431q0 16 -2 42.5t2 51.5t16.5 43t41.5 18q39 0 51 -32.5t12 -63.5q0 -260 -7 -516t-7 -518q0 -104 1 -209.5t3 -212.5q0 -18 -5 -37.5t-18 -34.5q-18 -14 -34 -14q-39 0 -49.5 30.5 t-10.5 59.5q0 133 -3 265.5t-3 265.5z" />
<glyph unicode="&#xfb04;" horiz-adv-x="2201" d="M33 1569q0 33 23.5 48t52.5 15q72 0 144.5 3t145.5 3q29 0 57.5 -2t57.5 -2h33.5t35 -4t27 -15t11.5 -36q0 -41 -30 -53.5t-65 -12.5q-53 0 -103 2.5t-104 2.5q-41 0 -80.5 -2.5t-80.5 -4.5q6 -121 3 -239.5t-3 -239.5q0 -45 1 -90t3 -92q88 4 176 4h176q27 0 54.5 -14.5 t27.5 -46.5q0 -31 -17.5 -44.5t-43 -16.5t-53 -1t-46.5 2q-23 -2 -47 -3t-47 -1q-45 0 -89 2t-89 -2v-178q0 -115 2 -228.5t2 -230.5q0 -29 -10.5 -60.5t-46.5 -31.5q-43 0 -57.5 31.5t-14.5 66.5q0 86 2 171t2 171q0 166 -3 333t-3 333q0 66 2 132.5t2 131.5q0 51 -4 100.5 t-4 98.5zM784 1569q0 33 23.5 48t52.5 15q72 0 144.5 3t146.5 3q29 0 57.5 -2t57.5 -2h33.5t35 -4t26.5 -15t11 -36q0 -41 -29.5 -53.5t-64.5 -12.5q-53 0 -103.5 2.5t-103.5 2.5q-41 0 -81 -2.5t-81 -4.5q6 -121 3 -239.5t-3 -239.5q0 -45 1 -90t3 -92q88 4 176.5 4h176.5 q27 0 54.5 -14.5t27.5 -46.5q0 -31 -17.5 -44.5t-43 -16.5t-53.5 -1t-46 2q-23 -2 -47.5 -3t-46.5 -1q-45 0 -89 2t-90 -2v-178q0 -115 2.5 -228.5t2.5 -230.5q0 -29 -10.5 -60.5t-47.5 -31.5q-43 0 -57 31.5t-14 66.5q0 86 2 171t2 171q0 166 -3.5 333t-3.5 333 q0 66 2.5 132.5t2.5 131.5q0 51 -4.5 100.5t-4.5 98.5zM1530 335.5v276.5q0 217 5 432.5t5 432.5q0 16 -1 43.5t3 53t18.5 45t43.5 19.5q18 0 32 -14q12 -12 18.5 -52t7.5 -86t0 -90t-1 -65q0 -193 -6 -382t-6 -382q0 -113 1 -223.5t3 -222.5q86 2 173 4t173 -2q23 0 37 -6 t26 -27q10 -16 11 -35q0 -29 -22.5 -40t-47.5 -11q-98 0 -193.5 -2t-191.5 -2q-31 0 -56.5 12.5t-27.5 46.5q-4 139 -4 276.5z" />
</font>
</defs>
</svg>
